<?xml version="1.0" encoding="UTF-8"?>
<svg id="_01_logo_Farbe" data-name="01_logo Farbe" xmlns="http://www.w3.org/2000/svg" viewBox="0 0 136.4 136.4">
  <defs>
    <style>
      .cls-1 {
        fill: #fff;
      }

      .cls-1, .cls-2 {
        fill-rule: evenodd;
      }

      .cls-3, .cls-2 {
        fill: #00aeef;
      }
    </style>
  </defs>
  <g id="_01_logo" data-name="01_logo">
    <polyline points="0 0 136.4 0 136.4 136.4 0 136.4"/>
    <polygon class="cls-3" points="37.72 121.12 32.05 121.12 26.38 121.12 15.04 121.12 15.04 109.78 15.04 104.11 15.04 98.44 26.38 98.44 32.05 98.44 37.72 98.44 37.72 104.11 37.72 109.78 37.72 121.12"/>
    <g id="Selected_Items" data-name="Selected Items">
      <path class="cls-1" d="m37.74,81.81c0,3.54-.18,6.99-.53,10.36-.12.02-.25.04-.39.04-3.54.38-7.14.57-10.82.57s-6.99-.18-10.36-.53c-.02-.07-.04-.15-.04-.25-.38-3.44-.57-6.96-.57-10.54s.19-7.26.57-10.75c3.56-.35,7.2-.55,10.92-.6,3.61.03,7.14.21,10.61.57.02.12.04.25.04.39.38,3.49.57,7.07.57,10.75Z"/>
    </g>
    <g id="Selected_Items-2" data-name="Selected Items">
      <path class="cls-1" d="m66.06,110.16c0,3.54-.18,6.99-.53,10.36-.12.02-.25.04-.39.04-3.54.38-7.14.57-10.82.57s-6.99-.18-10.36-.53c-.02-.07-.04-.15-.04-.25-.38-3.44-.57-6.95-.57-10.54s.19-7.26.57-10.75c3.56-.35,7.2-.55,10.92-.6,3.61.03,7.14.21,10.61.57.02.12.04.25.04.39.38,3.49.57,7.07.57,10.75Z"/>
    </g>
    <g id="Selected_Items-3" data-name="Selected Items">
      <path class="cls-1" d="m37.72,53.39c-.02,3.42-.38,6.69-1.06,9.83-.12.02-.24.05-.35.07-3.25.75-6.67,1.13-10.25,1.13-3.44,0-6.73-.34-9.86-1.03-.02-.12-.05-.21-.07-.28-.73-3.18-1.1-6.52-1.1-10s.37-6.99,1.1-10.22c3.3-.71,6.76-1.08,10.39-1.13,3.49,0,6.82.34,10.01,1.03.02.12.05.24.07.35.75,3.25,1.13,6.67,1.13,10.25Z"/>
    </g>
    <g id="Selected_Items-4" data-name="Selected Items">
      <path class="cls-1" d="m94.43,110.07c-.02,3.42-.38,6.69-1.06,9.83-.12.03-.24.05-.35.07-3.25.75-6.67,1.13-10.25,1.13s-6.73-.34-9.86-1.03c-.02-.12-.05-.21-.07-.28-.73-3.18-1.1-6.52-1.1-10.01s.37-6.99,1.1-10.22c3.3-.71,6.76-1.08,10.39-1.13,3.49,0,6.82.34,10.01,1.03.02.12.05.23.07.35.75,3.25,1.13,6.67,1.13,10.25Z"/>
    </g>
    <g id="Selected_Items-5" data-name="Selected Items">
      <path class="cls-2" d="m66.08,81.73c-.02,3.42-.38,6.69-1.06,9.83-.12.03-.24.05-.35.07-3.25.75-6.67,1.13-10.25,1.13s-6.73-.34-9.86-1.03c-.02-.12-.05-.21-.07-.28-.73-3.18-1.1-6.52-1.1-10.01s.37-6.99,1.1-10.22c3.3-.71,6.76-1.08,10.39-1.13,3.49,0,6.82.34,10.01,1.03.02.12.05.24.07.35.75,3.25,1.13,6.67,1.13,10.25Z"/>
    </g>
    <g id="Selected_Items-6" data-name="Selected Items">
      <path class="cls-1" d="m37.74,24.97c-.02,3.32-.54,6.44-1.56,9.33-.12.02-.22.06-.32.11-3.02,1.13-6.26,1.69-9.72,1.66-3.35,0-6.46-.52-9.33-1.56-.05-.09-.08-.18-.11-.25-1.11-2.95-1.66-6.12-1.66-9.51,0-3.44.55-6.66,1.66-9.65,3.02-1.08,6.27-1.65,9.76-1.7,3.39,0,6.55.52,9.48,1.55.05.09.08.2.11.32,1.13,3.02,1.7,6.25,1.7,9.69Z"/>
    </g>
    <g id="Selected_Items-7" data-name="Selected Items">
      <path class="cls-1" d="m66.08,53.32c-.02,3.32-.54,6.43-1.56,9.33-.12.02-.22.06-.32.11-3.02,1.13-6.26,1.69-9.72,1.66-3.35,0-6.46-.52-9.33-1.56-.05-.09-.08-.18-.11-.25-1.11-2.95-1.66-6.12-1.66-9.51,0-3.44.55-6.66,1.66-9.65,3.02-1.08,6.27-1.65,9.76-1.7,3.39,0,6.55.52,9.48,1.56.05.09.08.2.11.32,1.13,3.02,1.7,6.25,1.7,9.69Z"/>
    </g>
    <g id="Selected_Items-8" data-name="Selected Items">
      <path class="cls-1" d="m94.43,81.65c-.02,3.32-.54,6.44-1.56,9.34-.12.02-.22.06-.32.11-3.02,1.13-6.26,1.68-9.72,1.66-3.35,0-6.46-.52-9.33-1.56-.05-.09-.08-.18-.11-.25-1.11-2.95-1.66-6.12-1.66-9.51,0-3.44.55-6.66,1.66-9.65,3.02-1.08,6.27-1.65,9.76-1.7,3.39,0,6.55.52,9.48,1.55.05.1.08.2.11.32,1.13,3.02,1.7,6.25,1.7,9.69Z"/>
    </g>
    <g id="Selected_Items-9" data-name="Selected Items">
      <path class="cls-1" d="m122.78,110.01c-.02,3.32-.54,6.43-1.56,9.33-.12.02-.22.06-.32.11-3.02,1.13-6.26,1.69-9.72,1.66-3.35,0-6.46-.52-9.33-1.56-.05-.09-.08-.18-.11-.25-1.11-2.95-1.66-6.12-1.66-9.51,0-3.44.55-6.66,1.66-9.65,3.02-1.08,6.27-1.65,9.76-1.7,3.39,0,6.55.52,9.48,1.55.05.09.08.2.11.32,1.13,3.02,1.7,6.25,1.7,9.69Z"/>
    </g>
    <g id="Selected_Items-10" data-name="Selected Items">
      <path class="cls-1" d="m66.08,24.87c-.02,3.28-.72,6.23-2.09,8.88-.09.05-.19.09-.28.14-2.76,1.48-5.8,2.21-9.12,2.19-3.25,0-6.21-.7-8.87-2.09-.05-.05-.09-.12-.14-.21-1.49-2.71-2.22-5.73-2.19-9.05,0-3.3.74-6.33,2.23-9.09,2.73-1.46,5.79-2.2,9.16-2.23,3.25,0,6.24.7,8.94,2.09.05.09.09.19.14.28,1.48,2.76,2.23,5.79,2.23,9.09Z"/>
    </g>
    <g id="Selected_Items-11" data-name="Selected Items">
      <path class="cls-2" d="m94.43,53.2c-.02,3.28-.72,6.23-2.09,8.87-.09.05-.19.09-.28.14-2.76,1.49-5.8,2.22-9.12,2.19-3.25,0-6.21-.7-8.87-2.09-.05-.05-.09-.12-.14-.21-1.48-2.71-2.21-5.73-2.19-9.05,0-3.3.74-6.33,2.23-9.09,2.73-1.46,5.79-2.21,9.16-2.23,3.25,0,6.24.7,8.94,2.09.05.09.09.19.14.28,1.48,2.76,2.23,5.79,2.23,9.09Z"/>
    </g>
    <g id="Selected_Items-12" data-name="Selected Items">
      <path class="cls-1" d="m122.78,81.55c-.02,3.28-.72,6.23-2.09,8.88-.09.05-.19.09-.28.14-2.76,1.49-5.8,2.22-9.12,2.19-3.25,0-6.21-.7-8.87-2.09-.05-.05-.09-.12-.14-.21-1.48-2.71-2.21-5.73-2.19-9.05,0-3.3.74-6.33,2.23-9.09,2.73-1.46,5.79-2.21,9.16-2.23,3.25,0,6.24.7,8.94,2.09.05.1.09.19.14.28,1.48,2.76,2.23,5.79,2.23,9.09Z"/>
    </g>
    <g id="Selected_Items-13" data-name="Selected Items">
      <path class="cls-1" d="m94.43,24.78c-.05,3.16-.92,5.94-2.62,8.34-.1.05-.18.11-.25.18-2.47,1.86-5.33,2.78-8.56,2.76-3.16,0-5.95-.86-8.38-2.58-.05-.1-.11-.18-.18-.25-1.84-2.45-2.75-5.29-2.72-8.52,0-3.21.92-6.06,2.76-8.56,2.47-1.81,5.35-2.73,8.63-2.76,3.13-.02,5.92.83,8.34,2.55.05.09.11.18.18.25,1.86,2.52,2.79,5.39,2.79,8.59Z"/>
    </g>
    <g id="Selected_Items-14" data-name="Selected Items">
      <path class="cls-1" d="m122.78,53.13c-.05,3.16-.92,5.94-2.62,8.35-.1.05-.18.11-.25.18-2.47,1.86-5.33,2.78-8.56,2.76-3.16,0-5.95-.86-8.38-2.58-.05-.1-.11-.18-.18-.25-1.84-2.45-2.75-5.29-2.72-8.52,0-3.21.92-6.06,2.76-8.55,2.47-1.82,5.35-2.73,8.63-2.76,3.13-.02,5.92.82,8.34,2.54.05.09.11.18.18.25,1.86,2.52,2.79,5.38,2.79,8.59Z"/>
    </g>
    <circle class="cls-3" cx="111.42" cy="24.74" r="11.34"/>
  </g>
</svg>