<svg xmlns="http://www.w3.org/2000/svg" width="29" height="29" fill="none" viewBox="0 0 29 29">
  <path fill="#EDF0FB" d="M28.95 17.03v10.353h-6.002v-9.659c0-2.426-.868-4.082-3.04-4.082-1.659 0-2.646 1.116-3.08 2.195-.158.386-.199.923-.199 1.464v10.082h-6.003s.08-16.359 0-18.054h6.003v2.56l-.04.058h.04v-.059c.797-1.228 2.221-2.983 5.41-2.983 3.95 0 6.91 2.58 6.91 8.126ZM4.345.628C2.293.627.95 1.974.95 3.746c0 1.732 1.305 3.12 3.318 3.12h.04c2.093 0 3.395-1.387 3.395-3.12C7.662 1.973 6.4.626 4.346.626Zm-3.04 26.756h6V9.329h-6v18.054Z"></path>
</svg>