<?xml version="1.0" encoding="UTF-8" standalone="no"?>
<svg
   xmlns:dc="http://purl.org/dc/elements/1.1/"
   xmlns:cc="http://creativecommons.org/ns#"
   xmlns:rdf="http://www.w3.org/1999/02/22-rdf-syntax-ns#"
   xmlns:svg="http://www.w3.org/2000/svg"
   xmlns="http://www.w3.org/2000/svg"
   viewBox="0 0 4161.9868 2799.7334"
   height="2799.7334"
   width="4161.9868"
   xml:space="preserve"
   id="svg2"
   version="1.1"><metadata
     id="metadata8"><rdf:RDF><cc:Work
         rdf:about=""><dc:format>image/svg+xml</dc:format><dc:type
           rdf:resource="http://purl.org/dc/dcmitype/StillImage" /></cc:Work></rdf:RDF></metadata><defs
     id="defs6" /><g
     transform="matrix(1.3333333,0,0,-1.3333333,0,2799.7333)"
     id="g10"><g
       transform="scale(0.1)"
       id="g12"><g
         transform="scale(1.88309)"
         id="g14"><path
           id="path16"
           style="fill:#ffffff;fill-opacity:1;fill-rule:nonzero;stroke:none"
           d="M 16300,276.462 H 276.468 V 10874.4 H 16300 V 276.462" /></g><g
         transform="scale(1.91502)"
         id="g18"><path
           id="path20"
           style="fill:#000000;fill-opacity:1;fill-rule:nonzero;stroke:none"
           d="M 543.716,543.7 H 15756.3 v 9877.5 H 543.716 Z M 16300,0 H 0 V 10964.9 H 16300 V 0" /></g><g
         transform="scale(1.87282)"
         id="g22"><path
           id="path24"
           style="fill:#ffffff;fill-opacity:1;fill-rule:nonzero;stroke:none"
           d="M 16300,277.978 8337.98,7650.7 375.957,277.978 H 16300" /></g><g
         transform="scale(1.90735)"
         id="g26"><path
           id="path28"
           style="fill:#000000;fill-opacity:1;fill-rule:nonzero;stroke:none"
           d="M 6033.56,5146.09 1065.65,545.888 H 15308.4 L 10335.4,5150.76 8187.01,3205.65 Z M 369.15,0 C 256.842,0 155.99,68.7882 115.022,173.33 74.0413,277.926 101.288,396.886 183.697,473.223 L 5866.36,5735.29 8187.01,3850.58 10525.9,5718.41 16190.4,473.223 c 82.3,-76.337 109.6,-195.297 68.7,-299.893 C 16218.1,68.7882 16117.2,0 16004.9,0 H 369.15" /></g><g
         transform="scale(1.87282)"
         id="g30"><path
           id="path32"
           style="fill:#ffffff;fill-opacity:1;fill-rule:nonzero;stroke:none"
           d="M 16300,10915.5 8337.98,3542.74 375.957,10915.5 H 16300" /></g><g
         transform="scale(1.90735)"
         id="g34"><path
           id="path36"
           style="fill:#000000;fill-opacity:1;fill-rule:nonzero;stroke:none"
           d="M 1065.65,10444.9 8187.01,3850.58 15308.4,10444.9 Z M 8187.01,3205.65 c -66.53,0 -133.11,24.22 -185.44,72.67 L 183.697,10517.6 c -82.409,76.3 -109.6557,195.3 -68.675,299.8 40.968,104.6 141.82,173.4 254.128,173.4 H 16004.9 c 112.3,0 213.2,-68.8 254.2,-173.4 40.9,-104.5 13.6,-223.5 -68.7,-299.8 L 8372.45,3278.32 c -52.32,-48.45 -118.85,-72.67 -185.44,-72.67" /></g></g></g></svg>