<?xml version="1.0" standalone="no"?>
<!DOCTYPE svg PUBLIC "-//W3C//DTD SVG 1.1//EN" "http://www.w3.org/Graphics/SVG/1.1/DTD/svg11.dtd" >
<svg xmlns="http://www.w3.org/2000/svg">
<metadata>
This is a custom SVG webfont generated by Font Squirrel.
Copyright   : Copyright c 2011 by Anna Giedrys httpancymoniccom with Reserved Font Names Signika
Designer    : Anna Giedrys
Foundry     : Anna Giedrys
Foundry URL : wwwancymoniccom
</metadata>
<defs>
<font id="SignikaSemibold" horiz-adv-x="815" >
<font-face units-per-em="2048" ascent="1638" descent="-410" />
<missing-glyph horiz-adv-x="450" />
<glyph horiz-adv-x="0" />
<glyph horiz-adv-x="0" />
<glyph unicode="&#xd;" horiz-adv-x="380" />
<glyph unicode=" "  horiz-adv-x="450" />
<glyph unicode="&#x09;" horiz-adv-x="450" />
<glyph unicode="&#xa0;" horiz-adv-x="450" />
<glyph unicode="!" horiz-adv-x="610" d="M145.5 117q-0.5 76 18.5 108q57 31 135 31q80 0 135 -31q20 -37 20.5 -108.5t-20.5 -108.5q-51 -29 -135 -28q-82 0 -135 28q-18 33 -18.5 109zM162 1339q102 76 284 76l17 -20l-62 -981q-41 -12 -100 -13q-65 1 -104 13z" />
<glyph unicode="&#x22;" horiz-adv-x="862" d="M90 1456q0 58 12 111q53 31 125 30q74 0 123 -30q14 -61 15 -111q0 -16 -12.5 -79.5t-30 -166t-27.5 -186.5q-23 -14 -68 -14t-67 14q-10 86 -27.5 187.5t-30 165t-12.5 79.5zM500 1456q0 58 12 111q53 31 125 30q74 0 123 -30q14 -61 14 -111q0 -16 -12 -79.5 t-29.5 -166t-27.5 -186.5q-23 -14 -68 -14t-68 14q-10 86 -27.5 187.5t-29.5 165t-12 79.5z" />
<glyph unicode="#" horiz-adv-x="1398" d="M41 401.5q0 61.5 16 106.5h248l76 332h-219q-39 106 0 215h266l61 266q45 18 121 18t117 -18l-61 -266h249l62 266q45 18 119.5 18t115.5 -18l-61 -266h197q16 -47 16 -108.5t-16 -106.5h-244l-76 -332h215q39 -106 0 -215h-262l-59 -266q-43 -20 -120 -20.5t-116 20.5 l59 266h-249l-60 -266q-43 -20 -119.5 -20.5t-117.5 20.5l59 266h-201q-16 47 -16 108.5zM543 508h250l75 332h-250z" />
<glyph unicode="$" horiz-adv-x="1034" d="M55 197q2 53 33 114.5t70 85.5q213 -113 366 -112q72 0 117 28.5t45 79.5q0 88 -119 129l-198 72q-264 100 -265 315q0 129 85 220.5t225 115.5v166q33 8 100 8q66 0 100 -8v-164q160 -14 322 -88q0 -57 -26.5 -115.5t-67.5 -93.5q-188 82 -320 82q-66 0 -103.5 -27.5 t-37.5 -76.5q0 -39 27.5 -60.5t89.5 -44.5l192 -71q279 -102 279 -342q0 -135 -99.5 -226.5t-263.5 -111.5v-154q-27 -6 -100 -6q-76 0 -100 6v158q-216 29 -351 121z" />
<glyph unicode="%" horiz-adv-x="1945" d="M94 993q0 238 103 342q90 90 235.5 90t233.5 -90q104 -102 104 -342q0 -242 -104 -344q-84 -90 -234 -90q-145 0 -235 90q-102 102 -103 344zM315 993q0 -125 23.5 -194.5t93.5 -69.5t93.5 69.5t23.5 194.5q0 80 -7 132.5t-35 91t-75 38.5t-74.5 -38.5t-35 -91 t-7.5 -132.5zM457 0l772 1399q55 12 139 12t121 -12l-774 -1399q-53 -12 -138 -12t-120 12zM1176 408q0 238 102 342q90 90 235.5 90t233.5 -90q104 -104 104 -342q0 -242 -104 -345q-84 -90 -234 -90q-147 0 -235 90q-102 102 -102 345zM1397 408q0 -125 23.5 -195t93 -70 t93 70t23.5 195q0 80 -7 132t-34.5 91t-75 39t-75 -39t-34.5 -91t-7 -132z" />
<glyph unicode="&#x26;" horiz-adv-x="1310" d="M92 367q0 139 77 242.5t187 138.5q-92 33 -148 116.5t-56 192.5q0 164 118.5 267t319.5 103q219 0 405 -65q4 -121 -69 -205q-166 55 -299 55q-92 0 -142.5 -48t-50.5 -128q1 -184 228 -184h387q125 0 206 35q35 -41 35 -125q0 -139 -174 -139h-55q0 -25 1 -68t1 -57 v-179q0 -119 14 -319q-53 -16 -125 -16q-70 0 -123 14l-18 86q-139 -113 -324 -113q-186 0 -290.5 113t-104.5 283zM373 389q0 -100 51 -153.5t135 -53.5q139 0 240 88v226q0 80 2 127h-162q-131 0 -198.5 -64.5t-67.5 -169.5z" />
<glyph unicode="'" horiz-adv-x="464" d="M86 1456q0 58 12 111q53 31 125 30q74 0 123 -30q14 -61 14 -111q0 -16 -12 -79.5t-29.5 -166t-27.5 -186.5q-23 -14 -68 -14t-67 14q-10 86 -27.5 187.5t-30 165t-12.5 79.5z" />
<glyph unicode="(" horiz-adv-x="724" d="M123 661.5q0 284.5 107.5 574.5t301.5 476q109 -37 156 -141q-139 -190 -210.5 -429.5t-71.5 -479.5q0 -238 71.5 -477.5t210.5 -430.5q-47 -104 -156 -141q-195 186 -302 475t-107 573.5z" />
<glyph unicode=")" horiz-adv-x="724" d="M37 -246q139 190 210.5 430t71.5 478q0 240 -71.5 479t-210.5 430q47 104 156 141q195 -186 302 -476t107 -574.5t-107.5 -573.5t-301.5 -475q-109 37 -156 141z" />
<glyph unicode="*" horiz-adv-x="1050" d="M82 1094q-4 43 18.5 111.5t51.5 99.5l114 -41q76 -29 197 -115q-43 156 -45 223l-4 123q39 16 109.5 16t111.5 -16l-4 -123q-4 -59 -45 -221q111 78 196 109l117 43q27 -31 49.5 -98.5t20.5 -110.5l-121 -35q-68 -20 -223 -25q121 -100 163 -153l76 -97 q-20 -35 -77.5 -77.5t-100.5 -53.5l-68 103q-37 55 -94 202q-47 -131 -94 -200l-68 -103q-41 8 -99 50.5t-81 78.5l76 97q43 57 166 153q-147 4 -223 27z" />
<glyph unicode="+" horiz-adv-x="1085" d="M100.5 606.5q-0.5 67.5 10.5 110.5h196q20 0 60.5 -1t60.5 -1q0 20 -1 60t-1 63v211q49 10 116.5 10t116.5 -10v-211q0 -23 -1 -63t-1 -60q18 0 58.5 1t62.5 1h197q10 -66 10 -111q0 -53 -10 -108h-197q-23 0 -62.5 1t-58.5 1q0 -20 1 -60.5t1 -58.5v-213 q-49 -10 -114 -10q-70 0 -119 10v213q0 18 1 58t1 61q-20 0 -60 -1t-61 -1h-196q-10 41 -10.5 108.5z" />
<glyph unicode="," horiz-adv-x="579" d="M55 -223q74 29 124 83t59 124q-61 8 -86 30q-23 37 -23 109q0 80 23 115q55 33 141 32q94 1 139 -32q25 -59 25 -150q0 -143 -87 -265t-247 -173q-35 16 -53.5 53t-14.5 74z" />
<glyph unicode="-" horiz-adv-x="745" d="M88 548.5q0 65.5 12 110.5h543q12 -45 12 -110.5t-12 -110.5h-543q-12 45 -12 110.5z" />
<glyph unicode="." horiz-adv-x="563" d="M117 127q0 70 20 113q61 33 146 32q82 0 143 -32q20 -43 20 -113q0 -72 -20 -115q-53 -33 -143 -32.5t-146 32.5q-20 43 -20 115z" />
<glyph unicode="/" horiz-adv-x="894" d="M8 -150l645 1717q135 -14 230 -88l-645 -1715q-134 10 -230 86z" />
<glyph unicode="0" horiz-adv-x="1085" d="M78 663.5q0 204.5 29.5 337t117.5 228.5q123 127 317.5 127t317.5 -127q88 -96 118 -228.5t30 -337t-30 -337.5t-118 -230q-125 -125 -317.5 -125t-317.5 125q-88 96 -117.5 229.5t-29.5 338zM354 663.5q0 -317.5 58 -409.5q39 -76 131 -76t131 76q57 92 57 409.5 t-57 409.5q-39 76 -131 76t-131 -76q-58 -92 -58 -409.5z" />
<glyph unicode="1" horiz-adv-x="1085" d="M88 924q289 180 393 403q55 10 127 10q66 0 125 -10v-962q0 -25 -1 -73t-1 -73q16 0 66.5 1t64.5 1h125q12 -49 12 -110q0 -57 -12 -111h-815q-12 53 -12 111q0 61 12 110h178q12 0 59.5 -1t63.5 -1q0 25 -1 73t-1 73v362q0 25 2 64.5t5 94t5 85.5q-115 -133 -282 -205 q-93 47 -113 158z" />
<glyph unicode="2" horiz-adv-x="1085" d="M92 164q0 158 246 377l211 188q129 113 129 234q0 78 -46 126t-122 48t-130 -53.5t-81 -135.5q-55 2 -111.5 24.5t-81.5 59.5q43 139 158 231.5t273 92.5q190 0 302.5 -109.5t112.5 -290.5q0 -127 -63.5 -219t-186.5 -198l-151 -129q-152 -129 -184 -199q160 18 292 18 h328q0 -53 -6 -102q-23 -129 -168 -129h-623q-98 98 -98 166z" />
<glyph unicode="3" horiz-adv-x="1085" d="M86 113q20 102 115 176q133 -100 274 -101q106 0 173 62.5t67 173.5q0 96 -57.5 151.5t-147.5 55.5q-68 0 -125 -29q-35 14 -63.5 55t-38.5 88l221 236q96 96 139 129l-8 12q-74 -23 -217 -22h-268q-16 47 -17 100q0 74 23 127h727q55 -102 55 -161.5t-53 -114.5 l-185 -193q-37 -37 -67 -57q158 -14 257 -113.5t99 -273.5q0 -207 -140 -325t-339 -118q-260 0 -424 142z" />
<glyph unicode="4" horiz-adv-x="1085" d="M59 420q0 41 39 131l338 790q57 12 136 -4t110 -49l-184 -432q-104 -262 -185 -381l6 -8q119 12 254 12h2v51v113q0 98 48.5 154.5t134.5 56.5h65l13 -12v-234q0 -23 -1 -65.5t-1 -63.5q20 0 52 1t54 1h80q8 -43 8 -98q0 -63 -18 -125h-176q0 -20 1 -63t1 -66v-129 q-59 -10 -131 -10q-75 0 -130 10v129q0 23 1.5 66t1.5 63q-20 0 -64.5 -2t-67.5 -2h-327q-59 96 -60 166z" />
<glyph unicode="5" horiz-adv-x="1085" d="M94 109q8 41 41 94t70 82q137 -96 266 -97q100 0 167 65.5t67 188.5q0 121 -66 178.5t-162 57.5q-106 0 -201 -76q-35 8 -73.5 35t-59.5 57l33 619l17 14h718q18 -49 19 -110q0 -115 -115 -115h-344h-45q0 -16 -1 -43t-1 -35l-8 -119l-6 -43q72 23 143 23 q199 0 313.5 -117t114.5 -313q0 -233 -144.5 -358.5t-344.5 -125.5q-244 0 -398 138z" />
<glyph unicode="6" horiz-adv-x="1085" d="M84 662q0 324 142.5 509t400.5 185q188 0 317 -68q-10 -125 -90 -186q-102 43 -207 43q-266 0 -285 -354q123 98 273 98q174 0 273.5 -110.5t99.5 -336.5q0 -215 -129 -343t-324 -128q-215 0 -334 144q-23 31 -30 40t-32.5 61t-37.5 102.5t-24.5 142.5t-12.5 201z M362 557q0 -233 70 -319q47 -66 127 -66q90 0 135 68.5t45 185.5q0 246 -174 246q-104 0 -203 -88v-27z" />
<glyph unicode="7" horiz-adv-x="1085" d="M106 1192q0 78 25 135h825q49 -106 50 -164q0 -49 -39 -104l-74 -107q-143 -205 -221 -409.5t-103 -458.5l-6 -84q-43 -10 -135 -10q-88 0 -139 10l8 92q43 473 309 842l25 33q61 88 123 145l-9 10q-88 -23 -296 -22h-330q-12 39 -13 92z" />
<glyph unicode="8" horiz-adv-x="1085" d="M72 336q0 109 64.5 200t164.5 148q-197 119 -197 315q0 152 125 254.5t314 102.5q195 0 314.5 -97.5t119.5 -252.5q0 -182 -195 -291q231 -129 232 -365q-2 -174 -139.5 -276.5t-344.5 -102.5q-209 0 -333.5 97.5t-124.5 267.5zM342 354q0 -88 55.5 -141t143.5 -53 t143 54t55 138q0 160 -211 234l-45 16h-2q-139 -98 -139 -248zM369 1001q0 -133 202 -196l27 -10q119 78 119 200q0 76 -49.5 122t-126.5 46q-74 0 -123 -46t-49 -116z" />
<glyph unicode="9" horiz-adv-x="1085" d="M78 885q0 215 128.5 343t323.5 128q215 0 334 -144q23 -31 30 -40t32.5 -61t38 -102.5t24.5 -142.5t12 -200q0 -324 -142 -509.5t-400 -185.5q-188 0 -318 68q10 125 90 186q102 -43 207 -43q137 0 207 95.5t76 259.5q-119 -98 -270 -99q-174 0 -273.5 110.5t-99.5 336.5 zM346 901q0 -246 174 -246q106 0 203 86v29q0 233 -70 320q-51 66 -127 65q-90 0 -135 -68.5t-45 -185.5z" />
<glyph unicode=":" horiz-adv-x="577" d="M123 127q0 70 20 113q61 33 146 32q82 0 143 -32q20 -43 21 -113q0 -72 -21 -115q-53 -33 -143 -32.5t-146 32.5q-20 43 -20 115zM123 780q0 70 20 113q61 33 146 33q82 0 143 -33q20 -43 21 -113q0 -72 -21 -114q-53 -33 -143 -33t-146 33q-20 42 -20 114z" />
<glyph unicode=";" horiz-adv-x="585" d="M53 -223q74 29 124 83t59 124q-61 8 -86 30q-23 37 -23 109q0 80 23 115q55 33 141 32q94 1 139 -32q25 -59 25 -150q0 -143 -87 -265t-247 -173q-35 16 -53.5 53t-14.5 74zM127 780q0 70 20 113q61 33 146 33q82 0 143 -33q20 -43 21 -113q0 -72 -21 -114 q-53 -33 -143 -33t-146 33q-20 42 -20 114z" />
<glyph unicode="&#x3c;" horiz-adv-x="1085" d="M106 502q-27 117 0 207l742 407q49 -29 85 -86t38 -121l-428 -223q-61 -35 -164 -72v-16q94 -35 164 -70l428 -223q-6 -63 -41 -123.5t-82 -87.5z" />
<glyph unicode="=" horiz-adv-x="1085" d="M100.5 393.5q-0.5 65.5 10.5 110.5h864q10 -45 10 -110.5t-10 -110.5h-864q-10 45 -10.5 110.5zM100.5 825.5q-0.5 63.5 10.5 110.5h864q10 -47 10 -110.5t-10 -110.5h-864q-10 47 -10.5 110.5z" />
<glyph unicode="&#x3e;" horiz-adv-x="1085" d="M115 305l428 223q86 43 164 72v14q-78 29 -164 72l-428 223q4 63 39.5 123t83.5 88l741 -409q27 -113 0 -207l-743 -408q-49 31 -84 88.5t-37 120.5z" />
<glyph unicode="?" horiz-adv-x="837" d="M12 1317q197 111 406 110q190 0 296.5 -98t106.5 -262q0 -258 -266 -403l-127 -68l-18 -180q-43 -14 -99 -15q-59 0 -104 15l-14 305l20 27l106 51q219 104 220 239q0 72 -47.5 115t-133.5 43q-102 0 -249 -74q-37 29 -66 86.5t-31 108.5zM156 112.5q0 71.5 20 108.5 q49 31 135 31q84 0 133 -31q20 -33 20.5 -108.5t-20.5 -108.5q-51 -29 -133 -29q-84 0 -135 29q-20 37 -20 108.5z" />
<glyph unicode="@" horiz-adv-x="1976" d="M90 457q0 410 263 675t669 265q387 0 633 -215t246 -582q0 -285 -130.5 -437.5t-306.5 -152.5t-266 121q-133 -129 -283 -129q-158 0 -243.5 126t-85.5 337q0 233 113.5 379.5t316.5 146.5q109 0 211.5 -43t165.5 -104l-2 -514q0 -123 75 -123q74 0 123 95t49 306 q0 270 -167.5 430t-448.5 160q-299 0 -481.5 -208t-182.5 -533q0 -319 158 -486.5t432 -167.5q217 0 410 78q68 -74 67 -184q-236 -98 -495 -98q-381 0 -610.5 219t-229.5 639zM842 475q0 -270 133 -270q84 0 166 92v12v445q-51 47 -125 47q-174 0 -174 -326z" />
<glyph unicode="A" horiz-adv-x="1280" d="M29 20l456 1379q76 10 160 10q92 0 158 -12l448 -1379q-57 -34 -152 -34h-5q-68 0 -104 30.5t-60 116.5l-58 186q-16 0 -54 -1t-46 -1h-287q-68 0 -100 2l-96 -319q-43 -10 -119 -10q-82 0 -131 18zM453 535q14 0 49 1t43 1h176q8 0 39 -1t47 -1l-62 208 q-70 233 -110 398h-12q-19 -88 -91 -346z" />
<glyph unicode="B" horiz-adv-x="1249" d="M170 10v1379l14 12q315 8 449 8q223 0 344 -95t121 -276q0 -94 -52.5 -172t-136.5 -112q106 -33 180 -132.5t74 -224.5q0 -195 -129 -301t-370 -106q-152 0 -480 8zM442 186q74 2 209 2q129 0 181.5 65.5t52.5 156.5q0 88 -56.5 155.5t-185.5 67.5h-201v-447zM442 836 h179q204 0 204 186t-202 186q-124 0 -181 2v-374z" />
<glyph unicode="C" horiz-adv-x="1241" d="M86 694q0 365 164 550.5t418 185.5q227 0 368.5 -121t141.5 -293q0 -154 -156 -154q-43 1 -109 15v18q0 129 -55 218q-59 95 -199 95q-284 0 -284 -512q0 -237 81 -361t228 -124q162 0 356 149q43 -29 82 -80t49 -98q-90 -90 -234 -150.5t-300 -60.5q-150 0 -260.5 61.5 t-172 167t-90 229.5t-28.5 265z" />
<glyph unicode="D" horiz-adv-x="1347" d="M170 10v1379l14 12q236 8 484 8q96 0 200.5 -25.5t165.5 -76.5q131 -104 177 -253t46 -354q0 -207 -46 -355t-177 -253q-61 -51 -165.5 -76.5t-200.5 -25.5q-127 0 -484 8zM444 205q82 2 224 2q78 0 135 30.5t89 76.5t51.5 116t25.5 132t6 138q0 98 -11.5 174t-41 154 t-94 121t-160.5 43q-141 0 -224 2v-989z" />
<glyph unicode="E" horiz-adv-x="1167" d="M168 160v1224l14 15h854q10 -51 11 -109q0 -59 -23 -123h-451h-135q0 -27 1 -70.5t1 -70.5v-211q51 2 133 2h347q16 -47 16 -112.5t-16 -112.5h-347h-133v-242q0 -23 -1 -62.5t-1 -64.5q86 4 144 4h501q0 -66 -6 -100q-23 -131 -176 -131h-575q-74 0 -116 44t-42 120z " />
<glyph unicode="F" horiz-adv-x="1083" d="M170 0v1386l14 13h844q12 -47 12 -107q0 -68 -35.5 -97.5t-113.5 -29.5h-277h-172q2 -68 2 -198v-154h64h403q14 -45 15 -113q0 -66 -15 -114h-403h-64v-586q-55 -10 -135 -10q-84 0 -139 10z" />
<glyph unicode="G" horiz-adv-x="1329" d="M86 690q0 184 53.5 328.5t143.5 231.5t198.5 132t229.5 45q279 0 497 -147q-6 -59 -44 -115.5t-83 -85.5q-164 117 -356 117q-166 0 -261 -123t-95 -385q0 -495 365 -495h1q113 0 217 24v182q0 90 4 136h-139q-68 0 -99.5 27.5t-31.5 88.5q1 60 21 115l317 2 q188 0 188 -174v-537q-242 -86 -526 -86q-301 0 -450.5 195.5t-149.5 523.5z" />
<glyph unicode="H" horiz-adv-x="1394" d="M170 0v1399q53 10 137 10t137 -10v-412q0 -29 -1 -77t-1 -74q14 0 56.5 1t54.5 1h289q12 0 54 -1t54 -1q0 27 -1 74.5t-1 76.5v412q53 10 137 10q82 0 140 -10v-1399q-59 -10 -138 -10q-84 0 -139 10v457q0 29 1 77t1 74q-12 0 -54 -1t-54 -1h-289q-12 0 -54 1t-57 1 q0 -27 1 -75t1 -76v-457q-53 -10 -137 -10t-137 10z" />
<glyph unicode="I" horiz-adv-x="626" d="M176 0v1399q51 10 137 10q80 0 138 -10v-1399q-57 -10 -138 -10q-86 0 -137 10z" />
<glyph unicode="J" horiz-adv-x="942" d="M20 68q21 116 99 204q104 -65 197 -65h3q115 0 158 68.5t43 218.5v905q53 10 137 10t138 -10v-875q0 -127 -18.5 -218t-65.5 -169t-138.5 -117.5t-226.5 -39.5q-180 0 -326 88z" />
<glyph unicode="K" horiz-adv-x="1247" d="M170 0v1399q53 10 137 10t137 -10v-563l82 2q33 0 49.5 13t36.5 50l228 406q31 55 61.5 78.5t89.5 23.5q51 0 162 -8l16 -21l-278 -497q-47 -84 -100 -127q96 -20 147 -79t90 -163l96 -274q0 -2 7.5 -19.5t8.5 -20.5t7 -17.5t8 -18.5t8 -16.5t9.5 -17.5t10.5 -15.5 t12 -16.5t13.5 -13t16.5 -15q-57 -86 -185 -86q-72 0 -107.5 36.5t-64.5 124.5l-94 269q-37 106 -85 150t-130 44q-20 0 -115 -4v-604q-53 -10 -137 -10t-137 10z" />
<glyph unicode="L" horiz-adv-x="1058" d="M168 160v1237l14 14h103q82 0 120.5 -42t38.5 -134v-1010q89 8 187 8h381q0 -61 -8 -104q-23 -133 -179 -133h-497q-74 0 -117 44t-43 120z" />
<glyph unicode="M" horiz-adv-x="1681" d="M131 4l109 1393q84 14 184 14q94 0 174 -14l158 -568q63 -252 78 -350h14q14 98 78 350l155 568q86 14 174 14q100 0 187 -14l108 -1393q-55 -14 -139 -14q-70 0 -121 8l-39 657q-16 254 -16 445h-14l-240 -891q-68 -10 -141 -10q-72 0 -140 10l-239 891h-15 q-4 -252 -16 -445l-39 -657q-51 -8 -123 -8q-82 0 -137 14z" />
<glyph unicode="N" horiz-adv-x="1409" d="M170 0v1395q59 14 162 14q90 0 162 -10l372 -793l133 -303l7 2q-20 297 -21 561v375q0 92 35 131t117 39h88l14 -14v-1393q-63 -14 -166 -14q-90 0 -162 10l-376 793q-82 180 -123 286l-9 -2q23 -289 23 -557v-520q-57 -10 -125 -10q-78 0 -131 10z" />
<glyph unicode="O" horiz-adv-x="1355" d="M86 700q0 414 219 603q153 124 370 124h3q223 0 373 -124q219 -186 219 -603q0 -418 -219 -604q-150 -125 -373 -125q-219 0 -373 125q-219 188 -219 604zM375 700q0 -514 303 -514t303 514q0 512 -303 512t-303 -512z" />
<glyph unicode="P" horiz-adv-x="1185" d="M170 0v1389l14 12q328 8 449 8q221 0 353 -121t132 -352q0 -225 -133 -348t-352 -123h-189v-465q-53 -10 -137 -10t-137 10zM444 674q135 4 172 4q66 0 111 24.5t67.5 65.5t32 81t9.5 87q0 104 -48.5 181t-171.5 77q-111 0 -172 2v-522z" />
<glyph unicode="Q" horiz-adv-x="1355" d="M86 700q0 418 219 603q140 124 367 124h4q227 0 373 -124q217 -184 217 -605q0 -377 -172 -551q-55 -61 -125 -90l49 -34q145 -104 258 -105q-2 -92 -54.5 -145.5t-123.5 -53.5q-105 0 -189 70l-221 182h-8q-229 0 -375 125q-219 186 -219 604zM371 700q0 -512 305 -512 t305 512t-305 512t-305 -512z" />
<glyph unicode="R" horiz-adv-x="1245" d="M170 0v1389l14 12q328 8 467 8q221 0 351.5 -110.5t130.5 -321.5q0 -137 -74 -236.5t-182 -138.5q102 -37 151 -180l76 -207q35 -100 96 -149q-27 -37 -77 -59.5t-105 -22.5q-72 0 -106.5 36.5t-67.5 124.5l-86 244q-27 72 -68 110t-123 38h-125v-537q-57 -10 -137 -10 q-82 0 -135 10zM442 750q106 6 189 6q219 0 219 221t-219 221q-126 0 -189 2v-450z" />
<glyph unicode="S" horiz-adv-x="1138" d="M45 123q6 57 38 115.5t73 93.5q213 -135 413 -135q100 0 155.5 46t57.5 115q0 117 -157 187l-242 102q-287 125 -287 367q0 180 136.5 296.5t345.5 116.5q242 0 458 -112q-6 -125 -96 -209q-205 98 -360 98q-96 0 -149.5 -45t-53.5 -110q0 -94 145 -156l242 -102 q145 -61 226 -162t81 -232q0 -190 -134 -308t-386 -118q-277 0 -506 152z" />
<glyph unicode="T" horiz-adv-x="1026" d="M16 1284v6q0 61 11 109h979q14 -51 14 -107q0 -66 -35 -94.5t-113 -28.5h-96q-14 0 -61 1t-62 1h-2q0 -29 1 -76.5t1 -74.5v-1020q-59 -10 -139 -10q-78 0 -137 10v1020q0 27 1 75t1 76h-2q-14 0 -61.5 -1t-61.5 -1h-227q-11 51 -11 115z" />
<glyph unicode="U" horiz-adv-x="1374" d="M152 504v893l12 14h102q82 0 121 -42t39 -134v-733q0 -311 262 -312q260 0 260 312v897q53 10 135 10q87 0 140 -10v-895q0 -254 -141.5 -393.5t-395.5 -139.5q-252 0 -393 139.5t-141 393.5z" />
<glyph unicode="V" horiz-adv-x="1210" d="M29 1374q92 41 168 41q59 0 94 -31.5t53 -103.5l184 -659q43 -158 84 -363q5 -22 19 -22l297 1163q39 10 121 10q70 0 125 -18l12 -17l-395 -1374q-82 -10 -218 -10q-76 0 -120.5 25.5t-65.5 101.5z" />
<glyph unicode="W" horiz-adv-x="1798" d="M45 1382q72 33 148 33q72 0 104.5 -31.5t46.5 -117.5l107 -611q45 -258 59 -401q2 -18 6 -21.5t14 -3.5l195 1141q78 14 178 14q104 0 176 -14l178 -1116q2 -16 7.5 -20.5t13.5 -4.5q20 174 68 430l135 740q51 10 124.5 10t129.5 -18l14 -17l-283 -1372q-94 -12 -237 -12 q-74 0 -116 24.5t-52 102.5l-84 493q-47 285 -70 490h-16q-27 -201 -78 -490l-108 -608q-98 -12 -232 -12q-76 0 -119 24.5t-59 102.5z" />
<glyph unicode="X" horiz-adv-x="1232" d="M27 29l430 698l-389 629q88 61 180 61q102 0 172 -108l215 -348l264 438q45 10 115 10q80 0 143 -23l6 -16l-389 -635l432 -692q-88 -61 -180 -61q-104 0 -176 110l-254 408l-299 -500q-47 -10 -117 -10q-78 0 -145 22z" />
<glyph unicode="Y" horiz-adv-x="1071" d="M6 1366q86 49 170 49q55 0 88 -26.5t58 -88.5l129 -315q53 -139 88 -274h12q33 118 96 282l162 406q47 10 113 10q78 0 135 -18l10 -17l-393 -938v-436q-53 -10 -137 -10t-138 10v444z" />
<glyph unicode="Z" horiz-adv-x="1169" d="M86 168q0 55 35 108l485 699q74 104 164 207l-6 6q-131 -16 -318 -17h-311q-10 41 -10 93q0 63 18 135h877q39 -133 39 -172q0 -53 -33 -101l-483 -696q-80 -111 -162 -205l6 -6q176 12 279 12h161q143 0 236 43q20 -57 20 -127q0 -72 -49 -109.5t-135 -37.5h-780 q-33 137 -33 168z" />
<glyph unicode="[" horiz-adv-x="757" d="M203 -307v1976l16 14l465 -16q8 -27 8 -76q0 -66 -20 -110l-207 -6v-1588l207 -6q20 -45 20 -110q0 -49 -8 -76l-465 -17z" />
<glyph unicode="\" horiz-adv-x="894" d="M12 1479q94 74 230 88l645 -1717q-93 -72 -230 -86z" />
<glyph unicode="]" horiz-adv-x="757" d="M66 -229q0 53 20 110l207 6v1588l-207 6q-20 55 -20 110q0 51 10 76l463 16l16 -14v-1976l-16 -15l-463 17q-10 27 -10 76z" />
<glyph unicode="^" horiz-adv-x="1085" d="M74 627l325 700q47 12 143.5 12t143.5 -12l326 -700q-47 -12 -127 -13.5t-131 13.5l-131 299q-2 2 -72 196h-16q-70 -190 -72 -196l-131 -299q-51 -14 -131 -13.5t-127 13.5z" />
<glyph unicode="_" horiz-adv-x="1122" d="M-12 -239.5q0 59.5 10 102.5h1126q10 -43 10 -102.5t-10 -100.5h-1126q-10 41 -10 100.5z" />
<glyph unicode="`" d="M119 1382q16 51 67.5 98.5t104.5 65.5l305 -336q-14 -37 -46 -66.5t-67 -39.5z" />
<glyph unicode="a" horiz-adv-x="1044" d="M74 279q0 170 113.5 258t285.5 88q111 0 172 -7v56q0 155 -149 155h-2q-104 0 -312 -71q-57 63 -69 190q219 92 448 92q154 0 252 -86t98 -260v-420q1 -108 58 -151q-10 -37 -37 -78t-53 -61q-133 14 -195 116q-133 -129 -303 -129q-145 0 -226 93.5t-81 214.5zM338 295 q0 -53 31 -87t84 -34q102 0 192 90v178q-76 6 -147 7q-78 0 -119 -41t-41 -113z" />
<glyph unicode="b" horiz-adv-x="1087" d="M141 51v1442l13 14h100q80 0 113.5 -37.5t33.5 -128.5v-391q115 86 254 86q172 0 265.5 -141.5t93.5 -372.5v-7q0 -249 -134 -389q-136 -142 -352 -142q-213 0 -387 67zM401 195q66 -16 129 -17q100 0 154.5 88t54.5 256q0 295 -157 295h-8q-95 0 -173 -90v-532z" />
<glyph unicode="c" horiz-adv-x="968" d="M76 504q0 272 130 406t314 134q174 0 279.5 -94t105.5 -229q0 -66 -34.5 -101.5t-98.5 -35.5q-67 0 -108 10v14q0 112 -30 172q-32 64 -120 64q-164 0 -164 -340q0 -170 50.5 -245t152.5 -75q109 0 238 95q33 -20 64.5 -66.5t39.5 -87.5q-70 -70 -172 -112t-211 -42 q-213 0 -324.5 146.5t-111.5 386.5z" />
<glyph unicode="d" horiz-adv-x="1093" d="M78 496q0 256 116.5 398t284.5 142q98 0 209 -55v512l14 14h103q80 0 112.5 -37.5t32.5 -128.5v-1048q0 -125 58 -170q-8 -37 -34 -78t-54 -61q-133 12 -193 120q-119 -133 -289 -133q-176 0 -268 142.5t-92 382.5zM350 496q0 -154 43 -230t111 -76q106 0 184 103v479 q-94 59 -166 59q-80 0 -126 -87t-46 -248z" />
<glyph unicode="e" horiz-adv-x="1019" d="M76 504q0 244 111.5 392t330.5 148q197 0 307.5 -121.5t110.5 -312.5q0 -100 -23 -188h-565q6 -115 53.5 -178.5t155.5 -63.5q123 0 277 70q59 -59 75 -162q-162 -117 -393 -117q-100 0 -178 30t-126 79t-80 118.5t-44 144.5t-12 161zM346 610h340v25q0 96 -41 156.5 t-127 60.5q-160 0 -172 -242z" />
<glyph unicode="f" horiz-adv-x="708" d="M6 924q0 43 10 94l164 -2q-12 106 -12 160q0 147 93 243.5t245 96.5q141 0 289 -54q0 -115 -60 -178q-111 29 -168 29q-143 0 -143 -156q0 -70 12 -143l279 4q10 -51 10 -94q0 -47 -10 -99l-260 4v-829q-68 -10 -133 -10q-61 0 -129 10v827l-177 -2q-10 51 -10 99z" />
<glyph unicode="g" horiz-adv-x="1089" d="M78 506q0 256 116.5 397t284.5 141q162 0 273 -100q59 76 170 88q29 -20 55.5 -61t32.5 -76q-57 -49 -58 -170v-571q0 -334 -100 -463q-115 -143 -363 -144q-201 0 -370 70q0 49 19.5 106.5t47.5 90.5q133 -63 277 -64q229 0 229 244v80q-117 -92 -252 -92 q-178 0 -270 141t-92 383zM350 506q0 -156 42 -231.5t110 -75.5q106 0 190 94v450v15q-88 82 -168 82q-84 0 -129 -86t-45 -248z" />
<glyph unicode="h" horiz-adv-x="1112" d="M141 0v1493l13 14h104q80 0 111.5 -37.5t31.5 -128.5v-432q143 125 299 125q137 0 208 -96t71 -254v-446q0 -131 43 -195q-68 -57 -168 -57q-78 0 -110.5 41t-32.5 125v477q0 90 -22.5 128t-84.5 38q-109 0 -203 -99v-696q-61 -10 -131 -10q-63 0 -129 10z" />
<glyph unicode="i" horiz-adv-x="583" d="M47 918q0 49 12 96q96 10 156 10h35q90 0 143 -57.5t53 -157.5v-809q-61 -10 -133 -10q-70 0 -135 10v713q0 113 -92 112h-27q-12 47 -12 93zM117 1304.5q0 59.5 20 106.5q49 27 134 27q90 0 133 -27q20 -47 20 -106.5t-20 -106.5q-47 -29 -133 -29t-134 29 q-20 47 -20 106.5z" />
<glyph unicode="j" horiz-adv-x="598" d="M39 -287q90 41 124 93.5t34 158.5v748q0 112 -93 112h-2h-45q-12 47 -12 93q0 49 12 96q106 10 174 10h37q88 0 139.5 -57.5t51.5 -157.5v-760q0 -119 -11.5 -191.5t-47 -138t-105.5 -105.5t-182 -65q-68 59 -74 164zM127 1304.5q0 59.5 20 106.5q49 27 134 27 q90 0 133 -27q20 -47 20 -106.5t-20 -106.5q-47 -29 -133 -29t-134 29q-20 47 -20 106.5z" />
<glyph unicode="k" horiz-adv-x="1050" d="M141 0v1493l13 14h104q80 0 111.5 -37.5t31.5 -128.5v-698l52 2q35 0 53 33l141 244q55 102 160 102q49 0 147 -4l13 -16l-191 -328q-33 -63 -86 -101q125 -41 178 -180l60 -159q45 -129 98 -168q-72 -82 -180 -82q-61 0 -92 29.5t-58 101.5l-69 188q-27 70 -58.5 94.5 t-89.5 24.5q-29 0 -78 -4v-420q-61 -10 -131 -10q-68 0 -129 10z" />
<glyph unicode="l" horiz-adv-x="622" d="M137 240v1253l15 14h102q80 0 112.5 -37.5t32.5 -128.5v-1050q0 -94 86 -94h64q22 -55 22 -123v-6q0 -35 -6 -60q-125 -18 -198 -18q-119 0 -174.5 60.5t-55.5 189.5z" />
<glyph unicode="m" horiz-adv-x="1644" d="M141 0v1014l13 14h100q121 0 147 -127q143 133 285 133q168 0 238 -147q158 147 319 147q131 0 199.5 -89t68.5 -232v-475q0 -131 43 -195q-72 -57 -168 -57q-78 0 -110.5 41t-32.5 125v479q0 164 -108 164q-82 0 -177 -99v-696q-61 -10 -132.5 -10t-133.5 10v629 q0 166 -106 166q-88 -4 -178 -97v-698q-61 -10 -133 -10t-134 10z" />
<glyph unicode="n" horiz-adv-x="1118" d="M141 0v1014l13 14h102q117 0 143 -123q150 129 308 129q137 0 207.5 -96t70.5 -254v-446q0 -131 43 -195q-68 -57 -168 -57q-78 0 -110.5 41t-32.5 125v477q0 90 -22.5 128t-84.5 38q-106 0 -202 -99v-696q-61 -10 -133 -10t-134 10z" />
<glyph unicode="o" horiz-adv-x="1067" d="M76 508q0 276 145 422q120 114 308 114h3q193 0 314 -114q145 -146 145 -422q0 -274 -145 -420q-119 -117 -314 -117q-193 0 -311 117q-145 145 -145 420zM350 508q0 -334 185 -334q182 0 182 334q0 336 -182 336q-185 0 -185 -336z" />
<glyph unicode="p" horiz-adv-x="1093" d="M141 -428v1442l13 14h75q109 0 152 -100q116 116 271 116h3q176 0 268.5 -142t92.5 -382q0 -256 -117 -397t-285 -141q-106 0 -211 55v-313q0 -90 -32.5 -128t-112.5 -38h-104zM403 246q94 -59 168 -60q82 0 127 87t45 249q0 154 -42.5 229.5t-110.5 75.5 q-109 0 -187 -106v-475z" />
<glyph unicode="q" horiz-adv-x="1093" d="M78 506q0 256 116.5 397t284.5 141q160 0 273 -98q57 74 168 86q27 -20 53 -61t37 -76q-57 -45 -58 -170v-1153l-14 -14h-102q-80 0 -113 38t-33 128v348q-115 -90 -250 -90q-178 0 -270 141t-92 383zM350 506q0 -154 43 -230.5t109 -76.5q106 0 188 92v452v17 q-86 80 -166 80q-82 0 -128 -86t-46 -248z" />
<glyph unicode="r" horiz-adv-x="784" d="M82 893q8 37 33.5 78t52.5 61q166 -20 227 -184q78 182 260 182q68 0 123 -14q0 -143 -65 -250q-31 10 -95 14q-119 0 -192 -127v-653q-61 -10 -135 -10q-68 0 -133 10v682q0 145 -76 211z" />
<glyph unicode="s" horiz-adv-x="901" d="M51 72q2 45 25.5 99t54.5 85q164 -88 285 -88q70 0 109.5 26.5t41.5 71.5q0 74 -110 115l-115 43q-258 96 -258 301q0 145 105.5 232t275.5 87q84 0 186.5 -23.5t169.5 -55.5v-8q-1 -45 -21 -97q-22 -56 -55 -84q-160 72 -280 72q-53 0 -84 -25.5t-31 -66.5 q0 -61 103 -101l125 -45q266 -100 266 -319q0 -145 -110.5 -232.5t-293.5 -87.5q-215 1 -389 101z" />
<glyph unicode="t" horiz-adv-x="743" d="M14 924q0 53 11 94l155 -2v147q0 90 33 127t113 37h102l14 -12v-301l248 4q12 -49 12 -94q0 -49 -12 -99l-248 4v-538q0 -94 88 -94h127q20 -61 21 -129q0 -43 -6 -60q-125 -18 -246 -18q-246 0 -246 250v587l-155 -2q-10 41 -11 99z" />
<glyph unicode="u" horiz-adv-x="1122" d="M90 975q68 57 168 57q78 0 110.5 -42t32.5 -126v-477q0 -88 22.5 -126t84.5 -38q109 0 203 94v699q47 10 133 10t135 -10v-727q0 -121 57 -170q-10 -37 -35.5 -76t-54.5 -59q-150 14 -207 145q-158 -147 -325 -147q-137 0 -209 96t-72 254v448q0 127 -43 195z" />
<glyph unicode="v" horiz-adv-x="958" d="M0 995q82 39 152 39q121 0 149 -121l115 -415q23 -74 61 -273q5 -16 21 -16l209 807q41 10 98 10q78 0 137 -20l8 -13q-201 -698 -299 -993q-90 -12 -198 -12q-82 0 -123 27.5t-66 109.5z" />
<glyph unicode="w" horiz-adv-x="1515" d="M27 1001q80 33 151 33q57 0 87 -27.5t40 -84.5l78 -377q41 -201 59 -330q4 -16 17 -16l141 811q63 12 158 12q98 0 157 -12l142 -795q2 -16 16 -16q37 213 64 346l102 471q43 12 107 12q94 0 139 -22l8 -17l-246 -989q-68 -10 -198 -10q-84 0 -123 24.5t-52 104.5 l-45 252q-41 236 -65 405h-12q-14 -109 -68 -403l-70 -373q-72 -10 -206 -10q-78 0 -118.5 26.5t-58.5 106.5z" />
<glyph unicode="x" horiz-adv-x="964" d="M16 27l318 493l-293 455q86 61 182 61q49 0 78 -19.5t57 -64.5l142 -215l170 279q43 12 106.5 12t132.5 -18l6 -21l-288 -448l327 -498q-90 -59 -184 -59q-86 0 -139 79l-168 256l-191 -319q-39 -12 -108 -12q-86 0 -139 22z" />
<glyph unicode="y" horiz-adv-x="989" d="M6 -410q-1 9 -1 18q0 38 13 84q17 58 43 89q90 -29 170 -29q158 0 222 209l8 27q-78 2 -123 28.5t-64 89.5l-254 889q84 39 164 39q51 0 83 -25.5t50 -90.5l117 -433q12 -47 60 -284q2 -14 18 -15l201 830q45 12 108 12q82 0 142 -20l10 -17l-262 -962 q-68 -244 -171.5 -361t-310.5 -117q-115 0 -223 39z" />
<glyph unicode="z" horiz-adv-x="917" d="M61 137.5q0 47.5 39 100.5l287 387q31 41 164 196l-6 8q-119 -14 -264 -14h-185q-10 45 -10 84q0 57 16 117h701q35 -104 35 -150q0 -47 -29 -84l-289 -391q-90 -117 -158 -190l7 -11q80 10 176 11h84q137 0 205 32q27 -66 26 -112q0 -121 -153 -121h-613 q-33 90 -33 137.5z" />
<glyph unicode="{" horiz-adv-x="763" d="M76 669q0 54 14 87q74 16 122 81.5t48 149.5v338q0 147 85 237.5t226 112.5l121 19q27 -29 43.5 -85.5t5.5 -90.5l-112 -37q-98 -31 -99 -158v-332q0 -102 -48 -190t-128 -123v-16q80 -37 128 -125t48 -191v-332q0 -127 99 -157l112 -37q10 -35 -6 -91.5t-43 -86.5 l-121 20q-141 23 -226 112t-85 238v338q0 84 -48 149.5t-122 82.5q-14 33 -14 87z" />
<glyph unicode="|" horiz-adv-x="538" d="M143 -289v1874q49 10 127 10q74 0 123 -10v-1874q-47 -12 -123 -12q-80 0 -127 12z" />
<glyph unicode="}" horiz-adv-x="763" d="M23 -180l112 37q100 33 101 157v332q0 102 48 190.5t128 125.5v16q-80 35 -128 123t-48 190v332q0 125 -101 158l-112 37q-8 35 7 91t42 85l121 -19q141 -23 227 -112.5t86 -237.5v-338q0 -86 48 -150.5t122 -80.5q12 -33 12 -87.5t-12 -86.5q-74 -16 -122 -82t-48 -150 v-338q0 -150 -86 -238.5t-227 -111.5l-121 -20q-27 31 -42.5 87t-6.5 91z" />
<glyph unicode="~" horiz-adv-x="1249" d="M72 547l34 59q113 195 308 195q84 0 178 -41l166 -76q59 -25 98 -25q66 0 117 62l45 49q45 -4 93 -31.5t67 -70.5l-35 -60q-113 -195 -307 -194q-84 0 -179 41l-165 75q-55 23 -99 23q-68 0 -117 -59l-45 -50q-45 4 -93 32t-66 71z" />
<glyph unicode="&#xa1;" horiz-adv-x="610" d="M147 -381l62 983q41 12 100 12q66 0 105 -12l35 -928q-102 -74 -285 -73zM158 899q0 76 20 109q51 29 133 28q84 0 135 -28q20 -37 21 -109q0 -74 -21 -108q-49 -31 -135 -31q-84 0 -133 31q-20 29 -20 108z" />
<glyph unicode="&#xa2;" horiz-adv-x="952" d="M68 664q0 229 94 361t244 167v203q31 10 98 10t100 -10v-199q131 -25 209 -112t78 -193q0 -150 -143 -150q-51 0 -99 13q4 248 -149 247q-156 0 -156 -337q0 -319 203 -320q106 0 231 94q33 -23 64.5 -65.5t40.5 -81.5q-102 -119 -285 -156v-201q-27 -6 -100.5 -6 t-98.5 6v203q-176 35 -253.5 181.5t-77.5 345.5z" />
<glyph unicode="&#xa3;" horiz-adv-x="1093" d="M92 631q0 57 14 98q18 0 56.5 -1t58.5 -1q-4 10 -24.5 57t-27.5 67.5t-15.5 58.5t-8.5 73q0 145 113 259t317 114q129 0 241 -47t181 -113q-8 -51 -48 -100t-91 -66q-133 104 -264 105q-82 0 -133 -46.5t-51 -125.5q0 -29 7 -64t12 -52.5t23.5 -64.5t20.5 -55q51 0 172 1 t189 1q14 -39 14 -97.5t-14 -96.5q-221 0 -332 2q-8 -174 -119 -322l6 -6q184 12 328 12h311q0 -57 -4 -90q-25 -133 -180 -133h-709q-31 139 -31 168q0 59 33 102l31 45q84 123 92 222h-154q-14 39 -14 96z" />
<glyph unicode="&#xa4;" horiz-adv-x="1193" d="M55 283l144 157q-66 103 -66 244q0 139 66 242l-144 157q43 80 140 140l161 -148q106 55 237.5 55t237.5 -55l168 152q86 -53 140 -140l-146 -163q63 -104 64 -240q0 -137 -68 -244l146 -159q-49 -84 -140 -140l-166 150q-102 -53 -235 -53q-131 0 -234 53l-165 -148 q-86 49 -140 140zM399 684q0 -106 50.5 -177t144.5 -71q98 0 148.5 69.5t50.5 178.5t-50.5 178.5t-148.5 69.5q-94 0 -144.5 -69.5t-50.5 -178.5z" />
<glyph unicode="&#xa5;" horiz-adv-x="1091" d="M41 1300q94 47 170 48q51 0 78.5 -21.5t48.5 -73.5l121 -292q33 -82 88 -259h10q47 158 96 263l156 364q45 12 106 12q72 0 132 -16l10 -14l-226 -492h146q12 -55 12 -88q0 -35 -12 -84h-225l-68 -147h293q12 -55 12 -88q0 -35 -12 -84h-303v-328q-55 -10 -131 -10 q-80 0 -133 10v328h-301q-12 39 -13 84q0 43 13 88h288l-65 147h-223q-12 39 -13 84q0 43 13 88h147z" />
<glyph unicode="&#xa6;" horiz-adv-x="526" d="M139 -289v793q49 10 125 10q72 0 123 -10v-793q-49 -12 -123 -12q-78 0 -125 12zM139 793v792q49 10 125 10q72 0 123 -10v-792q-49 -12 -123 -13q-78 1 -125 13z" />
<glyph unicode="&#xa7;" horiz-adv-x="1009" d="M59 567q0 178 207 303q-135 94 -135 242q0 135 108.5 225t276.5 90q176 0 332 -73q4 -47 -19.5 -103.5t-56.5 -83.5q-145 61 -248 62q-55 0 -91 -25.5t-36 -68.5q0 -66 105 -107l116 -47q160 -66 247 -144.5t87 -205.5q0 -178 -209 -303q139 -94 140 -246 q0 -135 -110.5 -224t-289.5 -89q-207 0 -352 86q-4 47 20.5 103t57.5 81q158 -72 274 -72q59 0 96 25.5t37 68.5q0 68 -104 109l-119 49q-160 66 -247 144.5t-87 203.5zM317 614q0 -59 51.5 -101t153.5 -81l47 -18q125 66 125 170q0 59 -52 101t-150 81l-48 18 q-127 -66 -127 -170z" />
<glyph unicode="&#xa8;" d="M76 1265.5q0 51.5 16 92.5q47 29 117 28.5t117 -28.5q16 -41 16 -92q0 -53 -16 -92q-45 -29 -117 -29t-117 29q-16 40 -16 91.5zM473 1265.5q0 51.5 16 92.5q47 29 117 28.5t117 -28.5q16 -41 16 -92q0 -53 -16 -92q-45 -29 -116.5 -29t-117.5 29q-16 40 -16 91.5z" />
<glyph unicode="&#xa9;" horiz-adv-x="1628" d="M74 698.5q0 313.5 213 528.5t526 215t528 -215t215 -528.5t-215 -527.5t-528 -214t-526 214t-213 527.5zM283 698.5q0 -235.5 150.5 -397.5t379.5 -162q231 0 383 162t152 397.5t-152 398.5t-383 163q-229 0 -379.5 -163t-150.5 -398.5zM461 700q0 201 106.5 301.5 t251.5 100.5q135 0 220 -72t85 -170q0 -111 -114 -110q-49 0 -80 12q4 76 -24.5 129t-94.5 53q-135 0 -135 -244q0 -236 174 -235q78 0 182 74q27 -16 50.5 -52t29.5 -69q-49 -51 -133 -85t-164 -34q-182 0 -268 113.5t-86 287.5z" />
<glyph unicode="&#xaa;" horiz-adv-x="903" d="M80 821q0 137 89 206t232 69q20 0 69.5 -3t64.5 -3v53q0 55 -32 82.5t-79 27.5q-98 0 -248 -51q-53 57 -57 150q180 76 360 75q125 0 206 -69.5t81 -208.5v-320q0 -94 53 -127q-4 -33 -29.5 -67.5t-56.5 -48.5q-104 6 -160 90q-117 -100 -241 -101q-115 0 -183.5 73 t-68.5 173zM299 836q0 -39 26.5 -66t67.5 -27q72 0 142 64v22v115q-82 4 -117 4q-57 0 -88 -29.5t-31 -82.5z" />
<glyph unicode="&#xab;" horiz-adv-x="1206" d="M55.5 522q-0.5 47 14.5 80l405 383q43 -12 87.5 -54t58.5 -85l-269 -320l277 -325q-14 -43 -59.5 -84t-90.5 -54l-409 379q-14 33 -14.5 80zM563.5 522q-0.5 47 14.5 80l405 383q43 -12 87 -54t58 -85l-268 -320l277 -325q-14 -43 -59.5 -84t-90.5 -54l-409 379 q-14 33 -14.5 80z" />
<glyph unicode="&#xac;" horiz-adv-x="1085" d="M90 618q0 66 10 111h861l14 -14v-469q-43 -10 -115 -10q-66 0 -121 10v151q0 18 1 56.5t1 56.5q-20 0 -60 -1t-58 -1h-523q-10 43 -10 110z" />
<glyph unicode="&#xad;" horiz-adv-x="745" d="M88 548.5q0 65.5 12 110.5h543q12 -45 12 -110.5t-12 -110.5h-543q-12 45 -12 110.5z" />
<glyph unicode="&#xae;" horiz-adv-x="1222" d="M63 972.5q0 231.5 159 391.5t388 160q231 0 391 -160t160 -391.5t-159.5 -390t-391.5 -158.5q-229 0 -388 158.5t-159 390zM225 973q0 -168 110.5 -284t274.5 -116t275.5 116t111.5 284t-111.5 284.5t-275.5 116.5t-274.5 -116.5t-110.5 -284.5zM403 727v506l7 4 q25 0 69.5 2t80.5 3t65 1q102 0 152 -41.5t50 -109.5q0 -57 -29.5 -92t-72.5 -46q37 -18 68 -77l24 -50q23 -45 47 -59q-37 -51 -100 -51q-51 0 -84 61l-47 92q-18 37 -58 37h-28v-180q-27 -10 -71 -10t-73 10zM547 1016q23 2 57 2q74 0 74 59q0 57 -66 58h-65v-119z" />
<glyph unicode="&#xaf;" d="M94 1274q0 55 12 100h605q10 -47 10 -98q0 -59 -10 -102h-605q-12 41 -12 100z" />
<glyph unicode="&#xb0;" horiz-adv-x="694" d="M33 1063q0 137 89 226t226 89q135 0 224.5 -89t89.5 -226t-89.5 -226t-224.5 -89q-137 0 -226 89t-89 226zM225 1062.5q0 -65.5 33 -104t90 -38.5q53 0 86 38.5t33 104t-33 104.5t-86 39q-57 0 -90 -39t-33 -104.5z" />
<glyph unicode="&#xb1;" horiz-adv-x="1085" d="M123 104.5q0 55.5 10 104.5h819q10 -49 10 -104.5t-10 -104.5h-819q-10 49 -10 104.5zM123 729q0 51 10 100h180q18 0 57.5 -1t59.5 -1q0 20 -1 61t-1 64v164q49 10 117 10q66 0 112 -10v-164q0 -23 -1 -63.5t-1 -61.5q18 0 57.5 1t59.5 1h180q10 -49 11 -100 q0 -53 -11 -102h-180q-20 0 -59 1t-58 1q0 -18 1 -61.5t1 -61.5v-166q-47 -10 -112 -10q-68 0 -117 10v166q0 18 1 61t1 62q-20 0 -59 -1t-58 -1h-180q-10 49 -10 102z" />
<glyph unicode="&#xb2;" horiz-adv-x="860" d="M94 807q0 109 146 225l168 139q72 59 71 125q0 39 -25.5 64.5t-64.5 25.5q-80 0 -115 -104q-43 2 -96 24.5t-72 51.5q25 98 107 163.5t197 65.5q137 0 222 -78.5t85 -197.5q0 -92 -42 -160t-126 -131l-115 -88q-98 -74 -104 -82q104 20 200 20h211q0 -43 -4 -96 q-18 -104 -131 -104h-438q-74 94 -74 137z" />
<glyph unicode="&#xb3;" horiz-adv-x="860" d="M90 758q16 86 90 149q96 -63 178 -63q63 0 101.5 31.5t38.5 89.5q0 51 -32 84.5t-89 33.5q-31 0 -70 -14q-27 10 -54.5 47t-35.5 72l148 137q37 35 88 66l-7 8q-55 -12 -161 -13h-150q-12 39 -12 89q0 61 18 98h512q45 -80 45 -125q0 -59 -47 -98l-106 -95 q-14 -14 -56 -38q104 -6 173 -79t69 -182q0 -135 -100.5 -213.5t-237.5 -78.5q-184 0 -303 94z" />
<glyph unicode="&#xb4;" d="M231 1210l308 336q53 -16 103 -63t69 -101l-367 -278q-82 26 -113 106z" />
<glyph unicode="&#xb6;" horiz-adv-x="1458" d="M70 956q0 229 132 341t355 112q70 0 274 -8l15 -15v-1208q0 -135 -19.5 -224t-78.5 -155q-111 -123 -336 -123q-158 0 -285 52q-2 41 15.5 100t43.5 96q121 -43 199 -43q98 0 147 58q43 49 43 188v371h-30q-211 0 -343 118.5t-132 339.5zM975 -268v1652l12 15h424 q14 -39 14 -116t-14 -116h-68q-16 0 -48.5 1t-47.5 1v-1437q-53 -12 -135 -13q-88 1 -137 13z" />
<glyph unicode="&#xb7;" horiz-adv-x="651" d="M170 586q0 74 18 112q57 33 138 33q78 0 135 -33q18 -47 18 -112q0 -70 -18 -115q-53 -33 -135 -33q-84 0 -138 33q-18 39 -18 115z" />
<glyph unicode="&#xb8;" d="M219 -422q4 74 49 123q41 -27 99 -27q82 0 82 68q0 31 -20.5 50.5t-55.5 19.5q-20 0 -45 -9q-31 16 -41 41q18 80 53 156h149q-23 -39 -32 -70q90 -6 144 -56t54 -124q0 -96 -74.5 -156.5t-191.5 -60.5q-102 0 -170 45z" />
<glyph unicode="&#xb9;" horiz-adv-x="860" d="M94 1278q111 68 173.5 133.5t105.5 159.5q49 10 106 10q51 0 105 -10v-703h168q10 -39 10 -98q0 -57 -10 -96h-594q-8 43 -8 96q0 57 8 98h207v246q0 35 8 154q-53 -70 -178 -127q-81 39 -101 137z" />
<glyph unicode="&#xba;" horiz-adv-x="890" d="M78 1001q0 215 121 336q94 90 245 90q154 0 248 -90q121 -121 121 -336q0 -217 -121 -337q-90 -88 -248 -89q-156 0 -245 89q-121 121 -121 337zM303 1001.5q0 -253.5 143 -253.5q141 0 141.5 253.5t-141.5 253.5q-143 0 -143 -253.5z" />
<glyph unicode="&#xbb;" horiz-adv-x="1206" d="M68 848q14 43 59 84t90 53l412 -381q12 -31 12 -78t-12 -80l-406 -383q-45 12 -88 54.5t-57 85.5l266 319zM575 848q14 43 59.5 84t90.5 53l412 -381q12 -31 12 -78t-12 -80l-406 -383q-45 12 -88 54.5t-57 85.5l266 319z" />
<glyph unicode="&#xbc;" horiz-adv-x="2052" d="M61 1106q111 68 173.5 133.5t105.5 159.5q49 10 106 10q51 0 105 -10v-703h168q10 -39 10 -98q0 -57 -10 -96h-594q-8 43 -8 96q0 57 8 98h207v246q0 35 8 154q-53 -70 -178 -127q-81 39 -101 137zM580 0l774 1399q53 12 138 12t120 -12l-772 -1399q-55 -12 -139 -12 t-121 12zM1266 295q0 31 30 98l236 522q51 6 115.5 -7t97.5 -40l-129 -282q-72 -168 -131 -242l4 -4q20 2 49 3t59.5 3t42.5 2v31v55q0 76 41 119t113 43h55l9 -8v-111q0 -18 -1.5 -65t-1.5 -64h115q8 -33 8 -72q0 -59 -16 -114h-43q-8 0 -30.5 1t-33.5 1v-152 q-41 -10 -102 -10q-66 0 -113 10v60q0 18 1 46.5t1 45.5q-18 0 -48.5 -2t-51.5 -2h-227q-49 80 -49 135z" />
<glyph unicode="&#xbd;" horiz-adv-x="2052" d="M61 1106q111 68 173.5 133.5t105.5 159.5q49 10 106 10q51 0 105 -10v-703h168q10 -39 10 -98q0 -57 -10 -96h-594q-8 43 -8 96q0 57 8 98h207v246q0 35 8 154q-53 -70 -178 -127q-81 39 -101 137zM553 0l774 1399q53 12 138 12t120 -12l-772 -1399q-55 -12 -139 -12 t-121 12zM1313 143q0 109 145 226l168 139q72 59 72 125q0 39 -25.5 64.5t-64.5 25.5q-80 0 -115 -105q-43 2 -96.5 25t-71.5 51q25 98 106.5 164t196.5 66q137 0 222 -79t85 -198q0 -92 -42 -159.5t-126 -131.5l-114 -88q-98 -74 -105 -82q104 20 201 21h211q0 -43 -4 -96 q-18 -104 -131 -105h-439q-74 94 -73 137z" />
<glyph unicode="&#xbe;" horiz-adv-x="2052" d="M94 588q16 86 90 149q96 -63 178 -63q63 0 101.5 31.5t38.5 89.5q0 51 -32 84.5t-89 33.5q-31 0 -70 -14q-27 10 -54.5 47t-35.5 72l148 137q37 35 88 66l-6 8q-55 -12 -162 -12h-150q-12 39 -12 88q0 61 18 98h512q45 -80 45 -125q0 -59 -47 -98l-106 -95 q-14 -14 -55 -38q104 -6 172.5 -79t68.5 -182q0 -135 -100 -213.5t-238 -78.5q-184 0 -303 94zM535 0l774 1399q53 12 138 12t120 -12l-772 -1399q-55 -12 -139 -12t-121 12zM1239 295q0 31 31 98l235 522q51 6 116 -7t97 -40l-129 -282q-72 -168 -131 -242l4 -4q20 2 49 3 t60 3t43 2v31v55q0 76 41 119t112 43h56l8 -8v-111q0 -18 -1 -65t-1 -64h115q8 -33 8 -72q0 -59 -17 -114h-43q-8 0 -30.5 1t-32.5 1v-152q-41 -10 -103 -10q-67 0 -112 10v60q0 18 1 46.5t1 45.5q-18 0 -49 -2t-51 -2h-228q-49 80 -49 135z" />
<glyph unicode="&#xbf;" horiz-adv-x="837" d="M27 -55q0 258 266 401l127 70l18 180q43 14 99 14q59 0 104 -14l14 -305l-22 -27l-107 -51q-104 -53 -161.5 -109.5t-57.5 -130.5q0 -72 48 -114.5t134 -42.5q111 0 248 73q37 -29 67 -86t32 -108q-197 -111 -408 -111q-188 0 -294.5 98.5t-106.5 262.5zM381 899 q0 74 22 109q47 29 134 28q82 0 135 -28q18 -33 18 -109q0 -78 -18 -108q-53 -31 -135 -31q-86 0 -134 31q-23 33 -22 108z" />
<glyph unicode="&#xc0;" horiz-adv-x="1280" d="M29 20l456 1379q76 10 160 10q92 0 158 -12l448 -1379q-59 -35 -157 -34q-68 0 -104 30.5t-60 116.5l-58 186q-16 0 -54 -1t-46 -1h-287q-68 0 -100 2l-96 -319q-43 -10 -119 -10q-82 0 -131 18zM352 1679q4 57 39 117.5t72 89.5l436 -264q-16 -94 -78 -131zM453 535 q14 0 49 1t43 1h176q8 0 39 -1t47 -1l-62 208q-70 233 -110 398h-12q-19 -88 -91 -346z" />
<glyph unicode="&#xc1;" horiz-adv-x="1280" d="M29 20l456 1379q76 10 160 10q92 0 158 -12l448 -1379q-59 -35 -157 -34q-68 0 -104 30.5t-60 116.5l-58 186q-16 0 -54 -1t-46 -1h-287q-68 0 -100 2l-96 -319q-43 -10 -119 -10q-82 0 -131 18zM414 1622l436 264q37 -29 71.5 -89t39.5 -118l-469 -188q-29 16 -51.5 55 t-26.5 76zM453 535q14 0 49 1t43 1h176q8 0 39 -1t47 -1l-62 208q-70 233 -110 398h-12q-19 -88 -91 -346z" />
<glyph unicode="&#xc2;" horiz-adv-x="1280" d="M29 20l456 1379q76 10 160 10q92 0 158 -12l448 -1379q-59 -35 -157 -34q-68 0 -104 30.5t-60 116.5l-58 186q-16 0 -54 -1t-46 -1h-287q-68 0 -100 2l-96 -319q-43 -10 -119 -10q-82 0 -131 18zM289 1602l239 239q117 25 228 0l231 -221q-12 -39 -43.5 -70t-64.5 -43 l-236 152l-242 -172q-33 12 -67.5 45t-44.5 70zM453 535q14 0 49 1t43 1h176q8 0 39 -1t47 -1l-62 208q-70 233 -110 398h-12q-19 -88 -91 -346z" />
<glyph unicode="&#xc3;" horiz-adv-x="1280" d="M29 20l456 1379q76 10 160 10q92 0 158 -12l448 -1379q-59 -35 -157 -34q-68 0 -104 30.5t-60 116.5l-58 186q-16 0 -54 -1t-46 -1h-287q-68 0 -100 2l-96 -319q-43 -10 -119 -10q-82 0 -131 18zM254 1624l18 39q76 166 234 166q61 0 127 -35l104 -49q37 -18 66 -19 q43 0 78 50l20 26q41 0 81 -22.5t54 -57.5l-18 -39q-76 -166 -234 -165q-66 -1 -127 34l-104 50q-33 18 -66 18q-45 0 -77 -49l-21 -29q-41 2 -81 24.5t-54 57.5zM453 535q14 0 49 1t43 1h176q8 0 39 -1t47 -1l-62 208q-70 233 -110 398h-12q-19 -88 -91 -346z" />
<glyph unicode="&#xc4;" horiz-adv-x="1280" d="M29 20l456 1379q76 10 160 10q92 0 158 -12l448 -1379q-59 -35 -157 -34q-68 0 -104 30.5t-60 116.5l-58 186q-16 0 -54 -1t-46 -1h-287q-68 0 -100 2l-96 -319q-43 -10 -119 -10q-82 0 -131 18zM283 1632q0 59 22 92q43 29 111 29q63 0 116 -29q20 -31 21 -92 q0 -66 -21 -96q-53 -29 -116 -29q-68 0 -111 29q-23 33 -22 96zM453 535q14 0 49 1t43 1h176q8 0 39 -1t47 -1l-62 208q-70 233 -110 398h-12q-19 -88 -91 -346zM733 1632q0 59 25 92q53 29 116.5 29t110.5 -29q23 -33 23 -92q0 -63 -23 -96q-47 -29 -110.5 -29t-116.5 29 q-25 33 -25 96z" />
<glyph unicode="&#xc5;" horiz-adv-x="1280" d="M29 20l456 1379h7q-117 72 -117 207q0 104 75.5 175.5t194.5 71.5t193.5 -71.5t74.5 -175.5q0 -137 -118 -207l3 -1q3 -1 5 -1l448 -1379q-59 -35 -157 -34q-68 0 -104 30.5t-60 116.5l-58 186q-16 0 -54 -1t-46 -1h-287q-68 0 -100 2l-96 -319q-43 -10 -119 -10 q-82 0 -131 18zM453 535q14 0 49 1t43 1h176q8 0 39 -1t47 -1l-62 208q-70 233 -110 398h-12q-19 -88 -91 -346zM543 1606q0 -45 28.5 -76t73.5 -31q43 0 71.5 31t28.5 76q0 47 -27.5 77.5t-72.5 30.5t-73.5 -30.5t-28.5 -77.5z" />
<glyph unicode="&#xc6;" horiz-adv-x="1806" d="M20 20l637 1354q55 25 166 25h852q10 -51 11 -109q0 -59 -23 -123h-455h-135q0 -27 1 -70.5t1 -70.5v-211q51 2 133 2h351q16 -47 16 -112.5t-16 -112.5h-351h-133v-240q0 -23 -1 -63.5t-1 -65.5q86 4 144 4h505q0 -66 -6 -100q-23 -131 -176 -131h-575q-74 0 -115 43 t-41 121v157q-31 -2 -90 -2h-182q-63 0 -97 2l-143 -317q-39 -10 -129 -10q-94 0 -139 18zM539 532q14 0 40.5 1.5t32.5 1.5h105q8 0 42 -1.5t50 -1.5v609h-10q-83 -217 -142 -346z" />
<glyph unicode="&#xc7;" horiz-adv-x="1241" d="M86 694q0 365 164 550.5t418 185.5q227 0 368.5 -121t141.5 -293q0 -154 -156 -154q-43 0 -109 15q4 141 -55 236t-199 95q-285 0 -284 -516q0 -233 81 -357t228 -124q162 0 356 149q43 -29 82 -80t49 -98q-78 -78 -198.5 -135t-253.5 -72q-14 -27 -21 -45 q90 -6 144.5 -56t54.5 -124q0 -96 -74.5 -156.5t-191.5 -60.5q-104 0 -168 45q4 76 47 123q41 -27 98 -27q82 0 82 68q0 31 -20.5 50.5t-55.5 19.5q-20 0 -45 -9q-31 16 -41 41q16 70 41 131q-131 12 -227 78t-150.5 169.5t-80 220t-25.5 251.5z" />
<glyph unicode="&#xc8;" horiz-adv-x="1167" d="M168 160v1224l14 15h854q10 -51 11 -109q0 -59 -23 -123h-451h-135q0 -27 1 -70.5t1 -70.5v-211q51 2 133 2h347q16 -47 16 -112.5t-16 -112.5h-347h-133v-242q0 -23 -1 -62.5t-1 -64.5q86 4 144 4h501q0 -66 -6 -100q-23 -131 -176 -131h-575q-74 0 -116 44t-42 120z M319 1679q4 57 39 117.5t72 89.5l436 -264q-16 -94 -78 -131z" />
<glyph unicode="&#xc9;" horiz-adv-x="1167" d="M168 160v1224l14 15h854q10 -51 11 -109q0 -59 -23 -123h-451h-135q0 -27 1 -70.5t1 -70.5v-211q51 2 133 2h347q16 -47 16 -112.5t-16 -112.5h-347h-133v-242q0 -23 -1 -62.5t-1 -64.5q86 4 144 4h501q0 -66 -6 -100q-23 -131 -176 -131h-575q-74 0 -116 44t-42 120z M381 1622l436 264q37 -29 72 -89t39 -118l-469 -188q-29 16 -51.5 55t-26.5 76z" />
<glyph unicode="&#xca;" horiz-adv-x="1167" d="M168 160v1224l14 15h854q10 -51 11 -109q0 -59 -23 -123h-451h-135q0 -27 1 -70.5t1 -70.5v-211q51 2 133 2h347q16 -47 16 -112.5t-16 -112.5h-347h-133v-242q0 -23 -1 -62.5t-1 -64.5q86 4 144 4h501q0 -66 -6 -100q-23 -131 -176 -131h-575q-74 0 -116 44t-42 120z M256 1602l240 239q117 25 227 0l231 -221q-12 -39 -43.5 -70t-64.5 -43l-236 152l-241 -172q-33 12 -68 45t-45 70z" />
<glyph unicode="&#xcb;" horiz-adv-x="1167" d="M168 160v1224l14 15h854q10 -51 11 -109q0 -59 -23 -123h-451h-135q0 -27 1 -70.5t1 -70.5v-211q51 2 133 2h347q16 -47 16 -112.5t-16 -112.5h-347h-133v-242q0 -23 -1 -62.5t-1 -64.5q86 4 144 4h501q0 -66 -6 -100q-23 -131 -176 -131h-575q-74 0 -116 44t-42 120z M250 1632q0 59 22 92q43 29 111 29q63 0 117 -29q20 -31 20 -92q0 -66 -20 -96q-53 -29 -117 -29q-68 0 -111 29q-23 33 -22 96zM700 1632q0 59 25 92q53 29 116.5 29t110.5 -29q23 -33 23 -92q0 -63 -23 -96q-47 -29 -110.5 -29t-116.5 29q-25 33 -25 96z" />
<glyph unicode="&#xcc;" horiz-adv-x="626" d="M20 1681q4 57 39 117.5t72 89.5l436 -264q-16 -94 -78 -131zM176 0v1399q51 10 137 10q80 0 138 -10v-1399q-57 -10 -138 -10q-86 0 -137 10z" />
<glyph unicode="&#xcd;" horiz-adv-x="626" d="M82 1624l436 264q37 -29 72 -89t39 -118l-469 -188q-29 16 -51.5 55t-26.5 76zM176 0v1399q51 10 137 10q80 0 138 -10v-1399q-57 -10 -138 -10q-86 0 -137 10z" />
<glyph unicode="&#xce;" horiz-adv-x="626" d="M-43 1604l240 239q117 25 227 0l231 -221q-12 -39 -43.5 -70t-64.5 -43l-236 152l-241 -172q-33 12 -68 45t-45 70zM176 0v1399q51 10 137 10q80 0 138 -10v-1399q-57 -10 -138 -10q-86 0 -137 10z" />
<glyph unicode="&#xcf;" horiz-adv-x="626" d="M-49 1634q0 57 22 92q43 29 111 29q63 0 117 -29q20 -31 20 -92q0 -66 -20 -96q-53 -29 -117 -29q-68 0 -111 29q-23 35 -22 96zM176 0v1399q51 10 137 10q80 0 138 -10v-1399q-57 -10 -138 -10q-86 0 -137 10zM401 1634q0 59 25 92q53 29 116.5 29t110.5 -29 q23 -35 23 -92q0 -61 -23 -96q-47 -29 -110.5 -29t-116.5 29q-25 33 -25 96z" />
<glyph unicode="&#xd0;" horiz-adv-x="1378" d="M43 706.5q0 67.5 10 114.5h148v568l14 12q238 8 485 8q94 0 199 -25.5t168 -76.5q129 -104 176 -254t47 -353q0 -207 -46 -355t-177 -253q-63 -51 -167.5 -76.5t-199.5 -25.5q-129 0 -485 8l-14 12v588h-148q-10 41 -10 108.5zM471 205q82 2 229 2q94 0 159 43t94.5 121 t41 154.5t11.5 175t-11.5 174t-41 153.5t-94 121t-159.5 43q-147 0 -229 2v-373h287q10 -47 10 -112q0 -70 -10 -111h-287v-393z" />
<glyph unicode="&#xd1;" horiz-adv-x="1409" d="M170 0v1395q59 14 162 14q90 0 162 -10l372 -793l133 -303l7 2q-20 297 -21 561v375q0 92 35 131t117 39h88l14 -14v-1393q-63 -14 -166 -14q-90 0 -162 10l-376 793q-82 180 -123 286l-9 -2q23 -289 23 -557v-520q-57 -10 -125 -10q-78 0 -131 10zM319 1624l19 39 q76 166 233 166q61 0 127 -35l105 -49q37 -18 65 -19q43 0 78 50l21 26q41 0 80.5 -22.5t54.5 -57.5l-19 -39q-76 -166 -233 -165q-66 -1 -127 34l-105 50q-33 18 -65 18q-45 0 -78 -49l-20 -29q-41 2 -81 24.5t-55 57.5z" />
<glyph unicode="&#xd2;" horiz-adv-x="1355" d="M86 700q0 414 219 603q154 125 373 124q223 0 373 -124q219 -186 219 -603q0 -418 -219 -604q-150 -125 -373 -125q-219 0 -373 125q-219 188 -219 604zM375 700q0 -514 303 -514t303 514q0 512 -303 512t-303 -512zM385 1679q4 57 39 117.5t72 89.5l436 -264 q-16 -94 -78 -131z" />
<glyph unicode="&#xd3;" horiz-adv-x="1355" d="M86 700q0 414 219 603q154 125 373 124q223 0 373 -124q219 -186 219 -603q0 -418 -219 -604q-150 -125 -373 -125q-219 0 -373 125q-219 188 -219 604zM375 700q0 -514 303 -514t303 514q0 512 -303 512t-303 -512zM446 1622l437 264q37 -29 71.5 -89t38.5 -118 l-469 -188q-29 16 -51.5 55t-26.5 76z" />
<glyph unicode="&#xd4;" horiz-adv-x="1355" d="M86 700q0 414 219 603q154 125 373 124q223 0 373 -124q219 -186 219 -603q0 -418 -219 -604q-150 -125 -373 -125q-219 0 -373 125q-219 188 -219 604zM322 1602l239 239q117 25 227 0l232 -221q-12 -39 -44 -70t-65 -43l-235 152l-242 -172q-33 12 -67.5 45t-44.5 70z M375 700q0 -514 303 -514t303 514q0 512 -303 512t-303 -512z" />
<glyph unicode="&#xd5;" horiz-adv-x="1355" d="M86 700q0 414 219 603q154 125 373 124q223 0 373 -124q219 -186 219 -603q0 -418 -219 -604q-150 -125 -373 -125q-219 0 -373 125q-219 188 -219 604zM274 1638l19 41q33 74 94.5 118t138.5 44q68 0 129 -33l105 -51q41 -18 67 -18q41 0 80 51l21 27q41 0 80 -24 t53 -58l-19 -37q-35 -78 -95 -122t-136 -44q-65 0 -131 35l-105 49q-37 18 -67 18q-40 0 -80 -49l-20 -29q-41 2 -81 25t-53 57zM375 700q0 -514 303 -514t303 514q0 512 -303 512t-303 -512z" />
<glyph unicode="&#xd6;" horiz-adv-x="1355" d="M86 700q0 414 219 603q154 125 373 124q223 0 373 -124q219 -186 219 -603q0 -418 -219 -604q-150 -125 -373 -125q-219 0 -373 125q-219 188 -219 604zM315 1632q0 59 23 92q43 29 111 29q63 0 116 -29q20 -31 21 -92q0 -66 -21 -96q-53 -29 -116 -29q-68 0 -111 29 q-23 33 -23 96zM375 700q0 -514 303 -514t303 514q0 512 -303 512t-303 -512zM766 1632q0 59 25 92q53 29 116.5 29t110.5 -29q23 -33 22 -92q0 -63 -22 -96q-47 -29 -110.5 -29t-116.5 29q-25 33 -25 96z" />
<glyph unicode="&#xd7;" horiz-adv-x="1085" d="M131 356l176 176l78 74q-14 14 -42 41t-36 35l-176 176q25 53 66 94q41 43 94 66l176 -176q49 -53 76 -78q8 8 33.5 34.5t39.5 41.5l177 178q53 -27 92 -66q43 -43 67 -94l-176 -176l-78 -76l78 -74l176 -176q-25 -53 -65 -94q-39 -43 -94 -65l-177 178q-16 14 -73 76 l-25 -25l-28 -28l-23 -23l-176 -178q-53 25 -94 65q-43 47 -66 94z" />
<glyph unicode="&#xd8;" horiz-adv-x="1361" d="M86 700q0 412 221 603q150 125 373 124q141 0 248 -45l86 150q109 -14 174 -94l-96 -172q184 -199 184 -566q0 -410 -221 -604q-150 -125 -375 -125q-133 0 -248 45l-84 -145q-47 6 -96 32.5t-76 61.5l94 166q-184 198 -184 569zM365 700q0 -188 43 -311l413 795 q-63 37 -141 37q-94 0 -159.5 -47.5t-97.5 -128t-45 -164t-13 -181.5zM539 213q59 -35 141 -35q94 0 160.5 47t98.5 128t45 165t13 182q0 184 -45 308z" />
<glyph unicode="&#xd9;" horiz-adv-x="1374" d="M152 504v893l12 14h102q82 0 121 -42t39 -134v-733q0 -311 262 -312q260 0 260 312v897q53 10 135 10q87 0 140 -10v-895q0 -254 -141.5 -393.5t-395.5 -139.5q-252 0 -393 139.5t-141 393.5zM391 1679q4 57 39 117.5t72 89.5l436 -264q-16 -94 -78 -131z" />
<glyph unicode="&#xda;" horiz-adv-x="1374" d="M152 504v893l12 14h102q82 0 121 -42t39 -134v-733q0 -311 262 -312q260 0 260 312v897q53 10 135 10q87 0 140 -10v-895q0 -254 -141.5 -393.5t-395.5 -139.5q-252 0 -393 139.5t-141 393.5zM453 1622l436 264q37 -29 71.5 -89t38.5 -118l-469 -188q-29 16 -51 55 t-26 76z" />
<glyph unicode="&#xdb;" horiz-adv-x="1374" d="M152 504v893l12 14h102q82 0 121 -42t39 -134v-733q0 -311 262 -312q260 0 260 312v897q53 10 135 10q87 0 140 -10v-895q0 -254 -141.5 -393.5t-395.5 -139.5q-252 0 -393 139.5t-141 393.5zM328 1602l239 239q117 25 228 0l231 -221q-12 -39 -43.5 -70t-64.5 -43 l-236 152l-242 -172q-33 12 -67.5 45t-44.5 70z" />
<glyph unicode="&#xdc;" horiz-adv-x="1374" d="M152 504v893l12 14h102q82 0 121 -42t39 -134v-733q0 -311 262 -312q260 0 260 312v897q53 10 135 10q87 0 140 -10v-895q0 -254 -141.5 -393.5t-395.5 -139.5q-252 0 -393 139.5t-141 393.5zM322 1632q0 59 22 92q43 29 111 29q63 0 116 -29q20 -31 21 -92 q0 -66 -21 -96q-53 -29 -116 -29q-68 0 -111 29q-23 33 -22 96zM772 1632q0 59 25 92q53 29 116.5 29t110.5 -29q23 -33 23 -92q0 -63 -23 -96q-47 -29 -110.5 -29t-116.5 29q-25 33 -25 96z" />
<glyph unicode="&#xdd;" horiz-adv-x="1054" d="M-4 1366q86 49 170 49q55 0 88 -26.5t57 -88.5l129 -315q53 -139 88 -274h13q33 118 96 282l162 406q45 10 112 10q76 0 136 -18l10 -17l-393 -938v-436q-53 -10 -137.5 -10t-137.5 10v444zM303 1622l436 264q37 -29 72 -89t39 -118l-469 -188q-29 16 -51.5 55t-26.5 76z " />
<glyph unicode="&#xde;" horiz-adv-x="1189" d="M170 0v1399q53 10 137 10t137 -10v-201q31 0 91.5 1t93.5 1q223 0 356 -112.5t133 -342.5q0 -225 -134 -341.5t-355 -116.5h-185v-287q-53 -10 -137 -10t-137 10zM444 500q68 2 168 2q123 0 173.5 70.5t50.5 172.5q0 100 -50.5 171t-173.5 71q-10 0 -69.5 1t-98.5 1v-489 z" />
<glyph unicode="&#xdf;" horiz-adv-x="1314" d="M18 872q0 51 11 103l176 -2v57q0 195 128 298.5t343 103.5q217 0 348 -114t131 -304q0 -72 -33 -158q-74 -18 -110.5 -56t-36.5 -79q0 -45 57 -96l78 -74q147 -141 147 -270q0 -143 -109.5 -226.5t-287.5 -83.5q-147 0 -264 60q2 45 24.5 101t53.5 85q86 -43 160 -43 q63 0 102 28.5t39 76.5q0 55 -72 120l-84 76q-129 117 -129 227q0 72 50.5 139.5t136.5 102.5q6 31 6 64q0 94 -53.5 156.5t-153.5 62.5q-199 0 -199 -226v-1001q-68 -10 -137 -10q-67 0 -135 10v768l-176 -2q-10 51 -11 106z" />
<glyph unicode="&#xe0;" horiz-adv-x="1044" d="M74 279q0 170 113.5 258t285.5 88q111 0 172 -7v56q0 155 -149 155h-2q-104 0 -312 -71q-57 63 -69 190q219 92 448 92q154 0 252 -86t98 -260v-420q1 -108 58 -151q-10 -37 -37 -78t-53 -61q-133 14 -195 116q-133 -129 -303 -129q-145 0 -226 93.5t-81 214.5zM338 295 q0 -53 31 -87t84 -34q102 0 192 90v178q-76 6 -147 7q-78 0 -119 -41t-41 -113zM221 1382q16 51 67.5 98.5t104.5 65.5l305 -336q-14 -37 -46 -66.5t-67 -39.5z" />
<glyph unicode="&#xe1;" horiz-adv-x="1044" d="M74 279q0 170 113.5 258t285.5 88q111 0 172 -7v56q0 156 -151 155q-104 0 -312 -71q-57 63 -69 190q219 92 448 92q154 0 252 -86t98 -260v-420q1 -108 58 -151q-10 -37 -37 -78t-53 -61q-133 14 -195 116q-133 -129 -303 -129q-145 0 -226 93.5t-81 214.5zM334 1210 l307 336q53 -16 103.5 -63t68.5 -101l-367 -278q-81 26 -112 106zM338 295q0 -53 31 -87t84 -34q102 0 192 90v178q-76 6 -147 7q-78 0 -119 -41t-41 -113z" />
<glyph unicode="&#xe2;" horiz-adv-x="1044" d="M74 279q0 170 113.5 258t285.5 88q111 0 172 -7v56q0 155 -149 155h-2q-104 0 -312 -71q-57 63 -69 190q219 92 448 92q154 0 252 -86t98 -260v-420q1 -108 58 -151q-10 -37 -37 -78t-53 -61q-133 14 -195 116q-133 -129 -303 -129q-145 0 -226 93.5t-81 214.5zM338 295 q0 -53 31 -87t84 -34q102 0 192 90v178q-76 6 -147 7q-78 0 -119 -41t-41 -113zM190 1217l215 276q98 33 223 0l193 -256q-16 -39 -51 -71t-68 -42l-190 183l-201 -195q-78 29 -121 105z" />
<glyph unicode="&#xe3;" horiz-adv-x="1044" d="M74 279q0 170 113.5 258t285.5 88q111 0 172 -7v56q0 155 -149 155h-2q-104 0 -312 -71q-57 63 -69 190q219 92 448 92q154 0 252 -86t98 -260v-420q1 -108 58 -151q-10 -37 -37 -78t-53 -61q-133 14 -195 116q-133 -129 -303 -129q-145 0 -226 93.5t-81 214.5zM338 295 q0 -53 31 -87t84 -34q102 0 192 90v178q-76 6 -147 7q-78 0 -119 -41t-41 -113zM131 1243l18 41q31 76 89.5 120t131.5 44q66 0 123 -33l101 -51q37 -18 63 -18q39 0 76 51l20 26q37 0 75 -23.5t52 -58.5l-18 -38q-33 -78 -91.5 -122t-129.5 -44q-62 -1 -123 34l-101 50 q-33 18 -63 18q-39 0 -76 -49l-20 -29q-39 2 -76 24.5t-51 57.5z" />
<glyph unicode="&#xe4;" horiz-adv-x="1044" d="M74 279q0 170 113.5 258t285.5 88q111 0 172 -7v56q0 156 -151 155q-104 0 -312 -71q-57 63 -69 190q219 92 448 92q154 0 252 -86t98 -260v-420q1 -108 58 -151q-10 -37 -37 -78t-53 -61q-133 14 -195 116q-133 -129 -303 -129q-145 0 -226 93.5t-81 214.5zM174 1265.5 q0 51.5 16 92.5q47 29 117 28.5t117 -28.5q16 -41 16 -92q0 -53 -16 -92q-45 -29 -116.5 -29t-117.5 29q-16 40 -16 91.5zM338 295q0 -53 31 -87t84 -34q102 0 192 90v178q-76 6 -147 7q-78 0 -119 -41t-41 -113zM571 1265.5q0 51.5 17 92.5q47 29 116.5 28.5t116.5 -28.5 q16 -41 17 -92q0 -53 -17 -92q-45 -29 -116.5 -29t-116.5 29q-17 40 -17 91.5z" />
<glyph unicode="&#xe5;" horiz-adv-x="1044" d="M74 279q0 170 113.5 258t285.5 88q111 0 172 -7v56q0 156 -151 155q-104 0 -312 -71q-57 63 -69 190q219 92 448 92q154 0 252 -86t98 -260v-420q1 -108 58 -151q-10 -37 -37 -78t-53 -61q-133 14 -195 116q-133 -129 -303 -129q-145 0 -226 93.5t-81 214.5zM238 1355.5 q0 104.5 74.5 176.5t193.5 72t193.5 -72t74.5 -176.5t-74.5 -176t-193.5 -71.5t-193.5 71.5t-74.5 176zM338 295q0 -53 31 -87t84 -34q102 0 192 90v178q-76 6 -147 7q-78 0 -119 -41t-41 -113zM403 1356q0 -47 29 -77t74 -30t73.5 30t28.5 77t-28.5 77.5t-73.5 30.5 t-74 -30.5t-29 -77.5z" />
<glyph unicode="&#xe6;" horiz-adv-x="1572" d="M74 279q0 170 113.5 258t285.5 88q92 0 172 -9v60q0 154 -149 153q-117 0 -314 -71q-57 63 -69 190q219 92 430 92q170 0 260 -108q117 113 276 112q195 0 305.5 -121.5t110.5 -312.5q1 -100 -22 -188h-562q6 -117 52.5 -179.5t154.5 -62.5q125 0 273 72q61 -59 77 -164 q-162 -117 -391 -117q-223 0 -338 156q-152 -156 -358 -156q-145 0 -226 93.5t-81 214.5zM338 295q0 -53 31 -87t84 -34q119 0 217 111q-23 84 -25 157q-76 6 -147 7q-78 0 -119 -41t-41 -113zM911 610h332v23q0 98 -39 158.5t-125 60.5q-156 0 -168 -242z" />
<glyph unicode="&#xe7;" horiz-adv-x="968" d="M76 504q0 272 130 406t314 134q174 0 279.5 -94t105.5 -229q0 -66 -34.5 -101.5t-98.5 -35.5q-68 0 -108 10q2 123 -30 186.5t-120 63.5q-164 0 -164 -340q0 -170 50.5 -245t152.5 -75q109 0 238 95q33 -20 64.5 -66.5t39.5 -87.5q-125 -125 -315 -150q-14 -27 -21 -45 q90 -6 144.5 -56t54.5 -124q0 -96 -75 -156.5t-191 -60.5q-104 0 -168 45q4 72 47 123q45 -27 98 -27q82 0 82 68q0 31 -20.5 50.5t-55.5 19.5q-16 0 -45 -9q-27 14 -41 41q23 84 43 133q-176 27 -266 169.5t-90 357.5z" />
<glyph unicode="&#xe8;" horiz-adv-x="1019" d="M76 504q0 244 111.5 392t330.5 148q197 0 307.5 -121.5t110.5 -312.5q0 -100 -23 -188h-565q6 -115 53.5 -178.5t155.5 -63.5q123 0 277 70q59 -59 75 -162q-162 -117 -393 -117q-100 0 -178 30t-126 79t-80 118.5t-44 144.5t-12 161zM346 610h340v25q0 96 -41 156.5 t-127 60.5q-160 0 -172 -242zM236 1382q16 51 67.5 98.5t104.5 65.5l305 -336q-14 -37 -46 -66.5t-67 -39.5z" />
<glyph unicode="&#xe9;" horiz-adv-x="1019" d="M76 504q0 244 111.5 392t330.5 148q197 0 307.5 -121.5t110.5 -312.5q0 -100 -23 -188h-565q6 -115 53.5 -178.5t155.5 -63.5q123 0 277 70q59 -59 75 -162q-162 -117 -393 -117q-100 0 -178 30t-126 79t-80 118.5t-44 144.5t-12 161zM346 610h340v25q0 96 -41 156.5 t-127 60.5q-160 0 -172 -242zM348 1210l307 336q53 -16 103.5 -63t68.5 -101l-366 -278q-82 26 -113 106z" />
<glyph unicode="&#xea;" horiz-adv-x="1019" d="M76 504q0 244 111.5 392t330.5 148q197 0 307.5 -121.5t110.5 -312.5q0 -100 -23 -188h-565q6 -115 53.5 -178.5t155.5 -63.5q123 0 277 70q59 -59 75 -162q-162 -117 -393 -117q-100 0 -178 30t-126 79t-80 118.5t-44 144.5t-12 161zM346 610h340v25q0 96 -41 156.5 t-127 60.5q-160 0 -172 -242zM207 1217l215 276q98 33 223 0l193 -256q-16 -39 -51 -71t-68 -42l-190 183l-201 -195q-78 29 -121 105z" />
<glyph unicode="&#xeb;" horiz-adv-x="1019" d="M76 504q0 244 111.5 392t330.5 148q197 0 307.5 -121.5t110.5 -312.5q0 -100 -23 -188h-565q6 -115 53.5 -178.5t155.5 -63.5q123 0 277 70q59 -59 75 -162q-162 -117 -393 -117q-100 0 -178 30t-126 79t-80 118.5t-44 144.5t-12 161zM190 1265.5q0 51.5 17 92.5 q47 29 116.5 28.5t116.5 -28.5q16 -41 17 -92q0 -53 -17 -92q-45 -29 -116.5 -29t-116.5 29q-17 40 -17 91.5zM346 610h340v25q0 96 -41 156.5t-127 60.5q-160 0 -172 -242zM588 1265.5q0 51.5 16 92.5q47 29 117 28.5t117 -28.5q16 -41 16 -92q0 -53 -16 -92 q-45 -29 -117 -29t-117 29q-16 40 -16 91.5z" />
<glyph unicode="&#xec;" horiz-adv-x="571" d="M-27 1382q16 51 67.5 98.5t104.5 65.5l306 -336q-14 -37 -46 -66.5t-67 -39.5zM37 918q0 49 12 96q96 10 156 10h35q90 0 143 -57.5t53 -157.5v-809q-61 -10 -133 -10q-70 0 -135 10v713q0 113 -92 112h-27q-12 47 -12 93z" />
<glyph unicode="&#xed;" horiz-adv-x="571" d="M37 918q0 49 12 96q96 10 156 10h35q90 0 143 -57.5t53 -157.5v-809q-61 -10 -133 -10q-70 0 -135 10v713q0 113 -92 112h-27q-12 47 -12 93zM86 1210l307 336q53 -16 103.5 -63t68.5 -101l-366 -278q-82 26 -113 106z" />
<glyph unicode="&#xee;" horiz-adv-x="571" d="M-55 1217l215 276q98 33 223 0l192 -256q-16 -39 -50.5 -71t-67.5 -42l-191 183l-200 -195q-78 29 -121 105zM37 918q0 49 12 96q96 10 156 10h35q90 0 143 -57.5t53 -157.5v-809q-61 -10 -133 -10q-70 0 -135 10v713q0 113 -92 112h-27q-12 47 -12 93z" />
<glyph unicode="&#xef;" horiz-adv-x="571" d="M-72 1265.5q0 51.5 17 92.5q47 29 116.5 28.5t116.5 -28.5q16 -41 17 -92q0 -53 -17 -92q-45 -29 -116.5 -29t-116.5 29q-17 40 -17 91.5zM37 918q0 49 12 96q96 10 156 10h35q90 0 143 -57.5t53 -157.5v-809q-61 -10 -133 -10q-70 0 -135 10v713q0 113 -92 112h-27 q-12 47 -12 93zM326 1265.5q0 51.5 16 92.5q47 29 116.5 28.5t116.5 -28.5q16 -41 17 -92q0 -53 -17 -92q-45 -29 -116.5 -29t-116.5 29q-16 40 -16 91.5z" />
<glyph unicode="&#xf0;" horiz-adv-x="1062" d="M72 496q0 255 147 393q119 109 291 108q53 0 113 -24q-37 98 -140 201l-194 -134q-74 55 -90 129l161 111q-68 49 -145 92q6 47 37 96.5t67 67.5q121 -49 230 -127l174 121q74 -49 92 -129l-139 -96q311 -301 311 -799q0 -274 -145 -418q-119 -117 -314 -117 q-193 0 -311 117q-145 143 -145 408zM346 492q0 -322 184 -322q183 0 183 336q0 150 -25 252q-78 47 -156 47q-186 0 -186 -313z" />
<glyph unicode="&#xf1;" horiz-adv-x="1118" d="M141 0v1014l13 14h102q117 0 143 -123q150 129 308 129q137 0 207.5 -96t70.5 -254v-446q0 -131 43 -195q-68 -57 -168 -57q-78 0 -110.5 41t-32.5 125v477q0 90 -22.5 128t-84.5 38q-106 0 -202 -99v-696q-61 -10 -133 -10t-134 10zM199 1243l18 41q31 76 89.5 120 t131.5 44q66 0 123 -33l101 -51q37 -18 63 -18q39 0 76 51l20 26q37 0 75 -23.5t52 -58.5l-18 -38q-33 -78 -91.5 -122t-129.5 -44q-62 -1 -123 34l-101 50q-33 18 -63 18q-39 0 -76 -49l-20 -29q-39 2 -76 24.5t-51 57.5z" />
<glyph unicode="&#xf2;" horiz-adv-x="1067" d="M76 508q0 276 145 422q120 114 308 114h3q193 0 314 -114q145 -146 145 -422q0 -274 -145 -420q-119 -117 -314 -117q-193 0 -311 117q-145 145 -145 420zM350 508q0 -334 185 -334q182 0 182 334q0 336 -182 336q-185 0 -185 -336zM248 1382q16 51 67.5 98.5t104.5 65.5 l305 -336q-14 -37 -46 -66.5t-67 -39.5z" />
<glyph unicode="&#xf3;" horiz-adv-x="1067" d="M76 508q0 276 145 422q121 115 311 114q193 0 314 -114q145 -146 145 -422q0 -274 -145 -420q-119 -117 -314 -117q-193 0 -311 117q-145 145 -145 420zM350 508q0 -334 185 -334q182 0 182 334q0 336 -182 336q-185 0 -185 -336zM360 1210l308 336q53 -16 103 -63 t69 -101l-367 -278q-82 26 -113 106z" />
<glyph unicode="&#xf4;" horiz-adv-x="1067" d="M76 508q0 276 145 422q120 114 308 114h3q193 0 314 -114q145 -146 145 -422q0 -274 -145 -420q-119 -117 -314 -117q-193 0 -311 117q-145 145 -145 420zM350 508q0 -334 185 -334q182 0 182 334q0 336 -182 336q-185 0 -185 -336zM217 1217l215 276q98 33 223 0 l193 -256q-16 -39 -51 -71t-68 -42l-190 183l-201 -195q-78 29 -121 105z" />
<glyph unicode="&#xf5;" horiz-adv-x="1067" d="M76 508q0 276 145 422q121 115 311 114q193 0 314 -114q145 -146 145 -422q0 -274 -145 -420q-119 -117 -314 -117q-193 0 -311 117q-145 145 -145 420zM158 1243l18 41q31 76 89.5 120t131.5 44q66 0 123 -33l101 -51q37 -18 63 -18q39 0 76 51l20 26q37 0 75 -23.5 t52 -58.5l-18 -38q-33 -78 -91.5 -122t-129.5 -44q-62 -1 -123 34l-101 50q-33 18 -63 18q-39 0 -76 -49l-20 -29q-39 2 -76 24.5t-51 57.5zM350 508q0 -334 185 -334q182 0 182 334q0 336 -182 336q-185 0 -185 -336z" />
<glyph unicode="&#xf6;" horiz-adv-x="1067" d="M76 508q0 276 145 422q120 114 308 114h3q193 0 314 -114q145 -146 145 -422q0 -274 -145 -420q-119 -117 -314 -117q-193 0 -311 117q-145 145 -145 420zM350 508q0 -334 185 -334q182 0 182 334q0 336 -182 336q-185 0 -185 -336zM201 1265.5q0 51.5 16 92.5 q47 29 117 28.5t117 -28.5q16 -41 16 -92q0 -53 -16 -92q-45 -29 -117 -29t-117 29q-16 40 -16 91.5zM598 1265.5q0 51.5 16 92.5q47 29 117 28.5t117 -28.5q16 -41 16 -92q0 -53 -16 -92q-45 -29 -116.5 -29t-117.5 29q-16 40 -16 91.5z" />
<glyph unicode="&#xf7;" horiz-adv-x="1085" d="M100.5 606.5q-0.5 65.5 10.5 112.5h864q10 -47 10 -112.5t-10 -108.5h-864q-10 43 -10.5 108.5zM399 240q0 57 21 98q47 27 123 27q80 0 121 -27q20 -35 20 -98q0 -61 -20 -97q-41 -27 -121 -26q-82 0 -123 26q-21 42 -21 97zM399 973q0 55 21 96q51 29 123 29 q78 0 121 -29q20 -35 20 -96q0 -59 -20 -99q-41 -27 -121 -26q-82 0 -123 26q-21 46 -21 99z" />
<glyph unicode="&#xf8;" horiz-adv-x="1073" d="M78 509.5q0 276.5 145 420.5q117 115 314 114q96 0 176 -30l71 125q88 -20 142 -78l-76 -133q143 -144 143 -418q0 -279 -143 -422q-119 -117 -313 -117q-100 0 -181 31l-71 -121q-90 18 -142 78l76 133q-141 141 -141 417.5zM328 510q0 -113 20 -182l268 510 q-37 16 -79 16q-209 0 -209 -344zM455 180q37 -16 82 -16q206 0 206 346q0 102 -20 182z" />
<glyph unicode="&#xf9;" horiz-adv-x="1122" d="M90 975q68 57 168 57q78 0 110.5 -42t32.5 -126v-477q0 -88 22.5 -126t84.5 -38q109 0 203 94v699q47 10 133 10t135 -10v-727q0 -121 57 -170q-10 -37 -35.5 -76t-54.5 -59q-150 14 -207 145q-158 -147 -325 -147q-137 0 -209 96t-72 254v448q0 127 -43 195zM260 1382 q16 51 67.5 98.5t104.5 65.5l305 -336q-14 -37 -46 -66.5t-67 -39.5z" />
<glyph unicode="&#xfa;" horiz-adv-x="1122" d="M90 975q68 57 168 57q78 0 110.5 -42t32.5 -126v-477q0 -88 22.5 -126t84.5 -38q109 0 203 94v699q47 10 133 10t135 -10v-727q0 -121 57 -170q-10 -37 -35.5 -76t-54.5 -59q-150 14 -207 145q-158 -147 -325 -147q-137 0 -209 96t-72 254v448q0 127 -43 195zM373 1210 l307 336q53 -16 103.5 -63t68.5 -101l-367 -278q-81 26 -112 106z" />
<glyph unicode="&#xfb;" horiz-adv-x="1122" d="M90 975q68 57 168 57q78 0 110.5 -42t32.5 -126v-477q0 -88 22.5 -126t84.5 -38q109 0 203 94v699q47 10 133 10t135 -10v-727q0 -121 57 -170q-10 -37 -35.5 -76t-54.5 -59q-150 14 -207 145q-158 -147 -325 -147q-137 0 -209 96t-72 254v448q0 127 -43 195zM229 1217 l215 276q98 33 223 0l193 -256q-16 -39 -51 -71t-68 -42l-190 183l-201 -195q-78 29 -121 105z" />
<glyph unicode="&#xfc;" horiz-adv-x="1122" d="M90 975q68 57 168 57q78 0 110.5 -42t32.5 -126v-477q0 -88 22.5 -126t84.5 -38q109 0 203 94v699q47 10 133 10t135 -10v-727q0 -121 57 -170q-10 -37 -35.5 -76t-54.5 -59q-150 14 -207 145q-158 -147 -325 -147q-137 0 -209 96t-72 254v448q0 127 -43 195zM213 1265.5 q0 51.5 16 92.5q47 29 117 28.5t117 -28.5q16 -41 16 -92q0 -53 -16 -92q-45 -29 -117 -29t-117 29q-16 40 -16 91.5zM610 1265.5q0 51.5 17 92.5q47 29 116.5 28.5t116.5 -28.5q16 -41 17 -92q0 -53 -17 -92q-45 -29 -116.5 -29t-116.5 29q-17 40 -17 91.5z" />
<glyph unicode="&#xfd;" horiz-adv-x="989" d="M6 -410q-1 9 -1 18q0 38 13 84q17 58 43 89q90 -29 170 -29q158 0 222 209l8 27q-78 2 -123 28.5t-64 89.5l-254 889q84 39 164 39q51 0 83 -25.5t50 -90.5l117 -433q12 -47 60 -284q2 -14 18 -15l201 830q45 12 108 12q82 0 142 -20l10 -17l-262 -962 q-68 -244 -171.5 -361t-310.5 -117q-115 0 -223 39zM319 1210l308 336q53 -16 103 -63t69 -101l-367 -278q-82 26 -113 106z" />
<glyph unicode="&#xfe;" horiz-adv-x="1087" d="M141 -428v1921l13 14h100q80 0 112.5 -37.5t32.5 -128.5v-399q113 94 250 94q168 0 264.5 -140t96.5 -361q0 -270 -117 -411.5t-277 -141.5q-111 0 -217 53v-311q0 -90 -32.5 -128t-112.5 -38h-100zM399 244q94 -59 166 -60q80 0 126 86t46 248q0 154 -42.5 227.5 t-110.5 73.5q-106 0 -185 -104v-471z" />
<glyph unicode="&#xff;" horiz-adv-x="989" d="M6 -410q-4 45 12.5 102.5t42.5 88.5q90 -29 170 -29q158 0 222 209l8 27q-78 2 -123 28.5t-64 89.5l-254 889q84 39 164 39q51 0 83 -25.5t50 -90.5l117 -433q12 -47 60 -284q2 -14 18 -15l201 830q45 12 108 12q82 0 142 -20l10 -17l-262 -962q-68 -244 -171.5 -361 t-310.5 -117q-115 0 -223 39zM160 1265.5q0 51.5 16 92.5q47 29 116.5 28.5t117.5 -28.5q16 -41 16 -92q0 -53 -16 -92q-45 -29 -117 -29t-117 29q-16 40 -16 91.5zM557 1265.5q0 51.5 16 92.5q47 29 117 28.5t117 -28.5q16 -41 16 -92q0 -53 -16 -92q-45 -29 -117 -29 t-117 29q-16 40 -16 91.5z" />
<glyph unicode="&#x104;" horiz-adv-x="1280" d="M29 20l456 1379q76 10 160 10q92 0 158 -12l448 -1379l-8 -6q-170 -96 -170 -205q0 -39 25.5 -60t66.5 -21q57 0 111 30q53 -47 59 -125q-98 -78 -231 -77q-102 0 -167 54t-65 144q0 131 138 248q-51 29 -80 131l-58 186q-16 0 -54 -1t-46 -1h-287q-68 0 -100 2l-96 -319 q-43 -10 -119 -10q-82 0 -131 18zM453 535q14 0 49 1t43 1h176q8 0 39 -1t47 -1l-62 208q-70 233 -110 398h-12q-19 -88 -91 -346z" />
<glyph unicode="&#x105;" horiz-adv-x="1103" d="M74 279q0 170 113.5 258t285.5 88q111 0 172 -7v56q0 156 -151 155q-104 0 -312 -71q-57 63 -69 190q219 92 448 92q154 0 252 -86t98 -260v-420q0 -100 64 -149q-23 -74 -105 -150q-104 -94 -104 -168q0 -39 25.5 -60t66.5 -21q58 -1 111 30q55 -51 57 -125 q-94 -78 -229 -77q-102 0 -168 54t-66 144q0 156 180 287q-39 33 -57 63q-139 -131 -305 -131q-145 0 -226 93.5t-81 214.5zM338 295q0 -53 31 -87t84 -34q102 0 192 90v178q-76 6 -147 7q-78 0 -119 -41t-41 -113z" />
<glyph unicode="&#x106;" horiz-adv-x="1241" d="M86 694q0 365 164 550.5t418 185.5q227 0 368.5 -121t141.5 -293q0 -154 -156 -154q-43 1 -109 15q4 141 -55 236t-199 95q-285 0 -284 -516q0 -233 81 -357t228 -124q162 0 356 149q43 -29 82 -80t49 -98q-90 -90 -234 -150.5t-300 -60.5q-150 0 -260.5 61.5t-172 167 t-90 229.5t-28.5 265zM432 1624l436 264q37 -29 72 -89t39 -118l-469 -188q-29 16 -51.5 55t-26.5 76z" />
<glyph unicode="&#x107;" horiz-adv-x="968" d="M76 504q0 272 130 406t314 134q174 0 279.5 -94t105.5 -229q0 -66 -34.5 -101.5t-98.5 -35.5q-67 0 -108 10v14q0 112 -30 172q-32 64 -120 64q-164 0 -164 -340q0 -170 50.5 -245t152.5 -75q109 0 238 95q33 -20 64.5 -66.5t39.5 -87.5q-70 -70 -172 -112t-211 -42 q-213 0 -324.5 146.5t-111.5 386.5zM342 1210l308 336q53 -16 103 -63t69 -101l-367 -278q-82 26 -113 106z" />
<glyph unicode="&#x10c;" horiz-adv-x="1241" d="M86 694q0 365 164 550.5t418 185.5q227 0 368.5 -121t141.5 -293q0 -154 -156 -154q-43 1 -109 15q4 141 -55 236t-199 95q-285 0 -284 -516q0 -233 81 -357t228 -124q162 0 356 149q43 -29 82 -80t49 -98q-90 -90 -234 -150.5t-300 -60.5q-150 0 -260.5 61.5t-172 167 t-90 229.5t-28.5 265zM309 1745q12 39 46 71t65 42l235 -152l242 172q33 -12 68.5 -44t46.5 -67l-242 -241q-102 -27 -229 -2z" />
<glyph unicode="&#x10d;" horiz-adv-x="968" d="M76 504q0 272 130 406t314 134q174 0 279.5 -94t105.5 -229q0 -66 -34.5 -101.5t-98.5 -35.5q-67 0 -108 10q2 123 -30 186.5t-120 63.5q-164 0 -164 -340q0 -170 50.5 -245t152.5 -75q109 0 238 95q33 -20 64.5 -66.5t39.5 -87.5q-70 -70 -172 -112t-211 -42 q-213 0 -324.5 146.5t-111.5 386.5zM201 1403q16 39 52 70t69 43l188 -183l205 197q82 -31 121 -107l-220 -278q-47 -14 -110.5 -13t-110.5 13z" />
<glyph unicode="&#x10e;" horiz-adv-x="1347" d="M170 10v1379l14 12q236 8 484 8q96 0 200.5 -25.5t165.5 -76.5q131 -104 177 -253t46 -354q0 -207 -46 -355t-177 -253q-61 -51 -165.5 -76.5t-200.5 -25.5q-127 0 -484 8zM291 1743q12 39 45.5 70.5t64.5 41.5l236 -151l242 172q33 -12 68.5 -44t45.5 -67l-241 -241 q-102 -27 -230 -2zM444 205q82 2 224 2q78 0 135 30.5t89 76.5t51.5 116t25.5 132t6 138q0 98 -11.5 174t-41 154t-94 121t-160.5 43q-141 0 -224 2v-989z" />
<glyph unicode="&#x10f;" horiz-adv-x="1294" d="M78 496q0 256 116.5 398t284.5 142q98 0 209 -55v512l14 14h103q80 0 112.5 -37.5t32.5 -128.5v-1048q0 -125 58 -170q-8 -37 -34 -78t-54 -61q-133 12 -193 120q-119 -133 -289 -133q-176 0 -268 142.5t-92 382.5zM350 496q0 -154 43 -230t111 -76q106 0 184 103v479 q-94 59 -166 59q-80 0 -126 -87t-46 -248zM1073 1151l25 461q49 14 120.5 4t110.5 -39l-102 -436q-35 -12 -81 -9t-73 19z" />
<glyph unicode="&#x118;" horiz-adv-x="1171" d="M168 160v1224l14 15h854q10 -51 11 -109q0 -59 -23 -123h-451h-135q0 -27 1 -70.5t1 -70.5v-211q51 2 133 2h347q16 -47 16 -112.5t-16 -112.5h-347h-133v-242q0 -23 -1 -62.5t-1 -64.5q86 4 144 4h501q0 -66 -6 -100q-16 -88 -90 -117q-8 -4 -10 -4q-80 -33 -124 -89 t-44 -110q0 -82 90 -81q57 0 111 30q53 -47 59 -125q-98 -78 -231 -77q-102 0 -167 54t-65 146q0 137 133 242h-413q-74 0 -116 44t-42 120z" />
<glyph unicode="&#x119;" horiz-adv-x="1019" d="M76 504q0 244 111.5 392t330.5 148q197 0 307.5 -121.5t110.5 -312.5q0 -100 -23 -188h-565q6 -115 53.5 -178.5t155.5 -63.5q123 0 277 70q59 -59 75 -162q-55 -41 -133 -70q-135 -102 -135 -211q0 -82 90 -81q59 0 113 30q55 -51 57 -125q-98 -78 -229 -77 q-102 0 -168 54t-66 148q0 111 113 217q-12 -2 -35 -2q-100 0 -178 30t-126 79t-80 118.5t-44 144.5t-12 161zM346 610h340v25q0 96 -41 156.5t-127 60.5q-160 0 -172 -242z" />
<glyph unicode="&#x11a;" horiz-adv-x="1167" d="M168 160v1224l14 15h854q10 -51 11 -109q0 -59 -23 -123h-451h-135q0 -27 1 -70.5t1 -70.5v-211q51 2 133 2h347q16 -47 16 -112.5t-16 -112.5h-347h-133v-242q0 -23 -1 -62.5t-1 -64.5q86 4 144 4h501q0 -66 -6 -100q-23 -131 -176 -131h-575q-74 0 -116 44t-42 120z M258 1743q12 39 46 70.5t65 41.5l235 -151l242 172q33 -12 68.5 -44t46.5 -67l-242 -241q-102 -27 -230 -2z" />
<glyph unicode="&#x11b;" horiz-adv-x="1019" d="M76 504q0 244 111.5 392t330.5 148q197 0 307.5 -121.5t110.5 -312.5q0 -100 -23 -188h-565q6 -115 53.5 -178.5t155.5 -63.5q123 0 277 70q59 -59 75 -162q-162 -117 -393 -117q-100 0 -178 30t-126 79t-80 118.5t-44 144.5t-12 161zM346 610h340v25q0 96 -41 156.5 t-127 60.5q-160 0 -172 -242zM207 1403q16 39 52 70t69 43l188 -183l205 197q82 -31 121 -107l-219 -278q-47 -14 -110.5 -13t-110.5 13z" />
<glyph unicode="&#x126;" horiz-adv-x="1411" d="M27 1106q0 53 14 104h137v189q53 10 137 10q82 0 140 -10v-189h501v189q55 10 138 10q86 0 139 -10v-189h139q12 -55 12 -100q0 -53 -12 -104h-139v-1006q-57 -10 -135 -10q-86 0 -142 10v453q0 29 1 77t1 74q-12 0 -54 -1t-54 -1h-289q-12 0 -54 1t-54 1q0 -27 1 -75 t1 -76v-453q-57 -10 -140 -10q-84 0 -137 10v1006h-137q-14 49 -14 100zM453 829q12 0 54 1t54 1h289q12 0 54 -1t54 -1q0 27 -1 76t-1 78v23h-501v-23q0 -29 -1 -78t-1 -76z" />
<glyph unicode="&#x127;" horiz-adv-x="1118" d="M-14 1241q0 33 12 86l149 -4v170l13 14h104q80 0 112 -38t32 -128v-18l311 4q10 -43 10 -86q0 -49 -10 -88l-311 2v-246q143 125 299 125q137 0 207.5 -96t70.5 -254v-446q0 -131 43 -195q-68 -57 -168 -57q-78 0 -110.5 41t-32.5 125v477q0 90 -22.5 128t-84.5 38 q-106 0 -202 -99v-696q-61 -10 -132 -10q-63 0 -129 10v1155l-149 -2q-12 47 -12 88z" />
<glyph unicode="&#x128;" horiz-adv-x="626" d="M-78 1626l19 39q76 166 233 166q61 0 127 -35l105 -49q37 -18 65 -18q43 0 78 49l20 26q41 0 81 -22.5t55 -57.5l-19 -38q-76 -166 -233 -166q-66 -1 -127 34l-105 50q-33 18 -65 18q-45 0 -78 -49l-21 -29q-41 2 -80.5 24.5t-54.5 57.5zM176 0v1399q51 10 137 10 q80 0 138 -10v-1399q-57 -10 -138 -10q-86 0 -137 10z" />
<glyph unicode="&#x129;" horiz-adv-x="571" d="M-115 1243l19 41q31 76 89 120t132 44q66 0 123 -33l100 -51q37 -18 64 -18q39 0 75 51l21 26q37 0 75 -23.5t52 -58.5l-19 -38q-33 -78 -91 -122t-130 -44q-62 -1 -123 34l-100 50q-33 18 -63 18q-39 0 -76 -49l-21 -29q-39 2 -75.5 24.5t-51.5 57.5zM37 918q0 49 12 96 q96 10 156 10h35q90 0 143 -57.5t53 -157.5v-809q-61 -10 -133 -10q-70 0 -135 10v713q0 113 -92 112h-27q-12 47 -12 93z" />
<glyph unicode="&#x131;" horiz-adv-x="583" d="M47 918q0 49 12 96q96 10 156 10h35q90 0 143 -57.5t53 -157.5v-809q-61 -10 -133 -10q-70 0 -135 10v713q0 113 -92 112h-27q-12 47 -12 93z" />
<glyph unicode="&#x132;" horiz-adv-x="1558" d="M176 0v1399q51 10 137 10q80 0 138 -10v-1399q-57 -10 -138 -10q-86 0 -137 10zM637 68q20 116 98 204q106 -66 201 -65q115 0 158 68.5t43 218.5v905q53 10 137 10t137 -10v-875q0 -127 -18.5 -218t-65.5 -169t-138 -117.5t-226 -39.5q-180 0 -326 88z" />
<glyph unicode="&#x133;" horiz-adv-x="1167" d="M47 918q0 49 12 96q96 10 156 10h35q90 0 143 -57.5t53 -157.5v-809q-61 -10 -133 -10q-70 0 -135 10v713q0 113 -92 112h-27q-12 47 -12 93zM117 1304.5q0 59.5 20 106.5q49 27 133 27q90 0 133 -27q20 -47 20.5 -106.5t-20.5 -106.5q-47 -29 -133 -29t-133 29 q-20 47 -20 106.5zM610 -287q90 41 124 93.5t34 158.5v748q0 113 -94 112h-45q-12 47 -13 93q0 49 13 96q106 10 174 10h37q88 0 139 -57.5t51 -157.5v-760q0 -119 -11 -191.5t-47 -138t-105.5 -105.5t-182.5 -65q-68 59 -74 164zM696 1304.5q0 59.5 21 106.5q49 27 133 27 q90 0 133 -27q20 -47 20.5 -106.5t-20.5 -106.5q-47 -29 -133 -29t-133 29q-21 47 -21 106.5z" />
<glyph unicode="&#x134;" horiz-adv-x="942" d="M20 68q21 116 99 204q106 -66 200 -65q115 0 158 68.5t43 218.5v905q53 10 137 10t138 -10v-875q0 -127 -18.5 -218t-65.5 -169t-138.5 -117.5t-226.5 -39.5q-180 0 -326 88zM301 1602l240 239q117 25 227 0l231 -221q-12 -39 -43.5 -70t-64.5 -43l-236 152l-241 -172 q-33 12 -68 45t-45 70z" />
<glyph unicode="&#x135;" horiz-adv-x="581" d="M-51 1217l215 276q98 33 223 0l193 -256q-16 -39 -51 -71t-68 -42l-191 183l-200 -195q-78 29 -121 105zM25 -287q90 41 123.5 93.5t33.5 158.5v748q0 113 -94 112h-45q-12 47 -12 93q0 49 12 96q106 10 174 10h37q88 0 139 -57.5t51 -157.5v-760q0 -119 -11 -191.5 t-47 -138t-105.5 -105.5t-182.5 -65q-68 59 -73 164z" />
<glyph unicode="&#x136;" horiz-adv-x="1247" d="M170 0v1399q53 10 137 10t137 -10v-563l82 2q33 0 49.5 13t36.5 50l228 406q31 55 61.5 78.5t89.5 23.5q51 0 162 -8l16 -21l-278 -497q-47 -84 -100 -127q96 -20 147 -79t90 -163l96 -274q0 -2 7.5 -19.5t8.5 -20.5t7 -17.5t8 -18.5t8 -16.5t9.5 -17.5t10.5 -15.5 t12 -16.5t13.5 -13t16.5 -15q-57 -86 -185 -86q-72 0 -107.5 36.5t-64.5 124.5l-94 269q-37 106 -85 150t-130 44q-20 0 -115 -4v-604q-53 -10 -137 -10t-137 10zM442 -459q129 80 129 201q0 61 -26 108q47 33 116.5 41t126.5 -12q23 -49 23 -115q0 -113 -76 -200.5 t-209 -132.5q-66 23 -84 110z" />
<glyph unicode="&#x137;" horiz-adv-x="1050" d="M141 0v1493l13 14h104q80 0 111.5 -37.5t31.5 -128.5v-698l52 2q35 0 53 33l141 244q55 102 160 102q49 0 147 -4l13 -16l-191 -328q-33 -63 -86 -101q125 -41 178 -180l60 -159q45 -129 98 -168q-72 -82 -180 -82q-61 0 -92 29.5t-58 101.5l-69 188q-27 70 -58.5 94.5 t-89.5 24.5q-29 0 -78 -4v-420q-61 -10 -131 -10q-68 0 -129 10zM340 -459q129 80 129 201q0 61 -27 108q47 33 117 41t127 -12q23 -49 23 -115q0 -113 -76 -200.5t-209 -132.5q-66 23 -84 110z" />
<glyph unicode="&#x138;" horiz-adv-x="1050" d="M141 0v1014l13 14h104q80 0 111.5 -37t31.5 -127v-221l52 2q35 0 53 33l141 244q55 102 160 102q49 0 147 -4l13 -16l-191 -328q-33 -63 -86 -101q125 -41 178 -180l60 -159q45 -129 98 -168q-72 -82 -180 -82q-61 0 -92 29.5t-58 101.5l-69 188q-27 70 -58.5 94.5 t-89.5 24.5q-29 0 -78 -4v-420q-61 -10 -131 -10q-68 0 -129 10z" />
<glyph unicode="&#x13f;" horiz-adv-x="1058" d="M168 160v1237l14 14h103q82 0 120.5 -42t38.5 -134v-1010q89 8 187 8h381q0 -61 -8 -104q-23 -133 -179 -133h-497q-74 0 -117 44t-43 120zM690 733.5q0 69.5 17 108.5q57 31 124.5 30.5t120.5 -30.5q18 -43 18.5 -108.5t-18.5 -108.5q-43 -33 -121 -33q-76 0 -124 33 q-17 39 -17 108.5z" />
<glyph unicode="&#x140;" horiz-adv-x="772" d="M137 240v1253l15 14h102q80 0 112.5 -37.5t32.5 -128.5v-1050q0 -94 86 -94h64q23 -57 22 -129q0 -35 -6 -60q-125 -18 -198 -18q-119 0 -174.5 60.5t-55.5 189.5zM514 733.5q0 69.5 16 108.5q57 31 125 30.5t121 -30.5q18 -43 18.5 -108.5t-18.5 -108.5 q-43 -33 -121 -33q-76 0 -125 33q-16 39 -16 108.5z" />
<glyph unicode="&#x141;" horiz-adv-x="1077" d="M20 725l166 55v617l15 14h100q82 0 121 -42t39 -134v-373l338 119l20 -10q27 -80 4 -203l-362 -123v-420q88 8 188 8h379q0 -72 -6 -104q-23 -133 -180 -133h-496q-74 0 -117 44t-43 120v401l-141 -51l-20 10q-29 90 -5 205z" />
<glyph unicode="&#x142;" horiz-adv-x="714" d="M41 715l164 82v696l14 14h100q80 0 113 -37.5t33 -128.5v-413l158 80l18 -11q27 -82 4 -194l-180 -92v-420q0 -94 86 -94h65q20 -53 21 -129q0 -43 -4 -60q-125 -18 -199 -18q-119 0 -174 60.5t-55 189.5v340l-139 -70l-21 10q-27 86 -4 195z" />
<glyph unicode="&#x143;" horiz-adv-x="1409" d="M170 0v1395q59 14 162 14q90 0 162 -10l372 -793l133 -303l7 2q-20 297 -21 561v375q0 92 35 131t117 39h88l14 -14v-1393q-63 -14 -166 -14q-90 0 -162 10l-376 793q-82 180 -123 286l-9 -2q23 -289 23 -557v-520q-57 -10 -125 -10q-78 0 -131 10zM479 1622l436 264 q37 -29 72 -89t39 -118l-469 -188q-29 16 -51.5 55t-26.5 76z" />
<glyph unicode="&#x144;" horiz-adv-x="1118" d="M141 0v1014l13 14h102q117 0 143 -123q150 129 308 129q137 0 207.5 -96t70.5 -254v-446q0 -131 43 -195q-68 -57 -168 -57q-78 0 -110.5 41t-32.5 125v477q0 90 -22.5 128t-84.5 38q-106 0 -202 -99v-696q-61 -10 -133 -10t-134 10zM399 1210l308 336q53 -16 103 -63 t69 -101l-367 -278q-82 26 -113 106z" />
<glyph unicode="&#x147;" horiz-adv-x="1409" d="M170 0v1395q59 14 162 14q90 0 162 -10l372 -793l133 -303l7 2q-20 297 -21 561v375q0 92 35 131t117 39h88l14 -14v-1393q-63 -14 -166 -14q-90 0 -162 10l-376 793q-82 180 -123 286l-9 -2q23 -289 23 -557v-520q-57 -10 -125 -10q-78 0 -131 10zM356 1743 q12 39 46 70.5t65 41.5l235 -151l242 172q33 -12 69 -44t46 -67l-242 -241q-102 -27 -229 -2z" />
<glyph unicode="&#x148;" horiz-adv-x="1118" d="M141 0v1014l13 14h102q117 0 143 -123q150 129 308 129q137 0 207.5 -96t70.5 -254v-446q0 -131 43 -195q-68 -57 -168 -57q-78 0 -110.5 41t-32.5 125v477q0 90 -22.5 128t-84.5 38q-106 0 -202 -99v-696q-61 -10 -133 -10t-134 10zM258 1403q16 39 52 70t69 43 l188 -183l205 197q82 -31 121 -107l-219 -278q-47 -14 -110.5 -13t-110.5 13z" />
<glyph unicode="&#x152;" horiz-adv-x="1857" d="M86 700q0 414 221 603q154 125 375 124q82 0 283 -28h778q8 -41 8 -109q0 -66 -22 -123h-451h-135q0 -27 1 -70.5t1 -70.5v-211q51 2 133 2h348q14 -49 14 -112.5t-14 -112.5h-348h-133v-240q0 -23 -1 -62.5t-1 -64.5q86 4 143 4h502q0 -68 -6 -100q-20 -131 -174 -131 h-645q-182 -27 -281 -27q-221 0 -375 125q-221 188 -221 604zM371 700q0 -514 309 -514q88 0 199 29v967q-106 31 -197 30q-311 0 -311 -512z" />
<glyph unicode="&#x153;" horiz-adv-x="1667" d="M76 508q0 276 145 422q121 115 311 114q213 0 326 -145q106 145 316 145q195 0 305 -121.5t110 -312.5q1 -100 -22 -188h-561q6 -117 52 -179.5t154 -62.5q123 0 273 70q59 -59 76 -162q-160 -117 -390 -117q-219 0 -319 140q-109 -139 -320 -140q-193 0 -311 117 q-145 145 -145 420zM350 508q0 -334 185 -334q182 0 182 334q0 336 -182 336q-185 0 -185 -336zM1004 610h333v23q1 219 -163 219q-158 0 -170 -242z" />
<glyph unicode="&#x154;" horiz-adv-x="1245" d="M170 0v1389l14 12q328 8 467 8q221 0 351.5 -110.5t130.5 -321.5q0 -137 -74 -236.5t-182 -138.5q102 -37 151 -180l76 -207q35 -100 96 -149q-27 -37 -77 -59.5t-105 -22.5q-72 0 -106.5 36.5t-67.5 124.5l-86 244q-27 72 -68 110t-123 38h-125v-537q-57 -10 -137 -10 q-82 0 -135 10zM385 1622l436 264q37 -29 72 -89t39 -118l-469 -188q-29 16 -51.5 55t-26.5 76zM442 750q106 6 189 6q219 0 219 221t-219 221q-126 0 -189 2v-450z" />
<glyph unicode="&#x155;" horiz-adv-x="784" d="M82 893q8 37 33.5 78t52.5 61q166 -20 227 -184q78 182 260 182q68 0 123 -14q0 -143 -65 -250q-31 10 -95 14q-119 0 -192 -127v-653q-61 -10 -135 -10q-68 0 -133 10v682q0 145 -76 211zM247 1210l308 336q53 -16 103 -63t69 -101l-367 -278q-82 26 -113 106z" />
<glyph unicode="&#x156;" horiz-adv-x="1245" d="M170 0v1389l14 12q328 8 467 8q221 0 351.5 -110.5t130.5 -321.5q0 -137 -74 -236.5t-182 -138.5q102 -37 151 -180l76 -207q35 -100 96 -149q-27 -37 -77 -59.5t-105 -22.5q-72 0 -106.5 36.5t-67.5 124.5l-86 244q-27 72 -68 110t-123 38h-125v-537q-57 -10 -137 -10 q-82 0 -135 10zM438 -459q129 80 129 201q0 61 -26 108q47 33 116.5 41t126.5 -12q23 -49 23 -115q0 -113 -76 -200.5t-209 -132.5q-66 23 -84 110zM442 750q106 6 189 6q219 0 219 221t-219 221q-126 0 -189 2v-450z" />
<glyph unicode="&#x157;" horiz-adv-x="784" d="M76 -459q129 80 129 201q0 61 -27 108q47 33 117 41t127 -12q23 -49 22 -115q0 -113 -75.5 -200.5t-208.5 -132.5q-66 23 -84 110zM82 893q8 37 33.5 78t52.5 61q166 -20 227 -184q78 182 260 182q68 0 123 -14q0 -143 -65 -250q-31 10 -95 14q-119 0 -192 -127v-653 q-61 -10 -135 -10q-68 0 -133 10v682q0 145 -76 211z" />
<glyph unicode="&#x158;" horiz-adv-x="1245" d="M170 0v1389l14 12q328 8 467 8q221 0 351.5 -110.5t130.5 -321.5q0 -137 -74 -236.5t-182 -138.5q102 -37 151 -180l76 -207q35 -100 96 -149q-27 -37 -77 -59.5t-105 -22.5q-72 0 -106.5 36.5t-67.5 124.5l-86 244q-27 72 -68 110t-123 38h-125v-537q-57 -10 -137 -10 q-82 0 -135 10zM262 1743q12 39 46 70.5t65 41.5l235 -151l242 172q33 -12 68.5 -44t46.5 -67l-242 -241q-102 -27 -229 -2zM442 750q106 6 189 6q219 0 219 221t-219 221q-126 0 -189 2v-450z" />
<glyph unicode="&#x159;" horiz-adv-x="784" d="M82 893q8 37 33.5 78t52.5 61q166 -20 227 -184q78 182 260 182q68 0 123 -14q0 -143 -65 -250q-31 10 -95 14q-119 0 -192 -127v-653q-61 -10 -135 -10q-68 0 -133 10v682q0 145 -76 211zM104 1403q16 39 52 70t69 43l188 -183l205 197q82 -31 121 -107l-219 -278 q-47 -14 -110.5 -13t-110.5 13z" />
<glyph unicode="&#x15a;" horiz-adv-x="1138" d="M45 123q6 57 38 115.5t73 93.5q213 -135 413 -135q100 0 155.5 46t57.5 115q0 117 -157 187l-242 102q-287 125 -287 367q0 180 136.5 296.5t345.5 116.5q242 0 458 -112q-6 -125 -96 -209q-205 98 -360 98q-96 0 -149.5 -45t-53.5 -110q0 -94 145 -156l242 -102 q145 -61 226 -162t81 -232q0 -190 -134 -308t-386 -118q-277 0 -506 152zM354 1622l437 264q37 -29 71.5 -89t38.5 -118l-469 -188q-29 16 -51.5 55t-26.5 76z" />
<glyph unicode="&#x15b;" horiz-adv-x="901" d="M51 72q2 45 25.5 99t54.5 85q164 -88 285 -88q70 0 109.5 26.5t41.5 71.5q0 74 -110 115l-115 43q-258 96 -258 301q0 145 105.5 232t275.5 87q84 0 186.5 -23.5t169.5 -55.5q2 -49 -20.5 -105.5t-55.5 -83.5q-160 72 -280 72q-53 0 -84 -25.5t-31 -66.5q0 -61 103 -101 l125 -45q266 -100 266 -319q0 -145 -110.5 -232.5t-293.5 -87.5q-215 1 -389 101zM281 1210l307 336q53 -16 103 -63t69 -101l-367 -278q-81 26 -112 106z" />
<glyph unicode="&#x160;" horiz-adv-x="1138" d="M45 123q6 57 38 115.5t73 93.5q213 -135 413 -135q100 0 155.5 46t57.5 115q0 117 -157 187l-242 102q-287 125 -287 367q0 180 136.5 296.5t345.5 116.5q242 0 458 -112q-6 -125 -96 -209q-205 98 -360 98q-96 0 -149.5 -45t-53.5 -110q0 -94 145 -156l242 -102 q145 -61 226 -162t81 -232q0 -190 -134 -308t-386 -118q-277 0 -506 152zM231 1743q12 39 46 70.5t65 41.5l236 -151l241 172q33 -12 69 -44t46 -67l-242 -241q-102 -27 -229 -2z" />
<glyph unicode="&#x161;" horiz-adv-x="901" d="M51 72q2 45 25.5 99t54.5 85q164 -88 285 -88q70 0 109.5 26.5t41.5 71.5q0 74 -110 115l-115 43q-258 96 -258 301q0 145 105.5 232t275.5 87q84 0 186.5 -23.5t169.5 -55.5q2 -49 -20.5 -105.5t-55.5 -83.5q-160 72 -280 72q-53 0 -84 -25.5t-31 -66.5q0 -61 103 -101 l125 -45q266 -100 266 -319q0 -145 -110.5 -232.5t-293.5 -87.5q-215 1 -389 101zM137 1403q16 39 52 70t69 43l188 -183l205 197q82 -31 121 -107l-219 -278q-47 -14 -110.5 -13t-110.5 13z" />
<glyph unicode="&#x164;" horiz-adv-x="1026" d="M16.5 1284q-0.5 64 10.5 115h979q14 -51 14 -107q0 -66 -35 -94.5t-113 -28.5h-96q-14 0 -61 1t-62 1h-2q0 -29 1 -76.5t1 -74.5v-1020q-59 -10 -139 -10q-78 0 -137 10v1020q0 27 1 75t1 76h-2q-14 0 -61.5 -1t-61.5 -1h-227q-10 51 -10.5 115zM160 1743 q12 39 45.5 70.5t64.5 41.5l236 -151l242 172q33 -12 68.5 -44t45.5 -67l-241 -241q-102 -27 -230 -2z" />
<glyph unicode="&#x165;" horiz-adv-x="796" d="M14 924q0 53 11 94l155 -2v147q0 90 33 127t113 37h102l14 -12v-301l248 4q12 -49 12 -94q0 -49 -12 -99l-248 4v-538q0 -94 88 -94h127q20 -61 21 -129q0 -43 -6 -60q-125 -18 -246 -18q-246 0 -246 250v587l-155 -2q-10 41 -11 99zM563 1151l25 461q49 14 120.5 4 t110.5 -39l-102 -436q-35 -12 -81 -9t-73 19z" />
<glyph unicode="&#x16e;" horiz-adv-x="1374" d="M152 504v893l12 14h102q82 0 121 -42t39 -134v-733q0 -311 262 -312q260 0 260 312v897q53 10 135 10q87 0 140 -10v-895q0 -254 -141.5 -393.5t-395.5 -139.5q-252 0 -393 139.5t-141 393.5zM416 1605.5q0 104.5 74.5 176t193.5 71.5t193.5 -71.5t74.5 -176t-74.5 -175 t-193.5 -70.5t-193.5 70.5t-74.5 175zM582 1606q0 -45 28.5 -76t73.5 -31t73.5 31t28.5 76q0 47 -28.5 77.5t-73.5 30.5t-73.5 -30.5t-28.5 -77.5z" />
<glyph unicode="&#x16f;" horiz-adv-x="1122" d="M90 975q68 57 168 57q78 0 110.5 -42t32.5 -126v-477q0 -88 22.5 -126t84.5 -38q109 0 203 94v699q47 10 133 10t135 -10v-727q0 -121 57 -170q-10 -37 -35.5 -76t-54.5 -59q-150 14 -207 145q-158 -147 -325 -147q-137 0 -209 96t-72 254v448q0 127 -43 195zM276 1355.5 q0 104.5 75 176.5t193.5 72t193.5 -72t75 -176.5t-75 -176t-193.5 -71.5t-193.5 71.5t-75 176zM442 1356q0 -47 28.5 -77t74 -30t74 30t28.5 77t-28.5 77.5t-74 30.5t-74 -30.5t-28.5 -77.5z" />
<glyph unicode="&#x178;" horiz-adv-x="1054" d="M-4 1366q86 49 170 49q55 0 88 -26.5t57 -88.5l129 -315q53 -139 88 -274h13q33 118 96 282l162 406q45 10 112 10q76 0 136 -18l10 -17l-393 -938v-436q-53 -10 -137.5 -10t-137.5 10v444zM172 1632q0 59 23 92q42 29 110 29q63 0 117 -29q20 -31 20 -92q0 -66 -20 -96 q-53 -29 -117 -29q-68 0 -110 29q-23 33 -23 96zM623 1632q0 59 24 92q53 29 116.5 29t110.5 -29q23 -33 23 -92q0 -63 -23 -96q-47 -29 -110.5 -29t-116.5 29q-25 33 -24 96z" />
<glyph unicode="&#x179;" horiz-adv-x="1169" d="M86 168q0 55 35 108l485 699q74 104 164 207l-6 6q-131 -16 -318 -17h-311q-10 41 -10 93q0 63 18 135h877q39 -133 39 -172q0 -53 -33 -101l-483 -696q-80 -111 -162 -205l6 -6q176 12 279 12h161q143 0 236 43q20 -57 20 -127q0 -72 -49 -109.5t-135 -37.5h-780 q-33 137 -33 168zM354 1622l437 264q37 -29 71.5 -89t38.5 -118l-469 -188q-29 16 -51.5 55t-26.5 76z" />
<glyph unicode="&#x17a;" horiz-adv-x="917" d="M61 137.5q0 47.5 39 100.5l287 387q31 41 164 196l-6 8q-119 -14 -264 -14h-185q-10 45 -10 84q0 57 16 117h701q35 -104 35 -150q0 -47 -29 -84l-289 -391q-90 -117 -158 -190l7 -11q80 10 176 11h84q137 0 205 32q27 -66 26 -112q0 -121 -153 -121h-613 q-33 90 -33 137.5zM286 1210l308 336q53 -16 103 -63t69 -101l-367 -278q-82 26 -113 106z" />
<glyph unicode="&#x17b;" horiz-adv-x="1169" d="M86 168q0 55 35 108l485 699q74 104 164 207l-6 6q-131 -16 -318 -17h-311q-10 41 -10 93q0 63 18 135h877q39 -133 39 -172q0 -53 -33 -101l-483 -696q-80 -111 -162 -205l6 -6q176 12 279 12h161q143 0 236 43q20 -57 20 -127q0 -72 -49 -109.5t-135 -37.5h-780 q-33 137 -33 168zM432 1655q0 63 21 106q53 29 133 29q86 0 133 -29q20 -43 20 -106q0 -61 -20 -105q-47 -29 -133 -28q-92 0 -133 28q-21 44 -21 105z" />
<glyph unicode="&#x17c;" horiz-adv-x="917" d="M61 137.5q0 47.5 39 100.5l287 387q31 41 164 196l-6 8q-119 -14 -264 -14h-185q-10 45 -10 84q0 57 16 117h701q35 -104 35 -150q0 -47 -29 -84l-289 -391q-90 -117 -158 -190l7 -11q80 10 176 11h84q137 0 205 32q27 -66 26 -112q0 -121 -153 -121h-613 q-33 90 -33 137.5zM307 1304.5q0 59.5 21 106.5q49 27 133 27q90 0 133 -27q20 -47 20 -106.5t-20 -106.5q-47 -29 -133 -29t-133 29q-21 47 -21 106.5z" />
<glyph unicode="&#x17d;" horiz-adv-x="1169" d="M86 168q0 55 35 108l485 699q74 104 164 207l-6 6q-131 -16 -318 -17h-311q-10 41 -10 93q0 63 18 135h877q39 -133 39 -172q0 -53 -33 -101l-483 -696q-80 -111 -162 -205l6 -6q176 12 279 12h161q143 0 236 43q20 -57 20 -127q0 -72 -49 -109.5t-135 -37.5h-780 q-33 137 -33 168zM231 1743q12 39 46 70.5t65 41.5l236 -151l241 172q33 -12 69 -44t46 -67l-242 -241q-102 -27 -229 -2z" />
<glyph unicode="&#x17e;" horiz-adv-x="917" d="M61 137.5q0 47.5 39 100.5l287 387q31 41 164 196l-6 8q-119 -14 -264 -14h-185q-10 45 -10 84q0 57 16 117h701q35 -104 35 -150q0 -47 -29 -84l-289 -391q-90 -117 -158 -190l7 -11q80 10 176 11h84q137 0 205 32q27 -66 26 -112q0 -121 -153 -121h-613 q-33 90 -33 137.5zM145 1403q16 39 52 70t69 43l188 -183l205 197q82 -31 121 -107l-219 -278q-47 -14 -110.5 -13t-110.5 13z" />
<glyph unicode="&#x237;" horiz-adv-x="598" d="M39 -287q90 41 124 93.5t34 158.5v748q0 113 -95 112h-45q-12 47 -12 93q0 49 12 96q106 10 174 10h37q88 0 139.5 -57.5t51.5 -157.5v-760q0 -119 -11.5 -191.5t-47 -138t-105.5 -105.5t-182 -65q-68 59 -74 164z" />
<glyph unicode="&#x2c6;" d="M92 1217l215 276q98 33 223 0l193 -256q-16 -39 -51 -71t-68 -42l-190 183l-201 -195q-78 29 -121 105z" />
<glyph unicode="&#x2c7;" d="M92 1403q16 39 52 70t69 43l188 -183l205 197q82 -31 121 -107l-219 -278q-47 -14 -110.5 -13t-110.5 13z" />
<glyph unicode="&#x2d9;" d="M254 1304.5q0 59.5 20 106.5q49 27 134 27q90 0 133 -27q20 -47 20 -106.5t-20 -106.5q-47 -29 -133 -29t-134 29q-20 47 -20 106.5z" />
<glyph unicode="&#x2da;" d="M139 1355.5q0 104.5 75 176.5t193.5 72t193.5 -72t75 -176.5t-75 -176t-193.5 -71.5t-193.5 71.5t-75 176zM305 1356q0 -47 28.5 -77t74 -30t74 30t28.5 77t-28.5 77.5t-74 30.5t-74 -30.5t-28.5 -77.5z" />
<glyph unicode="&#x2dc;" d="M33 1243l18 41q31 76 89.5 120t131.5 44q66 0 123 -33l101 -51q37 -18 63 -18q39 0 76 51l20 26q37 0 75 -23.5t52 -58.5l-18 -38q-33 -78 -91.5 -122t-129.5 -44q-62 -1 -123 34l-101 50q-33 18 -63 18q-39 0 -76 -49l-20 -29q-39 2 -76 24.5t-51 57.5z" />
<glyph unicode="&#x3bc;" horiz-adv-x="1132" d="M96 -393q43 66 43 196v1213q45 10 133 10q82 0 131 -10v-647q4 -76 42 -118t108 -42q94 0 166 94v713q47 10 133 10t135 -10v-725q0 -127 57 -172q-8 -35 -34.5 -75t-55.5 -60q-135 12 -198 127q-84 -129 -236 -129q-72 0 -133 38v-286q0 -92 -25.5 -137.5t-101.5 -45.5 q-92 0 -164 56z" />
<glyph unicode="&#x1e9e;" horiz-adv-x="1314" d="M18 872q0 51 11 103l176 -2v57q0 195 128 298.5t343 103.5q217 0 348 -114t131 -304q0 -72 -33 -158q-74 -18 -110.5 -56t-36.5 -79q0 -45 57 -96l78 -74q147 -141 147 -270q0 -143 -109.5 -226.5t-287.5 -83.5q-147 0 -264 60q2 45 24.5 101t53.5 85q86 -43 160 -43 q63 0 102 28.5t39 76.5q0 55 -72 120l-84 76q-129 117 -129 227q0 72 50.5 139.5t136.5 102.5q6 31 6 64q0 94 -53.5 156.5t-153.5 62.5q-199 0 -199 -226v-1001q-68 -10 -137 -10q-67 0 -135 10v768l-176 -2q-10 51 -11 106z" />
<glyph unicode="&#x2000;" horiz-adv-x="944" />
<glyph unicode="&#x2001;" horiz-adv-x="1888" />
<glyph unicode="&#x2002;" horiz-adv-x="944" />
<glyph unicode="&#x2003;" horiz-adv-x="1888" />
<glyph unicode="&#x2004;" horiz-adv-x="629" />
<glyph unicode="&#x2005;" horiz-adv-x="472" />
<glyph unicode="&#x2006;" horiz-adv-x="314" />
<glyph unicode="&#x2007;" horiz-adv-x="314" />
<glyph unicode="&#x2008;" horiz-adv-x="236" />
<glyph unicode="&#x2009;" horiz-adv-x="377" />
<glyph unicode="&#x200a;" horiz-adv-x="104" />
<glyph unicode="&#x2010;" horiz-adv-x="745" d="M88 548.5q0 65.5 12 110.5h543q12 -45 12 -110.5t-12 -110.5h-543q-12 45 -12 110.5z" />
<glyph unicode="&#x2011;" horiz-adv-x="745" d="M88 548.5q0 65.5 12 110.5h543q12 -45 12 -110.5t-12 -110.5h-543q-12 45 -12 110.5z" />
<glyph unicode="&#x2012;" horiz-adv-x="745" d="M88 548.5q0 65.5 12 110.5h543q12 -45 12 -110.5t-12 -110.5h-543q-12 45 -12 110.5z" />
<glyph unicode="&#x2013;" horiz-adv-x="1114" d="M119 543q0 63 12 104h852q12 -41 12 -104q0 -60 -12 -105h-852q-12 45 -12 105z" />
<glyph unicode="&#x2014;" horiz-adv-x="1652" d="M145 543q0 61 11 104h1341q12 -41 12 -104q0 -60 -12 -105h-1341q-10 45 -11 105z" />
<glyph unicode="&#x2018;" horiz-adv-x="509" d="M82 1196q0 139 80 246.5t233 154.5q35 -16 51.5 -52t12.5 -72q-154 -63 -160 -175q74 -14 90 -28q23 -37 23 -109q0 -74 -23 -114q-55 -33 -141 -33q-93 0 -142 33q-25 68 -24 149z" />
<glyph unicode="&#x2019;" horiz-adv-x="509" d="M49 1139q61 23 110.5 68.5t51.5 105.5q-68 8 -90 26q-23 41 -23 109q0 82 23 117q61 33 141 32q88 1 139 -32q25 -63 25 -150q0 -139 -80 -247.5t-233 -155.5q-33 16 -50.5 52t-13.5 75z" />
<glyph unicode="&#x201a;" horiz-adv-x="509" d="M51 -193q61 23 109.5 69t50.5 106q-66 10 -88 26q-23 41 -23 111q0 80 23 114q61 33 141 33q88 0 139 -33q25 -59 25 -149q0 -139 -80 -246.5t-233 -156.5q-33 16 -50.5 52t-13.5 74z" />
<glyph unicode="&#x201c;" horiz-adv-x="950" d="M78 1196q0 139 80 246.5t233 154.5q35 -16 51.5 -52t12.5 -72q-154 -63 -160 -175q74 -14 90 -28q23 -37 23 -109q0 -74 -23 -114q-55 -33 -141 -33q-93 0 -142 33q-25 68 -24 149zM518 1196q0 139 80 246.5t233 154.5q35 -16 51.5 -52t12.5 -72q-154 -63 -160 -175 q74 -14 90 -28q23 -37 23 -109q0 -74 -23 -114q-55 -33 -141 -33q-92 0 -141 33q-25 68 -25 149z" />
<glyph unicode="&#x201d;" horiz-adv-x="950" d="M55 1139q61 23 110.5 68.5t51.5 105.5q-68 8 -90 26q-23 41 -23 109q0 82 23 117q61 33 141 32q89 1 140 -32q25 -63 24 -150q0 -139 -80 -247.5t-233 -155.5q-33 16 -50.5 52t-13.5 75zM498 1139q61 23 110 68.5t51 105.5q-68 8 -90 26q-23 41 -22 109q0 82 22 117 q61 33 142 32q88 1 139 -32q25 -63 24 -150q0 -139 -79.5 -247.5t-233.5 -155.5q-33 16 -50 52t-13 75z" />
<glyph unicode="&#x201e;" horiz-adv-x="952" d="M51 -193q61 23 109.5 69t50.5 106q-66 10 -88 26q-23 41 -23 111q0 80 23 114q61 33 141 33q88 0 139 -33q25 -59 25 -149q0 -139 -80 -246.5t-233 -156.5q-33 16 -50.5 52t-13.5 74zM492 -193q61 23 109 69t50 106q-66 10 -88 26q-23 41 -22 111q0 80 22 114 q61 33 142 33q88 0 139 -33q25 -59 24 -149q0 -139 -79.5 -246.5t-233.5 -156.5q-33 16 -50.5 52t-12.5 74z" />
<glyph unicode="&#x2022;" horiz-adv-x="931" d="M209 555q0 115 33 188q100 55 229 56q125 0 225 -56q31 -70 31 -188q0 -123 -31 -193q-84 -55 -225 -55t-229 55q-33 74 -33 193z" />
<glyph unicode="&#x202f;" horiz-adv-x="377" />
<glyph unicode="&#x2039;" horiz-adv-x="698" d="M55.5 522q-0.5 47 14.5 80l405 383q43 -12 87.5 -54t58.5 -85l-269 -320l277 -325q-14 -43 -59.5 -84t-90.5 -54l-409 379q-14 33 -14.5 80z" />
<glyph unicode="&#x203a;" horiz-adv-x="698" d="M68 848q14 43 59 84t90 53l412 -381q12 -31 12 -78t-12 -80l-406 -383q-45 12 -88 54.5t-57 85.5l266 319z" />
<glyph unicode="&#x2044;" horiz-adv-x="526" d="M-254 0l774 1399q53 12 138 12t120 -12l-772 -1399q-55 -12 -139 -12t-121 12z" />
<glyph unicode="&#x205f;" horiz-adv-x="472" />
<glyph unicode="&#x2074;" horiz-adv-x="860" d="M70 956q0 31 30 99l236 522q51 6 115.5 -7.5t97.5 -39.5l-129 -283q-72 -168 -131 -241l4 -5q20 2 49 3.5t59.5 3.5t42.5 2v30v56q0 76 41 118.5t113 42.5h55l9 -8v-110q0 -18 -1.5 -65.5t-1.5 -63.5h115q8 -33 8 -72q0 -59 -16 -115h-43q-8 0 -30.5 1t-33.5 1v-151 q-41 -10 -102 -10q-66 0 -113 10v59q0 16 1 45t1 47q-18 0 -48.5 -2t-51.5 -2h-227q-49 80 -49 135z" />
<glyph unicode="&#x20ac;" horiz-adv-x="1153" d="M27 502q0 43 10 86h147q-2 25 -2 74t2 73h-147q-10 41 -10 84q0 45 10 88h166q80 449 469 449q248 0 452 -174q-8 -45 -39.5 -91t-74.5 -71q-152 117 -301 117q-186 0 -238 -230h375q10 -43 10 -88q0 -43 -10 -84h-395v-73v-74h395q10 -43 10 -86q0 -45 -10 -86h-373 q49 -225 236 -226q147 0 301 115q96 -55 114 -162q-203 -172 -452 -172q-389 0 -469 445h-166q-10 41 -10 86z" />
<glyph unicode="&#xe000;" horiz-adv-x="1035" d="M0 1035h1035v-1035h-1035v1035z" />
<glyph horiz-adv-x="450" />
<glyph d="M193 -459q129 80 129 201q0 61 -27 108q47 33 117 41t127 -12q23 -49 22 -115q0 -113 -75.5 -200.5t-209.5 -132.5q-66 23 -83 110z" />
<glyph d="M115 1679q4 57 38.5 117.5t71.5 89.5l437 -264q-16 -94 -78 -131z" />
<glyph d="M176 1622l436 264q37 -29 72 -89t39 -118l-469 -188q-29 16 -51.5 55t-26.5 76z" />
<glyph d="M51 1602l240 239q117 25 227 0l232 -221q-12 -39 -44 -70t-65 -43l-235 152l-242 -172q-33 12 -68 45t-45 70z" />
<glyph d="M45 1632q0 59 23 92q42 29 110 29q63 0 117 -29q20 -31 20 -92q0 -66 -20 -96q-53 -29 -117 -29q-68 0 -110 29q-23 33 -23 96zM496 1632q0 59 24 92q53 29 116.5 29t111.5 -29q23 -33 22 -92q0 -63 -22 -96q-47 -29 -111 -29t-117 29q-25 33 -24 96z" />
<glyph d="M53 1743q12 39 46 70.5t65 41.5l235 -151l242 172q33 -12 68.5 -44t46.5 -67l-242 -241q-102 -27 -229 -2z" />
<glyph d="M139 1605.5q0 104.5 75 176t193.5 71.5t193.5 -71.5t75 -176t-75 -175t-193.5 -70.5t-193.5 70.5t-75 175zM305 1606q0 -45 28.5 -76t74 -31t74 31t28.5 76q0 47 -28.5 77.5t-74 30.5t-74 -30.5t-28.5 -77.5z" />
<glyph d="M16 1624l19 39q76 166 233 166q61 0 127 -35l105 -49q37 -18 65 -19q43 0 78 50l21 26q41 0 80.5 -22.5t54.5 -57.5l-19 -39q-76 -166 -233 -165q-66 -1 -127 34l-105 50q-33 18 -65 18q-45 0 -78 -49l-20 -29q-41 2 -81 24.5t-55 57.5z" />
<glyph d="M254 1655q0 63 20 106q53 29 134 29q86 0 133 -29q20 -43 20 -106q0 -61 -20 -105q-47 -29 -133 -28q-92 0 -134 28q-20 44 -20 105z" />
<glyph horiz-adv-x="911" d="M399 1157l25 461q49 14 120.5 4t110.5 -39l-102 -436q-35 -12 -81 -9t-73 19z" />
<glyph d="M193 -459q129 80 129 201q0 61 -27 108q47 33 117 41t127 -12q23 -49 22 -115q0 -113 -75.5 -200.5t-209.5 -132.5q-66 23 -83 110z" />
<glyph horiz-adv-x="1146" d="M18 20l402 1102q84 12 162 13q68 0 153 -13l395 -1110q-63 -29 -153 -28q-57 0 -96 23.5t-62 92.5l-41 123q-14 0 -43.5 -1t-40.5 -1h-266q-8 0 -39 1t-45 1l-76 -223q-49 -12 -114 -12q-84 0 -127 20zM416 436q12 0 38.5 1t37.5 1h149q8 0 30.5 -1t35.5 -1l-43 131 q-31 100 -95 342h-10q-61 -227 -92 -323z" />
<glyph horiz-adv-x="1140" d="M160 8v1104l10 12q229 8 405 9q426 0 426 -297q0 -76 -44 -140.5t-115 -91.5q94 -27 156.5 -105.5t62.5 -174.5q0 -332 -459 -332q-86 0 -243.5 3t-188.5 3zM424 182q61 2 176 2q186 0 186 152q0 63 -46.5 110.5t-155.5 47.5h-160v-312zM424 684h139q172 0 172 129 t-170 129q-96 0 -141 2v-260z" />
<glyph horiz-adv-x="1110" d="M74 557q0 295 150.5 444.5t375.5 149.5q217 0 336 -109.5t119 -255.5q0 -147 -162 -147q-28 0 -94 8q0 291 -207 291q-240 0 -240 -383q0 -186 72 -272t188 -86q147 0 301 118q41 -23 78 -75t49 -97q-195 -172 -469 -172q-135 0 -235 50.5t-155.5 137.5t-81 186 t-25.5 212z" />
<glyph horiz-adv-x="1220" d="M160 10v1102l10 12q319 8 430 9q88 0 184.5 -23t155.5 -63q119 -84 161 -203t42 -285t-41 -283.5t-162 -201.5q-117 -82 -340 -82q-190 0 -430 6zM428 201q31 0 85 1t87 1q266 0 266 356q0 362 -266 363q-111 0 -172 2v-723z" />
<glyph horiz-adv-x="1064" d="M160 154v958l10 10h778q8 -39 8 -106q0 -59 -22 -113h-385h-123q0 -16 1 -50t1 -56v-125q47 2 121 2h291q14 -35 14 -104.5t-14 -108.5h-291h-121v-137q0 -23 -1 -58t-1 -53q82 4 133 4h424q0 -59 -4 -90q-25 -129 -164 -129h-500q-72 0 -113.5 42t-41.5 114z" />
<glyph horiz-adv-x="978" d="M160 0v1114l10 8h762q12 -45 12 -100q0 -123 -137 -123h-236h-143q0 -20 1 -62t1 -61v-121h47h346q12 -37 13 -104q0 -72 -13 -111h-346h-47v-440q-57 -10 -135 -10t-135 10z" />
<glyph horiz-adv-x="1181" d="M74 557q0 297 160.5 445.5t400 148.5t428.5 -104q-6 -55 -39 -115t-72 -86q-147 86 -307 86q-137 0 -215 -94.5t-78 -282.5q0 -379 307 -379q86 0 164 17v118q0 8 4 103h-110q-123 0 -123 108q0 62 14 109q94 4 285 4q102 0 143 -37t41 -113v-446q-203 -68 -467 -68 q-276 0 -406 160t-130 426z" />
<glyph horiz-adv-x="1277" d="M160 0v1122q49 12 137 13q82 0 133 -13v-309q0 -23 -1 -61.5t-1 -59.5q14 0 49 1t47 1h230q12 0 47 -1t49 -1q0 20 -1 59.5t-1 61.5v309q51 12 133 13q86 0 137 -13v-1122q-57 -10 -135 -10t-135 10v352q0 25 1 63t1 60q-14 0 -49 -1t-47 -1h-230q-12 0 -47 1t-49 1 q0 -23 1 -60.5t1 -62.5v-352q-53 -10 -133 -10q-86 0 -137 10z" />
<glyph horiz-adv-x="602" d="M164 0v1122q53 10 139 11q78 0 133 -11v-1122q-55 -10 -133 -10q-86 0 -139 10z" />
<glyph horiz-adv-x="849" d="M4 57q18 117 92 191q88 -57 183 -58q88 0 126.5 54.5t38.5 165.5v712q53 10 136 11q92 0 135 -11v-704q0 -225 -94.5 -335t-309.5 -110q-184 0 -307 84z" />
<glyph horiz-adv-x="1150" d="M160 0v1122q51 10 137 11q80 0 133 -11v-436l47 2q37 0 49.5 9.5t32.5 41.5l182 301q29 51 59.5 73t92.5 22q70 0 160 -13l16 -16l-233 -377q-49 -80 -101 -119q76 -16 118 -60t77 -124l86 -201q49 -114 98 -157q-29 -37 -78 -60.5t-100 -21.5q-66 2 -99.5 32.5 t-62.5 98.5l-100 231q-29 68 -60.5 93.5t-93.5 27.5q-53 0 -90 -2v-467q-53 -10 -133 -10q-86 0 -137 10z" />
<glyph horiz-adv-x="972" d="M156 154v966l12 13h104q80 0 118 -40t38 -130v-750q108 10 182 10h316q-4 -80 -8 -96q-23 -131 -175 -131h-430q-72 0 -114.5 42t-42.5 116z" />
<glyph horiz-adv-x="1529" d="M119 4l112 1118q63 14 175 15q117 0 169 -15l130 -479q35 -131 55 -248h12q14 123 53 248l127 479q72 14 170 15q104 0 174 -15l113 -1118q-49 -14 -137 -14q-76 0 -125 10l-35 451q-2 35 -10 403h-10l-189 -684q-66 -10 -139 -10q-78 0 -139 10l-187 684h-12 q0 -283 -10 -403l-35 -451q-45 -10 -123 -10q-88 0 -139 14z" />
<glyph horiz-adv-x="1292" d="M160 0v1118q76 14 153 15q113 0 156 -11l299 -571q14 -25 121 -262l12 4q-25 369 -24 434v256q0 88 34.5 120t118.5 32h92l11 -13v-1118q-59 -14 -154 -14q-119 0 -160 10l-301 571q-16 29 -61 127.5t-56 118.5l-6 -2q16 -291 17 -426v-389q-55 -10 -125 -10 q-74 0 -127 10z" />
<glyph horiz-adv-x="1224" d="M74 561q0 332 200 490q135 100 338 100q207 0 340 -100q104 -80 152.5 -212t48.5 -278q0 -332 -201 -489q-133 -100 -339.5 -100.5t-338.5 100.5q-200 157 -200 489zM352 561q0 -387 260 -387t260 387t-260 387t-260 -387z" />
<glyph horiz-adv-x="1071" d="M160 0v1112l10 12q20 0 171 4.5t230 4.5q203 0 325 -95t122 -288q0 -186 -122 -283.5t-325 -97.5h-141v-369q-53 -10 -133 -10q-86 0 -137 10zM430 571h123q104 0 145 53.5t41 125t-41 125t-145 53.5q-70 0 -123 2v-359z" />
<glyph horiz-adv-x="1228" d="M74 561q0 332 200 490q135 100 338 100q207 0 340 -100q104 -80 152.5 -212t48.5 -278q0 -258 -131 -409q-49 -57 -113 -91l4 -2q113 -90 263 -96q-4 -92 -57.5 -142t-129.5 -50q-104 0 -184 75l-152 127q-8 -2 -28 -2q-219 0 -351 101q-200 157 -200 489zM352 561 q0 -387 260 -387t260 387t-260 387t-260 -387z" />
<glyph horiz-adv-x="1144" d="M160 0v1112l10 12q311 8 428 9q199 0 319.5 -84.5t120.5 -262.5q0 -109 -70.5 -189.5t-164.5 -100.5q98 -37 147 -148l64 -147q41 -90 90 -133q-66 -84 -184 -84q-59 0 -95.5 29.5t-64.5 95.5l-94 217q-25 53 -59 72.5t-97 19.5h-82v-418q-55 -10 -133 -10q-84 0 -135 10 zM428 623q119 4 147 4q184 0 185 155q0 66 -41 108t-133 42q-25 0 -77 1t-81 1v-311z" />
<glyph horiz-adv-x="1028" d="M45 88q2 53 30.5 113.5t69.5 87.5q195 -104 369 -103q72 0 120 32t48 85q0 80 -123 123l-197 70q-285 102 -284 311q0 152 116.5 248t315.5 96q217 2 424 -86q0 -135 -92 -205q-180 80 -336 76q-66 0 -105 -29.5t-39 -75.5q0 -37 28 -56t91 -44l193 -67 q299 -109 299 -342q0 -162 -126 -255.5t-329 -95.5q-278 0 -473 117z" />
<glyph horiz-adv-x="921" d="M10 1010q0 61 8 112h891q14 -43 15 -100q0 -121 -138 -121h-75q-14 0 -54.5 1t-52.5 1h-2q0 -23 1 -61.5t1 -61.5v-780q-55 -10 -135 -10q-71 0 -137 10v780q0 23 1 62t1 61q-14 0 -57.5 -1t-55.5 -1h-203q-8 55 -8 109z" />
<glyph horiz-adv-x="1247" d="M139 412v710l13 11h98q162 0 162 -172v-549q0 -225 213 -226q211 0 211 226v710q57 10 133 11q86 -1 139 -11v-710q0 -209 -126 -325t-357 -116q-233 0 -359.5 116t-126.5 325z" />
<glyph horiz-adv-x="1085" d="M18 1104q78 33 156 33q61 0 96 -29t58 -98l137 -443q43 -145 82 -340q4 -16 18 -16l254 911q49 12 105 13q74 0 137 -19l10 -14l-348 -1102q-68 -10 -213 -10q-74 0 -118 24.5t-64 94.5z" />
<glyph horiz-adv-x="1638" d="M45 1110q63 27 152 27q68 0 96.5 -32t44.5 -118l88 -461q20 -98 47 -286q4 -23 19 -23l165 891q63 10 168 10q106 0 168 -10l154 -868q2 -16 6 -19.5t12 -3.5q20 156 49 313l119 592q51 10 119 11q76 0 131 -19l12 -16l-247 -1098q-74 -14 -228 -14q-68 0 -109.5 24.5 t-52.5 95.5l-69 363q-18 109 -60 395h-12q-49 -311 -65 -395l-95 -469q-84 -12 -225 -12q-74 0 -115 23t-57 95z" />
<glyph horiz-adv-x="1101" d="M16 23l375 567l-332 491q88 57 187 58q53 0 91 -24.5t77 -84.5l153 -227l213 319v2q55 10 119 11q72 0 137 -19l4 -14l-333 -500l380 -559q-80 -57 -188 -57q-96 0 -170 106l-197 291l-249 -383q-55 -10 -119 -10q-78 0 -139 18z" />
<glyph horiz-adv-x="942" d="M8 1100q84 39 158 39q106 0 145 -103l103 -248q45 -115 61 -215h12q70 228 74 238l125 311q47 12 119 13q43 0 119 -17l12 -14l-332 -770v-334q-53 -10 -131 -10q-82 0 -135 10v342z" />
<glyph horiz-adv-x="1050" d="M76 158q0 59 33 98l411 502q57 68 156 157l-6 7q-113 -14 -291 -15h-258q-10 39 -10 90q0 49 20 125h795q37 -135 37 -164q0 -53 -31 -92l-412 -497q-66 -80 -145 -154l4 -8q80 6 258 12l108 2q152 4 218 37q16 -59 16 -113q0 -70 -51 -108.5t-131 -38.5h-693 q-29 139 -28 160z" />
<glyph horiz-adv-x="1183" d="M82 293q0 113 68.5 195.5t168.5 109.5q-82 27 -131 94.5t-49 155.5q0 137 110.5 220t301.5 83q186 0 360 -53q10 -117 -67 -199q-162 47 -262 47q-78 0 -119 -33.5t-41 -87.5q0 -129 190 -129h336q111 0 189 37q35 -47 34 -119q0 -129 -170 -129h-30q2 -37 2 -116v-162 q0 -31 14 -209q-41 -16 -133 -16q-74 0 -113 10l-16 76q-119 -94 -293 -95q-166 0 -258 91.5t-92 228.5zM360 319q0 -74 43 -109.5t113 -35.5q113 0 199 64v135v112h-127q-111 0 -169.5 -44t-58.5 -122z" />
<glyph horiz-adv-x="987" d="M76 561q0 168 24.5 288t102.5 193q109 109 291 109t290 -109q78 -76 102.5 -194.5t24.5 -286.5q0 -164 -24.5 -282.5t-102.5 -196.5q-115 -111 -291 -111t-290 111q-78 78 -102.5 196.5t-24.5 282.5zM342 561q0 -276 45 -340q35 -51 106.5 -51t106.5 51q45 63 45 340 q0 279 -45 342q-35 51 -106.5 51t-106.5 -51q-45 -63 -45 -342z" />
<glyph horiz-adv-x="987" d="M82 788q254 147 346 334q53 10 127 11q68 0 121 -11v-913q12 0 61 2t64 2h92q12 -45 12 -106.5t-12 -106.5h-737q-12 49 -13 106q0 61 13 107h145q12 0 57 -2t60 -2q0 20 -1 62t-1 63v293q0 27 14 170q-90 -100 -242 -162q-88 42 -106 153z" />
<glyph horiz-adv-x="987" d="M86 154q0 133 215 317l191 164q98 82 98 168q0 53 -35 90t-92 37q-119 0 -176 -148q-53 2 -107.5 28t-79.5 62q37 121 138.5 200t240.5 79q172 0 275.5 -99.5t103.5 -252.5q0 -176 -211 -346l-143 -117q-117 -92 -137 -135q168 20 262 20h266q0 -57 -6 -98 q-20 -125 -164 -125h-547q-31 27 -61.5 73t-30.5 83z" />
<glyph horiz-adv-x="987" d="M80 92q10 47 40 97.5t70 78.5q123 -86 242 -86q86 0 139.5 46t53.5 128q0 70 -44 112t-122 42q-53 0 -105 -21q-35 16 -66.5 61.5t-41.5 84.5h2l184 176l125 100l-6 11q-72 -16 -201 -17h-219q-18 51 -18 96q0 68 22 121h660q53 -94 53 -159q0 -56 -49 -101l-148 -139 q-27 -27 -65 -49q137 -14 225 -101.5t88 -224.5q0 -174 -129 -275.5t-307 -101.5q-229 0 -383 121z" />
<glyph horiz-adv-x="987" d="M57 360q0 37 35 111l316 666q63 8 132.5 -8.5t106.5 -51.5l-168 -350q-78 -164 -170 -319l6 -9q96 10 211 15v41v80q0 86 48.5 141t125.5 55h64l10 -12v-150q0 -23 -2 -78t-2 -75v-2q12 0 43 1t41 1h72q6 -31 6 -86q0 -70 -19 -127h-143q0 -20 1 -60.5t1 -62.5v-80 q-55 -10 -121 -10q-70 0 -125 10v80q0 23 1 62.5t1 60.5q-20 0 -63 -2t-66 -2h-284q-57 100 -58 161z" />
<glyph horiz-adv-x="987" d="M86 90q8 39 40 93.5t67 80.5q111 -82 239 -82q84 0 138.5 49.5t54.5 135.5t-52.5 134t-128.5 48q-88 0 -176 -68q-35 8 -72.5 36t-60.5 58l31 535l16 12h658q16 -49 16 -108q0 -106 -115 -107h-305h-30v-35l-7 -96l-4 -53q61 16 123 16q162 0 268.5 -100t106.5 -258 q0 -195 -129 -302.5t-311 -107.5q-220 0 -367 119z" />
<glyph horiz-adv-x="987" d="M80 575q0 272 129 424t364 152q172 0 287 -57q-12 -111 -86 -174q-102 33 -184 32q-225 0 -240 -284q106 68 234 67q164 0 245.5 -96t81.5 -266q0 -184 -113.5 -293t-291.5 -109q-180 0 -283 103q-143 143 -143 501zM350 451q0 -168 53 -236q37 -51 107 -51 q68 0 104.5 47t36.5 135q0 189 -137 189q-80 0 -164 -56v-28z" />
<glyph horiz-adv-x="987" d="M90 997q0 62 25 125h753q51 -94 52 -159q0 -41 -35 -89l-80 -106q-133 -176 -198.5 -340t-78.5 -387l-2 -41q-53 -14 -131 -14q-70 0 -137 14l2 41q33 420 303 750l29 32q23 27 84 88l-6 9q-102 -16 -269 -17h-297q-14 43 -14 94z" />
<glyph horiz-adv-x="987" d="M68 270q0 98 59 175t147 120q-174 102 -174 266q0 135 111 227.5t283 92.5q178 0 284.5 -84t106.5 -217q0 -158 -156 -242q190 -113 191 -295q0 -164 -123 -253t-314 -89q-188 0 -301.5 81t-113.5 218zM326 291q0 -61 45 -100t120.5 -39t119.5 39.5t44 101.5 q0 121 -172 184l-20 6q-137 -70 -137 -192zM354 850q0 -51 41 -86t123 -66l27 -10q90 61 90 156q0 53 -38 89t-103 36q-63 0 -101.5 -35t-38.5 -84z" />
<glyph horiz-adv-x="987" d="M82 752q0 184 113.5 291.5t291.5 107.5q184 0 283 -102q143 -141 143 -502q0 -272 -129 -424t-364 -152q-164 0 -287 60q16 115 86 174q96 -35 187 -35q223 0 237 287q-100 -70 -233 -70q-164 0 -246 96.5t-82 268.5zM342 776q0 -188 137 -188q80 0 166 55v31 q0 164 -53 235q-43 51 -107 52q-70 0 -106.5 -48.5t-36.5 -136.5z" />
<glyph horiz-adv-x="972" d="M25 221l116 131q-47 84 -47 195q0 106 47 190l-116 131q43 80 139 136l135 -123q84 39 184 39q94 0 183 -37l143 127q78 -47 139 -138l-121 -137q47 -82 47 -188q0 -109 -49 -197l117 -131q-49 -84 -139 -139l-139 127q-76 -35 -181 -35q-98 0 -178 35l-141 -123 q-76 41 -139 137zM342 547q0 -82 36 -136.5t105 -54.5q72 0 109 53.5t37 137.5q0 82 -38 136t-107.5 54t-105.5 -53t-36 -137z" />
<glyph horiz-adv-x="921" d="M47 160q4 51 31.5 108.5t64.5 81.5q176 -92 326 -92q125 0 125 78q0 59 -92 92l-174 64q-240 90 -240 274q0 115 75 192.5t202 102.5v133q31 10 96 10q63 0 94 -10v-127q154 -18 285 -80q-6 -125 -92 -192q-152 74 -281 73q-115 0 -115 -80q0 -29 22.5 -45t71.5 -34 l160 -58q260 -94 260 -299q0 -125 -86 -201.5t-231 -95.5v-123q-33 -8 -94 -8q-63 0 -97 8v123q-188 23 -311 105z" />
<glyph horiz-adv-x="860" d="M59 559q0 201 84 317.5t215 147.5v168q37 6 97 6q51 0 94 -6v-164q119 -23 187.5 -98.5t68.5 -184.5q0 -143 -139 -143q-55 0 -95 12q0 113 -26.5 167.5t-95.5 54.5q-133 0 -134 -285q0 -258 179 -258q96 0 206 69q76 -51 101 -143q-100 -96 -256 -123v-157 q-29 -8 -96 -9q-64 1 -97 9v159q-106 25 -174.5 99.5t-93.5 165t-25 196.5z" />
<glyph horiz-adv-x="970" d="M90 548q0 54 14 89h84q-53 125 -53 197q0 129 101.5 223t271.5 94q236 0 381 -137q-14 -51 -50 -96.5t-83 -65.5q-113 86 -224 86q-63 0 -103 -37t-40 -98q0 -53 45 -168q45 0 149.5 1t161.5 1q14 -35 14.5 -89t-14.5 -91q-186 0 -278 2q-14 -139 -102 -252l6 -4 q98 12 301 12h241q0 -53 -4 -86q-20 -131 -178 -131h-600q-33 129 -33 158q0 47 35 100l23 37q63 104 71 164h-123q-14 37 -14 91z" />
<glyph horiz-adv-x="1019" d="M20 428q0 43 11 76h133q-2 18 -2 57v60h-131q-10 33 -11 75q0 45 11 78h149q74 377 428 377q215 0 391 -133q-6 -45 -37.5 -89t-72.5 -67q-127 80 -250 80q-154 0 -201 -168h303q10 -41 11 -78q0 -35 -11 -75h-325v-62v-55h325q10 -41 11 -76q0 -39 -11 -80h-303 q47 -168 201 -168q127 0 250 80q43 -23 73.5 -65.5t36.5 -85.5q-180 -137 -393 -138q-346 0 -424 377h-151q-10 33 -11 80z" />
<glyph horiz-adv-x="980" d="M33 1094q88 47 170 47t116 -84l107 -254q29 -66 66 -195h10q23 88 67 193l140 323q47 12 114 13q53 0 121 -17l10 -14l-196 -410h133q10 -43 10 -80q0 -35 -10 -77h-207l-57 -121h264q10 -41 10 -78t-10 -78h-277v-262q-53 -10 -125 -10q-80 0 -131 10v262h-274 q-14 45 -14 78t14 78h262l-57 121h-205q-14 49 -14 77q0 35 14 80h133z" />
<glyph horiz-adv-x="1624" d="M10 23l563 1079q49 20 166 20h768q8 -39 9 -106q0 -57 -23 -111h-389h-123q0 -18 1 -54t1 -56v-125q47 2 121 2h295q14 -39 14 -103q0 -68 -14 -106h-295h-121v-139q0 -23 -1 -59t-1 -54v-2q61 6 131 6h430q0 -57 -4 -88q-25 -129 -166 -129h-489q-74 0 -114 41t-40 115 v79q-27 -2 -74 -2h-174q-12 0 -50 1t-52 1l-117 -233q-41 -10 -121 -10q-78 0 -121 18zM479 434q14 0 41 1t37 1h94q8 0 36 -1t42 -1v494h-10q-19 -41 -158 -332z" />
<glyph horiz-adv-x="1146" d="M18 20l402 1102q84 12 162 13q68 0 153 -13l395 -1110q-63 -29 -153 -28q-57 0 -96 23.5t-62 92.5l-41 123q-14 0 -43.5 -1t-40.5 -1h-266q-8 0 -39 1t-45 1l-76 -223q-49 -12 -114 -12q-84 0 -127 20zM295 1489q16 51 67.5 98.5t104.5 65.5l305 -336q-14 -37 -46 -66.5 t-67 -40.5zM416 436q12 0 38.5 1t37.5 1h149q8 0 30.5 -1t35.5 -1l-43 131q-31 100 -95 342h-10q-61 -227 -92 -323z" />
<glyph horiz-adv-x="1146" d="M18 20l402 1102q84 12 162 13q68 0 153 -13l395 -1110q-63 -29 -153 -28q-57 0 -96 23.5t-62 92.5l-41 123q-14 0 -43.5 -1t-40.5 -1h-266q-8 0 -39 1t-45 1l-76 -223q-49 -12 -114 -12q-84 0 -127 20zM408 1317l307 336q53 -16 103 -63.5t69 -100.5l-367 -279 q-81 27 -112 107zM416 436q12 0 38.5 1t37.5 1h149q8 0 30.5 -1t35.5 -1l-43 131q-31 100 -95 342h-10q-61 -227 -92 -323z" />
<glyph horiz-adv-x="1146" d="M18 20l402 1102q84 12 162 13q68 0 153 -13l395 -1110q-63 -29 -153 -28q-57 0 -96 23.5t-62 92.5l-41 123q-14 0 -43.5 -1t-40.5 -1h-266q-8 0 -39 1t-45 1l-76 -223q-49 -12 -114 -12q-84 0 -127 20zM266 1323l215 276q98 33 224 0l192 -256q-16 -39 -51 -70.5 t-68 -41.5l-190 182l-201 -194q-78 29 -121 104zM416 436q12 0 38.5 1t37.5 1h149q8 0 30.5 -1t35.5 -1l-43 131q-31 100 -95 342h-10q-61 -227 -92 -323z" />
<glyph horiz-adv-x="1146" d="M18 20l402 1102q84 12 162 13q68 0 153 -13l395 -1110q-63 -29 -153 -28q-57 0 -96 23.5t-62 92.5l-41 123q-14 0 -43.5 -1t-40.5 -1h-266q-8 0 -39 1t-45 1l-76 -223q-49 -12 -114 -12q-84 0 -127 20zM207 1350l18 41q31 76 89.5 119.5t131.5 43.5q66 0 123 -32l101 -52 q37 -18 63 -18q39 0 76 51l20 27q37 0 75 -23.5t52 -58.5l-18 -39q-33 -78 -91.5 -122t-129.5 -44q-62 0 -123 35l-100 49q-33 18 -64 19q-39 0 -76 -50l-20 -28q-39 2 -76 24.5t-51 57.5zM416 436q12 0 38.5 1t37.5 1h149q8 0 30.5 -1t35.5 -1l-43 131q-31 100 -95 342h-10 q-61 -227 -92 -323z" />
<glyph horiz-adv-x="1146" d="M18 20l402 1102q84 12 162 13q68 0 153 -13l395 -1110q-63 -29 -153 -28q-57 0 -96 23.5t-62 92.5l-41 123q-14 0 -43.5 -1t-40.5 -1h-266q-8 0 -39 1t-45 1l-76 -223q-49 -12 -114 -12q-84 0 -127 20zM250 1372q0 51 16 92q47 29 117 29t117 -29q16 -41 16 -92 q0 -53 -16 -92q-45 -29 -117 -29t-117 29q-16 41 -16 92zM416 436q12 0 38.5 1t37.5 1h149q8 0 30.5 -1t35.5 -1l-43 131q-31 100 -95 342h-10q-61 -227 -92 -323zM647 1372q0 51 17 92q47 29 116.5 29t116.5 -29q16 -41 16 -92q0 -53 -16 -92q-45 -29 -116.5 -29t-116.5 29 q-17 41 -17 92z" />
<glyph horiz-adv-x="1146" d="M18 20l402 1102q84 12 162 13q68 0 153 -13l395 -1110q-63 -29 -153 -28q-57 0 -96 23.5t-62 92.5l-41 123q-14 0 -43.5 -1t-40.5 -1h-266q-8 0 -39 1t-45 1l-76 -223q-49 -12 -114 -12q-84 0 -127 20zM313 1462.5q0 104.5 75 176t193.5 71.5t193.5 -71.5t75 -176 t-75 -176.5t-193.5 -72t-193.5 72t-75 176.5zM416 436q12 0 38.5 1t37.5 1h149q8 0 30.5 -1t35.5 -1l-43 131q-31 100 -95 342h-10q-61 -227 -92 -323zM479 1462q0 -47 29 -76.5t74 -29.5t73.5 29.5t28.5 76.5t-28.5 78t-73.5 31t-74 -31t-29 -78z" />
<glyph horiz-adv-x="1110" d="M74 557q0 295 150.5 444.5t375.5 149.5q217 0 336 -109.5t119 -255.5q0 -147 -162 -147q-29 0 -94 8q0 291 -207 291q-240 0 -240 -383q0 -186 72 -272t188 -86q147 0 301 118q41 -23 78 -75t49 -97q-158 -139 -378 -166q-16 -33 -21 -47q90 -6 144.5 -56t54.5 -124 q0 -96 -75 -156.5t-192 -60.5q-104 0 -167 45q4 76 47 123q45 -27 98 -27q82 0 82 68q0 31 -20.5 50.5t-55.5 19.5q-16 0 -45 -9q-31 16 -41 41q14 66 41 129q-119 10 -207 64.5t-137 138.5t-71.5 179.5t-22.5 201.5z" />
<glyph horiz-adv-x="1064" d="M160 154v958l10 10h778q8 -39 8 -106q0 -59 -22 -113h-385h-123q0 -16 1 -50t1 -56v-125q47 2 121 2h291q14 -35 14 -104.5t-14 -108.5h-291h-121v-137q0 -23 -1 -58t-1 -53q82 4 133 4h424q0 -59 -4 -90q-25 -129 -164 -129h-500q-72 0 -113.5 42t-41.5 114zM279 1489 q16 51 67.5 98.5t104.5 65.5l305 -336q-14 -37 -46 -66.5t-67 -40.5z" />
<glyph horiz-adv-x="1064" d="M160 154v958l10 10h778q8 -39 8 -106q0 -59 -22 -113h-385h-123q0 -16 1 -50t1 -56v-125q47 2 121 2h291q14 -35 14 -104.5t-14 -108.5h-291h-121v-137q0 -23 -1 -58t-1 -53q82 4 133 4h424q0 -59 -4 -90q-25 -129 -164 -129h-500q-72 0 -113.5 42t-41.5 114zM389 1317 l307 336q53 -16 103.5 -63.5t68.5 -100.5l-366 -279q-82 27 -113 107z" />
<glyph horiz-adv-x="1064" d="M160 154v958l10 10h778q8 -39 8 -106q0 -59 -22 -113h-385h-123q0 -16 1 -50t1 -56v-125q47 2 121 2h291q14 -35 14 -104.5t-14 -108.5h-291h-121v-137q0 -23 -1 -58t-1 -53q82 4 133 4h424q0 -59 -4 -90q-25 -129 -164 -129h-500q-72 0 -113.5 42t-41.5 114zM248 1323 l215 276q98 33 223 0l193 -256q-16 -39 -51 -70.5t-68 -41.5l-191 182l-200 -194q-78 29 -121 104z" />
<glyph horiz-adv-x="1064" d="M160 154v958l10 10h778q8 -39 8 -106q0 -59 -22 -113h-385h-123q0 -16 1 -50t1 -56v-125q47 2 121 2h291q14 -35 14 -104.5t-14 -108.5h-291h-121v-137q0 -23 -1 -58t-1 -53q82 4 133 4h424q0 -59 -4 -90q-25 -129 -164 -129h-500q-72 0 -113.5 42t-41.5 114zM231 1372 q0 51 17 92q47 29 116.5 29t116.5 -29q16 -41 17 -92q0 -53 -17 -92q-45 -29 -116.5 -29t-116.5 29q-17 41 -17 92zM629 1372q0 51 16 92q47 29 116.5 29t117.5 -29q16 -41 16 -92q0 -53 -16 -92q-45 -29 -117 -29t-117 29q-16 41 -16 92z" />
<glyph horiz-adv-x="1294" d="M33 901q0 41 12 84h123v137q49 12 137 13q82 0 133 -13v-137h418v137q51 12 133 13q86 0 137 -13v-137h125q10 -47 11 -82q0 -41 -11 -86h-125v-817q-57 -10 -135 -10t-135 10v346q0 25 1 62.5t1 58.5q-14 0 -49 -1t-47 -1h-230q-12 0 -46.5 1t-49.5 1q0 -20 1 -58t1 -63 v-346q-53 -10 -133 -10q-86 0 -137 10v817h-123q-12 39 -12 84zM436 682q14 0 49 1t47 1h230q12 0 47 -1t49 -1q0 20 -1 62t-1 65v8h-418v-8q0 -23 -1 -65t-1 -62z" />
<glyph horiz-adv-x="602" d="M16 1489q16 51 67.5 98.5t104.5 65.5l306 -336q-14 -37 -46 -66.5t-67 -40.5zM164 0v1122q53 10 139 11q78 0 133 -11v-1122q-55 -10 -133 -10q-86 0 -139 10z" />
<glyph horiz-adv-x="602" d="M129 1317l307 336q53 -16 103.5 -63.5t68.5 -100.5l-366 -279q-82 27 -113 107zM164 0v1122q53 10 139 11q78 0 133 -11v-1122q-55 -10 -133 -10q-86 0 -139 10z" />
<glyph horiz-adv-x="602" d="M-12 1323l215 276q98 33 223 0l192 -256q-16 -39 -50.5 -70.5t-67.5 -41.5l-191 182l-200 -194q-78 29 -121 104zM164 0v1122q53 10 139 11q78 0 133 -11v-1122q-55 -10 -133 -10q-86 0 -139 10z" />
<glyph horiz-adv-x="602" d="M-72 1350l19 41q31 76 89 119.5t132 43.5q66 0 123 -32l100 -52q37 -18 64 -18q39 0 75 51l21 27q37 0 75 -23.5t52 -58.5l-19 -39q-33 -78 -91 -122t-130 -44q-62 0 -123 35l-100 49q-33 18 -63 19q-39 0 -76 -50l-21 -28q-39 2 -75.5 24.5t-51.5 57.5zM164 0v1122 q53 10 139 11q78 0 133 -11v-1122q-55 -10 -133 -10q-86 0 -139 10z" />
<glyph horiz-adv-x="602" d="M-29 1372q0 51 17 92q47 29 116.5 29t116.5 -29q16 -41 17 -92q0 -53 -17 -92q-45 -29 -116.5 -29t-116.5 29q-17 41 -17 92zM164 0v1122q53 10 139 11q78 0 133 -11v-1122q-55 -10 -133 -10q-86 0 -139 10zM369 1372q0 51 16 92q47 29 116.5 29t116.5 -29q16 -41 17 -92 q0 -53 -17 -92q-45 -29 -116.5 -29t-116.5 29q-16 41 -16 92z" />
<glyph horiz-adv-x="1452" d="M164 0v1122q53 10 139 11q78 0 133 -11v-1122q-55 -10 -133 -10q-86 0 -139 10zM606 57q18 117 92 191q88 -57 183 -58q88 0 127 54.5t39 165.5v712q53 10 135 11q92 0 135 -11v-704q0 -225 -94.5 -335t-309.5 -110q-184 0 -307 84z" />
<glyph horiz-adv-x="849" d="M4 57q18 117 92 191q88 -57 183 -58q88 0 126.5 54.5t38.5 165.5v712q53 10 136 11q92 0 135 -11v-704q0 -225 -94.5 -335t-309.5 -110q-184 0 -307 84zM264 1323l215 276q98 33 223 0l193 -256q-16 -39 -51 -70.5t-68 -41.5l-190 182l-201 -194q-78 29 -121 104z" />
<glyph horiz-adv-x="1136" d="M160 0v1122q51 10 137 11q80 0 133 -11v-436l47 2q37 0 49.5 9.5t32.5 41.5l182 301q29 51 59.5 73t92.5 22q70 0 160 -13l16 -16l-233 -377q-49 -80 -101 -119q76 -16 118 -60t77 -124l86 -201q49 -114 98 -157q-29 -37 -78 -60.5t-100 -21.5q-66 2 -99.5 32.5 t-62.5 98.5l-100 231q-29 68 -60.5 93.5t-93.5 27.5q-53 0 -90 -2v-467q-53 -10 -133 -10q-86 0 -137 10zM375 -459q129 80 129 201q0 61 -27 108q47 33 117 41t127 -12q23 -49 22 -115q0 -113 -75.5 -200.5t-208.5 -132.5q-66 23 -84 110z" />
<glyph horiz-adv-x="1150" d="M160 0v1120l12 15h115q80 0 111.5 -37t31.5 -127v-285l47 2q37 0 49.5 9.5t32.5 41.5l182 301q29 51 59.5 73t92.5 22q70 0 160 -13l16 -16l-233 -377q-49 -80 -101 -119q76 -16 118 -60t77 -124l86 -201q49 -114 98 -157q-29 -37 -78 -60.5t-100 -21.5q-66 2 -99.5 32.5 t-62.5 98.5l-100 231q-29 68 -60.5 93.5t-93.5 27.5q-53 0 -90 -2v-467q-61 -10 -133 -10q-76 0 -137 10z" />
<glyph horiz-adv-x="987" d="M156 154v966l12 13h104q80 0 118 -40t38 -130v-750q108 10 182 10h316q-4 -80 -8 -96q-23 -131 -175 -131h-430q-72 0 -114.5 42t-42.5 116zM629 651.5q0 69.5 16 108.5q57 31 125 31t121 -31q18 -43 18 -108.5t-18 -108.5q-43 -33 -121 -33q-76 0 -125 33 q-16 39 -16 108.5z" />
<glyph horiz-adv-x="1005" d="M47 600l141 41v479l13 13h104q80 0 118 -40t38 -130v-248l274 90l21 -8q29 -80 4 -197l-299 -92v-295q109 10 180 10h315q0 -63 -6 -96q-23 -131 -174 -131h-430q-72 0 -115 42t-43 116v276l-118 -37l-19 10q-29 80 -4 197z" />
<glyph horiz-adv-x="1292" d="M160 0v1118q76 14 153 15q113 0 156 -11l299 -571q14 -25 121 -262l12 4q-25 369 -24 434v256q0 88 34.5 120t118.5 32h92l11 -13v-1118q-59 -14 -154 -14q-119 0 -160 10l-301 571q-16 29 -61 127.5t-56 118.5l-6 -2q16 -291 17 -426v-389q-55 -10 -125 -10 q-74 0 -127 10zM477 1317l307 336q53 -16 103.5 -63.5t68.5 -100.5l-366 -279q-82 27 -113 107z" />
<glyph horiz-adv-x="1292" d="M160 0v1118q76 14 153 15q113 0 156 -11l299 -571q14 -25 121 -262l12 4q-25 369 -24 434v256q0 88 34.5 120t118.5 32h92l11 -13v-1118q-59 -14 -154 -14q-119 0 -160 10l-301 571q-16 29 -61 127.5t-56 118.5l-6 -2q16 -291 17 -426v-389q-55 -10 -125 -10 q-74 0 -127 10zM276 1350l19 41q31 76 89 119.5t132 43.5q66 0 123 -32l100 -52q37 -18 64 -18q39 0 76 51l20 27q37 0 75 -23.5t52 -58.5l-18 -39q-33 -78 -91.5 -122t-130.5 -44q-61 0 -122 35l-101 49q-33 18 -63 19q-39 0 -76 -50l-21 -28q-39 2 -75.5 24.5t-51.5 57.5z " />
<glyph horiz-adv-x="1697" d="M74 563q0 336 200 486q137 102 344 102q111 0 283 -29h682q8 -39 8 -106q0 -57 -20 -113h-391h-127q0 -16 1 -58t1 -57v-116q47 2 125 2h297q14 -43 14 -105q0 -66 -14 -108h-297h-125v-129q0 -16 -1 -59.5t-1 -59.5q86 4 135 4h432q0 -59 -6 -90q-20 -129 -164 -129 h-563q-178 -27 -269 -27q-209 0 -344 105q-201 150 -200 487zM356 563q0 -383 262 -383q82 0 177 27v711q-100 29 -177 28q-262 0 -262 -383z" />
<glyph horiz-adv-x="1224" d="M74 561q0 332 200 490q135 100 338 100q207 0 340 -100q104 -80 152.5 -212t48.5 -278q0 -332 -201 -489q-133 -100 -339.5 -100.5t-338.5 100.5q-200 157 -200 489zM326 1489q16 51 67.5 98.5t104.5 65.5l305 -336q-14 -37 -46 -66.5t-67 -40.5zM352 561 q0 -387 260 -387t260 387t-260 387t-260 -387z" />
<glyph horiz-adv-x="1224" d="M74 561q0 332 200 490q135 100 338 100q207 0 340 -100q104 -80 152.5 -212t48.5 -278q0 -332 -201 -489q-133 -100 -339.5 -100.5t-338.5 100.5q-200 157 -200 489zM352 561q0 -387 260 -387t260 387t-260 387t-260 -387zM438 1317l307 336q53 -16 103.5 -63.5 t69.5 -100.5l-367 -279q-82 27 -113 107z" />
<glyph horiz-adv-x="1224" d="M74 561q0 332 200 490q135 100 338 100q207 0 340 -100q104 -80 152.5 -212t48.5 -278q0 -332 -201 -489q-133 -100 -339.5 -100.5t-338.5 100.5q-200 157 -200 489zM297 1323l215 276q98 33 223 0l193 -256q-16 -39 -51 -70.5t-68 -41.5l-191 182l-200 -194 q-78 29 -121 104zM352 561q0 -387 260 -387t260 387t-260 387t-260 -387z" />
<glyph horiz-adv-x="1224" d="M74 561q0 332 200 490q135 100 338 100q207 0 340 -100q104 -80 152.5 -212t48.5 -278q0 -332 -201 -489q-133 -100 -339.5 -100.5t-338.5 100.5q-200 157 -200 489zM238 1350l18 41q31 76 89 119.5t132 43.5q66 0 123 -32l100 -52q37 -18 64 -18q39 0 76 51l20 27 q37 0 75 -23.5t52 -58.5l-18 -39q-33 -78 -91.5 -122t-129.5 -44q-62 0 -123 35l-101 49q-33 18 -63 19q-39 0 -76 -50l-20 -28q-39 2 -76 24.5t-51 57.5zM352 561q0 -387 260 -387t260 387t-260 387t-260 -387z" />
<glyph horiz-adv-x="1224" d="M74 561q0 332 200 490q135 100 338 100q207 0 340 -100q104 -80 152.5 -212t48.5 -278q0 -332 -201 -489q-133 -100 -339.5 -100.5t-338.5 100.5q-200 157 -200 489zM281 1372q0 51 16 92q47 29 116.5 29t116.5 -29q16 -41 17 -92q0 -53 -17 -92q-45 -29 -116.5 -29 t-116.5 29q-16 41 -16 92zM352 561q0 -387 260 -387t260 387t-260 387t-260 -387zM678 1372q0 51 16 92q47 29 117 29t117 -29q16 -41 16 -92q0 -53 -16 -92q-45 -29 -117 -29t-117 29q-16 41 -16 92z" />
<glyph horiz-adv-x="1224" d="M74 561q0 332 200 490q135 100 338 100q158 0 265 -55l90 125q96 -35 143 -103l-94 -129q137 -160 137 -428q0 -332 -201 -489q-133 -100 -340 -101q-162 0 -272 58l-88 -119q-96 29 -143 100l94 131q-129 160 -129 420zM338 561q0 -109 22 -196l396 559q-57 41 -144 41 q-82 0 -139 -37t-85 -100.5t-39 -128t-11 -138.5zM463 203q63 -43 149 -43q275 0 275 401q0 121 -27 207z" />
<glyph horiz-adv-x="1144" d="M160 0v1112l10 12q311 8 428 9q199 0 319.5 -84.5t120.5 -262.5q0 -109 -70.5 -189.5t-164.5 -100.5q98 -37 147 -148l64 -147q41 -90 90 -133q-66 -84 -184 -84q-59 0 -95.5 29.5t-64.5 95.5l-94 217q-25 53 -59 72.5t-97 19.5h-82v-418q-55 -10 -133 -10q-84 0 -135 10 zM389 1317l307 336q53 -16 103.5 -63.5t68.5 -100.5l-366 -279q-82 27 -113 107zM428 623q119 4 147 4q184 0 185 155q0 66 -41 108t-133 42q-25 0 -77 1t-81 1v-311z" />
<glyph horiz-adv-x="1144" d="M160 0v1112l10 12q311 8 428 9q199 0 319.5 -84.5t120.5 -262.5q0 -109 -70.5 -189.5t-164.5 -100.5q98 -37 147 -148l64 -147q41 -90 90 -133q-66 -84 -184 -84q-59 0 -95.5 29.5t-64.5 95.5l-94 217q-25 53 -59 72.5t-97 19.5h-82v-418q-55 -10 -133 -10q-84 0 -135 10 zM246 1509q16 39 52 70t69 43l188 -182l205 196q82 -31 121 -106l-219 -279q-47 -14 -111 -13t-111 13zM428 623q119 4 147 4q184 0 185 155q0 66 -41 108t-133 42q-25 0 -77 1t-81 1v-311z" />
<glyph horiz-adv-x="1144" d="M160 0v1112l10 12q311 8 428 9q199 0 319.5 -84.5t120.5 -262.5q0 -109 -70.5 -189.5t-164.5 -100.5q98 -37 147 -148l64 -147q41 -90 90 -133q-66 -84 -184 -84q-59 0 -95.5 29.5t-64.5 95.5l-94 217q-25 53 -59 72.5t-97 19.5h-82v-418q-55 -10 -133 -10q-84 0 -135 10 zM369 -459q129 80 129 201q0 61 -27 108q47 33 117 41t127 -12q23 -49 22 -115q0 -113 -75.5 -200.5t-208.5 -132.5q-66 23 -84 110zM428 623q119 4 147 4q184 0 185 155q0 66 -41 108t-133 42q-25 0 -77 1t-81 1v-311z" />
<glyph horiz-adv-x="2056" d="M45 88q2 53 30.5 113.5t69.5 87.5q195 -104 369 -103q72 0 120 32t48 85q0 80 -123 123l-197 70q-285 102 -284 311q0 152 116.5 248t315.5 96q217 2 424 -86q0 -135 -92 -205q-180 80 -336 76q-66 0 -105 -29.5t-39 -75.5q0 -37 28 -56t91 -44l193 -67 q299 -109 299 -342q0 -162 -126 -255.5t-329 -95.5q-278 0 -473 117zM1073 88q2 53 31 113.5t70 87.5q195 -104 368 -103q72 0 120 32t48 85q0 80 -123 123l-196 70q-285 102 -285 311q0 152 116.5 248t315.5 96q217 2 424 -86q0 -135 -92 -205q-180 80 -336 76 q-66 0 -104.5 -29.5t-38.5 -75.5q0 -37 27.5 -56t90.5 -44l193 -67q299 -109 299 -342q0 -162 -126 -255.5t-329 -95.5q-278 0 -473 117z" />
<glyph horiz-adv-x="1204" d="M16.5 632.5q-0.5 53.5 10.5 100.5l157 -2v86q0 164 120 250t323 86q199 0 320.5 -97.5t121.5 -254.5q0 -66 -16 -115q-119 -39 -119 -111q0 -33 45 -71l59 -53q117 -106 117 -221t-96 -185t-246 -70q-135 0 -240 43q2 45 23.5 99.5t50.5 85.5q66 -31 131 -31 q45 0 72 20.5t27 51.5q0 45 -56 90l-67 57q-57 47 -83 85t-26 85q0 59 40 113.5t110 83.5q2 10 2 30q0 72 -45 120t-125 48q-170 0 -170 -172v-784q-72 -10 -135 -10q-70 0 -138 10v530l-157 -2q-10 51 -10.5 104.5z" />
<glyph horiz-adv-x="1247" d="M139 412v710l13 11h98q162 0 162 -172v-549q0 -225 213 -226q211 0 211 226v710q57 10 133 11q86 -1 139 -11v-710q0 -209 -126 -325t-357 -116q-233 0 -359.5 116t-126.5 325zM332 1489q16 51 67.5 98.5t104.5 65.5l305 -336q-14 -37 -46 -66.5t-67 -40.5z" />
<glyph horiz-adv-x="1247" d="M139 412v710l13 11h98q162 0 162 -172v-549q0 -225 213 -226q211 0 211 226v710q57 10 133 11q86 -1 139 -11v-710q0 -209 -126 -325t-357 -116q-233 0 -359.5 116t-126.5 325zM444 1317l308 336q53 -16 103 -63.5t69 -100.5l-367 -279q-82 27 -113 107z" />
<glyph horiz-adv-x="1247" d="M139 412v710l13 11h98q162 0 162 -172v-549q0 -225 213 -226q211 0 211 226v710q57 10 133 11q86 -1 139 -11v-710q0 -209 -126 -325t-357 -116q-233 0 -359.5 116t-126.5 325zM301 1323l215 276q98 33 223 0l193 -256q-16 -39 -51 -70.5t-68 -41.5l-190 182l-201 -194 q-78 29 -121 104z" />
<glyph horiz-adv-x="1247" d="M139 412v710l13 11h98q162 0 162 -172v-549q0 -225 213 -226q211 0 211 226v710q57 10 133 11q86 -1 139 -11v-710q0 -209 -126 -325t-357 -116q-233 0 -359.5 116t-126.5 325zM285 1372q0 51 16 92q47 29 116.5 29t117.5 -29q16 -41 16 -92q0 -53 -16 -92 q-45 -29 -117 -29t-117 29q-16 41 -16 92zM682 1372q0 51 16 92q47 29 117 29t117 -29q16 -41 16 -92q0 -53 -16 -92q-45 -29 -117 -29t-117 29q-16 41 -16 92z" />
<glyph horiz-adv-x="942" d="M8 1100q84 39 158 39q106 0 145 -103l103 -248q45 -115 61 -215h12q70 228 74 238l125 311q47 12 119 13q43 0 119 -17l12 -14l-332 -770v-334q-53 -10 -131 -10q-82 0 -135 10v342zM303 1317l307 336q53 -16 103.5 -63.5t68.5 -100.5l-366 -279q-82 27 -113 107z" />
<glyph horiz-adv-x="942" d="M8 1100q84 39 158 39q106 0 145 -103l103 -248q45 -115 61 -215h12q70 228 74 238l125 311q47 12 119 13q43 0 119 -17l12 -14l-332 -770v-334q-53 -10 -131 -10q-82 0 -135 10v342zM145 1372q0 51 17 92q47 29 116.5 29t116.5 -29q16 -41 17 -92q0 -53 -17 -92 q-45 -29 -116.5 -29t-116.5 29q-17 41 -17 92zM543 1372q0 51 16 92q47 29 116.5 29t117.5 -29q16 -41 16 -92q0 -53 -16 -92q-45 -29 -117 -29t-117 29q-16 41 -16 92z" />
<glyph horiz-adv-x="1236" d="M31 561q0 57 10 105h135v446l12 12q319 8 430 9q86 0 182.5 -23t155.5 -63q119 -84 162 -204t43 -284q0 -166 -42 -283.5t-163 -201.5q-117 -82 -338 -82q-193 0 -430 6l-12 12v447h-135q-10 43 -10 104zM440 193q31 0 87.5 1t88.5 1q269 -1 269 364q0 369 -269 369 q-113 0 -176 2v-264h228q10 -47 10 -105q0 -61 -10 -104h-228v-264z" />
<glyph horiz-adv-x="1077" d="M160 0v1122q51 10 133 11q80 0 137 -11v-161q25 0 72 1t69 1q205 0 326 -95.5t121 -287.5q0 -186 -122 -283.5t-325 -97.5h-141v-199q-57 -10 -137 -10q-82 0 -133 10zM430 399q49 2 123 2q102 0 144 52.5t42 126t-42 126t-144 52.5q-74 0 -123 2v-361z" />
<glyph horiz-adv-x="1146" d="M18 20l402 1102q84 12 162 13q68 0 153 -13l395 -1110l-6 -4q-172 -90 -172 -203q0 -80 92 -79q57 0 111 30q55 -51 57 -125q-94 -78 -229 -77q-102 0 -167.5 54t-65.5 144q0 131 141 248q-49 25 -72 100l-41 123q-14 0 -43.5 -1t-40.5 -1h-266q-8 0 -39 1t-45 1 l-76 -223q-49 -12 -114 -12q-84 0 -127 20zM416 436q12 0 38.5 1t37.5 1h149q8 0 30.5 -1t35.5 -1l-43 131q-31 100 -95 342h-10q-61 -227 -92 -323z" />
<glyph horiz-adv-x="1110" d="M74 557q0 295 150.5 444.5t375.5 149.5q217 0 336 -109.5t119 -255.5q0 -147 -162 -147q-28 0 -94 8q0 291 -207 291q-240 0 -240 -383q0 -186 72 -272t188 -86q147 0 301 118q41 -23 78 -75t49 -97q-195 -172 -469 -172q-135 0 -235 50.5t-155.5 137.5t-81 186 t-25.5 212zM426 1317l307 336q53 -16 103.5 -63.5t68.5 -100.5l-366 -279q-82 27 -113 107z" />
<glyph horiz-adv-x="1110" d="M74 557q0 295 150.5 444.5t375.5 149.5q217 0 336 -109.5t119 -255.5q0 -147 -162 -147q-28 0 -94 8q0 291 -207 291q-240 0 -240 -383q0 -186 72 -272t188 -86q147 0 301 118q41 -23 78 -75t49 -97q-195 -172 -469 -172q-135 0 -235 50.5t-155.5 137.5t-81 186 t-25.5 212zM285 1509q16 39 52 70t69 43l188 -182l205 196q82 -31 121 -106l-220 -279q-47 -14 -110.5 -13t-110.5 13z" />
<glyph horiz-adv-x="1220" d="M160 10v1102l10 12q319 8 430 9q88 0 184.5 -23t155.5 -63q119 -84 161 -203t42 -285t-41 -283.5t-162 -201.5q-117 -82 -340 -82q-190 0 -430 6zM268 1509q16 39 52 70t69 43l189 -182l204 196q82 -31 121 -106l-219 -279q-47 -14 -110.5 -13t-110.5 13zM428 201 q31 0 85 1t87 1q266 0 266 356q0 362 -266 363q-111 0 -172 2v-723z" />
<glyph horiz-adv-x="1064" d="M160 154v958l10 10h778q8 -39 8 -106q0 -59 -22 -113h-385h-123q0 -16 1 -50t1 -56v-125q47 2 121 2h291q14 -35 14 -104.5t-14 -108.5h-291h-121v-137q0 -23 -1 -58t-1 -53q82 4 133 4h424q0 -59 -4 -90q-25 -129 -164 -129h-500q-72 0 -113.5 42t-41.5 114zM248 1509 q16 39 52 70t69 43l188 -182l205 196q82 -31 121 -106l-219 -279q-47 -14 -111 -13t-111 13z" />
<glyph horiz-adv-x="1064" d="M160 154v958l10 10h778q8 -39 8 -106q0 -57 -22 -115h-385h-123q0 -18 1 -52t1 -54v-121q47 2 121 2h291q14 -39 14 -107q0 -74 -14 -108h-291h-121v-137q0 -23 -1 -57t-1 -52v-2q61 6 133 6h424q0 -61 -4 -92q-16 -90 -90 -119l-2 -2q-84 -33 -129 -88t-45 -111 q0 -39 25.5 -60t66.5 -21q57 -1 110 30q53 -47 60 -125q-98 -78 -232 -77q-102 0 -166.5 54t-64.5 146q0 141 137 244h-334q-72 0 -113.5 42t-41.5 114z" />
<glyph horiz-adv-x="1292" d="M160 0v1118q76 14 153 15q113 0 156 -11l299 -571q14 -25 121 -262l12 4q-25 369 -24 434v256q0 88 34.5 120t118.5 32h92l11 -13v-1118q-59 -14 -154 -14q-119 0 -160 10l-301 571q-16 29 -61 127.5t-56 118.5l-6 -2q16 -291 17 -426v-389q-55 -10 -125 -10 q-74 0 -127 10zM336 1509q16 39 52 70t69 43l188 -182l205 196q82 -31 121 -106l-219 -279q-47 -14 -110.5 -13t-111.5 13z" />
<glyph horiz-adv-x="1028" d="M45 88q2 53 30.5 113.5t69.5 87.5q195 -104 369 -103q72 0 120 32t48 85q0 80 -123 123l-197 70q-285 102 -284 311q0 152 116.5 248t315.5 96q217 2 424 -86q0 -135 -92 -205q-180 80 -336 76q-66 0 -105 -29.5t-39 -75.5q0 -37 28 -56t91 -44l193 -67 q299 -109 299 -342q0 -162 -126 -255.5t-329 -95.5q-278 0 -473 117zM344 1317l307 336q53 -16 103.5 -63.5t68.5 -100.5l-366 -279q-82 27 -113 107z" />
<glyph horiz-adv-x="1028" d="M45 88q2 53 30.5 113.5t69.5 87.5q195 -104 369 -103q72 0 120 32t48 85q0 80 -123 123l-197 70q-285 102 -284 311q0 152 116.5 248t315.5 96q217 2 424 -86q0 -135 -92 -205q-180 80 -336 76q-66 0 -105 -29.5t-39 -75.5q0 -37 28 -56t91 -44l193 -67 q299 -109 299 -342q0 -162 -126 -255.5t-329 -95.5q-278 0 -473 117zM201 1509q16 39 52 70t69 43l188 -182l205 196q82 -31 121 -106l-220 -279q-47 -14 -110.5 -13t-110.5 13z" />
<glyph horiz-adv-x="921" d="M10 1010q0 61 8 112h891q14 -43 15 -100q0 -121 -138 -121h-75q-14 0 -54.5 1t-52.5 1h-2q0 -23 1 -61.5t1 -61.5v-780q-55 -10 -135 -10q-71 0 -137 10v780q0 23 1 62t1 61q-14 0 -57.5 -1t-55.5 -1h-203q-8 55 -8 109zM154 1509q16 39 51.5 70t68.5 43l189 -182 l205 196q82 -31 120 -106l-219 -279q-47 -14 -110.5 -13t-110.5 13z" />
<glyph horiz-adv-x="1247" d="M139 412v710l13 11h98q162 0 162 -172v-549q0 -225 213 -226q211 0 211 226v710q57 10 133 11q86 -1 139 -11v-710q0 -209 -126 -325t-357 -116q-233 0 -359.5 116t-126.5 325zM348 1462.5q0 104.5 75 176t193.5 71.5t193.5 -71.5t75 -176t-75 -176.5t-193.5 -72 t-193.5 72t-75 176.5zM514 1462q0 -47 28.5 -76.5t74 -29.5t74 29.5t28.5 76.5t-28.5 78t-74 31t-74 -31t-28.5 -78z" />
<glyph horiz-adv-x="1050" d="M76 158q0 59 33 98l411 502q57 68 156 157l-6 7q-113 -14 -291 -15h-258q-10 39 -10 90q0 49 20 125h795q37 -135 37 -164q0 -53 -31 -92l-412 -497q-66 -80 -145 -154l4 -8q80 6 258 12l108 2q152 4 218 37q16 -59 16 -113q0 -70 -51 -108.5t-131 -38.5h-693 q-29 139 -28 160zM360 1317l308 336q53 -16 103 -63.5t69 -100.5l-367 -279q-82 27 -113 107z" />
<glyph horiz-adv-x="1050" d="M76 158q0 59 33 98l411 502q57 68 156 157l-6 7q-113 -14 -291 -15h-258q-10 39 -10 90q0 49 20 125h795q37 -135 37 -164q0 -53 -31 -92l-412 -497q-66 -80 -145 -154l4 -8q80 6 258 12l108 2q152 4 218 37q16 -59 16 -113q0 -70 -51 -108.5t-131 -38.5h-693 q-29 139 -28 160zM381 1411q0 59 20 107q49 27 134 26q90 0 133 -26q20 -47 20 -106.5t-20 -106.5q-47 -29 -133 -29t-134 29q-20 47 -20 106z" />
<glyph horiz-adv-x="1050" d="M76 158q0 59 33 98l411 502q57 68 156 157l-6 7q-113 -14 -291 -15h-258q-10 39 -10 90q0 49 20 125h795q37 -135 37 -164q0 -53 -31 -92l-412 -497q-66 -80 -145 -154l4 -8q80 6 258 12l108 2q152 4 218 37q16 -59 16 -113q0 -70 -51 -108.5t-131 -38.5h-693 q-29 139 -28 160zM219 1509q16 39 52 70t69 43l188 -182l205 196q82 -31 121 -106l-219 -279q-47 -14 -110.5 -13t-110.5 13z" />
</font>
</defs>
</svg>
