<?xml version="1.0" standalone="no"?>
<!DOCTYPE svg PUBLIC "-//W3C//DTD SVG 1.1//EN" "http://www.w3.org/Graphics/SVG/1.1/DTD/svg11.dtd" >
<svg xmlns="http://www.w3.org/2000/svg">
<metadata>
This is a custom SVG webfont generated by Font Squirrel.
Copyright   : Copyright c 2011 by Anna Giedrys httpancymoniccom with Reserved Font Names Signika
Designer    : Anna Giedrys
Foundry     : Anna Giedrys
Foundry URL : wwwancymoniccom
</metadata>
<defs>
<font id="SignikaLight" horiz-adv-x="815" >
<font-face units-per-em="2048" ascent="1638" descent="-410" />
<missing-glyph horiz-adv-x="450" />
<glyph horiz-adv-x="0" />
<glyph horiz-adv-x="0" />
<glyph unicode="&#xd;" horiz-adv-x="380" />
<glyph unicode=" "  horiz-adv-x="450" />
<glyph unicode="&#x09;" horiz-adv-x="450" />
<glyph unicode="&#xa0;" horiz-adv-x="450" />
<glyph unicode="!" horiz-adv-x="567" d="M172 88q0 57 14 82q42 23 97 23q59 0 96 -23q14 -25 14 -82t-14 -82q-35 -20 -96 -20q-59 0 -97 20q-14 25 -14 82zM207 1366q61 45 164 45l10 -10l-39 -1020q-23 -8 -59.5 -8t-61.5 8z" />
<glyph unicode="&#x22;" horiz-adv-x="727" d="M102 1423q0 41 13 84q33 23 86 23t88 -23q12 -43 12 -84q0 -10 -9 -58t-23.5 -134t-24.5 -172q-14 -10 -41 -10t-45 10q-8 86 -22.5 172t-24 134t-9.5 58zM428 1423q0 41 12 84q35 23 86 23q55 0 88 -23q12 -43 13 -84q0 -10 -9.5 -58t-23.5 -134t-25 -172 q-14 -10 -40.5 -10t-45.5 10q-8 86 -22.5 172t-23.5 134t-9 58z" />
<glyph unicode="#" horiz-adv-x="1239" d="M63 342q-27 68 0 133h248l84 373h-241q-23 66 0 133h270l72 313q29 8 71.5 8.5t71.5 -8.5l-72 -313h264l72 313q27 8 72 8.5t72 -8.5l-72 -313h207q23 -68 0 -133h-236l-84 -373h228q27 -66 0 -133h-259l-69 -313q-25 -12 -71 -12.5t-70 12.5l69 313h-266l-70 -313 q-25 -12 -71.5 -12.5t-71.5 12.5l70 313h-218zM455 475h264l84 373h-264z" />
<glyph unicode="$" horiz-adv-x="1011" d="M80 207q4 74 65 123q199 -117 375 -117q102 0 170 43t68 123q0 131 -180 199l-211 75q-240 88 -240 281q0 115 78 197.5t217 103.5v172q20 6 67 6q43 0 68 -6v-168q158 -10 317 -86q0 -76 -57 -123q-160 78 -315 78q-100 0 -160.5 -43t-60.5 -121q0 -57 38.5 -91 t126.5 -65l205 -73q117 -41 190.5 -122t73.5 -190q0 -139 -96 -228t-270 -95v-158q-33 -4 -68 -4q-39 0 -67 4v164q-195 25 -334 121z" />
<glyph unicode="%" horiz-adv-x="1763" d="M102 1018q0 225 97 323q76 82 209 82q135 0 210 -82q97 -98 97 -323q0 -223 -97 -326q-82 -82 -210 -82q-127 0 -209 82q-96 102 -97 326zM242 1018q0 -299 168 -299q166 0 165 299q0 297 -165 297q-168 0 -168 -297zM420 0l772 1399q25 10 76 10t75 -10l-770 -1399 q-27 -10 -77.5 -10t-75.5 10zM1049 383q0 225 96 324q80 82 209 81q135 0 211 -81q98 -99 98 -324t-98 -326q-82 -82 -211 -82q-125 0 -209 82q-96 102 -96 326zM1188 383q0 -299 168 -299q166 0 166 299q0 297 -166 297q-168 0 -168 -297z" />
<glyph unicode="&#x26;" horiz-adv-x="1236" d="M115 369q0 135 79.5 240.5t192.5 140.5q-92 33 -153.5 119.5t-61.5 193.5q0 154 112.5 257t307 103t342.5 -55q4 -80 -43 -127q-174 51 -301 51q-117 0 -184.5 -65.5t-67.5 -171.5q0 -111 69.5 -176.5t210.5 -65.5h367q123 0 182 27q20 -27 21 -76q0 -86 -133 -86h-74 q0 -27 1 -72t1 -57v-248q0 -45 6 -164t6 -137q-28 -6 -73 -6q-43 0 -74 6l-12 80q-158 -104 -334 -105q-186 0 -286.5 107.5t-100.5 286.5zM281 371q0 -123 65.5 -194t181.5 -71q176 0 303 105v336q0 84 3 131h-234q-162 0 -240.5 -93t-78.5 -214z" />
<glyph unicode="'" horiz-adv-x="397" d="M92 1423q0 41 12 84q35 23 86 23q55 0 89 -23q12 -43 12 -84q0 -10 -9.5 -58t-23.5 -134t-25 -172q-14 -10 -40.5 -10t-45.5 10q-8 86 -22 172t-23.5 134t-9.5 58z" />
<glyph unicode="(" horiz-adv-x="630" d="M133 667.5q0 276.5 100.5 558t274.5 455.5q66 -16 94 -86q-301 -376 -301 -927t301 -928q-29 -68 -94 -88q-174 174 -274.5 456.5t-100.5 559z" />
<glyph unicode=")" horiz-adv-x="630" d="M27 -260q303 377 303 928t-303 927q31 70 96 86q174 -174 274.5 -455.5t100.5 -558t-100.5 -559t-274.5 -456.5q-66 20 -96 88z" />
<glyph unicode="*" horiz-adv-x="1013" d="M100 1151q-4 29 11.5 71t35.5 66l99 -31q53 -16 217 -104q-31 135 -31 240l2 104q29 12 74 12t72 -12l2 -104q2 -66 -33 -242q139 82 221 106l98 29q20 -20 33.5 -62t11.5 -75l-98 -33q-78 -27 -240 -45q117 -102 170 -178l58 -84q-16 -27 -51 -52.5t-68 -31.5l-59 82 q-51 61 -119 213q-57 -139 -115 -213l-63 -82q-29 6 -65 31.5t-52 54.5l59 82q39 53 168 178q-154 12 -239 45z" />
<glyph unicode="+" horiz-adv-x="1085" d="M113 594q0 45 8 72h272q8 0 36 -1t40 -1q0 12 -1 39.5t-1 37.5v295q31 8 76 8q49 0 75 -8v-295q0 -10 -1 -37.5t-1 -39.5q12 0 40 1t36 1h273q8 -45 8 -72q0 -33 -8 -70h-273q-8 0 -35.5 1t-40.5 1q0 -12 1 -39.5t1 -37.5v-295q-27 -8 -75 -9q-45 0 -76 9v295 q0 10 1 37.5t1 39.5q-12 0 -40 -1t-36 -1h-272q-8 25 -8 70z" />
<glyph unicode="," horiz-adv-x="520" d="M82 -225q154 76 158 207q-55 10 -78 26q-18 27 -19 86q0 70 19 92q45 23 106 23q72 0 103 -23q23 -41 22 -120q0 -125 -68.5 -225.5t-199.5 -149.5q-47 27 -43 84z" />
<glyph unicode="-" horiz-adv-x="686" d="M100.5 541q-0.5 43 8.5 73h471q6 -33 6 -73t-6 -68h-471q-8 25 -8.5 68z" />
<glyph unicode="." horiz-adv-x="512" d="M133 96q0 63 17 90q45 23 106 23q66 0 106 -23q16 -27 17 -90q0 -61 -17 -90q-33 -20 -106 -20q-66 0 -106 20q-17 29 -17 90z" />
<glyph unicode="/" horiz-adv-x="833" d="M20 -166l650 1718q80 -8 135 -51l-649 -1718q-68 0 -136 51z" />
<glyph unicode="0" horiz-adv-x="1085" d="M113 663.5q0 221.5 31.5 354.5t119.5 223q106 111 281 111q166 0 276 -111q88 -90 120 -224t32 -353q0 -221 -32 -354.5t-120 -225.5q-113 -109 -278.5 -109t-278.5 109q-88 92 -119.5 225t-31.5 354.5zM276 663.5q0 -376.5 101 -493.5q63 -70 165.5 -70t166.5 70 q100 117 100 493.5t-100 493.5q-63 70 -166 70t-166 -70q-101 -117 -101 -493.5z" />
<glyph unicode="1" horiz-adv-x="1085" d="M154 946q139 84 238.5 188.5t135.5 192.5q33 8 74 8q39 0 72 -8v-1069q0 -25 -1 -65.5t-1 -63.5q14 0 56 1t54 1h158q6 -33 6 -65.5t-6 -65.5h-725q-6 33 -6 65.5t6 65.5h199q12 0 54 -1t56 -1q0 23 -1 63.5t-1 65.5v578q0 2 6 254q-115 -156 -307 -238q-53 35 -67 94z " />
<glyph unicode="2" horiz-adv-x="1085" d="M129 102q0 174 268 402l189 164q90 78 134 151.5t44 165.5q0 111 -64.5 174.5t-164.5 63.5q-88 0 -162 -55.5t-117 -147.5q-84 8 -113 59q49 115 156 194t248 79q172 0 275.5 -102.5t103.5 -262.5q0 -78 -19.5 -141.5t-63.5 -120.5t-78 -90t-99 -90l-164 -142 q-205 -176 -219 -274q115 10 245 10h428q0 -39 -2 -59q-10 -80 -104 -80h-649q-72 55 -72 102z" />
<glyph unicode="3" horiz-adv-x="1085" d="M113 100q14 66 71 109q143 -106 301 -107q131 0 218.5 84t87.5 238q0 127 -69 197.5t-190 70.5q-92 0 -155 -39q-51 27 -68 84l293 324q86 94 139 137l-6 8q-63 -16 -256 -16h-315q-6 27 -6 55q0 39 12 82h700q37 -66 37 -104.5t-35 -75.5l-245 -268q-23 -25 -84 -74h24 q164 0 274.5 -98.5t110.5 -288.5q0 -213 -136 -328t-312 -115q-238 0 -391 125z" />
<glyph unicode="4" horiz-adv-x="1085" d="M98 401q0 18 43 123l357 813q31 8 74.5 0t70.5 -24l-291 -664q-78 -170 -98 -209l4 -6q117 6 215 6h150q0 10 -1 40t-1 40v213q0 111 96 111h47l8 -6v-312q0 -12 -1 -43.5t-1 -42.5q10 0 40 1t42 1h137q4 -25 4 -63.5t-10 -69.5h-131q-12 0 -42 1t-40 1q0 -12 1 -45 t1 -43v-223q-35 -6 -77.5 -6t-73.5 6v223q0 10 1 43t1 45q-12 0 -43 -1t-43 -1h-402q-37 66 -37 92z" />
<glyph unicode="5" horiz-adv-x="1085" d="M135 98q10 66 70 107q150 -102 297 -103q121 0 205 88.5t84 258.5q0 164 -82 233.5t-195 69.5q-141 0 -262 -105q-45 6 -72 51l27 617l12 12h666q10 -35 10 -63q0 -74 -70 -74h-366q-78 0 -113 2v-131l-8 -168l-6 -72q109 57 219 58q180 0 291.5 -112t111.5 -308 q0 -236 -132 -360t-316 -124q-213 0 -371 123z" />
<glyph unicode="6" horiz-adv-x="1085" d="M123 680q0 311 130 491.5t380 180.5q174 0 274 -62q-8 -78 -61 -112q-102 47 -209 47q-176 0 -262 -133.5t-90 -346.5q137 137 319 138q174 0 274.5 -113t100.5 -330q0 -203 -116 -334t-306 -131q-178 0 -285 119q-20 25 -30.5 37t-37 63.5t-40.5 107.5t-27.5 156.5 t-13.5 221.5zM285 567q0 -254 98 -381q68 -86 176 -86q121 0 189.5 89.5t68.5 240.5q0 318 -250 318q-72 0 -149.5 -40t-132.5 -108v-33z" />
<glyph unicode="7" horiz-adv-x="1085" d="M141 1245q1 41 13 82h792q31 -55 31 -100q0 -31 -27 -72l-63 -92q-172 -260 -263.5 -481.5t-121.5 -520.5l-6 -61q-31 -8 -82 -8q-55 0 -82 8l8 78q53 494 358 944l21 31q29 43 106 145l-6 6q-57 -14 -330 -14h-342q-6 28 -6 55z" />
<glyph unicode="8" horiz-adv-x="1085" d="M111 332q0 117 70.5 213t178.5 149q-213 106 -213 314q0 152 114 248t280 96q172 0 283.5 -93.5t111.5 -240.5q0 -102 -57.5 -182t-149.5 -127q244 -121 244 -361q0 -170 -127 -271.5t-311 -101.5q-193 0 -308.5 94.5t-115.5 262.5zM270 344q0 -121 77 -185.5t192 -64.5 q113 0 192.5 68.5t79.5 187.5q0 117 -85 187.5t-212 103.5l-27 6h-2q-100 -43 -157.5 -126t-57.5 -177zM307 1012q1 -182 273 -250l24 -8q80 39 127 107.5t47 148.5q0 104 -68.5 163.5t-168.5 59.5q-98 0 -166 -61.5t-68 -159.5z" />
<glyph unicode="9" horiz-adv-x="1085" d="M106 887q0 203 116 334t306 131q178 0 285 -119q20 -25 30.5 -37t37 -63.5t41 -107.5t28 -156.5t13.5 -221.5q0 -311 -130.5 -491.5t-379.5 -180.5q-174 0 -275 62q8 78 62 113q102 -47 209 -48q174 0 261 133.5t91 346.5q-137 -137 -320 -138q-174 0 -274.5 113 t-100.5 330zM268 897q0 -317 250 -317q72 0 149.5 38.5t133.5 106.5v35q0 254 -99 381q-72 86 -176 86q-121 0 -189.5 -89t-68.5 -241z" />
<glyph unicode=":" horiz-adv-x="520" d="M137 96q0 63 17 90q45 23 106 23q66 0 107 -23q16 -27 16 -90q0 -61 -16 -90q-33 -20 -107 -20q-66 0 -106 20q-17 29 -17 90zM137 793q0 63 17 90q45 23 106 22q66 0 107 -22q16 -27 16 -90q0 -61 -16 -91q-33 -20 -107 -20q-66 0 -106 20q-17 30 -17 91z" />
<glyph unicode=";" horiz-adv-x="528" d="M78 -225q154 76 158 207q-55 10 -78 26q-18 27 -19 86q0 70 19 92q45 23 106 23q72 0 103 -23q23 -41 22 -120q0 -125 -68.5 -225.5t-199.5 -149.5q-47 27 -43 84zM141 793q0 63 17 90q45 23 106 22q66 0 107 -22q16 -27 16 -90q0 -61 -16 -91q-33 -20 -107 -20 q-66 0 -106 20q-17 30 -17 91z" />
<glyph unicode="&#x3c;" horiz-adv-x="1085" d="M113 528q-18 76 0 129l772 422q66 -45 73 -123l-548 -288q-20 -10 -77 -38t-61 -30v-14q4 -2 60.5 -30t77.5 -38l548 -289q-12 -80 -73 -123z" />
<glyph unicode="=" horiz-adv-x="1085" d="M113 420q0 45 8 72h844q8 -27 8 -72q0 -43 -8 -70h-844q-8 27 -8 70zM113 772q0 43 8 74h844q8 -31 8 -74t-8 -70h-844q-8 27 -8 70z" />
<glyph unicode="&#x3e;" horiz-adv-x="1085" d="M127 231l549 289q20 10 76.5 38t60.5 30v14q-4 2 -60.5 29.5t-76.5 38.5l-549 288q8 78 74 123l772 -422q18 -76 0 -129l-774 -421q-63 47 -72 122z" />
<glyph unicode="?" horiz-adv-x="782" d="M33 1327q184 94 373 94q158 0 257 -91t99 -245q0 -236 -266 -391l-129 -76l-17 -237q-23 -8 -55 -8q-39 0 -64 8l-8 305l13 21l94 49q268 143 268 317q0 94 -60.5 151.5t-164.5 57.5q-123 0 -283 -76q-51 47 -57 121zM182.5 88q-0.5 57 14.5 82q37 20 96 20q61 0 96 -20 q14 -25 14 -82t-14 -82q-35 -20 -96 -20q-59 0 -96 20q-14 25 -14.5 82z" />
<glyph unicode="@" horiz-adv-x="1908" d="M117 467q0 391 244.5 651t625.5 260q369 0 597 -218t228 -572q0 -256 -118.5 -407.5t-280.5 -151.5q-170 0 -223 135q-55 -63 -132 -104.5t-159 -41.5q-147 0 -235.5 120t-88.5 325q0 217 109 366.5t297 149.5q193 0 340 -133l-2 -531q0 -90 24.5 -127.5t79.5 -37.5 q96 0 167 108.5t71 335.5q0 299 -184.5 483.5t-489.5 184.5q-319 0 -518 -226.5t-199 -568.5q0 -338 174 -526.5t461 -188.5q246 0 422 74q45 -37 45 -111q-229 -84 -475 -84q-348 0 -564 221.5t-216 614.5zM729 463q0 -141 49.5 -229.5t149.5 -88.5q63 0 132.5 47.5 t110.5 112.5v483q-74 74 -190.5 74t-184 -113.5t-67.5 -285.5z" />
<glyph unicode="A" horiz-adv-x="1220" d="M53 8l469 1391q35 6 90 6q59 0 86 -6l469 -1391q-33 -20 -92 -20q-39 0 -59.5 16t-34.5 66l-98 295q-18 0 -79 -1.5t-65 -1.5h-274q-4 0 -64.5 1.5t-78.5 1.5l-119 -367q-27 -6 -70 -6q-35 0 -76 10zM367 498q18 0 66 1t52 1h236q2 0 50 -1t69 -1l-129 389 q-78 240 -105 342h-10q-39 -152 -70 -244z" />
<glyph unicode="B" horiz-adv-x="1228" d="M203 12v1374l12 13q25 0 173.5 3t225.5 3q223 0 326.5 -98.5t103.5 -270.5q0 -100 -53 -179t-147 -112q113 -31 190.5 -129t77.5 -231q0 -166 -113.5 -278.5t-361.5 -112.5q-76 0 -145.5 1t-148.5 3t-128 2zM358 123q47 0 145.5 1t145.5 1q168 0 232.5 81t64.5 191 q0 45 -15.5 89t-48 87t-98 70t-153.5 27h-273v-547zM358 801h252q152 0 211.5 69.5t59.5 167.5q0 236 -265 236q-182 0 -258 2v-475z" />
<glyph unicode="C" horiz-adv-x="1228" d="M117 692q0 360 152.5 545.5t385.5 185.5q213 0 345.5 -116.5t132.5 -268.5q0 -92 -89 -92q-32 0 -69 10v12q0 122 -75 220q-79 104 -245 104q-180 0 -276 -153.5t-96 -446.5q0 -272 99 -425.5t271 -153.5q186 0 375 161q63 -37 86 -102q-86 -88 -213 -142.5t-270 -54.5 q-133 0 -235.5 59.5t-162 162t-88 227.5t-28.5 268z" />
<glyph unicode="D" horiz-adv-x="1306" d="M203 12v1374l12 13q178 6 416 6q88 0 186 -26.5t158 -78.5q123 -104 167 -250.5t44 -351.5q0 -207 -43 -352t-168 -250q-59 -51 -157.5 -77.5t-186.5 -26.5q-59 0 -416 8zM358 125q55 0 139.5 -1t131.5 -1q98 0 170.5 36t114.5 90t67 135t32 153.5t7 160.5q0 90 -7 163 t-32 153t-67 134t-114.5 90t-170.5 36q-47 0 -131 1t-140 1v-1151z" />
<glyph unicode="E" horiz-adv-x="1153" d="M203 102v1284l12 13h791q4 -25 4 -64q0 -41 -11 -71h-522h-125q0 -27 1 -64t1 -63v-363q25 0 67 1t56 1h424q6 -37 6 -67q0 -33 -6 -68h-424q-78 0 -123 2v-432q0 -14 -1 -40t-1 -38q70 4 127 4h561q0 -43 -4 -65q-14 -72 -100 -72h-645q-41 0 -64.5 27.5t-23.5 74.5z " />
<glyph unicode="F" horiz-adv-x="1052" d="M203 0v1386l12 13h776q10 -31 10 -66q0 -71 -93 -71h-3h-325q-162 0 -224 4q0 -47 1 -142.5t1 -144.5v-205q23 0 61 1t52 1h420q6 -37 6 -67q0 -33 -6 -68h-420q-72 0 -113 2v-643q-31 -6 -79 -6q-45 0 -76 6z" />
<glyph unicode="G" horiz-adv-x="1304" d="M117 690q0 193 50 338.5t134 229t184.5 124.5t212.5 41q125 0 250 -41t211 -112q-16 -76 -84 -121q-166 133 -387 133q-176 0 -290.5 -141.5t-114.5 -452.5q0 -575 419 -575q164 0 306 47v278q0 90 2 125h-224q-71 0 -71 72q0 29 12 70h311q66 0 94.5 -26t28.5 -83v-530 q-219 -90 -487 -91q-152 0 -264.5 60.5t-174 166t-90 226.5t-28.5 262z" />
<glyph unicode="H" horiz-adv-x="1368" d="M203 0v1399q31 6 76 6q49 0 79 -6v-457q0 -29 -1 -77t-1 -74q8 0 63.5 1t61.5 1h406q6 0 61.5 -1t63.5 -1q0 27 -1 74.5t-1 76.5v457q27 6 75 6q45 0 80 -6v-1399q-34 -6 -80 -6q-44 0 -75 6v504q0 29 1 77t1 74q-8 0 -63.5 -1t-61.5 -1h-406q-6 0 -61 1t-64 1 q0 -27 1 -75t1 -76v-504q-31 -6 -79 -6q-45 0 -76 6z" />
<glyph unicode="I" horiz-adv-x="577" d="M211 0v1399q27 6 76 6q45 0 80 -6v-1399q-35 -6 -80 -6q-49 0 -76 6z" />
<glyph unicode="J" horiz-adv-x="892" d="M20 63q15 70 64 121q111 -69 236 -69h4q133 0 185 78.5t52 269.5v936q33 6 82 6q45 0 76 -6v-905q0 -94 -7 -164t-32 -139.5t-66 -113.5t-112.5 -70.5t-169.5 -26.5q-174 0 -312 83z" />
<glyph unicode="K" horiz-adv-x="1193" d="M203 0v1399q31 6 76 6q49 0 79 -6v-613l150 5q39 0 70 49l301 487q27 43 47 59.5t63 16.5q23 0 84 -4l12 -17l-344 -557q-31 -49 -63 -75q98 -14 153.5 -75t108.5 -188l125 -319q35 -86 84 -125q-35 -53 -109 -53q-47 0 -69.5 23.5t-42.5 78.5l-131 334 q-49 125 -109.5 175t-163.5 50q-80 0 -166 -4v-647q-31 -6 -79 -6q-45 0 -76 6z" />
<glyph unicode="L" horiz-adv-x="1036" d="M203 104v1289l12 12h61q49 0 65.5 -23.5t16.5 -78.5v-1170q93 6 179 6h436q0 -45 -6 -67q-12 -72 -101 -72h-573q-39 0 -64.5 27.5t-25.5 76.5z" />
<glyph unicode="M" horiz-adv-x="1624" d="M172 2l109 1397q39 6 106 6q66 0 100 -6l236 -719q18 -51 49 -164t35 -135h10q29 141 84 299l236 719q43 6 100 6q63 0 106 -6l109 -1397q-37 -10 -80 -10q-37 0 -72 6l-59 848q-6 92 -16 387h-11l-323 -1014q-49 -8 -80 -8q-35 0 -76 8l-325 1014h-11q-2 -51 -7 -193.5 t-9 -193.5l-57 -848q-37 -6 -76 -6q-43 0 -78 10z" />
<glyph unicode="N" horiz-adv-x="1374" d="M203 0v1399q37 6 92 6q57 0 98 -6l498 -928q31 -55 79 -154.5t64 -134.5h6q-14 262 -14 467v654q0 55 16.5 78.5t65.5 23.5h53l13 -10v-1395q-39 -6 -96.5 -6t-98.5 6l-498 928q-61 115 -139 282h-6q12 -381 12 -442v-768q-43 -6 -74 -6q-35 0 -71 6z" />
<glyph unicode="O" horiz-adv-x="1337" d="M117 700q0 412 217 605q132 118 331 118h3q203 0 336 -118q111 -98 164 -260t53 -345q0 -412 -217 -606q-133 -119 -336 -119q-201 0 -334 119q-217 192 -217 606zM283 700.5q0 -110.5 17 -207t57 -188.5t120 -145.5t191 -53.5q113 0 191.5 53.5t118.5 145.5t57.5 188.5 t17.5 207t-17.5 207t-57.5 187.5t-119 144t-191 53q-111 0 -191 -53t-120 -144t-57 -187.5t-17 -207z" />
<glyph unicode="P" horiz-adv-x="1138" d="M203 0v1386l12 13q33 0 174 3t217 3q203 0 327 -113.5t124 -324.5t-123 -326t-328 -115h-248v-526q-31 -6 -79 -6q-45 0 -76 6zM358 655q84 2 252 2q80 0 138.5 28t87 76t42 98t13.5 108q0 127 -63.5 217t-217.5 90q-176 0 -252 2v-621z" />
<glyph unicode="Q" horiz-adv-x="1314" d="M117 700q0 424 207 609q126 114 329 114h4q205 0 332 -114q209 -184 209 -609q0 -414 -201 -596q-63 -57 -116 -75l45 -31q102 -72 155.5 -96.5t104.5 -26.5q-4 -59 -38 -88t-77 -29q-66 0 -125 41l-250 178q-8 -2 -28 -2q-213 0 -344 115q-207 184 -207 610zM283 700 q0 -587 373 -587h1q373 0 373 587q0 592 -373 592q-374 0 -374 -592z" />
<glyph unicode="R" horiz-adv-x="1212" d="M203 0v1386l12 13q49 0 134 2t153.5 3t126.5 1q211 0 327.5 -108t116.5 -298q0 -137 -71.5 -236t-196.5 -136q86 -29 137 -166l107 -277q45 -111 88 -145q-33 -51 -109 -51q-45 0 -67.5 23.5t-45.5 78.5l-118 311q-35 92 -83 140.5t-143 48.5h-213v-590q-35 -6 -80 -6 t-75 6zM358 721q86 4 269 4q154 0 218 80t64 194q0 117 -64.5 196t-217.5 79q-193 0 -269 2v-555z" />
<glyph unicode="S" horiz-adv-x="1136" d="M80 129q6 76 72 125q209 -141 409 -141q143 0 227 60q86 61 86 168q0 160 -217 255l-239 104q-276 121 -277 344q0 158 123 268.5t322 110.5q203 0 407 -98q0 -78 -63 -131q-188 96 -338 96q-129 0 -210 -64.5t-81 -166.5q0 -78 52.5 -127t146.5 -90l231 -101 q305 -131 305 -370q0 -180 -121.5 -288t-359.5 -108q-264 0 -475 154z" />
<glyph unicode="T" horiz-adv-x="989" d="M37 1331q0 31 6 68h901q12 -27 12 -66q0 -69 -93 -69h-3h-174q-12 0 -55 1t-58 1v-1266q-33 -6 -77.5 -6t-79.5 6v1266q-14 0 -55.5 -1t-55.5 -1h-262q-6 35 -6 67z" />
<glyph unicode="U" horiz-adv-x="1363" d="M186 477v916l13 12h61q49 0 65.5 -23.5t16.5 -78.5v-824q0 -180 89 -277.5t251 -97.5t251 96.5t89 278.5v920q31 6 76 6q49 0 82 -6v-922q0 -244 -136.5 -373t-363.5 -129q-223 0 -358.5 129t-135.5 373z" />
<glyph unicode="V" horiz-adv-x="1140" d="M55 1386q53 25 99 25q66 0 86 -76l243 -825q33 -109 95 -340q4 -18 16 -18l356 1247q28 6 68 6q39 0 72 -8l8 -13l-418 -1386q-61 -6 -119 -6q-43 0 -68.5 15.5t-41.5 66.5z" />
<glyph unicode="W" horiz-adv-x="1681" d="M80 1393q39 18 90 18q37 0 54.5 -18.5t27.5 -65.5l151 -784l70 -393q2 -14 5 -17.5t14 -3.5l251 1239q47 6 105 6q70 0 102 -6l232 -1218q4 -20 16 -21q18 102 80 414l180 856q31 6 72 6q45 0 76 -8l8 -11l-305 -1384q-51 -10 -148 -10q-41 0 -65.5 17.5t-32.5 66.5 l-115 606q-66 350 -96 522h-12q-59 -326 -103 -522l-143 -682q-55 -8 -139 -8q-95 0 -111 86z" />
<glyph unicode="X" horiz-adv-x="1171" d="M47 18l449 719l-392 637q49 37 107 37q59 0 98 -65l293 -476l324 529q25 8 65 8q55 0 80 -14l6 -13l-395 -639l440 -716q-45 -37 -106 -37q-57 0 -98 65l-343 555l-370 -608q-25 -8 -70 -8q-53 0 -82 14z" />
<glyph unicode="Y" horiz-adv-x="985" d="M31 1380q53 33 102 33q59 0 86 -76l197 -475q31 -68 84 -235h10q10 36 84 235l213 537q31 8 69.5 8t75.5 -10l6 -13l-385 -929v-455q-33 -6 -80 -6t-77 6v461z" />
<glyph unicode="Z" horiz-adv-x="1132" d="M109 106q-1 39 24 78l551 858q31 47 158 226l-6 6q-70 -14 -322 -14h-348q-6 28 -6 55q0 41 12 84h811q23 -80 23 -108.5t-25 -71.5l-547 -848q-18 -31 -162 -234l7 -6q106 10 215 10h268q174 0 246 33q14 -43 14 -82q0 -92 -115 -92h-776q-23 74 -22 106z" />
<glyph unicode="[" horiz-adv-x="647" d="M205 -276v1918l12 13l363 -15q4 -16 4 -47q0 -33 -13 -69l-211 -6v-1670l211 -6q12 -41 13 -69q0 -31 -4 -47l-363 -15z" />
<glyph unicode="\" horiz-adv-x="833" d="M27 1501q59 47 135 51l649 -1718q-61 -47 -135 -51z" />
<glyph unicode="]" horiz-adv-x="647" d="M61 -227q0 29 13 69l211 6v1670l-211 6q-12 37 -13 69q0 31 5 47l362 15l14 -13v-1918l-14 -13l-362 15q-4 16 -5 47z" />
<glyph unicode="^" horiz-adv-x="1085" d="M109 627l352 700q82 20 164 0l352 -700q-23 -8 -74 -8.5t-82 8.5l-207 424q-14 31 -65 147h-12l-66 -147l-207 -424q-31 -8 -82 -8.5t-73 8.5z" />
<glyph unicode="_" horiz-adv-x="1044" d="M-6 -231q0 39 6 63h1044q6 -25 7 -63q-1 -37 -7 -62h-1044q-6 25 -6 62z" />
<glyph unicode="`" d="M143 1364q37 88 125 115l281 -316q-23 -53 -72 -65z" />
<glyph unicode="a" horiz-adv-x="1032" d="M104 272q0 166 102.5 248t280.5 82q131 0 226 -18v102q0 209 -185 209q-143 0 -333 -84q-53 45 -54 119q219 96 402 96q317 0 317 -342v-422q1 -144 58 -199q-20 -55 -70 -77q-100 37 -127 143q-158 -154 -322 -154q-139 0 -217 89.5t-78 207.5zM258 283q0 -78 43 -128.5 t119 -50.5q74 0 152.5 42t140.5 122v205q-98 14 -224 14q-106 0 -168.5 -54t-62.5 -150z" />
<glyph unicode="b" horiz-adv-x="1073" d="M180 51v1442l13 12h55q49 0 65.5 -23.5t16.5 -78.5v-506q129 125 288 125q168 0 259.5 -139.5t91.5 -368.5q0 -262 -126 -395t-304 -133q-180 0 -359 65zM330 137q90 -35 207 -35q119 0 198.5 105.5t79.5 306.5q0 188 -62.5 281.5t-156.5 93.5q-74 0 -145.5 -40 t-120.5 -104v-608z" />
<glyph unicode="c" horiz-adv-x="960" d="M106 494q0 262 120 399t292 137q176 0 265 -95t89 -198q0 -94 -79 -94q-29 0 -66 6q1 11 1 22q0 90 -45 159q-50 77 -169 77q-115 0 -182.5 -106.5t-67.5 -306.5q0 -193 68.5 -290.5t193.5 -97.5q109 0 262 113q57 -35 72 -96q-158 -147 -354 -148q-139 0 -232.5 78 t-130.5 190.5t-37 250.5z" />
<glyph unicode="d" horiz-adv-x="1075" d="M104 489q0 260 116 396.5t267 136.5q123 0 256 -84v555l13 12h55q47 0 63.5 -23.5t16.5 -78.5v-1120q0 -162 57 -220q-23 -57 -67 -77q-94 33 -125 137q-125 -147 -307 -148q-166 0 -255.5 139t-89.5 375zM258 489q0 -193 62.5 -288t156.5 -95q70 0 142.5 42t123.5 116 v535q-137 92 -241 92q-102 0 -173 -100.5t-71 -301.5z" />
<glyph unicode="e" horiz-adv-x="1030" d="M106 503.5q0 233.5 109 380t301 146.5q188 0 291.5 -124t103.5 -314q0 -74 -10 -135h-635q10 -348 264 -348q139 0 297 86q47 -41 56 -105q-166 -115 -373 -115q-213 0 -308.5 147.5t-95.5 381zM266 573h492v27q0 139 -59.5 226t-182.5 87q-113 0 -177.5 -92t-72.5 -248z " />
<glyph unicode="f" horiz-adv-x="655" d="M39 948q0 27 6 58l170 -5q-14 182 -14 213q0 131 76.5 215t216.5 84q121 0 233 -43q0 -63 -37 -104q-123 33 -186 33q-76 0 -119 -50.5t-43 -140.5q0 -74 18 -207l299 5q6 -31 7 -58q0 -29 -7 -59l-290 2v-891q-31 -6 -74 -6q-41 0 -74 6v891l-176 -2q-6 31 -6 59z" />
<glyph unicode="g" horiz-adv-x="1073" d="M104 500q0 258 115 394t266 136q164 0 289 -110q29 72 109 100q49 -27 67 -80q-57 -55 -57 -219v-643q0 -287 -92 -400q-106 -129 -314 -129q-176 0 -337 70q4 74 43 119q135 -66 280 -66q86 0 143.5 26t85 75t38 101t10.5 126v119q-131 -135 -297 -135 q-168 0 -258.5 138t-90.5 378zM258 500q0 -195 60.5 -290t156.5 -95q76 0 149.5 42t125.5 109v504v27q-121 102 -244 102q-106 0 -177 -99.5t-71 -299.5z" />
<glyph unicode="h" horiz-adv-x="1114" d="M180 0v1493l13 12h55q49 0 65.5 -23.5t16.5 -78.5v-529q70 66 164 107t188 41q137 0 199.5 -89.5t62.5 -232.5v-505q0 -115 25 -175q-36 -32 -93 -32h-4q-78 0 -77 100v565q0 125 -33 177.5t-119 52.5q-78 0 -166 -44t-147 -114v-725q-31 -6 -74 -6q-45 0 -76 6z" />
<glyph unicode="i" horiz-adv-x="524" d="M86 946q0 29 8 55q76 10 103 11h16q63 0 99 -40t36 -108v-864q-31 -6 -74 -6q-47 0 -77 6v791q0 57 -18.5 77.5t-65.5 20.5h-19q-8 27 -8 57zM133 1280q0 47 14 76q35 20 93 20q61 0 92 -20q14 -29 14 -76t-14 -76q-31 -23 -92 -22q-55 0 -93 22q-14 29 -14 76z" />
<glyph unicode="j" horiz-adv-x="538" d="M72 -352q82 43 110.5 96t28.5 158v889q0 57 -18.5 77.5t-65.5 20.5h-37q-8 41 -8 57q0 14 8 55q76 10 125 11h16q61 0 96 -40t35 -108v-837q0 -8 1 -23q0 -92 -2.5 -134t-13.5 -103.5t-36.5 -94t-73 -65.5t-118.5 -56q-35 35 -47 97zM147 1280q0 47 15 76q35 20 92 20 q61 0 92 -20q14 -29 14 -76t-14 -76q-30 -22 -87 -22h-5q-55 0 -92 22q-15 29 -15 76z" />
<glyph unicode="k" horiz-adv-x="1003" d="M180 0v1493l13 12h55q49 0 65.5 -23.5t16.5 -78.5v-823l88 4q29 0 47 28l219 324q27 41 49.5 58.5t65.5 17.5q18 0 75 -4l13 -17l-260 -379q-27 -39 -49 -57q70 -14 116.5 -58t85.5 -130l80 -181q53 -121 98 -153q-33 -45 -100 -45q-47 0 -70.5 24.5t-48.5 81.5l-94 213 q-39 90 -80 121t-125 31q-51 0 -110 -8v-451q-31 -6 -74 -6q-45 0 -76 6z" />
<glyph unicode="l" horiz-adv-x="579" d="M176 162v1331l12 12h56q49 0 65.5 -23.5t16.5 -78.5v-1198q-1 -88 75 -88h86q14 -29 15 -82q0 -23 -2 -31q-82 -12 -150 -12q-80 0 -127 44t-47 126z" />
<glyph unicode="m" horiz-adv-x="1619" d="M180 0v997l13 15h57q49 0 65.5 -25.5t16.5 -81.5v-31q129 147 301 148q168 0 229 -154q168 154 332 154q127 0 191.5 -88t64.5 -227v-512q0 -115 25 -175q-36 -32 -93 -32h-4q-78 0 -78 100v569q0 121 -31.5 174.5t-107.5 53.5q-66 0 -139.5 -41t-130.5 -115v-22v-707 q-31 -6 -76 -6t-76 6v655q0 123 -31.5 176.5t-107.5 53.5q-66 0 -140.5 -43t-127.5 -117v-725q-31 -6 -74 -6q-47 0 -78 6z" />
<glyph unicode="n" horiz-adv-x="1116" d="M180 0v999l13 13h57q49 0 65.5 -25.5t16.5 -81.5v-28q70 66 164 105.5t188 39.5q137 0 200.5 -88.5t63.5 -231.5v-507q0 -119 23 -175q-32 -32 -93 -32h-4q-78 0 -77 100v567q0 125 -32 177.5t-118 52.5q-80 0 -168 -44t-147 -114v-727q-31 -6 -74 -6q-47 0 -78 6z" />
<glyph unicode="o" horiz-adv-x="1062" d="M106 503q0 271 144 417q105 110 277 110h3q175 0 283 -110q143 -146 143 -418.5t-143 -417.5q-109 -109 -283 -109q-172 0 -280 109q-144 145 -144 419zM264 502q0 -174 63.5 -291t204.5 -117q96 0 159 61.5t86.5 148.5t23.5 198q0 172 -64.5 290.5t-204.5 118.5 q-141 0 -204.5 -117.5t-63.5 -291.5z" />
<glyph unicode="p" horiz-adv-x="1077" d="M180 -428v1427l13 13h53q49 0 66.5 -25.5t17.5 -83.5v-10q123 137 299 137q166 0 255 -140t89 -376q0 -258 -116 -394t-267 -136q-133 0 -260 84v-406q0 -55 -16.5 -78.5t-65.5 -23.5h-55zM330 207q133 -92 245 -92q102 0 173 100t71 299q0 193 -63.5 288t-155.5 95 q-74 0 -147.5 -43t-122.5 -121v-526z" />
<glyph unicode="q" horiz-adv-x="1073" d="M104 500q0 258 115 394t266 136q164 0 289 -106q33 68 109 96q49 -27 67 -80q-57 -55 -57 -219v-1149l-12 -12h-56q-47 0 -63.5 23.5t-16.5 78.5v449q-127 -127 -292 -127q-168 0 -258.5 138t-90.5 378zM258 500q0 -193 61.5 -289t155.5 -96q74 0 146.5 40t123.5 105v510 v31q-117 98 -239 98q-104 0 -176 -100.5t-72 -298.5z" />
<glyph unicode="r" horiz-adv-x="722" d="M125 934q14 53 65 86q115 -43 148 -182q84 180 274 180q43 0 95 -8q0 -88 -35 -144q-25 2 -72 2q-166 0 -250 -186v-682q-31 -6 -74 -6q-47 0 -77 6v725q0 139 -74 209z" />
<glyph unicode="s" horiz-adv-x="888" d="M76 78q4 66 59 110q168 -94 291 -94q96 0 155.5 44t61.5 116q0 51 -39 94t-110 70l-115 45q-262 98 -262 285q0 129 98 205.5t244 76.5q162 0 311 -67q0 -72 -47 -119q-145 63 -268 63q-80 0 -131.5 -41t-51.5 -108q0 -51 37 -85t117 -65l121 -47q254 -100 254 -297 q0 -135 -104.5 -212t-272.5 -77q-186 1 -348 103z" />
<glyph unicode="t" horiz-adv-x="690" d="M66 948q0 27 6 58l145 -2v215q0 55 16.5 78.5t63.5 23.5h55l13 -12v-308l260 5q6 -31 6 -58q0 -29 -6 -59l-260 2v-688q0 -86 79 -86h156q14 -35 14 -82q0 -23 -4 -31q-94 -12 -207 -12q-88 0 -137 44t-49 126v729l-145 -2q-6 31 -6 59z" />
<glyph unicode="u" horiz-adv-x="1118" d="M145 985q37 33 97 33q78 0 77 -100v-568q0 -127 33 -179t119 -52q78 0 166 44t147 113v728q27 8 74 8q51 0 78 -8v-721q0 -164 57 -220q-18 -55 -69 -77q-100 35 -129 151q-70 -70 -167.5 -112.5t-195.5 -42.5q-137 0 -199.5 88t-62.5 231v510q0 111 -25 174z" />
<glyph unicode="v" horiz-adv-x="905" d="M23 993q53 27 92 27q59 0 75 -59l164 -488q61 -193 97 -326q4 -16 18 -16l274 875q33 8 62 8q27 0 76 -13l4 -6q-188 -586 -336 -995q-41 -10 -107 -10q-49 0 -70.5 17.5t-43.5 80.5z" />
<glyph unicode="w" horiz-adv-x="1441" d="M66 995q55 25 94 25q57 0 69 -62l109 -475q29 -127 74 -352q4 -18 16 -18l207 891q31 6 92 6t92 -6l195 -873q4 -18 16 -18q39 182 84 370l123 523q25 8 72 8q43 0 71 -13l4 -6l-254 -997q-43 -6 -118 -6q-49 0 -77 18.5t-40 77.5l-72 320q-8 33 -40.5 197.5t-53.5 250.5 h-8q-10 -55 -98 -446l-99 -410q-47 -8 -129 -8q-41 0 -67.5 18.5t-40.5 77.5z" />
<glyph unicode="x" horiz-adv-x="919" d="M45 16l326 510l-297 459q53 37 104 37q45 0 76 -47l211 -326l219 355q20 10 66 10q49 0 73 -15l6 -12l-288 -455l333 -509q-57 -37 -106 -37q-47 0 -76 45l-243 377l-256 -410q-20 -8 -68 -8q-45 0 -74 14z" />
<glyph unicode="y" horiz-adv-x="925" d="M16 -420q-1 8 -1 15q0 49 34 96q63 -23 135 -23q109 0 166.5 74t104.5 229l6 21q-53 4 -81 24.5t-46 75.5l-287 901q63 27 90 27q59 0 80 -72l162 -514q8 -25 94 -319q4 -14 21 -15l249 906q27 8 70 8q45 0 76 -13l4 -6l-281 -960q-78 -264 -166 -372.5t-264 -108.5 q-90 0 -166 26z" />
<glyph unicode="z" horiz-adv-x="909" d="M84 94q0 29 27 64l385 528q16 20 159 199l-6 6q-82 -10 -282 -10h-246q-4 18 -4 53q0 37 8 70h668q26 -61 26 -95q0 -29 -24 -61l-379 -516q-47 -63 -162 -207l6 -6q109 6 205 6h113q172 0 237 25q12 -35 12 -72q0 -78 -110 -78h-608q-25 72 -25 94z" />
<glyph unicode="{" horiz-adv-x="651" d="M76 664.5q0 34.5 8 52.5q72 29 118 92t46 158v358q0 135 73.5 216t196.5 101l88 15q16 -18 24.5 -51t0.5 -60l-88 -28q-137 -39 -137 -195v-352q0 -96 -45.5 -179t-118.5 -120v-17q74 -37 119 -119.5t45 -177.5v-356q0 -152 137 -195l88 -26q16 -63 -25 -113l-88 15 q-123 20 -196.5 102t-73.5 215v362q0 90 -46 156t-118 94q-8 18 -8 52.5z" />
<glyph unicode="|" horiz-adv-x="505" d="M180 -287v1874q31 6 72 6q40 0 74 -6v-1874q-34 -6 -74 -6q-41 0 -72 6z" />
<glyph unicode="}" horiz-adv-x="651" d="M18 -219l91 26q137 43 137 195v356q0 94 45 177t119 120v17q-74 37 -119 119.5t-45 179.5v352q0 156 -137 195l-91 28q-14 70 27 111l86 -15q123 -20 196.5 -101t73.5 -216v-358q0 -94 46 -157.5t118 -92.5q8 -18 8 -52t-8 -53q-72 -29 -118 -94t-46 -156v-362 q0 -133 -73.5 -215t-196.5 -102l-86 -15q-41 45 -27 113z" />
<glyph unicode="~" horiz-adv-x="1146" d="M90 537l21 36q84 164 256 164q80 0 168 -41l157 -71q63 -27 113 -27q74 0 131 74l31 39q27 -2 53.5 -17.5t36.5 -40.5l-21 -37q-84 -164 -256 -163q-80 0 -168 41l-157 71q-55 25 -113 25q-74 0 -129 -72l-33 -39q-27 2 -53.5 17.5t-36.5 40.5z" />
<glyph unicode="&#xa1;" horiz-adv-x="567" d="M172 916q0 59 16 81q33 23 97 23q61 0 96 -23q14 -25 14 -82t-14 -81q-37 -21 -96 -21q-61 0 -97 21q-16 23 -16 82zM184 -395l39 1018q25 8 61.5 8t61.5 -8l14 -985q-66 -45 -163 -46z" />
<glyph unicode="&#xa2;" horiz-adv-x="964" d="M104 662q0 233 96.5 367t248.5 161v203q25 6 67 6q41 0 70 -6v-201q141 -18 213.5 -108.5t72.5 -178.5q0 -96 -81 -96q-29 0 -64 6q6 104 -45 181t-170 77q-113 0 -178.5 -106.5t-65.5 -304.5q0 -389 258 -390q129 0 258 117q25 -12 48.5 -37.5t31.5 -50.5 q-111 -129 -284 -158v-204q-37 -4 -70 -5q-35 1 -68 5v204q-174 25 -256 172.5t-82 346.5z" />
<glyph unicode="&#xa3;" horiz-adv-x="1073" d="M121 104q0 45 24 78l37 58q104 154 105 286q0 6 -1 18.5t-1 18.5q-53 -2 -156 -2q-12 55 0 125q84 0 125 -2q-8 25 -27.5 73t-31 78.5t-20.5 74.5t-9 85q0 141 99.5 249t287.5 108q227 0 389 -144q-2 -33 -26.5 -66.5t-55.5 -43.5q-68 57 -149.5 89t-147.5 32 q-102 0 -170.5 -61.5t-68.5 -166.5q0 -49 12 -97t37.5 -116.5t34.5 -93.5q51 0 180 1t211 1q16 -63 0 -125q-61 0 -182 1t-181 1q0 -8 1 -21.5t1 -19.5q0 -176 -149 -389l6 -6q238 8 242 8h448q0 -39 -4 -63q-14 -72 -100 -72h-736q-25 74 -24 104z" />
<glyph unicode="&#xa4;" horiz-adv-x="1159" d="M76 274l147 158q-78 113 -78 254t78 254l-147 158q35 59 90 90l158 -148q111 78 256 78q139 0 251 -76l160 148q61 -33 90 -90l-147 -158q80 -117 80 -256q0 -141 -78 -254l147 -158q-27 -51 -90 -90l-157 148q-113 -78 -256.5 -78t-255.5 78l-158 -148q-55 33 -90 90z M305 686q0 -129 76 -220t198.5 -91t198.5 91t76 220q0 131 -76 222t-198.5 91t-198.5 -91t-76 -222z" />
<glyph unicode="&#xa5;" horiz-adv-x="1019" d="M59 1315q51 31 105 31q51 0 82 -66l182 -444q29 -61 82 -218h10q72 193 82 218l207 497q37 10 70 10q43 0 75 -8l7 -12l-238 -539h176q6 -31 6 -59q0 -25 -6 -55h-227l-78 -181h305q6 -31 6 -59q0 -24 -6 -55h-313v-375q-34 -6 -80 -6q-43 0 -74 6v375h-313q-8 27 -8 55 q0 33 8 59h305l-80 181h-225q-8 27 -8 55q0 33 8 59h174z" />
<glyph unicode="&#xa6;" horiz-adv-x="493" d="M176 -287v793q29 6 70 6q40 0 73 -6v-793q-34 -6 -73 -6q-41 0 -70 6zM176 795v792q29 6 70 6q40 0 73 -6v-792q-34 -6 -73 -7q-41 1 -70 7z" />
<glyph unicode="&#xa7;" horiz-adv-x="976" d="M72 598q0 96 62.5 175t160.5 128q-143 96 -143 242q0 127 100 203.5t246 76.5q160 0 307 -69q0 -72 -47 -119q-150 66 -264 65q-82 0 -133.5 -40.5t-51.5 -108.5q0 -96 154 -158l119 -47q154 -59 240.5 -133t86.5 -197q0 -96 -63.5 -176t-163.5 -129q145 -92 145 -241 q0 -127 -101 -204t-259 -77q-195 0 -326 86q-2 29 16.5 63.5t39.5 51.5q147 -78 276 -78q92 0 145.5 40t53.5 109q0 96 -154 158l-121 47q-152 59 -238.5 134t-86.5 198zM229 616q0 -70 58.5 -114.5t163.5 -85.5l110 -45q190 88 191 225q0 72 -60 117t-164 86l-114 41 q-184 -86 -185 -224z" />
<glyph unicode="&#xa8;" d="M131 1241q0 33 14 70q29 18 80 18q49 0 82 -18q14 -37 15 -70q0 -37 -15 -70q-29 -18 -82 -18t-80 18q-14 37 -14 70zM494 1241q0 33 14 70q33 18 82 18q51 0 80 -18q14 -37 14 -70q0 -37 -14 -70q-27 -18 -80 -18t-82 18q-14 37 -14 70z" />
<glyph unicode="&#xa9;" horiz-adv-x="1658" d="M92 698.5q0 311.5 212 524.5t523.5 213t525.5 -213t214 -524.5t-214 -523.5t-525.5 -212t-523.5 212t-212 523.5zM236 698q0 -258 169.5 -438t421.5 -180q254 0 425 180t171 438t-171 439.5t-425 181.5q-252 0 -421.5 -181.5t-169.5 -439.5zM473 698q0 199 107.5 307.5 t253 108.5t225.5 -80t80 -168q0 -80 -72 -80q-34 1 -61 11q6 80 -38 141t-139 61q-96 0 -152 -77.5t-56 -223.5q0 -141 58 -218t161 -77q121 0 223 93q45 -23 67 -80q-55 -57 -138 -93t-169 -36q-160 0 -255 112.5t-95 298.5z" />
<glyph unicode="&#xaa;" horiz-adv-x="831" d="M82 852q0 127 80 189.5t221 62.5q76 0 172 -10v61q0 152 -133 152q-127 0 -266 -62q-47 43 -47 105q174 74 321 73q252 0 252 -262v-311q0 -109 47 -154q-12 -41 -63 -67q-78 27 -101 102q-121 -109 -248 -108q-113 0 -174 68.5t-61 160.5zM219 862q0 -55 32 -93t85 -38 q117 0 219 115v145q-111 12 -174 13q-74 0 -118 -39t-44 -103z" />
<glyph unicode="&#xab;" horiz-adv-x="1077" d="M88 469q-18 53 0 106l389 373q63 -25 88 -84l-301 -340l314 -352q-25 -59 -89 -84zM508 469q-18 53 0 106l389 373q63 -25 88 -84l-301 -340l313 -352q-25 -59 -88 -84z" />
<glyph unicode="&#xac;" horiz-adv-x="1085" d="M102 606q1 41 9 72h837l15 -12v-441q-31 -6 -76 -6q-43 0 -76 6v236q0 10 1 37.5t1 40.5q-12 0 -40 -1t-38 -1h-624q-8 25 -9 69z" />
<glyph unicode="&#xad;" horiz-adv-x="686" d="M100.5 541q-0.5 43 8.5 73h471q6 -33 6 -73t-6 -68h-471q-8 25 -8.5 68z" />
<glyph unicode="&#xae;" horiz-adv-x="1204" d="M78 997.5q0 219.5 151.5 372t370.5 152.5t371.5 -152.5t152.5 -372t-152.5 -371t-371.5 -151.5t-370.5 151.5t-151.5 371zM195 997q0 -174 116.5 -294.5t288.5 -120.5q174 0 292 120.5t118 294.5t-118 296t-292 122q-172 0 -288.5 -122t-116.5 -296zM410 745v506l6 6 q123 4 196 5q92 0 141.5 -41t49.5 -115q0 -51 -31 -85t-74 -48q29 -12 68 -84l33 -58q20 -39 43 -55q-23 -41 -72 -41q-41 0 -72 62l-53 100q-23 43 -65 43h-64v-195q-53 -16 -106 0zM516 1026h86q92 0 92 76t-84 76h-94v-152z" />
<glyph unicode="&#xaf;" d="M129 1249q0 39 6 70h545q6 -31 6 -70q0 -36 -6 -65h-545q-6 29 -6 65z" />
<glyph unicode="&#xb0;" horiz-adv-x="643" d="M41 1087.5q0 120.5 81 202.5t199.5 82t199.5 -82t81 -202.5t-81 -202.5t-199.5 -82t-199.5 82t-81 202.5zM168 1087q0 -76 42 -122.5t112 -46.5q68 0 109.5 48t41.5 121.5t-42 121.5t-109 48q-70 0 -112 -48t-42 -122z" />
<glyph unicode="&#xb1;" horiz-adv-x="1085" d="M135 69.5q0 32.5 6 71.5h803q6 -39 6 -71.5t-6 -69.5h-803q-6 37 -6 69.5zM135 684q0 37 6 70h252q10 0 37 -1t39 -1q0 12 -1 39.5t-1 37.5v256q33 6 76 7q45 0 75 -7v-256q0 -10 -1 -37.5t-1 -39.5q10 0 38 1t38 1h252q6 -33 6 -70q0 -41 -6 -70h-252q-10 0 -37.5 1 t-38.5 1q0 -12 1 -39.5t1 -37.5v-260q-31 -6 -75 -7q-43 0 -76 7v260q0 10 1 37.5t1 39.5q-12 0 -39 -1t-37 -1h-252q-6 29 -6 70z" />
<glyph unicode="&#xb2;" horiz-adv-x="860" d="M131 799q0 117 168 248l129 106q61 49 87 87t26 89q0 55 -37 92t-94 37q-104 0 -162 -127q-72 10 -103 53q31 84 102.5 138.5t172.5 54.5q117 0 189.5 -72.5t72.5 -173.5q0 -88 -41 -147.5t-127 -128.5l-115 -92q-100 -84 -118 -132q68 8 141 9h283q0 -41 -3 -60 q-10 -63 -69 -63h-455q-47 53 -47 82z" />
<glyph unicode="&#xb3;" horiz-adv-x="860" d="M121 791q8 59 51 98q106 -68 203 -68q82 0 135 42t53 124q0 74 -41 120t-114 46q-51 0 -101 -25q-41 16 -51 74l176 187q35 39 72 63l-4 6q-55 -10 -160 -10h-182q-6 31 -6 57q0 35 8 58h483q23 -37 23 -72q0 -28 -23 -51l-135 -142q-23 -25 -59 -51h12 q102 0 171.5 -70.5t69.5 -189.5q0 -135 -94 -207.5t-217 -72.5q-164 0 -270 84z" />
<glyph unicode="&#xb4;" d="M274 1163l281 316q88 -27 125 -115l-334 -266q-49 12 -72 65z" />
<glyph unicode="&#xb6;" horiz-adv-x="1284" d="M104 971q0 213 123 324.5t328 111.5q76 0 190 -6l13 -12v-1250q0 -129 -17.5 -212t-68.5 -140q-88 -100 -262 -100q-137 0 -248 47q0 70 43 125q102 -45 192 -45q113 0 162 69q41 60 41 236v413h-45q-205 0 -328 114t-123 325zM895 -274v1660l12 13h310q8 -25 8 -70 t-8 -69h-97q-47 0 -67 2v-1536q-33 -6 -80 -6t-78 6z" />
<glyph unicode="&#xb7;" horiz-adv-x="595" d="M182 578q0 63 17 90q41 23 98 22q63 0 100 -22q16 -27 17 -90q0 -61 -17 -91q-29 -20 -100 -20q-61 0 -98 20q-17 30 -17 91z" />
<glyph unicode="&#xb8;" d="M246 -410q2 45 37 91q47 -29 106 -29q51 0 75.5 25.5t24.5 64.5t-24.5 63.5t-73.5 24.5q-27 0 -51 -10q-23 10 -31 33q23 82 53 147h115q-23 -45 -35 -82q78 -6 129.5 -53t51.5 -125q0 -82 -63.5 -135.5t-160 -53.5t-153.5 39z" />
<glyph unicode="&#xb9;" horiz-adv-x="860" d="M152 1292q184 106 260 271q31 8 65 8q27 0 62 -8v-729q10 0 47 1t49 1h74q6 -25 6 -56q0 -29 -6 -59h-514q-6 33 -7 59q0 31 7 56h116q10 0 46 -1t49 -1v411q0 31 4 109q-68 -90 -203 -150q-49 27 -55 88z" />
<glyph unicode="&#xba;" horiz-adv-x="796" d="M66 1024q0 201 112 319q86 80 219 80q135 0 221 -80q111 -118 111 -319q0 -203 -111 -322q-86 -80 -221 -79q-133 0 -219 79q-113 119 -112 322zM207 1024q0 -125 46 -207t146 -82q98 0 144.5 82t46.5 207t-46 208t-145 83q-100 0 -146 -83t-46 -208z" />
<glyph unicode="&#xbb;" horiz-adv-x="1077" d="M80 864q29 59 90 84l399 -381q8 -20 8.5 -52t-8.5 -54l-387 -373q-61 25 -90 84l303 340zM500 864q29 59 90 84l399 -381q10 -20 10 -52t-10 -54l-387 -373q-61 25 -90 84l303 340z" />
<glyph unicode="&#xbc;" horiz-adv-x="1814" d="M84 1128q184 106 260 271q31 8 66 8q27 0 61 -8v-729q10 0 47 1t49 1h74q6 -25 6 -56q0 -29 -6 -59h-514q-6 33 -6 59q0 31 6 56h117q10 0 46 -1t48 -1v411q0 31 4 109q-68 -90 -203 -150q-49 27 -55 88zM520 0l772 1399q25 10 76 10t76 -10l-770 -1399q-27 -10 -78 -10 t-76 10zM1096 248q0 29 30 90l244 512q31 4 70 -4t55 -27l-182 -395q-47 -98 -74 -135l2 -4q45 2 119 2h94v147q0 43 22.5 67.5t59.5 24.5h45l2 -4v-235h135q6 -20 6 -54q0 -41 -12 -65h-129v-168q-18 -8 -61 -8t-68 8v168h-328q-31 49 -30 80z" />
<glyph unicode="&#xbd;" horiz-adv-x="1814" d="M84 1128q184 106 260 271q31 8 66 8q27 0 61 -8v-729q10 0 47 1t49 1h74q6 -25 6 -56q0 -29 -6 -59h-514q-6 33 -6 59q0 31 6 56h117q10 0 46 -1t48 -1v411q0 31 4 109q-68 -90 -203 -150q-49 27 -55 88zM487 0l773 1399q25 10 75.5 10t75.5 -10l-770 -1399 q-27 -10 -78 -10t-76 10zM1135 76q0 117 168 248l129 106q61 49 86.5 87t25.5 89q0 55 -37 92t-94 37q-104 0 -162 -127q-72 10 -102 54q31 84 102.5 138t171.5 54q117 0 190 -72.5t73 -173.5q0 -88 -41 -147.5t-127 -128.5l-115 -92q-100 -84 -119 -131q68 8 141 8h283 q0 -41 -2 -60q-10 -63 -70 -63h-454q-47 53 -47 82z" />
<glyph unicode="&#xbe;" horiz-adv-x="1814" d="M113 631q8 59 51 98q106 -68 203 -67q82 0 135 41.5t53 123.5q0 74 -41 120t-115 46q-51 0 -100 -24q-41 16 -51 73l176 187q35 39 72 63l-4 6q-55 -10 -160 -10h-182q-6 31 -7 58q0 35 9 57h483q23 -37 22 -72q1 -28 -22 -51l-135 -141q-23 -25 -60 -52h13 q102 0 171.5 -70.5t69.5 -189.5q0 -135 -94 -207.5t-217 -72.5q-164 0 -270 84zM506 0l772 1399q25 10 76 10t76 -10l-771 -1399q-27 -10 -77.5 -10t-75.5 10zM1104 248q0 29 31 90l243 512q31 4 70 -4t55 -27l-182 -395q-47 -98 -74 -135l2 -4q45 2 119 2h94v147 q0 43 22.5 67.5t59.5 24.5h45l2 -4v-235h135q6 -20 7 -54q0 -41 -13 -65h-129v-168q-18 -8 -61 -8t-68 8v168h-327q-31 49 -31 80z" />
<glyph unicode="&#xbf;" horiz-adv-x="782" d="M20 -82q0 240 267 391l131 76l14 238q25 8 57 8q39 0 64 -8l8 -306l-14 -18l-92 -49q-268 -143 -269 -318q0 -96 60.5 -153.5t163.5 -57.5q125 0 284 78q50 -49 56 -121q-182 -96 -373 -96q-158 0 -257.5 91t-99.5 245zM379 916q0 57 14 81q35 23 99 23q61 0 94 -23 q16 -23 16 -82t-16 -81q-35 -21 -94 -21q-61 0 -99 21q-14 25 -14 82z" />
<glyph unicode="&#xc0;" horiz-adv-x="1220" d="M53 8l469 1391q35 6 90 6q59 0 86 -6l469 -1391q-33 -20 -92 -20q-39 0 -59.5 16t-34.5 66l-98 295q-18 0 -79 -1.5t-65 -1.5h-274q-4 0 -64.5 1.5t-78.5 1.5l-119 -367q-27 -6 -70 -6q-35 0 -76 10zM352 1669q15 98 78 137l391 -227q-12 -61 -49 -86zM367 498q18 0 66 1 t52 1h236q2 0 50 -1t69 -1l-129 389q-78 240 -105 342h-10q-39 -152 -70 -244z" />
<glyph unicode="&#xc1;" horiz-adv-x="1220" d="M53 8l469 1391q35 6 90 6q59 0 86 -6l469 -1391q-33 -20 -92 -20q-39 0 -59.5 16t-34.5 66l-98 295q-18 0 -79 -1.5t-65 -1.5h-274q-4 0 -64.5 1.5t-78.5 1.5l-119 -367q-27 -6 -70 -6q-35 0 -76 10zM367 498q18 0 66 1t52 1h236q2 0 50 -1t69 -1l-129 389 q-78 240 -105 342h-10q-39 -152 -70 -244zM430 1579l391 227q59 -37 78 -137l-420 -176q-41 29 -49 86z" />
<glyph unicode="&#xc2;" horiz-adv-x="1220" d="M53 8l469 1391q35 6 90 6q59 0 86 -6l469 -1391q-33 -20 -92 -20q-39 0 -59.5 16t-34.5 66l-98 295q-18 0 -79 -1.5t-65 -1.5h-274q-4 0 -64.5 1.5t-78.5 1.5l-119 -367q-27 -6 -70 -6q-35 0 -76 10zM309 1573l228 221q74 12 145 0l227 -211q-18 -56 -75 -72l-224 154 l-231 -166q-57 25 -70 74zM367 498q18 0 66 1t52 1h236q2 0 50 -1t69 -1l-129 389q-78 240 -105 342h-10q-39 -152 -70 -244z" />
<glyph unicode="&#xc3;" horiz-adv-x="1220" d="M53 8l469 1391q35 6 90 6q59 0 86 -6l469 -1391q-33 -20 -92 -20q-39 0 -59.5 16t-34.5 66l-98 295q-18 0 -79 -1.5t-65 -1.5h-274q-4 0 -64.5 1.5t-78.5 1.5l-119 -367q-27 -6 -70 -6q-35 0 -76 10zM262 1587l17 41q27 61 77 97t109 36q53 0 110 -28l125 -60 q37 -18 70 -18q43 0 86 51l25 33q51 -4 77 -51l-16 -39q-59 -131 -186 -131q-54 -1 -111 28l-125 60q-41 18 -69 18q-43 0 -86 -51l-25 -33q-55 4 -78 47zM367 498q18 0 66 1t52 1h236q2 0 50 -1t69 -1l-129 389q-78 240 -105 342h-10q-39 -152 -70 -244z" />
<glyph unicode="&#xc4;" horiz-adv-x="1220" d="M53 8l469 1391q35 6 90 6q59 0 86 -6l469 -1391q-33 -20 -92 -20q-39 0 -59.5 16t-34.5 66l-98 295q-18 0 -79 -1.5t-65 -1.5h-274q-4 0 -64.5 1.5t-78.5 1.5l-119 -367q-27 -6 -70 -6q-35 0 -76 10zM309 1602q0 33 13 73q33 17 86 17q57 0 84 -17q14 -37 14 -73 q0 -39 -14 -76q-23 -16 -84 -17q-59 0 -86 17q-12 39 -13 76zM367 498q18 0 66 1t52 1h236q2 0 50 -1t69 -1l-129 389q-78 240 -105 342h-10q-39 -152 -70 -244zM713 1602q0 39 16 73q27 17 84 17q53 0 86 -17q12 -41 12 -73q0 -37 -12 -76q-27 -16 -86 -17q-61 0 -84 17 q-16 35 -16 76z" />
<glyph unicode="&#xc5;" horiz-adv-x="1220" d="M53 8l467 1383q-61 27 -97 80t-36 120q0 88 63.5 151.5t160 63.5t161 -63.5t64.5 -151.5q0 -68 -37 -122t-99 -78l467 -1383q-33 -20 -92 -20q-39 0 -59.5 16t-34.5 66l-98 295q-18 0 -79 -1.5t-65 -1.5h-274q-4 0 -64.5 1.5t-78.5 1.5l-119 -367q-27 -6 -70 -6 q-35 0 -76 10zM367 498q18 0 66 1t52 1h236q2 0 50 -1t69 -1l-129 389q-78 240 -105 342h-10q-39 -152 -70 -244zM506 1591q0 -51 29.5 -83.5t74.5 -32.5t75 32.5t30 83.5q0 49 -30 82t-75 33t-74.5 -33t-29.5 -82z" />
<glyph unicode="&#xc6;" horiz-adv-x="1783" d="M43 8l709 1374q35 16 94 17h792q4 -25 4 -64q0 -43 -12 -71h-522h-123q0 -27 1 -64t1 -63v-363q23 0 65 1t56 1h424q6 -37 6 -67q0 -33 -6 -68h-424q-78 0 -121 2v-432q0 -14 -1 -40t-1 -38q74 4 125 4h561q0 -43 -4 -65q-12 -72 -100 -72h-643q-41 0 -65.5 27.5 t-24.5 74.5v263q-18 0 -75 -1.5t-59 -1.5h-184q-4 0 -55 1.5t-70 1.5l-186 -367q-33 -6 -82 -6q-35 0 -76 10zM459 498q18 0 56 1t40 1h147q2 0 57.5 -1t74.5 -1v733l-3 -2h-10q-14 -35 -112 -244z" />
<glyph unicode="&#xc7;" horiz-adv-x="1228" d="M117 692q0 360 152.5 545.5t385.5 185.5q213 0 345.5 -116.5t132.5 -268.5q0 -92 -89 -92q-33 0 -69 10q4 129 -75 232.5t-245 103.5q-180 0 -276 -153.5t-96 -446.5q0 -272 99 -425.5t271 -153.5q186 0 375 161q63 -37 86 -102q-162 -166 -409 -192q-18 -37 -27 -62 q80 -6 131 -53t51 -125q0 -82 -64.5 -135.5t-160.5 -53.5t-154 39q2 47 39 91q43 -29 105 -29q51 0 76.5 25.5t25.5 64.5t-25.5 63.5t-74.5 24.5q-25 0 -49 -10q-25 10 -33 33q20 76 43 124q-123 8 -216 71t-147.5 164t-81 222t-26.5 258z" />
<glyph unicode="&#xc8;" horiz-adv-x="1153" d="M203 102v1284l12 13h791q4 -25 4 -64q0 -41 -11 -71h-522h-125q0 -27 1 -64t1 -63v-363q25 0 67 1t56 1h424q6 -37 6 -67q0 -33 -6 -68h-424q-78 0 -123 2v-432q0 -14 -1 -40t-1 -38q70 4 127 4h561q0 -43 -4 -65q-14 -72 -100 -72h-645q-41 0 -64.5 27.5t-23.5 74.5z M354 1669q15 98 78 137l391 -227q-12 -61 -49 -86z" />
<glyph unicode="&#xc9;" horiz-adv-x="1153" d="M203 102v1284l12 13h791q4 -25 4 -64q0 -41 -11 -71h-522h-125q0 -27 1 -64t1 -63v-363q25 0 67 1t56 1h424q6 -37 6 -67q0 -33 -6 -68h-424q-78 0 -123 2v-432q0 -14 -1 -40t-1 -38q70 4 127 4h561q0 -43 -4 -65q-14 -72 -100 -72h-645q-41 0 -64.5 27.5t-23.5 74.5z M432 1579l391 227q59 -37 78 -137l-420 -176q-41 29 -49 86z" />
<glyph unicode="&#xca;" horiz-adv-x="1153" d="M203 102v1284l12 13h791q4 -25 4 -64q0 -41 -11 -71h-522h-125q0 -27 1 -64t1 -63v-363q25 0 67 1t56 1h424q6 -37 6 -67q0 -33 -6 -68h-424q-78 0 -123 2v-432q0 -14 -1 -40t-1 -38q70 4 127 4h561q0 -43 -4 -65q-14 -72 -100 -72h-645q-41 0 -64.5 27.5t-23.5 74.5z M311 1573l228 221q72 12 145 0l227 -211q-18 -56 -75 -72l-224 154l-231 -166q-57 25 -70 74z" />
<glyph unicode="&#xcb;" horiz-adv-x="1153" d="M203 102v1284l12 13h791q4 -25 4 -64q0 -41 -11 -71h-522h-125q0 -27 1 -64t1 -63v-363q25 0 67 1t56 1h424q6 -37 6 -67q0 -33 -6 -68h-424q-78 0 -123 2v-432q0 -14 -1 -40t-1 -38q70 4 127 4h561q0 -43 -4 -65q-14 -72 -100 -72h-645q-41 0 -64.5 27.5t-23.5 74.5z M311 1602q0 33 13 73q33 17 86 17q57 0 84 -17q14 -37 14 -73q0 -39 -14 -76q-23 -16 -84 -17q-59 0 -86 17q-12 39 -13 76zM715 1602q0 39 16 73q27 17 84 17q53 0 86 -17q12 -41 12 -73q0 -37 -12 -76q-27 -16 -86 -17q-61 0 -84 17q-16 35 -16 76z" />
<glyph unicode="&#xcc;" horiz-adv-x="577" d="M31 1669q15 98 78 137l391 -227q-12 -61 -49 -86zM211 0v1399q27 6 76 6q45 0 80 -6v-1399q-35 -6 -80 -6q-49 0 -76 6z" />
<glyph unicode="&#xcd;" horiz-adv-x="577" d="M109 1579l391 227q59 -37 78 -137l-420 -176q-41 29 -49 86zM211 0v1399q27 6 76 6q45 0 80 -6v-1399q-35 -6 -80 -6q-49 0 -76 6z" />
<glyph unicode="&#xce;" horiz-adv-x="577" d="M-12 1573l227 221q72 12 145 0l228 -211q-19 -56 -76 -72l-223 154l-232 -166q-57 25 -69 74zM211 0v1399q27 6 76 6q45 0 80 -6v-1399q-35 -6 -80 -6q-49 0 -76 6z" />
<glyph unicode="&#xcf;" horiz-adv-x="577" d="M-12 1602q0 33 12 73q33 17 86 17q57 0 84 -17q14 -37 14 -73q0 -39 -14 -76q-23 -16 -84 -17q-59 0 -86 17q-12 39 -12 76zM211 0v1399q27 6 76 6q45 0 80 -6v-1399q-35 -6 -80 -6q-49 0 -76 6zM391 1602q0 39 17 73q27 17 84 17q53 0 86 -17q12 -41 12 -73 q0 -37 -12 -76q-27 -16 -86 -17q-61 0 -84 17q-16 35 -17 76z" />
<glyph unicode="&#xd0;" horiz-adv-x="1339" d="M59.5 706.5q-0.5 34.5 6.5 69.5h170v610l12 13q178 6 416 6q88 0 186 -26.5t158 -78.5q123 -104 167 -250.5t44 -349.5q0 -207 -43 -353t-168 -251q-59 -51 -157.5 -77.5t-186.5 -26.5q-59 0 -416 8l-12 12v629h-170q-6 31 -6.5 65.5zM391 125q53 0 138 -1t133 -1 q121 0 203.5 51t120.5 142.5t52.5 180.5t14.5 203q0 90 -7.5 163t-32 153t-66.5 133t-114.5 89t-170.5 36q-47 0 -132.5 1t-138.5 1v-500h348q6 -35 6 -69.5t-6 -65.5h-348v-516z" />
<glyph unicode="&#xd1;" horiz-adv-x="1374" d="M203 0v1399q37 6 92 6q57 0 98 -6l498 -928q31 -55 79 -154.5t64 -134.5h6q-14 262 -14 467v654q0 55 16.5 78.5t65.5 23.5h53l13 -10v-1395q-39 -6 -96.5 -6t-98.5 6l-498 928q-61 115 -139 282h-6q12 -381 12 -442v-768q-43 -6 -74 -6q-35 0 -71 6zM344 1587l16 41 q27 61 77 97t110 36q53 0 110 -28l125 -60q37 -18 70 -18q43 0 86 51l25 33q51 -4 77 -51l-16 -39q-59 -131 -186 -131q-54 -1 -111 28l-125 60q-41 18 -70 18q-43 0 -86 -51l-24 -33q-55 4 -78 47z" />
<glyph unicode="&#xd2;" horiz-adv-x="1337" d="M117 700q0 412 217 605q133 119 334 118q203 0 336 -118q111 -98 164 -260t53 -345q0 -412 -217 -606q-133 -119 -336 -119q-201 0 -334 119q-217 192 -217 606zM283 700.5q0 -110.5 17 -207t57 -188.5t120 -145.5t191 -53.5q113 0 191.5 53.5t118.5 145.5t57.5 188.5 t17.5 207t-17.5 207t-57.5 187.5t-119 144t-191 53q-111 0 -191 -53t-120 -144t-57 -187.5t-17 -207zM410 1669q14 98 77 137l392 -227q-12 -61 -50 -86z" />
<glyph unicode="&#xd3;" horiz-adv-x="1337" d="M117 700q0 412 217 605q133 119 334 118q203 0 336 -118q111 -98 164 -260t53 -345q0 -412 -217 -606q-133 -119 -336 -119q-201 0 -334 119q-217 192 -217 606zM283 700.5q0 -110.5 17 -207t57 -188.5t120 -145.5t191 -53.5q113 0 191.5 53.5t118.5 145.5t57.5 188.5 t17.5 207t-17.5 207t-57.5 187.5t-119 144t-191 53q-111 0 -191 -53t-120 -144t-57 -187.5t-17 -207zM487 1579l392 227q59 -37 77 -137l-419 -176q-42 29 -50 86z" />
<glyph unicode="&#xd4;" horiz-adv-x="1337" d="M117 700q0 412 217 605q133 119 334 118q203 0 336 -118q111 -98 164 -260t53 -345q0 -412 -217 -606q-133 -119 -336 -119q-201 0 -334 119q-217 192 -217 606zM283 700.5q0 -110.5 17 -207t57 -188.5t120 -145.5t191 -53.5q113 0 191.5 53.5t118.5 145.5t57.5 188.5 t17.5 207t-17.5 207t-57.5 187.5t-119 144t-191 53q-111 0 -191 -53t-120 -144t-57 -187.5t-17 -207zM367 1573l227 221q74 12 145 0l228 -211q-19 -56 -76 -72l-223 154l-232 -166q-57 25 -69 74z" />
<glyph unicode="&#xd5;" horiz-adv-x="1337" d="M117 700q0 412 217 605q133 119 334 118q203 0 336 -118q111 -98 164 -260t53 -345q0 -412 -217 -606q-133 -119 -336 -119q-201 0 -334 119q-217 192 -217 606zM283 700.5q0 -110.5 17 -207t57 -188.5t120 -145.5t191 -53.5q113 0 191.5 53.5t118.5 145.5t57.5 188.5 t17.5 207t-17.5 207t-57.5 187.5t-119 144t-191 53q-111 0 -191 -53t-120 -144t-57 -187.5t-17 -207zM334 1599l18 39q55 131 178 131q49 0 107 -28l121 -58q37 -18 67 -18q43 0 82 53l25 29q55 -4 76 -47l-19 -41q-57 -131 -178 -131q-53 -1 -106 28l-121 62q-37 16 -68 16 q-41 0 -82 -51l-24 -33q-59 4 -76 49z" />
<glyph unicode="&#xd6;" horiz-adv-x="1337" d="M117 700q0 412 217 605q133 119 334 118q203 0 336 -118q111 -98 164 -260t53 -345q0 -412 -217 -606q-133 -119 -336 -119q-201 0 -334 119q-217 192 -217 606zM283 700.5q0 -110.5 17 -207t57 -188.5t120 -145.5t191 -53.5q113 0 191.5 53.5t118.5 145.5t57.5 188.5 t17.5 207t-17.5 207t-57.5 187.5t-119 144t-191 53q-111 0 -191 -53t-120 -144t-57 -187.5t-17 -207zM367 1602q0 33 12 73q33 17 86 17q57 0 84 -17q14 -37 14 -73q0 -39 -14 -76q-23 -16 -84 -17q-59 0 -86 17q-12 39 -12 76zM770 1602q0 39 16 73q27 17 84 17 q53 0 86 -17q12 -41 13 -73q0 -37 -13 -76q-27 -16 -86 -17q-61 0 -84 17q-16 35 -16 76z" />
<glyph unicode="&#xd7;" horiz-adv-x="1085" d="M164 319l229 228l49 47q-6 6 -16 16.5t-18.5 18.5t-14.5 14l-229 227q16 39 41 64q25 27 61 41l230 -232q14 -20 47 -49l47 49l229 232q41 -20 60 -39q29 -29 43 -66l-232 -227l-49 -49l49 -47l232 -228q-14 -37 -41 -63q-29 -29 -62 -41l-229 231q-16 14 -47 50l-47 -50 l-230 -231q-31 12 -59 41q-31 31 -43 63z" />
<glyph unicode="&#xd8;" horiz-adv-x="1337" d="M117 700q0 182 53 344t164 261q133 119 334 118q162 0 272 -71l76 133q70 -8 110 -60l-86 -157q180 -197 181 -568q0 -412 -217 -606q-133 -119 -336 -119q-162 0 -273 72l-73 -133q-72 8 -111 61l86 154q-180 200 -180 571zM281 700q0 -272 94 -428l497 957 q-86 63 -204 63q-111 0 -191 -53t-121 -144t-58 -187.5t-17 -207.5zM463 170q86 -63 205 -64q90 0 159.5 37t111.5 95.5t68.5 138.5t37 158.5t10.5 164.5q0 270 -92 424z" />
<glyph unicode="&#xd9;" horiz-adv-x="1363" d="M186 477v916l13 12h61q49 0 65.5 -23.5t16.5 -78.5v-824q0 -180 89 -277.5t251 -97.5t251 96.5t89 278.5v920q31 6 76 6q49 0 82 -6v-922q0 -244 -136.5 -373t-363.5 -129q-223 0 -358.5 129t-135.5 373zM424 1669q15 98 78 137l391 -227q-12 -61 -49 -86z" />
<glyph unicode="&#xda;" horiz-adv-x="1363" d="M186 477v916l13 12h61q49 0 65.5 -23.5t16.5 -78.5v-824q0 -180 89 -277.5t251 -97.5t251 96.5t89 278.5v920q31 6 76 6q49 0 82 -6v-922q0 -244 -136.5 -373t-363.5 -129q-223 0 -358.5 129t-135.5 373zM502 1579l391 227q59 -37 78 -137l-420 -176q-41 29 -49 86z" />
<glyph unicode="&#xdb;" horiz-adv-x="1363" d="M186 477v916l13 12h61q49 0 65.5 -23.5t16.5 -78.5v-824q0 -180 89 -277.5t251 -97.5t251 96.5t89 278.5v920q31 6 76 6q49 0 82 -6v-922q0 -244 -136.5 -373t-363.5 -129q-223 0 -358.5 129t-135.5 373zM381 1573l227 221q72 12 146 0l227 -211q-19 -56 -76 -72 l-223 154l-231 -166q-57 25 -70 74z" />
<glyph unicode="&#xdc;" horiz-adv-x="1363" d="M186 477v916l13 12h61q49 0 65.5 -23.5t16.5 -78.5v-824q0 -180 89 -277.5t251 -97.5t251 96.5t89 278.5v920q31 6 76 6q49 0 82 -6v-922q0 -244 -136.5 -373t-363.5 -129q-223 0 -358.5 129t-135.5 373zM381 1602q0 33 12 73q33 17 86 17q57 0 84 -17q14 -37 15 -73 q0 -39 -15 -76q-23 -16 -84 -17q-59 0 -86 17q-12 39 -12 76zM784 1602q0 39 17 73q27 17 84 17q53 0 86 -17q12 -41 12 -73q0 -37 -12 -76q-27 -16 -86 -17q-61 0 -84 17q-16 35 -17 76z" />
<glyph unicode="&#xdd;" horiz-adv-x="985" d="M31 1380q53 33 102 33q59 0 86 -76l197 -475q31 -68 84 -235h10q10 36 84 235l213 537q31 8 69.5 8t75.5 -10l6 -13l-385 -929v-455q-33 -6 -80 -6t-77 6v461zM319 1579l392 227q59 -37 77 -137l-419 -176q-42 29 -50 86z" />
<glyph unicode="&#xde;" horiz-adv-x="1146" d="M203 0v1399q31 6 76 6q49 0 79 -6v-217q156 4 244 4q203 0 328 -114t125 -324.5t-124 -325.5t-329 -115h-244v-307q-31 -6 -79 -6q-45 0 -76 6zM358 438q47 0 137.5 1t110.5 1q80 0 138.5 28t87 75t42 97t13.5 108q0 127 -63.5 216t-217.5 89q-162 0 -248 2v-617z" />
<glyph unicode="&#xdf;" horiz-adv-x="1251" d="M43 899q0 33 6 64l176 -5v86q0 182 117 284t307.5 102t304 -109t113.5 -289q0 -74 -31 -160h-4l4 -2q-94 -25 -140 -71.5t-46 -93.5q0 -61 92 -140l76 -61q154 -133 153 -260q0 -113 -97 -191t-253 -78q-143 0 -256 60q2 27 19.5 60.5t42.5 51.5q92 -49 190 -49 q84 0 138.5 40t54.5 104q0 74 -95 155l-84 70q-139 117 -139 225q0 80 57.5 144.5t153.5 99.5q12 43 12 84q0 127 -69.5 210t-200.5 83q-133 0 -199.5 -76t-66.5 -209v-1028q-35 -6 -76 -6q-45 0 -78 6v834l-176 -3q-6 31 -6 68z" />
<glyph unicode="&#xe0;" horiz-adv-x="1032" d="M104 272q0 166 102.5 248t280.5 82q131 0 226 -18v102q0 209 -185 209q-143 0 -333 -84q-53 45 -54 119q219 96 402 96q317 0 317 -342v-422q1 -144 58 -199q-20 -55 -70 -77q-100 37 -127 143q-158 -154 -322 -154q-139 0 -217 89.5t-78 207.5zM258 283q0 -78 43 -128.5 t119 -50.5q74 0 152.5 42t140.5 122v205q-98 14 -224 14q-106 0 -168.5 -54t-62.5 -150zM237 1364q37 88 125 115l281 -316q-23 -53 -72 -65z" />
<glyph unicode="&#xe1;" horiz-adv-x="1032" d="M104 272q0 166 102.5 248t280.5 82q131 0 226 -18v102q0 209 -185 209q-143 0 -333 -84q-53 45 -54 119q219 96 402 96q317 0 317 -342v-422q1 -144 58 -199q-20 -55 -70 -77q-100 37 -127 143q-158 -154 -322 -154q-139 0 -217 89.5t-78 207.5zM258 283q0 -78 43 -128.5 t119 -50.5q74 0 152.5 42t140.5 122v205q-98 14 -224 14q-106 0 -168.5 -54t-62.5 -150zM362 1163l281 316q88 -27 125 -115l-334 -266q-49 12 -72 65z" />
<glyph unicode="&#xe2;" horiz-adv-x="1032" d="M104 272q0 166 102.5 248t280.5 82q131 0 226 -18v102q0 209 -185 209q-143 0 -333 -84q-53 45 -54 119q219 96 402 96q317 0 317 -342v-422q1 -144 58 -199q-20 -55 -70 -77q-100 37 -127 143q-158 -154 -322 -154q-139 0 -217 89.5t-78 207.5zM258 283q0 -78 43 -128.5 t119 -50.5q74 0 152.5 42t140.5 122v205q-98 14 -224 14q-106 0 -168.5 -54t-62.5 -150zM213 1174l217 270q51 14 133 2l207 -260q-27 -54 -82 -74l-194 193l-207 -203q-49 20 -74 72z" />
<glyph unicode="&#xe3;" horiz-adv-x="1032" d="M104 272q0 166 102.5 248t280.5 82q131 0 226 -18v102q0 209 -185 209q-143 0 -333 -84q-53 45 -54 119q219 96 402 96q317 0 317 -342v-422q1 -144 58 -199q-20 -55 -70 -77q-100 37 -127 143q-158 -154 -322 -154q-139 0 -217 89.5t-78 207.5zM258 283q0 -78 43 -128.5 t119 -50.5q74 0 152.5 42t140.5 122v205q-98 14 -224 14q-106 0 -168.5 -54t-62.5 -150zM145 1212l19 41q59 133 184 133q53 0 111 -28l125 -60q37 -18 69 -18q43 0 84 53l27 31q57 -4 78 -49l-19 -41q-61 -133 -184 -133q-54 -1 -111 28l-125 62q-41 18 -69 18 q-43 0 -84 -53l-27 -33q-61 4 -78 49z" />
<glyph unicode="&#xe4;" horiz-adv-x="1032" d="M104 272q0 166 102.5 248t280.5 82q131 0 226 -18v102q0 209 -185 209q-143 0 -333 -84q-53 45 -54 119q219 96 402 96q317 0 317 -342v-422q1 -144 58 -199q-20 -55 -70 -77q-100 37 -127 143q-158 -154 -322 -154q-139 0 -217 89.5t-78 207.5zM217 1241q0 33 14 70 q29 18 80 18q49 0 82 -18q14 -37 15 -70q0 -37 -15 -70q-29 -18 -82 -18t-80 18q-14 37 -14 70zM258 283q0 -78 43 -128.5t119 -50.5q74 0 152.5 42t140.5 122v205q-98 14 -224 14q-106 0 -168.5 -54t-62.5 -150zM580 1241q0 33 14 70q33 18 82 18q51 0 80 -18 q14 -37 14 -70q0 -37 -14 -70q-27 -18 -80 -18t-82 18q-14 37 -14 70z" />
<glyph unicode="&#xe5;" horiz-adv-x="1032" d="M104 272q0 166 102.5 248t280.5 82q131 0 226 -18v102q0 209 -185 209q-143 0 -333 -84q-53 45 -54 119q219 96 402 96q317 0 317 -342v-422q1 -144 58 -199q-20 -55 -70 -77q-100 37 -127 143q-158 -154 -322 -154q-139 0 -217 89.5t-78 207.5zM258 283q0 -78 43 -128.5 t119 -50.5q74 0 152.5 42t140.5 122v205q-98 14 -224 14q-106 0 -168.5 -54t-62.5 -150zM268 1315q0 88 64.5 151.5t161 63.5t161 -63.5t64.5 -151.5q0 -90 -64.5 -153.5t-161 -63.5t-161 63.5t-64.5 153.5zM389 1315q0 -51 30 -84t75 -33t74.5 33t29.5 84q0 49 -29.5 82 t-74.5 33t-75 -33t-30 -82z" />
<glyph unicode="&#xe6;" horiz-adv-x="1630" d="M104 274q0 164 102.5 246t280.5 82q106 0 226 -20v106q0 207 -185 207q-143 0 -333 -84q-53 45 -54 119q219 96 400 96q203 0 276 -149q113 154 299 153q190 0 292.5 -124t102.5 -314q0 -69 -8 -135h-635q10 -348 262 -348q139 0 297 88q47 -41 56 -107 q-164 -115 -371 -115q-236 0 -334 189q-68 -80 -166 -134.5t-213 -54.5q-141 0 -218 88.5t-77 210.5zM258 285q0 -78 43 -129.5t119 -51.5q82 0 168 45.5t147 135.5q-18 80 -24 184q-104 18 -222 18q-106 0 -168.5 -53t-62.5 -149zM868 573h488v23q0 139 -58.5 228 t-181.5 89q-113 0 -176 -91t-72 -249z" />
<glyph unicode="&#xe7;" horiz-adv-x="960" d="M106 494q0 262 120 399t292 137q176 0 265 -95t89 -198q0 -94 -79 -94q-29 0 -66 6q6 104 -44 181t-169 77q-115 0 -182.5 -106.5t-67.5 -306.5q0 -193 68.5 -290.5t193.5 -97.5q109 0 262 113q57 -35 72 -96q-129 -123 -293 -143q-14 -29 -26 -62q80 -6 130 -53t50 -125 q0 -82 -63.5 -135.5t-160 -53.5t-153.5 39q2 47 39 91q43 -29 104 -29q100 0 101 90q0 88 -99 88q-25 0 -49 -10q-24 10 -32 33q18 66 43 127q-176 20 -260.5 165.5t-84.5 348.5z" />
<glyph unicode="&#xe8;" horiz-adv-x="1030" d="M106 503.5q0 233.5 109 380t301 146.5q188 0 291.5 -124t103.5 -314q0 -74 -10 -135h-635q10 -348 264 -348q139 0 297 86q47 -41 56 -105q-166 -115 -373 -115q-213 0 -308.5 147.5t-95.5 381zM266 573h492v27q0 139 -59.5 226t-182.5 87q-113 0 -177.5 -92t-72.5 -248z M266 1364q37 88 125 115l281 -316q-23 -53 -72 -65z" />
<glyph unicode="&#xe9;" horiz-adv-x="1030" d="M106 503.5q0 233.5 109 380t301 146.5q188 0 291.5 -124t103.5 -314q0 -74 -10 -135h-635q10 -348 264 -348q139 0 297 86q47 -41 56 -105q-166 -115 -373 -115q-213 0 -308.5 147.5t-95.5 381zM266 573h492v27q0 139 -59.5 226t-182.5 87q-113 0 -177.5 -92t-72.5 -248z M389 1163l281 316q88 -27 125 -115l-334 -266q-49 12 -72 65z" />
<glyph unicode="&#xea;" horiz-adv-x="1030" d="M106 503.5q0 233.5 109 380t301 146.5q188 0 291.5 -124t103.5 -314q0 -74 -10 -135h-635q10 -348 264 -348q139 0 297 86q47 -41 56 -105q-166 -115 -373 -115q-213 0 -308.5 147.5t-95.5 381zM266 573h492v27q0 139 -59.5 226t-182.5 87q-113 0 -177.5 -92t-72.5 -248z M242 1174l217 270q51 14 133 2l207 -260q-27 -54 -82 -74l-194 193l-207 -203q-49 20 -74 72z" />
<glyph unicode="&#xeb;" horiz-adv-x="1030" d="M106 503.5q0 233.5 109 380t301 146.5q188 0 291.5 -124t103.5 -314q0 -74 -10 -135h-635q10 -348 264 -348q139 0 297 86q47 -41 56 -105q-166 -115 -373 -115q-213 0 -308.5 147.5t-95.5 381zM246 1241q0 33 14 70q29 18 80 18q49 0 82 -18q14 -37 14 -70 q0 -37 -14 -70q-29 -18 -82 -18t-80 18q-14 37 -14 70zM266 573h492v27q0 139 -59.5 226t-182.5 87q-113 0 -177.5 -92t-72.5 -248zM608 1241q0 33 15 70q33 18 82 18q51 0 79 -18q14 -37 15 -70q0 -37 -15 -70q-27 -18 -80 -18t-81 18q-15 37 -15 70z" />
<glyph unicode="&#xec;" horiz-adv-x="524" d="M-20 1364q36 88 124 115l281 -316q-23 -53 -72 -65zM86 946q0 29 8 55q76 10 103 11h16q63 0 99 -40t36 -108v-864q-31 -6 -74 -6q-47 0 -77 6v791q0 57 -18.5 77.5t-65.5 20.5h-19q-8 27 -8 57z" />
<glyph unicode="&#xed;" horiz-adv-x="524" d="M86 946q0 29 8 55q76 10 103 11h16q63 0 99 -40t36 -108v-864q-31 -6 -74 -6q-47 0 -77 6v791q0 57 -18.5 77.5t-65.5 20.5h-19q-8 27 -8 57zM102 1163l281 316q88 -27 125 -115l-334 -266q-49 12 -72 65z" />
<glyph unicode="&#xee;" horiz-adv-x="524" d="M-45 1174l217 270q51 14 133 2l207 -260q-27 -54 -82 -74l-194 193l-207 -203q-49 20 -74 72zM86 946q0 29 8 55q76 10 103 11h16q63 0 99 -40t36 -108v-864q-31 -6 -74 -6q-47 0 -77 6v791q0 57 -18.5 77.5t-65.5 20.5h-19q-8 27 -8 57z" />
<glyph unicode="&#xef;" horiz-adv-x="524" d="M86 946q0 29 8 55q76 10 103 11h16q63 0 99 -40t36 -108v-864q-31 -6 -74 -6q-47 0 -77 6v791q0 57 -18.5 77.5t-65.5 20.5h-19q-8 27 -8 57zM-41 1241q0 33 14 70q29 18 80 18q49 0 82 -18q14 -37 15 -70q0 -37 -15 -70q-29 -18 -82 -18t-80 18q-14 37 -14 70zM322 1241 q0 33 14 70q33 18 82 18q51 0 80 -18q14 -37 14 -70q0 -37 -14 -70q-27 -18 -80 -18t-82 18q-14 37 -14 70z" />
<glyph unicode="&#xf0;" horiz-adv-x="1056" d="M102 492q0 254 144 397q109 109 278 108q96 0 191 -47q-51 145 -178 277l-213 -148q-20 12 -41 40.5t-23 51.5l193 134q-82 70 -187 118q16 76 64 101q133 -61 235 -142l180 125q20 -14 41 -41.5t23 -50.5l-160 -110q303 -309 303 -809q0 -266 -143 -412 q-109 -109 -283 -109q-172 0 -280 109q-143 145 -144 408zM260 492q0 -170 63.5 -284t204.5 -114q96 0 159 61.5t86.5 146.5t23.5 194q0 164 -37 303q-102 78 -232 78q-141 0 -204.5 -109t-63.5 -276z" />
<glyph unicode="&#xf1;" horiz-adv-x="1116" d="M180 0v999l13 13h57q49 0 65.5 -25.5t16.5 -81.5v-28q70 66 164 105.5t188 39.5q137 0 200.5 -88.5t63.5 -231.5v-507q0 -119 23 -175q-33 -33 -97 -32q-78 0 -77 100v567q0 125 -32 177.5t-118 52.5q-80 0 -168 -44t-147 -114v-727q-31 -6 -74 -6q-47 0 -78 6zM219 1212 l19 41q59 133 184 133q53 0 110 -28l125 -60q37 -18 70 -18q43 0 84 53l27 31q57 -4 77 -49l-18 -41q-61 -133 -184 -133q-54 -1 -111 28l-125 62q-41 18 -69 18q-43 0 -84 -53l-27 -33q-61 4 -78 49z" />
<glyph unicode="&#xf2;" horiz-adv-x="1062" d="M106 503q0 271 144 417q105 110 277 110h3q175 0 283 -110q143 -146 143 -418.5t-143 -417.5q-109 -109 -283 -109q-172 0 -280 109q-144 145 -144 419zM264 502q0 -174 63.5 -291t204.5 -117q96 0 159 61.5t86.5 148.5t23.5 198q0 172 -64.5 290.5t-204.5 118.5 q-141 0 -204.5 -117.5t-63.5 -291.5zM274 1364q37 88 125 115l281 -316q-23 -53 -72 -65z" />
<glyph unicode="&#xf3;" horiz-adv-x="1062" d="M106.5 501.5q-0.5 272.5 143.5 418.5q106 111 280 110q175 0 283 -110q143 -146 143 -418.5t-143 -417.5q-109 -109 -283 -109q-172 0 -280 109q-143 145 -143.5 417.5zM264 502q0 -174 63.5 -291t204.5 -117q96 0 159 61.5t86.5 148.5t23.5 198q0 172 -64.5 290.5 t-204.5 118.5q-141 0 -204.5 -117.5t-63.5 -291.5zM397 1163l281 316q88 -27 125 -115l-334 -266q-49 12 -72 65z" />
<glyph unicode="&#xf4;" horiz-adv-x="1062" d="M106 503q0 271 144 417q105 110 277 110h3q175 0 283 -110q143 -146 143 -418.5t-143 -417.5q-109 -109 -283 -109q-172 0 -280 109q-144 145 -144 419zM264 502q0 -174 63.5 -291t204.5 -117q96 0 159 61.5t86.5 148.5t23.5 198q0 172 -64.5 290.5t-204.5 118.5 q-141 0 -204.5 -117.5t-63.5 -291.5zM250 1174l217 270q51 14 133 2l207 -260q-27 -54 -82 -74l-194 193l-207 -203q-49 20 -74 72z" />
<glyph unicode="&#xf5;" horiz-adv-x="1062" d="M106.5 501.5q-0.5 272.5 143.5 418.5q106 111 280 110q175 0 283 -110q143 -146 143 -418.5t-143 -417.5q-109 -109 -283 -109q-172 0 -280 109q-143 145 -143.5 417.5zM182 1212l19 41q59 133 184 133q53 0 111 -28l125 -60q37 -18 69 -18q43 0 84 53l27 31 q57 -4 78 -49l-19 -41q-61 -133 -184 -133q-54 -1 -111 28l-125 62q-41 18 -69 18q-43 0 -84 -53l-27 -33q-61 4 -78 49zM264 502q0 -174 63.5 -291t204.5 -117q96 0 159 61.5t86.5 148.5t23.5 198q0 172 -64.5 290.5t-204.5 118.5q-141 0 -204.5 -117.5t-63.5 -291.5z" />
<glyph unicode="&#xf6;" horiz-adv-x="1062" d="M106 503q0 271 144 417q105 110 277 110h3q175 0 283 -110q143 -146 143 -418.5t-143 -417.5q-109 -109 -283 -109q-172 0 -280 109q-144 145 -144 419zM264 502q0 -174 63.5 -291t204.5 -117q96 0 159 61.5t86.5 148.5t23.5 198q0 172 -64.5 290.5t-204.5 118.5 q-141 0 -204.5 -117.5t-63.5 -291.5zM254 1241q0 33 14 70q29 18 80 18q49 0 82 -18q14 -37 15 -70q0 -37 -15 -70q-29 -18 -82 -18t-80 18q-14 37 -14 70zM617 1241q0 33 14 70q33 18 82 18q51 0 80 -18q14 -37 14 -70q0 -37 -14 -70q-27 -18 -80 -18t-82 18q-14 37 -14 70 z" />
<glyph unicode="&#xf7;" horiz-adv-x="1085" d="M113 594q0 43 8 74h844q8 -31 8 -74t-8 -68h-844q-8 25 -8 68zM436 227q0 43 17 76q29 23 90 23q63 0 90 -23q14 -29 14 -76q0 -45 -14 -73q-23 -23 -90 -23q-61 0 -90 23q-17 32 -17 73zM436 958q0 41 17 74q29 23 90 23q63 0 90 -23q14 -29 14 -74q0 -47 -14 -75 q-27 -23 -90 -23q-61 0 -90 23q-17 32 -17 75z" />
<glyph unicode="&#xf8;" horiz-adv-x="1062" d="M106 502q0 274 144 418q106 111 280 110q109 0 191 -43l76 129q25 -2 55.5 -19.5t44.5 -37.5l-82 -144q141 -141 141 -413q0 -276 -143 -418q-109 -109 -283 -109q-113 0 -194 43l-74 -127q-27 2 -57.5 18.5t-44.5 37.5l82 145q-135 141 -136 410zM256 502 q0 -170 57 -279l346 658q-59 35 -127 34q-143 0 -209.5 -120.5t-66.5 -292.5zM397 129q59 -37 135 -37q143 0 209 119t66 291q0 180 -62 286z" />
<glyph unicode="&#xf9;" horiz-adv-x="1118" d="M145 985q37 33 97 33q78 0 77 -100v-568q0 -127 33 -179t119 -52q78 0 166 44t147 113v728q27 8 74 8q51 0 78 -8v-721q0 -164 57 -220q-18 -55 -69 -77q-100 35 -129 151q-70 -70 -167.5 -112.5t-195.5 -42.5q-137 0 -199.5 88t-62.5 231v510q0 111 -25 174zM295 1364 q37 88 125 115l281 -316q-23 -53 -72 -65z" />
<glyph unicode="&#xfa;" horiz-adv-x="1118" d="M145 985q37 33 97 33q78 0 77 -100v-568q0 -127 33 -179t119 -52q78 0 166 44t147 113v728q27 8 74 8q51 0 78 -8v-721q0 -164 57 -220q-18 -55 -69 -77q-100 35 -129 151q-70 -70 -167.5 -112.5t-195.5 -42.5q-137 0 -199.5 88t-62.5 231v510q0 111 -25 174zM418 1163 l280 316q88 -27 125 -115l-334 -266q-48 12 -71 65z" />
<glyph unicode="&#xfb;" horiz-adv-x="1118" d="M145 985q37 33 97 33q78 0 77 -100v-568q0 -127 33 -179t119 -52q78 0 166 44t147 113v728q27 8 74 8q51 0 78 -8v-721q0 -164 57 -220q-18 -55 -69 -77q-100 35 -129 151q-70 -70 -167.5 -112.5t-195.5 -42.5q-137 0 -199.5 88t-62.5 231v510q0 111 -25 174zM270 1174 l217 270q51 14 133 2l207 -260q-27 -54 -82 -74l-194 193l-207 -203q-49 20 -74 72z" />
<glyph unicode="&#xfc;" horiz-adv-x="1118" d="M145 985q37 33 97 33q78 0 77 -100v-568q0 -127 33 -179t119 -52q78 0 166 44t147 113v728q27 8 74 8q51 0 78 -8v-721q0 -164 57 -220q-18 -55 -69 -77q-100 35 -129 151q-70 -70 -167.5 -112.5t-195.5 -42.5q-137 0 -199.5 88t-62.5 231v510q0 111 -25 174zM274 1241 q0 33 15 70q29 18 80 18q49 0 82 -18q14 -37 14 -70q0 -37 -14 -70q-29 -18 -82.5 -18t-79.5 18q-15 37 -15 70zM637 1241q0 33 14 70q33 18 82 18q51 0 80 -18q14 -37 14 -70q0 -37 -14 -70q-27 -18 -80 -18t-82 18q-14 37 -14 70z" />
<glyph unicode="&#xfd;" horiz-adv-x="925" d="M16 -420q-1 8 -1 15q0 49 34 96q63 -23 135 -23q109 0 166.5 74t104.5 229l6 21q-53 4 -81 24.5t-46 75.5l-287 901q63 27 90 27q59 0 80 -72l162 -514q8 -25 94 -319q4 -14 21 -15l249 906q27 8 70 8q45 0 76 -13l4 -6l-281 -960q-78 -264 -166 -372.5t-264 -108.5 q-90 0 -166 26zM327 1163l281 316q88 -27 125 -115l-334 -266q-49 12 -72 65z" />
<glyph unicode="&#xfe;" horiz-adv-x="1075" d="M180 -428v1921l13 12h53q49 0 65.5 -23.5t16.5 -78.5v-518q123 137 299 137q164 0 254 -139.5t90 -368.5q0 -262 -116 -396t-267 -134q-133 0 -260 84v-406q0 -55 -16.5 -78.5t-65.5 -23.5h-53zM328 207q133 -92 245 -92q102 0 173 99t71 298q0 190 -63.5 283.5 t-157.5 93.5q-72 0 -145.5 -44t-122.5 -120v-518z" />
<glyph unicode="&#xff;" horiz-adv-x="925" d="M16 -420q-6 57 33 111q63 -23 135 -23q109 0 166.5 74t104.5 229l6 21q-53 4 -81 24.5t-46 75.5l-287 901q63 27 90 27q59 0 80 -72l162 -514q8 -25 94 -319q4 -14 21 -15l249 906q27 8 70 8q45 0 76 -13l4 -6l-281 -960q-78 -264 -166 -372.5t-264 -108.5q-90 0 -166 26 zM184 1241q0 33 15 70q29 18 80 18q49 0 81 -18q14 -37 15 -70q0 -37 -15 -70q-29 -18 -82 -18t-79 18q-15 37 -15 70zM547 1241q0 33 14 70q33 18 82 18q51 0 80 -18q14 -37 14 -70q0 -37 -14 -70q-27 -18 -80 -18t-82 18q-14 37 -14 70z" />
<glyph unicode="&#x104;" horiz-adv-x="1220" d="M53 8l469 1391q35 6 90 6q59 0 86 -6l467 -1389l2 -2q-2 -2 -4 -2q-178 -119 -178 -235q0 -49 28.5 -77t78.5 -28q63 0 129 37q39 -29 39 -82q-80 -66 -203 -65q-92 0 -149.5 49t-57.5 135q0 147 158 272q-14 16 -27 58l-98 295q-18 0 -79 -1.5t-65 -1.5h-274 q-4 0 -64.5 1.5t-78.5 1.5l-119 -367q-27 -6 -70 -6q-35 0 -76 10zM367 498q18 0 66 1t52 1h236q2 0 50 -1t69 -1l-129 389q-78 240 -105 342h-10q-39 -152 -70 -244z" />
<glyph unicode="&#x105;" horiz-adv-x="1093" d="M104 272q0 166 102.5 248t280.5 82q131 0 226 -18v102q0 209 -185 209q-143 0 -333 -84q-53 45 -54 119q219 96 402 96q317 0 317 -342v-422q0 -131 68 -192q-16 -39 -78 -88q-145 -117 -145 -211q0 -49 28.5 -77t77.5 -28q59 0 129 37q39 -31 39 -82q-80 -66 -203 -65 q-92 0 -149.5 49t-57.5 135q0 164 201 303q-31 35 -47 88q-156 -156 -324 -156q-139 0 -217 89.5t-78 207.5zM258 283q0 -78 43 -128.5t119 -50.5q74 0 152.5 42t140.5 122v205q-98 14 -224 14q-106 0 -168.5 -54t-62.5 -150z" />
<glyph unicode="&#x106;" horiz-adv-x="1228" d="M117 692q0 360 152.5 545.5t385.5 185.5q213 0 345.5 -116.5t132.5 -268.5q0 -92 -89 -92q-32 0 -69 10q4 129 -75 232.5t-245 103.5q-180 0 -276 -153.5t-96 -446.5q0 -272 99 -425.5t271 -153.5q186 0 375 161q63 -37 86 -102q-86 -88 -213 -142.5t-270 -54.5 q-133 0 -235.5 59.5t-162 162t-88 227.5t-28.5 268zM471 1581l391 227q59 -37 78 -137l-420 -176q-41 29 -49 86z" />
<glyph unicode="&#x107;" horiz-adv-x="960" d="M106 494q0 262 120 399t292 137q176 0 265 -95t89 -198q0 -94 -79 -94q-29 0 -66 6q1 11 1 22q0 90 -45 159q-50 77 -169 77q-115 0 -182.5 -106.5t-67.5 -306.5q0 -193 68.5 -290.5t193.5 -97.5q109 0 262 113q57 -35 72 -96q-158 -147 -354 -148q-139 0 -232.5 78 t-130.5 190.5t-37 250.5zM380 1163l281 316q88 -27 125 -115l-334 -266q-49 12 -72 65z" />
<glyph unicode="&#x10c;" horiz-adv-x="1228" d="M117 692q0 360 152.5 545.5t385.5 185.5q213 0 345.5 -116.5t132.5 -268.5q0 -92 -89 -92q-32 0 -69 10q4 129 -75 232.5t-245 103.5q-180 0 -276 -153.5t-96 -446.5q0 -272 99 -425.5t271 -153.5q186 0 375 161q63 -37 86 -102q-86 -88 -213 -142.5t-270 -54.5 q-133 0 -235.5 59.5t-162 162t-88 227.5t-28.5 268zM352 1729q19 53 74 69l225 -153l230 165q23 -8 44 -29.5t27 -43.5l-229 -221q-86 -8 -143 0z" />
<glyph unicode="&#x10d;" horiz-adv-x="960" d="M106 494q0 262 120 399t292 137q176 0 265 -95t89 -198q0 -94 -79 -94q-29 0 -66 6q6 104 -44 181t-169 77q-115 0 -182.5 -106.5t-67.5 -306.5q0 -193 68.5 -290.5t193.5 -97.5q109 0 262 113q57 -35 72 -96q-158 -147 -354 -148q-139 0 -232.5 78t-130.5 190.5 t-37 250.5zM242 1389q33 59 82 71l194 -190l207 200q49 -16 74 -69l-219 -271q-51 -18 -131 -2z" />
<glyph unicode="&#x10e;" horiz-adv-x="1306" d="M203 12v1374l12 13q178 6 416 6q88 0 186 -26.5t158 -78.5q123 -104 167 -250.5t44 -351.5q0 -207 -43 -352t-168 -250q-59 -51 -157.5 -77.5t-186.5 -26.5q-59 0 -416 8zM319 1726q19 54 74 70l225 -154l230 166q23 -8 44 -29.5t28 -43.5l-230 -222q-86 -8 -143 0z M358 125q55 0 139.5 -1t131.5 -1q98 0 170.5 36t114.5 90t67 135t32 153.5t7 160.5q0 90 -7 163t-32 153t-67 134t-114.5 90t-170.5 36q-47 0 -131 1t-140 1v-1151z" />
<glyph unicode="&#x10f;" horiz-adv-x="1144" d="M104 489q0 260 116 396.5t267 136.5q123 0 256 -84v555l13 12h55q47 0 63.5 -23.5t16.5 -78.5v-1120q0 -162 57 -220q-23 -57 -67 -77q-94 33 -125 137q-125 -147 -307 -148q-166 0 -255.5 139t-89.5 375zM258 489q0 -193 62.5 -288t156.5 -95q70 0 142.5 42t123.5 116 v535q-137 92 -241 92q-102 0 -173 -100.5t-71 -301.5zM1020 1159l27 416q96 12 157 -25l-90 -397q-47 -19 -94 6z" />
<glyph unicode="&#x118;" horiz-adv-x="1163" d="M203 102v1284l12 13h791q4 -25 4 -64q0 -41 -11 -71h-522h-125q0 -27 1 -64t1 -63v-363q25 0 67 1t56 1h424q6 -37 6 -67q0 -33 -6 -68h-424q-78 0 -123 2v-432q0 -14 -1 -40t-1 -38q70 4 127 4h561q0 -43 -4 -65q-10 -49 -53 -66l-2 -1l-2 -1q-90 -39 -147.5 -104.5 t-57.5 -128.5q0 -49 30 -77t79 -28q59 0 129 37q39 -31 39 -82q-80 -66 -203 -65q-92 0 -149.5 49t-57.5 137q0 72 43 140.5t115 117.5h-508q-41 0 -64.5 27.5t-23.5 74.5z" />
<glyph unicode="&#x119;" horiz-adv-x="1030" d="M106 503.5q0 233.5 109 380t301 146.5q188 0 291.5 -124t103.5 -314q0 -74 -10 -135h-635q10 -348 264 -348q139 0 297 86q47 -41 56 -105q-63 -45 -154 -78q-150 -119 -149 -241q0 -49 29.5 -77t78.5 -28q63 0 129 37q39 -31 39 -82q-80 -66 -203 -65q-92 0 -149.5 49 t-57.5 137q0 121 121 235q-20 -2 -57 -2q-213 0 -308.5 147.5t-95.5 381zM266 573h492v27q0 139 -59.5 226t-182.5 87q-113 0 -177.5 -92t-72.5 -248z" />
<glyph unicode="&#x11a;" horiz-adv-x="1153" d="M203 102v1284l12 13h791q4 -25 4 -64q0 -41 -11 -71h-522h-125q0 -27 1 -64t1 -63v-363q25 0 67 1t56 1h424q6 -37 6 -67q0 -33 -6 -68h-424q-78 0 -123 2v-432q0 -14 -1 -40t-1 -38q70 4 127 4h561q0 -43 -4 -65q-14 -72 -100 -72h-645q-41 0 -64.5 27.5t-23.5 74.5z M313 1726q19 54 74 70l225 -154l230 166q23 -8 44 -29.5t27 -43.5l-229 -222q-86 -8 -143 0z" />
<glyph unicode="&#x11b;" horiz-adv-x="1030" d="M106 503.5q0 233.5 109 380t301 146.5q188 0 291.5 -124t103.5 -314q0 -74 -10 -135h-635q10 -348 264 -348q139 0 297 86q47 -41 56 -105q-166 -115 -373 -115q-213 0 -308.5 147.5t-95.5 381zM266 573h492v27q0 139 -59.5 226t-182.5 87q-113 0 -177.5 -92t-72.5 -248z M250 1389q33 59 82 71l195 -190l206 200q49 -16 74 -69l-219 -271q-51 -18 -131 -2z" />
<glyph unicode="&#x126;" horiz-adv-x="1388" d="M53 1083q0 37 6 68h154v248q31 6 76 6q49 0 80 -6v-248h649v248q31 6 78 6t80 -6v-248h153q6 -31 6 -68q0 -35 -6 -65h-153v-1018q-33 -6 -80 -6t-78 6v504q0 29 1 77t1 74q-8 0 -61.5 -1t-61.5 -1h-405q-6 0 -61.5 1t-63.5 1q0 -27 1 -75t1 -76v-504q-31 -6 -80 -6 q-45 0 -76 6v1018h-154q-6 31 -6 65zM367 791q8 0 63 1t62 1h405q8 0 61.5 -1t61.5 -1q0 27 -1 74.5t-1 76.5v76h-649v-76q0 -29 -1 -77t-1 -74z" />
<glyph unicode="&#x127;" horiz-adv-x="1120" d="M41 1233.5q0 26.5 6 56.5l139 -2v205l13 12h55q49 0 65.5 -23.5t16.5 -78.5v-117l344 4q6 -31 6 -57.5t-6 -56.5l-344 4v-306q70 66 164 107t188 41q137 0 199.5 -89t62.5 -233v-505q0 -115 25 -175q-37 -33 -96 -32q-78 0 -78 100v565q0 125 -33 177.5t-119 52.5 q-78 0 -166 -44t-147 -114v-725q-31 -6 -74 -6q-45 0 -76 6v1178l-139 -2q-6 31 -6 57.5z" />
<glyph unicode="&#x128;" horiz-adv-x="577" d="M-59 1587l16 41q27 61 77 97t109 36q53 0 111 -28l125 -60q37 -18 70 -18q43 0 86 51l24 33q51 -4 78 -51l-16 -39q-59 -131 -187 -131q-53 -1 -110 28l-125 60q-41 18 -70 18q-43 0 -86 -51l-25 -33q-55 4 -77 47zM211 0v1399q27 6 76 6q45 0 80 -6v-1399q-35 -6 -80 -6 q-49 0 -76 6z" />
<glyph unicode="&#x129;" horiz-adv-x="524" d="M86 946q0 29 8 55q76 10 103 11h16q63 0 99 -40t36 -108v-864q-31 -6 -74 -6q-47 0 -77 6v791q0 57 -18.5 77.5t-65.5 20.5h-19q-8 27 -8 57zM-113 1212l19 41q59 133 184 133q53 0 111 -28l125 -60q37 -18 69 -18q43 0 84 53l27 31q57 -4 78 -49l-19 -41 q-61 -133 -184 -133q-54 -1 -111 28l-125 62q-41 18 -69 18q-43 0 -84 -53l-27 -33q-61 4 -78 49z" />
<glyph unicode="&#x131;" horiz-adv-x="524" d="M86 946q0 29 8 55q76 10 103 11h16q63 0 99 -40t36 -108v-864q-31 -6 -74 -6q-47 0 -77 6v791q0 57 -18.5 77.5t-65.5 20.5h-19q-8 27 -8 57z" />
<glyph unicode="&#x132;" horiz-adv-x="1470" d="M211 0v1399q27 6 76 6q45 0 80 -6v-1399q-35 -6 -80 -6q-49 0 -76 6zM598 63q15 70 64 121q113 -70 239 -69q133 0 185.5 78.5t52.5 269.5v936q33 6 82 6q45 0 75 -6v-905q0 -94 -7 -164t-31.5 -139.5t-65.5 -113.5t-112.5 -70.5t-170.5 -26.5q-174 0 -311 83z" />
<glyph unicode="&#x133;" horiz-adv-x="1062" d="M86 946q0 29 8 55q76 10 103 11h16q63 0 99 -40t36 -108v-864q-31 -6 -74 -6q-47 0 -77 6v791q0 57 -18.5 77.5t-65.5 20.5h-19q-8 27 -8 57zM133 1280q0 47 14 76q35 20 93 20q61 0 92 -20q14 -29 14 -76t-14 -76q-31 -23 -92 -22q-55 0 -93 22q-14 29 -14 76zM596 -352 q82 43 110.5 96t28.5 158v889q0 57 -18.5 77.5t-65.5 20.5h-37q-8 41 -8 57q0 14 8 55q76 10 125 11h17q61 0 96 -40t35 -108v-837v-23q0 -92 -2 -134t-13.5 -103.5t-37 -94t-72.5 -65.5t-119 -56q-35 35 -47 97zM672 1280q0 47 14 76q35 20 92 20q61 0 92 -20 q14 -29 14.5 -76t-14.5 -76q-31 -23 -92 -22q-55 0 -92 22q-14 29 -14 76z" />
<glyph unicode="&#x134;" horiz-adv-x="892" d="M20 63q15 70 64 121q113 -70 240 -69q133 0 185 78.5t52 269.5v936q33 6 82 6q45 0 76 -6v-905q0 -94 -7 -164t-32 -139.5t-66 -113.5t-112.5 -70.5t-169.5 -26.5q-174 0 -312 83zM342 1573l227 221q74 12 146 0l227 -211q-19 -56 -76 -72l-223 154l-231 -166 q-57 25 -70 74z" />
<glyph unicode="&#x135;" horiz-adv-x="538" d="M-31 1174l217 270q51 14 133 2l207 -260q-27 -54 -82 -74l-194 193l-207 -203q-49 20 -74 72zM70 -352q82 43 110.5 96t28.5 158v889q0 57 -18.5 77.5t-65.5 20.5h-37q-8 41 -8 57q0 14 8 55q76 10 125 11h16q61 0 96 -40t35 -108v-837v-23q0 -92 -2 -134t-13 -103.5 t-36.5 -94t-73 -65.5t-118.5 -56q-35 35 -47 97z" />
<glyph unicode="&#x136;" horiz-adv-x="1193" d="M203 0v1399q31 6 76 6q49 0 79 -6v-613l150 5q39 0 70 49l301 487q27 43 47 59.5t63 16.5q23 0 84 -4l12 -17l-344 -557q-31 -49 -63 -75q98 -14 153.5 -75t108.5 -188l125 -319q35 -86 84 -125q-35 -53 -109 -53q-47 0 -69.5 23.5t-42.5 78.5l-131 334 q-49 125 -109.5 175t-163.5 50q-80 0 -166 -4v-647q-31 -6 -79 -6q-45 0 -76 6zM459 -438q115 82 114 192q0 57 -26 107q76 47 170 20q16 -37 16 -94q0 -92 -59.5 -170t-161.5 -125q-43 16 -53 70z" />
<glyph unicode="&#x137;" horiz-adv-x="1003" d="M180 0v1493l13 12h55q49 0 65.5 -23.5t16.5 -78.5v-823l88 4q29 0 47 28l219 324q27 41 49.5 58.5t65.5 17.5q18 0 75 -4l13 -17l-260 -379q-27 -39 -49 -57q70 -14 116.5 -58t85.5 -130l80 -181q53 -121 98 -153q-33 -45 -100 -45q-47 0 -70.5 24.5t-48.5 81.5l-94 213 q-39 90 -80 121t-125 31q-51 0 -110 -8v-451q-31 -6 -74 -6q-45 0 -76 6zM379 -438q115 82 115 192q0 57 -27 107q76 47 170 20q16 -37 16 -94q0 -92 -59 -170t-162 -125q-43 16 -53 70z" />
<glyph unicode="&#x138;" horiz-adv-x="1003" d="M180 0v999l13 13h55q49 0 65.5 -24.5t16.5 -80.5v-327l88 4q29 0 47 28l219 324q27 41 49.5 58.5t65.5 17.5q18 0 75 -4l13 -17l-260 -379q-27 -39 -49 -57q70 -14 116.5 -58t85.5 -130l80 -181q53 -121 98 -153q-33 -45 -100 -45q-47 0 -70.5 24.5t-48.5 81.5l-94 213 q-39 90 -80 121t-125 31q-51 0 -110 -8v-451q-31 -6 -74 -6q-45 0 -76 6z" />
<glyph unicode="&#x13f;" horiz-adv-x="1036" d="M203 104v1289l12 12h61q49 0 65.5 -23.5t16.5 -78.5v-1170q93 6 179 6h436q0 -45 -6 -67q-12 -72 -101 -72h-573q-39 0 -64.5 27.5t-25.5 76.5zM690 714.5q0 59.5 12 84.5q47 20 91 20q49 0 90 -20q14 -29 14 -84.5t-14 -83.5q-29 -20 -90 -21q-53 0 -91 21 q-12 24 -12 83.5z" />
<glyph unicode="&#x140;" horiz-adv-x="657" d="M176 162v1331l12 12h56q49 0 65.5 -23.5t16.5 -78.5v-1198q-1 -88 75 -88h86q14 -29 15 -82q0 -23 -2 -31q-82 -12 -150 -12q-80 0 -127 44t-47 126zM473 714.5q0 59.5 12 84.5q47 20 90 20q49 0 91 -20q14 -29 14 -84.5t-14 -83.5q-29 -20 -91 -21q-53 0 -90 21 q-12 24 -12 83.5z" />
<glyph unicode="&#x141;" horiz-adv-x="1044" d="M57 692l154 51v650l12 12h64q49 0 65.5 -23.5t16.5 -78.5v-515l385 127l10 -6q16 -61 2 -127l-397 -129v-520q92 6 176 6h436q0 -45 -4 -67q-12 -72 -100 -72h-574q-41 0 -66.5 26.5t-25.5 77.5v504l-139 -47l-11 6q-18 59 -4 125z" />
<glyph unicode="&#x142;" horiz-adv-x="638" d="M70 723l157 86v684l13 12h55q49 0 65.5 -23.5t16.5 -78.5v-512l166 90l12 -6q16 -59 2 -121l-180 -98v-551q0 -88 76 -88h86q12 -31 12 -82q0 -23 -2 -31q-78 -12 -150 -12q-78 0 -125 44t-47 126v512l-145 -78l-10 6q-16 55 -2 121z" />
<glyph unicode="&#x143;" horiz-adv-x="1374" d="M203 0v1399q37 6 92 6q57 0 98 -6l498 -928q31 -55 79 -154.5t64 -134.5h6q-14 262 -14 467v654q0 55 16.5 78.5t65.5 23.5h53l13 -10v-1395q-39 -6 -96.5 -6t-98.5 6l-498 928q-61 115 -139 282h-6q12 -381 12 -442v-768q-43 -6 -74 -6q-35 0 -71 6zM512 1579l391 227 q59 -37 78 -137l-420 -176q-41 29 -49 86z" />
<glyph unicode="&#x144;" horiz-adv-x="1116" d="M180 0v999l13 13h57q49 0 65.5 -25.5t16.5 -81.5v-28q70 66 164 105.5t188 39.5q137 0 200.5 -88.5t63.5 -231.5v-507q0 -119 23 -175q-32 -32 -93 -32h-4q-78 0 -77 100v567q0 125 -32 177.5t-118 52.5q-80 0 -168 -44t-147 -114v-727q-31 -6 -74 -6q-47 0 -78 6z M434 1163l281 316q88 -27 125 -115l-334 -266q-49 12 -72 65z" />
<glyph unicode="&#x147;" horiz-adv-x="1374" d="M203 0v1399q37 6 92 6q57 0 98 -6l498 -928q31 -55 79 -154.5t64 -134.5h6q-14 262 -14 467v654q0 55 16.5 78.5t65.5 23.5h53l13 -10v-1395q-39 -6 -96.5 -6t-98.5 6l-498 928q-61 115 -139 282h-6q12 -381 12 -442v-768q-43 -6 -74 -6q-35 0 -71 6zM393 1726 q19 54 74 70l225 -154l230 166q23 -8 44 -29.5t27 -43.5l-229 -222q-86 -8 -143 0z" />
<glyph unicode="&#x148;" horiz-adv-x="1116" d="M180 0v999l13 13h57q49 0 65.5 -25.5t16.5 -81.5v-28q70 66 164 105.5t188 39.5q137 0 200.5 -88.5t63.5 -231.5v-507q0 -119 23 -175q-33 -33 -97 -32q-78 0 -77 100v567q0 125 -32 177.5t-118 52.5q-80 0 -168 -44t-147 -114v-727q-31 -6 -74 -6q-47 0 -78 6zM295 1389 q33 59 82 71l194 -190l207 200q49 -16 74 -69l-219 -271q-51 -18 -131 -2z" />
<glyph unicode="&#x152;" horiz-adv-x="1812" d="M117 700q0 182 53 344t164 261q133 119 336 118q29 0 250 -24h747q4 -25 4 -64q0 -41 -10 -71h-522h-125q0 -27 1 -64t1 -63v-363q25 0 66.5 1t56.5 1h424q6 -37 6 -67q0 -33 -6 -68h-424q-78 0 -123 2v-432q0 -14 -1 -39t-1 -39q70 4 127 4h561q0 -43 -6 -65 q-12 -72 -101 -72h-675q-215 -25 -250 -25q-203 0 -336 119q-217 195 -217 606zM283 700q0 -111 17 -207t57 -188t120 -145.5t191 -53.5q98 0 196 21v1143q-113 23 -194 22q-90 0 -160 -36.5t-112 -94t-68.5 -138.5t-36.5 -159t-10 -164z" />
<glyph unicode="&#x153;" horiz-adv-x="1728" d="M106.5 501.5q-0.5 274.5 143.5 418.5q106 111 280 110q250 0 351 -213q102 213 336 213q188 0 291.5 -124t103.5 -314q0 -69 -8 -135h-637q10 -348 264 -348q139 0 297 86q47 -41 55 -105q-166 -115 -373 -115q-242 0 -333 203q-102 -203 -347 -203q-172 0 -280 109 q-143 143 -143.5 417.5zM264 502q0 -172 63.5 -290t204.5 -118q96 0 159 62.5t86.5 149.5t23.5 196q0 172 -64.5 290.5t-204.5 118.5q-141 0 -204.5 -117.5t-63.5 -291.5zM967 573h489v23q0 141 -58 229t-181 88q-111 0 -175.5 -91t-74.5 -249z" />
<glyph unicode="&#x154;" horiz-adv-x="1212" d="M203 0v1386l12 13q49 0 134 2t153.5 3t126.5 1q211 0 327.5 -108t116.5 -298q0 -137 -71.5 -236t-196.5 -136q86 -29 137 -166l107 -277q45 -111 88 -145q-33 -51 -109 -51q-45 0 -67.5 23.5t-45.5 78.5l-118 311q-35 92 -83 140.5t-143 48.5h-213v-590q-35 -6 -80 -6 t-75 6zM358 721q86 4 269 4q154 0 218 80t64 194q0 117 -64.5 196t-217.5 79q-193 0 -269 2v-555zM424 1579l391 227q59 -37 78 -137l-420 -176q-41 29 -49 86z" />
<glyph unicode="&#x155;" horiz-adv-x="722" d="M125 934q14 53 65 86q115 -43 148 -182q84 180 274 180q43 0 95 -8q0 -88 -35 -144q-25 2 -72 2q-166 0 -250 -186v-682q-31 -6 -74 -6q-47 0 -77 6v725q0 139 -74 209zM272 1163l281 316q88 -27 125 -115l-334 -266q-49 12 -72 65z" />
<glyph unicode="&#x156;" horiz-adv-x="1212" d="M203 0v1386l12 13q49 0 134 2t153.5 3t126.5 1q211 0 327.5 -108t116.5 -298q0 -137 -71.5 -236t-196.5 -136q86 -29 137 -166l107 -277q45 -111 88 -145q-33 -51 -109 -51q-45 0 -67.5 23.5t-45.5 78.5l-118 311q-35 92 -83 140.5t-143 48.5h-213v-590q-35 -6 -80 -6 t-75 6zM358 721q86 4 269 4q154 0 218 80t64 194q0 117 -64.5 196t-217.5 79q-193 0 -269 2v-555zM459 -438q115 82 114 192q0 57 -26 107q76 47 170 20q16 -37 16 -94q0 -92 -59.5 -170t-161.5 -125q-43 16 -53 70z" />
<glyph unicode="&#x157;" horiz-adv-x="722" d="M113 -438q115 82 114 192q0 57 -26 107q76 47 170 20q16 -37 16 -94q0 -92 -59.5 -170t-161.5 -125q-43 16 -53 70zM125 934q14 53 65 86q115 -43 148 -182q84 180 274 180q43 0 95 -8q0 -88 -35 -144q-25 2 -72 2q-166 0 -250 -186v-682q-31 -6 -74 -6q-47 0 -77 6v725 q0 139 -74 209z" />
<glyph unicode="&#x158;" horiz-adv-x="1212" d="M203 0v1386l12 13q49 0 134 2t153.5 3t126.5 1q211 0 327.5 -108t116.5 -298q0 -137 -71.5 -236t-196.5 -136q86 -29 137 -166l107 -277q45 -111 88 -145q-33 -51 -109 -51q-45 0 -67.5 23.5t-45.5 78.5l-118 311q-35 92 -83 140.5t-143 48.5h-213v-590q-35 -6 -80 -6 t-75 6zM305 1726q19 54 74 70l225 -154l230 166q23 -8 44 -29.5t27 -43.5l-229 -222q-86 -8 -144 0zM358 721q86 4 269 4q154 0 218 80t64 194q0 117 -64.5 196t-217.5 79q-193 0 -269 2v-555z" />
<glyph unicode="&#x159;" horiz-adv-x="722" d="M125 934q14 53 65 86q115 -43 148 -182q84 180 274 180q43 0 95 -8q0 -88 -35 -144q-25 2 -72 2q-166 0 -250 -186v-682q-31 -6 -74 -6q-47 0 -77 6v725q0 139 -74 209zM133 1389q33 59 82 71l195 -190l206 200q49 -16 74 -69l-219 -271q-51 -18 -131 -2z" />
<glyph unicode="&#x15a;" horiz-adv-x="1136" d="M80 129q6 76 72 125q209 -141 409 -141q143 0 227 60t86 165q2 162 -217 258l-239 104q-276 121 -277 344q0 158 123 268.5t322 110.5q203 0 407 -98q0 -78 -63 -131q-188 96 -338 96q-129 0 -210 -64.5t-81 -166.5q0 -78 52.5 -127t146.5 -90l231 -101 q305 -131 305 -370q0 -180 -121.5 -288t-359.5 -108q-264 0 -475 154zM410 1579l391 227q59 -37 78 -137l-420 -176q-41 29 -49 86z" />
<glyph unicode="&#x15b;" horiz-adv-x="888" d="M76 78q4 66 59 110q168 -94 291 -94q96 0 155.5 44t61.5 116q0 51 -39 94t-110 70l-115 45q-262 98 -262 285q0 129 98 205.5t244 76.5q162 0 311 -67q0 -72 -47 -119q-145 63 -268 63q-80 0 -131.5 -41t-51.5 -108q0 -51 37 -85t117 -65l121 -47q254 -100 254 -297 q0 -135 -104.5 -212t-272.5 -77q-186 1 -348 103zM313 1163l281 316q88 -27 125 -115l-334 -266q-49 12 -72 65z" />
<glyph unicode="&#x160;" horiz-adv-x="1136" d="M80 129q6 76 72 125q209 -141 409 -141q143 0 227 60t86 165q2 162 -217 258l-239 104q-276 121 -277 344q0 158 123 268.5t322 110.5q203 0 407 -98q0 -78 -63 -131q-188 96 -338 96q-129 0 -210 -64.5t-81 -166.5q0 -78 52.5 -127t146.5 -90l231 -101 q305 -131 305 -370q0 -180 -121.5 -288t-359.5 -108q-264 0 -475 154zM291 1726q19 54 74 70l225 -154l229 166q23 -8 44.5 -29.5t27.5 -43.5l-229 -222q-86 -8 -144 0z" />
<glyph unicode="&#x161;" horiz-adv-x="888" d="M76 78q4 66 59 110q168 -94 291 -94q96 0 155.5 44t61.5 116q0 51 -39 94t-110 70l-115 45q-262 98 -262 285q0 129 98 205.5t244 76.5q162 0 311 -67q0 -72 -47 -119q-145 63 -268 63q-80 0 -131.5 -41t-51.5 -108q0 -51 37 -85t117 -65l121 -47q254 -100 254 -297 q0 -135 -104.5 -212t-272.5 -77q-186 1 -348 103zM174 1389q33 59 82 71l195 -190l206 200q49 -16 74 -69l-219 -271q-51 -18 -131 -2z" />
<glyph unicode="&#x164;" horiz-adv-x="989" d="M37 1331q0 31 6 68h901q12 -27 12 -66q0 -70 -96 -69h-174q-12 0 -55 1t-58 1v-1266q-33 -6 -77.5 -6t-79.5 6v1266q-14 0 -55.5 -1t-55.5 -1h-262q-6 35 -6 67zM195 1726q18 54 73 70l226 -154l229 166q23 -8 44 -29.5t28 -43.5l-230 -222q-86 -8 -143 0z" />
<glyph unicode="&#x165;" horiz-adv-x="694" d="M66 948q0 27 6 58l145 -2v215q0 55 16.5 78.5t63.5 23.5h55l13 -12v-308l260 5q6 -31 6 -58q0 -29 -6 -59l-260 2v-688q0 -86 79 -86h156q14 -35 14 -82q0 -23 -4 -31q-94 -12 -207 -12q-88 0 -137 44t-49 126v729l-145 -2q-6 31 -6 59zM498 1159l26 416q96 12 158 -25 l-90 -397q-47 -19 -94 6z" />
<glyph unicode="&#x16e;" horiz-adv-x="1363" d="M186 477v916l13 12h61q49 0 65.5 -23.5t16.5 -78.5v-824q0 -180 89 -277.5t251 -97.5t251 96.5t89 278.5v920q31 6 76 6q49 0 82 -6v-922q0 -244 -136.5 -373t-363.5 -129q-223 0 -358.5 129t-135.5 373zM457 1591q0 88 64.5 151.5t160.5 63.5t160.5 -63.5t64.5 -151.5 q0 -90 -64.5 -153.5t-160.5 -63.5t-160.5 63.5t-64.5 153.5zM578 1591q0 -51 29.5 -83.5t74.5 -32.5t74.5 32.5t29.5 83.5q0 49 -29.5 82t-74.5 33t-74.5 -33t-29.5 -82z" />
<glyph unicode="&#x16f;" horiz-adv-x="1118" d="M145 985q37 33 97 33q78 0 77 -100v-568q0 -127 33 -179t119 -52q78 0 166 44t147 113v728q27 8 74 8q51 0 78 -8v-721q0 -164 57 -220q-18 -55 -69 -77q-100 35 -129 151q-70 -70 -167.5 -112.5t-195.5 -42.5q-137 0 -199.5 88t-62.5 231v510q0 111 -25 174zM325 1315 q0 88 64.5 151.5t161 63.5t161 -63.5t64.5 -151.5q0 -90 -64.5 -153.5t-161 -63.5t-161 63.5t-64.5 153.5zM446 1315q0 -51 29.5 -84t75 -33t75 33t29.5 84q0 49 -29.5 82t-75 33t-75 -33t-29.5 -82z" />
<glyph unicode="&#x178;" horiz-adv-x="985" d="M31 1380q53 33 102 33q59 0 86 -76l197 -475q31 -68 84 -235h10q10 36 84 235l213 537q31 8 69.5 8t75.5 -10l6 -13l-385 -929v-455q-33 -6 -80 -6t-77 6v461zM199 1602q0 33 12 73q33 17 86 17q57 0 84 -17q14 -37 14 -73q0 -39 -14 -76q-23 -16 -84 -17q-59 0 -86 17 q-12 39 -12 76zM602 1602q0 39 16 73q27 17 84 17q53 0 86 -17q12 -41 13 -73q0 -37 -13 -76q-27 -16 -86 -17q-61 0 -84 17q-16 35 -16 76z" />
<glyph unicode="&#x179;" horiz-adv-x="1132" d="M109 106q-1 39 24 78l551 858q31 47 158 226l-6 6q-70 -14 -322 -14h-348q-6 28 -6 55q0 41 12 84h811q23 -80 23 -108.5t-25 -71.5l-547 -848q-18 -31 -162 -234l7 -6q106 10 215 10h268q174 0 246 33q14 -43 14 -82q0 -92 -115 -92h-776q-23 74 -22 106zM395 1579 l391 227q59 -37 78 -137l-420 -176q-41 29 -49 86z" />
<glyph unicode="&#x17a;" horiz-adv-x="909" d="M84 94q0 29 27 64l385 528q16 20 159 199l-6 6q-82 -10 -282 -10h-246q-4 18 -4 53q0 37 8 70h668q26 -61 26 -95q0 -29 -24 -61l-379 -516q-47 -63 -162 -207l6 -6q109 6 205 6h113q172 0 237 25q12 -35 12 -72q0 -78 -110 -78h-608q-25 72 -25 94zM325 1163l281 316 q88 -27 125 -115l-334 -266q-49 12 -72 65z" />
<glyph unicode="&#x17b;" horiz-adv-x="1132" d="M109 106q-1 39 24 78l551 858q31 47 158 226l-6 6q-70 -14 -322 -14h-348q-6 28 -6 55q0 41 12 84h811q23 -80 23 -108.5t-25 -71.5l-547 -848q-18 -31 -162 -234l7 -6q106 10 215 10h268q174 0 246 33q14 -43 14 -82q0 -92 -115 -92h-776q-23 74 -22 106zM469 1620 q0 45 14 78q35 20 92 20q61 0 93 -20q14 -33 14 -78q0 -43 -14 -76q-27 -20 -93 -20q-57 0 -92 20q-14 33 -14 76z" />
<glyph unicode="&#x17c;" horiz-adv-x="909" d="M84 94q0 29 27 64l385 528q16 20 159 199l-6 6q-82 -10 -282 -10h-246q-4 18 -4 53q0 37 8 70h668q27 -63 26 -97q0 -27 -24 -59l-379 -516q-47 -63 -162 -207l6 -6q109 6 205 6h113q172 0 237 25q12 -35 12 -72q0 -78 -110 -78h-608q-25 72 -25 94zM352 1280q0 47 15 76 q35 20 92 20q61 0 92 -20q14 -29 14 -76t-14 -76q-31 -23 -92 -22q-55 0 -92 22q-15 29 -15 76z" />
<glyph unicode="&#x17d;" horiz-adv-x="1132" d="M109 106q-1 39 24 78l551 858q31 47 158 226l-6 6q-70 -14 -322 -14h-348q-6 28 -6 55q0 41 12 84h811q23 -80 23 -108.5t-25 -71.5l-547 -848q-18 -31 -162 -234l7 -6q106 10 215 10h268q174 0 246 33q14 -43 14 -82q0 -92 -115 -92h-776q-23 74 -22 106zM276 1726 q19 54 74 70l225 -154l230 166q23 -8 44 -29.5t28 -43.5l-230 -222q-86 -8 -143 0z" />
<glyph unicode="&#x17e;" horiz-adv-x="909" d="M84 94q0 29 27 64l385 528q16 20 159 199l-6 6q-82 -10 -282 -10h-246q-4 18 -4 53q0 37 8 70h668q26 -61 26 -95q0 -29 -24 -61l-379 -516q-47 -63 -162 -207l6 -6q109 6 205 6h113q172 0 237 25q12 -35 12 -72q0 -78 -110 -78h-608q-25 72 -25 94zM186 1389 q33 59 82 71l195 -190l206 200q49 -16 74 -69l-219 -271q-51 -18 -131 -2z" />
<glyph unicode="&#x237;" horiz-adv-x="538" d="M72 -352q82 43 110.5 96t28.5 158v889q0 57 -18.5 77.5t-65.5 20.5h-37q-8 41 -8 57q0 14 8 55q76 10 125 11h16q61 0 96 -40t35 -108v-837q0 -8 1 -23q0 -92 -2.5 -134t-13.5 -103.5t-36.5 -94t-73 -65.5t-118.5 -56q-35 35 -47 97z" />
<glyph unicode="&#x2c6;" d="M127 1174l217 270q51 14 133 2l207 -260q-27 -54 -82 -74l-194 193l-207 -203q-49 20 -74 72z" />
<glyph unicode="&#x2c7;" d="M135 1389q33 59 82 71l195 -190l206 200q49 -16 74 -69l-219 -271q-51 -18 -131 -2z" />
<glyph unicode="&#x2d9;" d="M301 1280q0 47 14 76q35 20 93 20q61 0 92 -20q14 -29 14 -76t-14 -76q-31 -23 -92 -22q-55 0 -93 22q-14 29 -14 76z" />
<glyph unicode="&#x2da;" d="M182 1315q0 88 64.5 151.5t161 63.5t161 -63.5t64.5 -151.5q0 -90 -64.5 -153.5t-161 -63.5t-161 63.5t-64.5 153.5zM303 1315q0 -51 29.5 -84t75 -33t75 33t29.5 84q0 49 -29.5 82t-75 33t-75 -33t-29.5 -82z" />
<glyph unicode="&#x2dc;" d="M59 1212l19 41q59 133 184 133q53 0 111 -28l125 -60q37 -18 69 -18q43 0 84 53l27 31q57 -4 78 -49l-19 -41q-61 -133 -184 -133q-54 -1 -111 28l-125 62q-41 18 -69 18q-43 0 -84 -53l-27 -33q-61 4 -78 49z" />
<glyph unicode="&#x3bc;" horiz-adv-x="1136" d="M158 -416q23 55 22 174v1246q27 8 74 8q49 0 76 -8v-654q0 -111 60.5 -172t156.5 -61q152 0 256 153v734q25 8 74 8q50 0 75 -8v-721q0 -162 58 -220q-20 -55 -68 -77q-98 33 -127 141q-117 -147 -285 -147q-127 0 -204 77v-403q0 -100 -76 -100q-61 0 -92 30z" />
<glyph unicode="&#x1e9e;" horiz-adv-x="1251" d="M43 899q0 33 6 64l176 -5v86q0 182 117 284t307.5 102t304 -109t113.5 -289q0 -74 -31 -160h-4l4 -2q-94 -25 -140 -71.5t-46 -93.5q0 -61 92 -140l76 -61q154 -133 153 -260q0 -113 -97 -191t-253 -78q-143 0 -256 60q2 27 19.5 60.5t42.5 51.5q92 -49 190 -49 q84 0 138.5 40t54.5 104q0 74 -95 155l-84 70q-139 117 -139 225q0 80 57.5 144.5t153.5 99.5q12 43 12 84q0 127 -69.5 210t-200.5 83q-133 0 -199.5 -76t-66.5 -209v-1028q-35 -6 -76 -6q-45 0 -78 6v834l-176 -3q-6 31 -6 68z" />
<glyph unicode="&#x2000;" horiz-adv-x="905" />
<glyph unicode="&#x2001;" horiz-adv-x="1810" />
<glyph unicode="&#x2002;" horiz-adv-x="905" />
<glyph unicode="&#x2003;" horiz-adv-x="1810" />
<glyph unicode="&#x2004;" horiz-adv-x="603" />
<glyph unicode="&#x2005;" horiz-adv-x="452" />
<glyph unicode="&#x2006;" horiz-adv-x="301" />
<glyph unicode="&#x2007;" horiz-adv-x="301" />
<glyph unicode="&#x2008;" horiz-adv-x="226" />
<glyph unicode="&#x2009;" horiz-adv-x="362" />
<glyph unicode="&#x200a;" horiz-adv-x="100" />
<glyph unicode="&#x2010;" horiz-adv-x="686" d="M100.5 541q-0.5 43 8.5 73h471q6 -33 6 -73t-6 -68h-471q-8 25 -8.5 68z" />
<glyph unicode="&#x2011;" horiz-adv-x="686" d="M100.5 541q-0.5 43 8.5 73h471q6 -33 6 -73t-6 -68h-471q-8 25 -8.5 68z" />
<glyph unicode="&#x2012;" horiz-adv-x="686" d="M100.5 541q-0.5 43 8.5 73h471q6 -33 6 -73t-6 -68h-471q-8 25 -8.5 68z" />
<glyph unicode="&#x2013;" horiz-adv-x="1058" d="M131 538.5q0 34.5 6 69.5h785q8 -31 8 -69.5t-8 -63.5h-785q-6 29 -6 63.5z" />
<glyph unicode="&#x2014;" horiz-adv-x="1615" d="M162 538.5q0 34.5 6 69.5h1280q6 -35 6 -69.5t-6 -63.5h-1280q-6 29 -6 63.5z" />
<glyph unicode="&#x2018;" horiz-adv-x="421" d="M92 1198q0 113 58.5 199t168.5 133q20 -10 35 -33.5t13 -46.5q-125 -70 -127 -174q63 -6 84 -21q16 -33 16 -86q0 -70 -16 -92q-41 -23 -109 -22q-75 -1 -102 22q-20 45 -21 121z" />
<glyph unicode="&#x2019;" horiz-adv-x="421" d="M55 1130q121 68 125 175q-63 6 -82 22q-16 29 -16 84q0 70 16 92q37 23 107 23q75 0 104 -23q20 -41 21 -121q0 -236 -230 -331q-20 10 -33.5 33.5t-11.5 45.5z" />
<glyph unicode="&#x201a;" horiz-adv-x="423" d="M70 -193q123 66 127 175q-63 6 -84 20q-16 33 -17 86q0 70 17 92q51 23 108 23q72 0 103 -23q20 -45 20 -121q0 -113 -58.5 -198.5t-168.5 -132.5q-20 8 -34.5 32.5t-12.5 46.5z" />
<glyph unicode="&#x201c;" horiz-adv-x="772" d="M92 1198q0 113 58.5 199t168.5 133q20 -10 35 -33.5t13 -46.5q-125 -70 -127 -174q63 -6 84 -21q16 -33 16 -86q0 -70 -16 -92q-41 -23 -109 -22q-75 -1 -102 22q-20 45 -21 121zM442 1198q0 113 58.5 199t169.5 133q20 -10 34.5 -33.5t12.5 -46.5q-125 -70 -127 -174 q63 -6 84 -21q16 -33 16 -86q0 -70 -16 -92q-41 -23 -109 -22q-75 -1 -102 22q-20 45 -21 121z" />
<glyph unicode="&#x201d;" horiz-adv-x="772" d="M55 1130q121 68 125 175q-63 6 -82 22q-16 29 -16 84q0 70 16 92q37 23 107 23q75 0 104 -23q20 -41 21 -121q0 -236 -230 -331q-20 10 -33.5 33.5t-11.5 45.5zM408 1130q121 68 124 175q-63 6 -81 22q-16 29 -17 84q0 70 17 92q37 23 106 23q76 0 105 -23 q20 -41 20 -121q0 -236 -229 -331q-20 10 -33.5 33.5t-11.5 45.5z" />
<glyph unicode="&#x201e;" horiz-adv-x="774" d="M70 -193q123 66 127 175q-63 6 -84 20q-16 33 -17 86q0 70 17 92q51 23 108 23q72 0 103 -23q20 -45 20 -121q0 -113 -58.5 -198.5t-168.5 -132.5q-20 8 -34.5 32.5t-12.5 46.5zM422 -193q123 66 127 175q-63 6 -84 20q-16 33 -16 86q0 70 16 92q51 23 108 23 q72 0 103 -23q20 -45 20 -121q0 -113 -58 -198.5t-169 -132.5q-20 8 -34.5 32.5t-12.5 46.5z" />
<glyph unicode="&#x2022;" horiz-adv-x="897" d="M242 555q0 115 26 162q78 41 181 41q43 0 99 -13.5t81 -27.5q29 -45 28 -162q0 -111 -28 -162q-20 -14 -77.5 -25.5t-102.5 -11.5q-111 0 -181 37q-26 53 -26 162z" />
<glyph unicode="&#x202f;" horiz-adv-x="362" />
<glyph unicode="&#x2039;" horiz-adv-x="659" d="M88 469q-18 53 0 106l389 373q63 -25 88 -84l-301 -340l314 -352q-25 -59 -89 -84z" />
<glyph unicode="&#x203a;" horiz-adv-x="659" d="M80 864q29 59 90 84l399 -381q8 -20 8.5 -52t-8.5 -54l-387 -373q-61 25 -90 84l303 340z" />
<glyph unicode="&#x2044;" horiz-adv-x="391" d="M-266 0l772 1399q25 10 76 10t75 -10l-770 -1399q-27 -10 -77.5 -10t-75.5 10z" />
<glyph unicode="&#x205f;" horiz-adv-x="452" />
<glyph unicode="&#x2074;" horiz-adv-x="860" d="M113 969q0 29 30 90l244 512q31 4 70 -4t55 -27l-182 -395q-47 -98 -74 -135l2 -4q45 2 119 2h94v147q0 43 22.5 67.5t59.5 24.5h45l2 -4v-235h135q6 -20 6 -54q0 -41 -12 -65h-129v-168q-18 -8 -61 -8t-68 8v168h-328q-31 49 -30 80z" />
<glyph unicode="&#x20ac;" horiz-adv-x="1165" d="M61 512q0 25 7 59h145q-2 31 -2 93q0 55 2 84h-145q-6 31 -6.5 57t6.5 59h155q68 487 461 488q225 0 418 -158q-25 -67 -80 -102q-166 123 -320 122q-266 0 -319 -350h469q6 -33 6 -59.5t-6 -56.5h-479q-2 -27 -2 -84q0 -63 2 -93h479q6 -35 6 -59q0 -27 -6 -57h-467 q55 -342 317 -342q154 0 320 123q57 -39 80 -105q-188 -156 -418 -156q-391 0 -459 480h-157q-6 31 -7 57z" />
<glyph unicode="&#xe000;" horiz-adv-x="1020" d="M0 1020h1020v-1020h-1020v1020z" />
<glyph horiz-adv-x="450" />
<glyph d="M244 -438q115 82 114 192q0 57 -26 107q76 47 170 20q16 -37 16 -94q0 -92 -59.5 -170t-161.5 -125q-43 16 -53 70z" />
<glyph d="M150 1669q14 98 77 137l391 -227q-12 -61 -49 -86z" />
<glyph d="M227 1579l391 227q59 -37 78 -137l-420 -176q-41 29 -49 86z" />
<glyph d="M106 1573l228 221q72 12 145 0l228 -211q-19 -56 -76 -72l-223 154l-232 -166q-57 25 -70 74z" />
<glyph d="M106 1602q0 33 13 73q33 17 86 17q57 0 84 -17q14 -37 14 -73q0 -39 -14 -76q-23 -16 -84 -17q-59 0 -86 17q-12 39 -13 76zM510 1602q0 39 16 73q27 17 84 17q53 0 86 -17q12 -41 13 -73q0 -37 -13 -76q-27 -16 -86 -17q-61 0 -84 17q-16 35 -16 76z" />
<glyph d="M109 1726q18 54 73 70l226 -154l229 166q23 -8 44 -29.5t28 -43.5l-230 -222q-86 -8 -143 0z" />
<glyph d="M182 1591q0 88 64.5 151.5t161 63.5t161 -63.5t64.5 -151.5q0 -90 -64.5 -153.5t-161 -63.5t-161 63.5t-64.5 153.5zM303 1591q0 -51 29.5 -83.5t75 -32.5t75 32.5t29.5 83.5q0 49 -29.5 82t-75 33t-75 -33t-29.5 -82z" />
<glyph d="M59 1587l17 41q27 61 77 97t109 36q53 0 111 -28l125 -60q37 -18 69 -18q43 0 86 51l25 33q51 -4 78 -51l-17 -39q-59 -131 -186 -131q-54 -1 -111 28l-125 60q-41 18 -69 18q-43 0 -86 -51l-25 -33q-55 4 -78 47z" />
<glyph d="M301 1620q0 45 14 78q35 20 93 20q61 0 92 -20q14 -33 14 -78q0 -43 -14 -76q-27 -20 -92 -20q-57 0 -93 20q-14 33 -14 76z" />
<glyph horiz-adv-x="823" d="M422 1159l27 416q96 12 157 -25l-90 -397q-47 -19 -94 6z" />
<glyph d="M244 -438q115 82 114 192q0 57 -26 107q76 47 170 20q16 -37 16 -94q0 -92 -59.5 -170t-161.5 -125q-43 16 -53 70z" />
<glyph horiz-adv-x="1079" d="M37 8l414 1102q27 10 92 10q59 0 84 -10l415 -1104q-37 -18 -92 -18q-37 0 -55 15t-37 63l-78 213q-14 0 -66 -1.5t-57 -1.5h-241q-4 0 -59.5 1.5t-71.5 1.5l-103 -281q-31 -6 -67 -6q-43 0 -74 10zM330 406q14 0 60 1t50 1h197q4 0 43 -1t53 -1l-96 266 q-66 180 -102 299h-9q-30 -113 -75 -240z" />
<glyph horiz-adv-x="1103" d="M186 10v1090l11 12q27 0 154.5 3t197.5 3q391 0 391 -293q0 -80 -48 -142t-128 -89q98 -25 167.5 -102.5t69.5 -180.5q0 -141 -103 -229t-327 -88q-68 0 -129 1t-129.5 3t-115.5 2zM340 117q41 0 121 1t121 1q145 0 202.5 59.5t57.5 140.5q0 78 -66 141.5t-213 63.5h-223 v-407zM340 649h207q236 0 235 174q0 170 -231 170q-145 0 -211 2v-346z" />
<glyph horiz-adv-x="1087" d="M92 553q0 289 139.5 436.5t352.5 147.5q203 0 314.5 -105.5t111.5 -234.5q0 -94 -84 -95q-29 1 -66 11q-2 125 -67.5 210t-212.5 85q-156 0 -240 -116t-84 -339q0 -209 87 -325.5t239 -116.5q162 0 333 129q63 -39 82 -103q-180 -162 -438 -162q-236 0 -351.5 167 t-115.5 411z" />
<glyph horiz-adv-x="1169" d="M186 10v1090l11 12q233 6 364 6q82 0 174 -21.5t146 -62.5q113 -84 151.5 -200.5t38.5 -280.5t-39 -278.5t-151 -198.5q-106 -82 -320 -82q-135 0 -364 6zM342 117q35 0 104.5 1t112.5 1q106 0 180 38t108 105.5t47 136t13 154.5q0 88 -13 156.5t-47 136t-107.5 105.5 t-180.5 38q-43 0 -112.5 1t-104.5 1v-874z" />
<glyph horiz-adv-x="1028" d="M186 96v1004l11 10h704q4 -20 4 -59q0 -41 -10 -70h-446h-111q0 -12 1 -46t1 -56v-250q20 0 58 1t51 1h354q8 -23 8 -66t-8 -65h-354h-109v-297q0 -14 -1 -41t-1 -33q31 2 113 2h481q0 -39 -4 -59q-12 -72 -99 -72h-553q-41 0 -65.5 25.5t-24.5 70.5z" />
<glyph horiz-adv-x="937" d="M186 0v1102l11 8h690q10 -27 10 -59q0 -37 -19.5 -54.5t-68.5 -17.5h-274q-141 0 -195 2q0 -35 1 -103.5t1 -101.5v-155q18 0 50 1t46 1h357q6 -31 6 -64t-6 -63h-357q-61 0 -96 2v-498q-35 -6 -80 -6t-76 6z" />
<glyph horiz-adv-x="1128" d="M96 551q0 156 43 272.5t117 183t162 98.5t186 32q238 0 397 -121q-16 -76 -79 -115q-141 100 -324 100q-150 0 -244 -107.5t-94 -344.5q0 -444 350 -445q127 0 244 35v201q0 41 6 100h-192q-74 0 -74 70q0 34 10 61q172 4 262 4q80 0 110 -22.5t30 -75.5v-428 q-209 -74 -426 -74q-133 0 -230.5 48.5t-151 133.5t-78 182t-24.5 212z" />
<glyph horiz-adv-x="1241" d="M186 0v1110q27 8 76 8t80 -8v-346q0 -25 -1 -62.5t-1 -58.5q8 0 55 1t54 1h342q6 0 54 -1t56 -1q0 20 -1 58t-1 63v346q27 8 76 8t80 -8v-1110q-35 -6 -80 -6t-76 6v391q0 25 1 63t1 60q-8 0 -56 -1t-54 -1h-342q-6 0 -53.5 1t-55.5 1q0 -23 1 -60.5t1 -62.5v-391 q-35 -6 -80 -6t-76 6z" />
<glyph horiz-adv-x="542" d="M195 0v1110q27 8 75.5 8t79.5 -8v-1110q-35 -6 -79.5 -6t-75.5 6z" />
<glyph horiz-adv-x="784" d="M8 51q6 66 55 115q102 -59 209 -60q109 0 154 65t45 204v735q31 8 78 8q51 0 78 -8v-735q0 -203 -84 -299t-260 -96q-147 0 -275 71z" />
<glyph horiz-adv-x="1087" d="M186 0v1110q27 8 76 8t80 -8v-475l119 6q39 2 67 41l248 367q18 27 27.5 38t30 20t49.5 9q43 0 86 -6l14 -14l-295 -428q-20 -29 -57 -64q76 -12 124 -58t89 -132l117 -246q44 -92 79 -123q-39 -55 -98 -55q-41 0 -62.5 21.5t-48.5 74.5l-131 272q-41 86 -87 118t-132 32 q-12 0 -35.5 -1t-54.5 -3t-49 -2v-502q-35 -6 -80 -6t-76 6z" />
<glyph horiz-adv-x="935" d="M186 98v1010l11 10h63q47 0 64.5 -22.5t17.5 -75.5v-893q74 8 160 8h381q0 -43 -4 -63q-16 -72 -99 -72h-504q-39 0 -64.5 25.5t-25.5 72.5z" />
<glyph horiz-adv-x="1470" d="M156 2l104 1108q35 12 106.5 12t100.5 -12l192 -557q63 -178 74 -234h8q6 51 72 234l188 557q35 12 105 12t104 -12l105 -1108q-41 -10 -84 -10q-35 0 -72 6l-53 651q-14 176 -14 293h-11l-270 -778q-33 -6 -78 -6q-43 0 -74 6l-270 778h-10q0 -117 -14 -293l-54 -651 q-37 -6 -73 -6q-47 0 -82 10z" />
<glyph horiz-adv-x="1251" d="M186 0v1110q53 8 90 8q57 0 91 -8l430 -702q2 -4 125 -224l10 2q-18 217 -19 363v471q0 53 17.5 75.5t64.5 22.5h60l10 -10v-1108q-41 -6 -92 -6q-53 0 -90 6l-426 700q-76 127 -123 215h-8q10 -174 10 -356v-559q-43 -6 -76 -6q-35 0 -74 6z" />
<glyph horiz-adv-x="1187" d="M92 555q0 143 50.5 275.5t148.5 209.5q127 96 303 97q184 0 303 -97q100 -78 149.5 -209t49.5 -276t-49.5 -275t-149.5 -208q-123 -96 -303 -97q-176 0 -303 97q-100 80 -149.5 209t-49.5 274zM256 555q0 -84 15.5 -157.5t50 -144.5t105.5 -112t167 -41q98 0 167.5 41 t104.5 112t50.5 144.5t15.5 157.5t-15.5 157.5t-50.5 144.5t-104.5 112t-167.5 41q-96 0 -167 -41t-105.5 -112t-50 -144.5t-15.5 -157.5z" />
<glyph horiz-adv-x="1015" d="M186 0v1100l11 12q29 0 154.5 3t197.5 3q186 0 297.5 -90t111.5 -264q0 -172 -111.5 -262t-297.5 -90h-207v-412q-35 -6 -80 -6t-76 6zM342 537h207q135 0 191.5 66.5t56.5 160.5q0 96 -56.5 161.5t-191.5 65.5q-141 0 -207 2v-456z" />
<glyph horiz-adv-x="1189" d="M92 555q0 143 50.5 275.5t148.5 209.5q127 96 303 97q184 0 303 -97q100 -78 149.5 -209t49.5 -276q0 -268 -142 -426q-49 -57 -120 -92l24 -14q145 -98 240 -103q0 -55 -36 -85t-85 -30q-55 0 -111 41l-198 140q-37 -10 -74 -11q-176 0 -303 97q-100 80 -149.5 209 t-49.5 274zM256 555q0 -84 15.5 -157.5t50 -144.5t105.5 -112t167 -41q98 0 167.5 41t104.5 112t50.5 144.5t15.5 157.5t-15.5 157.5t-50.5 144.5t-104.5 112t-167.5 41q-96 0 -167 -41t-105.5 -112t-50 -144.5t-15.5 -157.5z" />
<glyph horiz-adv-x="1093" d="M186 0v1100l11 12q201 6 374 6q193 0 299.5 -85.5t106.5 -239.5q0 -106 -67.5 -186.5t-174.5 -104.5q80 -33 127 -135l90 -201q45 -98 76 -129q-31 -47 -102 -47q-41 0 -63.5 21.5t-43.5 70.5l-106 240q-31 72 -73 104.5t-126 32.5h-172v-459q-35 -6 -80 -6t-76 6z M342 586q82 2 223 2q133 0 190.5 60.5t57.5 144.5t-56.5 142t-189.5 58q-159 0 -225 2v-409z" />
<glyph horiz-adv-x="997" d="M68 96q4 72 65 119q207 -115 379 -113q102 2 176 52.5t74 128.5q0 129 -184 188l-228 76q-252 82 -252 274q0 133 102.5 223.5t282.5 92.5q201 2 389 -84q0 -74 -57 -121q-170 76 -336 72q-100 -2 -159.5 -48.5t-59.5 -119.5q0 -57 39 -89t131 -63l217 -76 q123 -41 201 -117.5t78 -183.5q0 -147 -112 -238.5t-306 -93.5q-241 -2 -440 121z" />
<glyph horiz-adv-x="870" d="M25 1047q0 33 6 63h811q10 -27 10 -59q0 -37 -19.5 -53.5t-68.5 -16.5h-146q-12 0 -51 1t-51 1q0 -23 1 -61.5t1 -59.5v-862q-35 -6 -78 -6q-47 0 -78 6v862q0 20 1.5 59.5t1.5 61.5q-12 0 -52.5 -1t-52.5 -1h-229q-6 35 -6 66z" />
<glyph horiz-adv-x="1230" d="M168 385v723l10 10h60q49 0 67.5 -23.5t18.5 -76.5v-633q0 -137 75.5 -211t214.5 -74q143 0 218 73t75 212v725q27 8 74 8q51 0 82 -8v-725q0 -199 -121 -304.5t-328 -105.5q-205 0 -325.5 105.5t-120.5 304.5z" />
<glyph horiz-adv-x="1011" d="M39 1102q55 23 96 22q61 0 84 -75l205 -611q49 -156 86 -284q4 -15 16 -15l316 971q29 10 63 10q47 0 72 -12l8 -10l-375 -1100q-57 -6 -114 -6q-45 0 -70 14t-39 62z" />
<glyph horiz-adv-x="1511" d="M72 1102q49 23 92 22q33 0 50 -18.5t28 -61.5l125 -589l63 -312q4 -18 14 -18l222 971q39 8 98 8q70 0 100 -8l201 -953q4 -18 14 -18q39 197 72 330l149 655q31 8 74 8q37 0 74 -10l10 -8l-272 -1098q-49 -10 -139 -10q-80 0 -95 76l-100 462q-23 104 -84 416h-10 q-31 -160 -90 -416l-127 -530q-51 -8 -131 -8q-87 0 -107 78z" />
<glyph horiz-adv-x="1021" d="M31 16l391 576l-338 498q49 35 102 34q55 0 101 -63l237 -348l273 397v2q29 8 65 8q53 0 80 -14l6 -10l-342 -502l387 -567q-45 -39 -106 -39q-55 0 -96 63l-287 420l-320 -471q-29 -8 -65 -8q-49 0 -82 14z" />
<glyph horiz-adv-x="874" d="M23 1100q59 27 100 26q57 0 84 -67l160 -363q55 -129 77 -207h9q46 137 79 213l177 408q31 10 69 10q41 0 72 -12l6 -10l-338 -754v-344q-34 -6 -80 -6q-45 0 -76 6v348z" />
<glyph horiz-adv-x="1003" d="M92 98q0 39 25 72l475 639q23 29 145 176l-6 4q-61 -10 -289 -10h-303q-6 29 -6 53q0 37 12 78h734q23 -74 22 -100q0 -35 -22 -64l-473 -637q-23 -29 -75 -92t-71 -88l4 -6q100 10 199 10l219 2q152 0 219 27q16 -43 17 -76q0 -86 -115 -86h-688q-23 74 -23 98z" />
<glyph horiz-adv-x="1099" d="M102 291q0 109 71 192.5t173 110.5q-84 25 -138 93.5t-54 156.5q0 127 100 210t278 83q168 0 312 -50q4 -72 -41 -122q-156 43 -266 43q-102 0 -160 -47.5t-58 -124.5q0 -179 242 -179h332q98 0 149 23q20 -35 21 -74q0 -82 -121 -82h-55q2 -39 2 -112v-187q0 -35 6 -128 t6 -105q-25 -8 -76 -8q-41 0 -71 6l-11 67q-131 -82 -294 -82q-166 0 -256.5 87.5t-90.5 228.5zM268 297q0 -92 55.5 -144.5t155.5 -52.5q145 0 258 80v236v108h-192q-143 0 -210 -66.5t-67 -160.5z" />
<glyph horiz-adv-x="987" d="M104 555q0 180 29 299t107 190q102 92 256 93q147 0 252 -95q78 -72 106.5 -190.5t28.5 -296.5q0 -358 -135 -485q-104 -94 -254 -94.5t-254 94.5q-136 127 -136 485zM266 555q0 -313 84 -399q53 -57 144 -58q92 0 143 58q86 86 86 399q0 315 -86 403q-51 57 -143 58 q-90 0 -144 -58q-84 -90 -84 -403z" />
<glyph horiz-adv-x="987" d="M141 801q256 143 330 309q23 8 72 8q47 0 71 -8v-987q12 0 52.5 2t50.5 2h137q6 -31 6 -63.5t-6 -63.5h-666q-8 45 -8 63q0 23 8 64h174q12 0 49.5 -2t51.5 -2v651q0 20 3 63.5t3 51.5q-94 -111 -266 -180q-52 24 -62 92z" />
<glyph horiz-adv-x="987" d="M117 94q0 72 68.5 165t168.5 173l172 135q152 123 152 248q0 82 -55.5 136.5t-139.5 54.5q-145 0 -239 -170q-82 8 -113 59q45 100 140.5 171t222.5 71q156 0 251 -93.5t95 -228.5q0 -113 -60.5 -195.5t-171.5 -168.5l-145 -115q-166 -131 -187 -211q100 10 222 10h370 q0 -41 -2 -59q-8 -76 -104 -76h-578q-23 14 -45 44t-22 50z" />
<glyph horiz-adv-x="987" d="M102 82q16 70 70 106q131 -86 266 -86q115 0 191 68t76 184q0 98 -59.5 157.5t-166.5 59.5q-78 0 -135 -30q-43 23 -65 80v2l2 1l2 1l266 266q86 80 108 96l-6 6q-66 -12 -227 -12h-279q-8 27 -8 55q0 37 13 74h634q35 -61 35 -100q0 -37 -33 -68l-182 -186 q-31 -31 -84 -76q10 2 31 2q127 0 220 -89t93 -239q0 -176 -124 -277.5t-283 -101.5q-211 0 -355 107z" />
<glyph horiz-adv-x="987" d="M94 342q0 23 37 104l320 676q80 14 145 -30l-252 -517q-57 -121 -98 -198l4 -4q102 6 196 6h119q0 8 -1 40t-1 42v143q0 51 26.5 81t67.5 30h45l7 -8v-238q0 -10 -1 -45t-1 -45q12 0 38.5 1t36.5 1h119q4 -23 4 -59q0 -41 -10 -72h-113q-10 0 -36.5 1t-38.5 1 q0 -10 1 -43t1 -43v-166q-33 -6 -72 -6q-43 0 -74 6v166q0 10 1 43t1 43q-10 0 -40.5 -1t-43.5 -1h-352q-35 57 -35 92z" />
<glyph horiz-adv-x="987" d="M123 80q16 70 67 100q121 -78 265 -78q106 0 180 68t74 195q0 125 -71 186t-161 61q-106 0 -241 -86q-37 8 -72 47l24 527l13 10h606q10 -25 10 -59q0 -70 -76 -70h-319h-94v-47l-9 -158q0 -6 -2 -38.5t-4 -51.5q98 47 199 47q156 0 256 -98t100 -260q0 -190 -119.5 -295 t-285.5 -105q-203 1 -340 105z" />
<glyph horiz-adv-x="987" d="M115 575q0 260 118.5 411t341.5 151q160 0 250 -56q-10 -66 -57 -102q-90 33 -188 33q-299 0 -308 -402q121 106 281 107q156 0 246 -93.5t90 -265.5q0 -168 -105.5 -275.5t-275.5 -107.5q-164 0 -260 103q-133 141 -133 497zM272 465q0 -207 84 -305q59 -63 152 -64 q106 0 164.5 67.5t58.5 182.5q0 246 -215 246q-57 0 -123.5 -32t-120.5 -79v-16z" />
<glyph horiz-adv-x="987" d="M125 1030q0 43 12 80h725q31 -51 31 -96q0 -29 -27 -68l-96 -135q-139 -195 -215 -374t-90 -406l-2 -31q-31 -8 -80 -8q-51 0 -78 8l2 27q20 242 108.5 443.5t250.5 416.5l24 33q31 41 53 63l-6 4q-68 -12 -297 -12h-309q-6 20 -6 55z" />
<glyph horiz-adv-x="987" d="M102 264q0 100 67 185.5t169 123.5q-203 98 -203 269q0 131 102.5 213t254.5 82q156 0 256 -78t100 -201q0 -182 -184 -264q221 -115 221 -303q0 -147 -114 -231.5t-286 -84.5q-174 0 -278.5 77t-104.5 212zM258 279q0 -92 63.5 -140.5t167.5 -48.5q106 0 171 49.5 t65 143.5q0 152 -248 237q-102 -33 -160.5 -99.5t-58.5 -141.5zM289 854q0 -72 56 -114t179 -85l15 -6q74 31 114.5 86.5t40.5 118.5q0 78 -55 123t-147 45q-88 0 -145.5 -48t-57.5 -120z" />
<glyph horiz-adv-x="987" d="M119 754q0 168 105.5 275.5t275.5 107.5q162 0 258 -103q135 -139 135 -499q0 -260 -119 -410t-342 -150q-162 0 -252 54q10 63 58 104q90 -33 188 -33q297 0 307 400q-119 -104 -280 -105q-156 0 -245 92.5t-89 266.5zM276 764q1 -244 216 -244q119 0 241 109v16 q0 209 -82 305q-61 66 -153 66q-104 0 -163 -68.5t-59 -183.5z" />
<glyph horiz-adv-x="935" d="M47 215l119 129q-60 88 -60 205t60 205l-119 127q33 59 88 86l127 -119q90 57 207 57q113 0 201 -55l131 121q57 -33 88 -86l-119 -133q59 -88 59 -203t-61 -205l121 -129q-23 -47 -88 -88l-129 121q-82 -55 -203 -55q-115 0 -205 55l-129 -119q-49 27 -88 86zM262 548.5 q0 -102.5 54.5 -171t152.5 -68.5q94 0 150.5 68.5t56.5 171.5q0 100 -56.5 171t-150.5 71q-96 0 -151.5 -70t-55.5 -172.5z" />
<glyph horiz-adv-x="888" d="M72 164q2 31 19.5 67.5t39.5 53.5q164 -90 326 -90q190 0 190 120q0 102 -147 152l-178 63q-215 80 -216 248q0 100 70 172t193 92v138q20 6 61 6t64 -6v-133q141 -8 278 -72q0 -84 -59 -125q-150 70 -273 70q-82 0 -129 -35t-47 -94q0 -47 34 -75t108 -52l153 -56 q246 -88 246 -278q0 -115 -85 -185.5t-233 -81.5v-126q-29 -4 -63 -5q-33 0 -62 5v129q-165 18 -290 98z" />
<glyph horiz-adv-x="866" d="M96 553q0 199 85 314.5t216 140.5v166q25 6 68 6q35 0 61 -6v-164q125 -16 189.5 -87t64.5 -149q0 -96 -80 -96q-23 0 -63 8q6 86 -36 147.5t-140 61.5q-96 0 -151.5 -89t-55.5 -253q0 -158 57.5 -241t163.5 -83q111 0 223 86q55 -29 76 -86q-100 -102 -252 -125v-161 q-27 -6 -63 -6q-43 0 -68 6v161q-152 25 -223.5 153t-71.5 296z" />
<glyph horiz-adv-x="954" d="M113 100q0 39 22 72l33 49q88 139 88 230q0 4 -1 12t-1 12h-135q-12 55 0 119q16 0 49 -1t51 -1q-4 8 -15 36.5t-16.5 40t-14.5 37t-13 42t-7 39t-3 42.5q0 121 90 214.5t256 93.5q205 0 350 -119q-4 -31 -26.5 -62.5t-53.5 -42.5q-127 92 -266 93q-84 0 -140.5 -47.5 t-56.5 -129.5q0 -29 8 -63.5t14.5 -52t25 -65.5t22.5 -56q45 0 158.5 1t185.5 1q16 -57 0 -119q-53 0 -157.5 1t-156.5 1q0 -6 1.5 -16.5t1.5 -14.5q0 -137 -132 -317l7 -4q160 6 223 6h368q0 -49 -2 -59q-14 -72 -102 -72h-633q-23 80 -22 100z" />
<glyph horiz-adv-x="1032" d="M57 434q0 35 6 55h127q-2 20 -2 66q0 47 2 72h-127q-6 18 -6 53q0 39 6 57h138q66 399 409 400q199 0 363 -121q-15 -63 -74 -98q-137 86 -272 86q-219 0 -269 -267h394q6 -29 6 -57q0 -25 -6 -53h-406q-2 -23 -2 -72v-66h408q6 -31 6 -55q0 -29 -6 -57h-394 q47 -270 269 -271q135 0 272 89q59 -39 74 -99q-158 -121 -363 -121q-348 0 -409 402h-138q-6 18 -6 57z" />
<glyph horiz-adv-x="913" d="M51 1096q61 31 101 30q45 0 77 -61l158 -352q25 -57 70 -185h8q31 96 70 185l180 399q31 12 71 12q25 0 70 -10l6 -10l-209 -442h156q6 -31 6 -58q0 -23 -6 -53h-207l-65 -139h272q6 -27 6 -58q0 -22 -6 -53h-281v-301q-31 -6 -73.5 -6t-73.5 6v301h-283q-6 31 -6 53 q0 31 6 58h275l-66 139h-209q-6 31 -6 53q0 33 6 58h156z" />
<glyph horiz-adv-x="1579" d="M29 10l630 1086q35 14 93 14h700q4 -20 4 -59t-10 -70h-447h-110q0 -12 1 -46t1 -56v-250q20 0 58 1t50 1h357q6 -23 6 -66t-6 -65h-357h-108v-297q0 -14 -1 -41t-1 -33q31 2 112 2h482q0 -39 -4 -59q-12 -72 -97 -72h-555q-41 0 -64.5 25.5t-23.5 70.5v183 q-18 0 -64 -1.5t-50 -1.5h-166q-6 0 -57.5 1.5t-61.5 1.5l-160 -281q-31 -6 -74 -6q-45 0 -73 10zM412 403q14 0 49 1.5t37 1.5h127q4 0 50 -1.5t64 -1.5v578h-10q-12 -25 -75.5 -144.5t-90.5 -168.5z" />
<glyph horiz-adv-x="1079" d="M37 8l414 1102q27 10 92 10q59 0 84 -10l415 -1104q-37 -18 -92 -18q-37 0 -55 15t-37 63l-78 213q-14 0 -66 -1.5t-57 -1.5h-241q-4 0 -59.5 1.5t-71.5 1.5l-103 -281q-31 -6 -67 -6q-43 0 -74 10zM283 1470q37 88 125 115l280 -315q-23 -53 -72 -66zM330 406q14 0 60 1 t50 1h197q4 0 43 -1t53 -1l-96 266q-66 180 -102 299h-9q-30 -113 -75 -240z" />
<glyph horiz-adv-x="1079" d="M37 8l414 1102q27 10 92 10q59 0 84 -10l415 -1104q-37 -18 -92 -18q-37 0 -55 15t-37 63l-78 213q-14 0 -66 -1.5t-57 -1.5h-241q-4 0 -59.5 1.5t-71.5 1.5l-103 -281q-31 -6 -67 -6q-43 0 -74 10zM330 406q14 0 60 1t50 1h197q4 0 43 -1t53 -1l-96 266 q-66 180 -102 299h-9q-30 -113 -75 -240zM408 1270l280 315q88 -27 125 -115l-334 -266q-48 13 -71 66z" />
<glyph horiz-adv-x="1079" d="M37 8l414 1102q27 10 92 10q59 0 84 -10l415 -1104q-37 -18 -92 -18q-37 0 -55 15t-37 63l-78 213q-14 0 -66 -1.5t-57 -1.5h-241q-4 0 -59.5 1.5t-71.5 1.5l-103 -281q-31 -6 -67 -6q-43 0 -74 10zM260 1280l217 270q51 14 133 2l207 -260q-27 -53 -82 -73l-194 192 l-207 -203q-49 20 -74 72zM330 406q14 0 60 1t50 1h197q4 0 43 -1t53 -1l-96 266q-66 180 -102 299h-9q-30 -113 -75 -240z" />
<glyph horiz-adv-x="1079" d="M37 8l414 1102q27 10 92 10q59 0 84 -10l415 -1104q-37 -18 -92 -18q-37 0 -55 15t-37 63l-78 213q-14 0 -66 -1.5t-57 -1.5h-241q-4 0 -59.5 1.5t-71.5 1.5l-103 -281q-31 -6 -67 -6q-43 0 -74 10zM193 1319l18 41q59 133 184 133q53 0 111 -29l125 -59q37 -18 69 -19 q45 0 84 54l27 30q57 -4 78 -49l-19 -41q-61 -133 -184 -133q-54 0 -111 29l-124 61q-41 18 -70 19q-43 0 -84 -53l-27 -33q-61 4 -77 49zM330 406q14 0 60 1t50 1h197q4 0 43 -1t53 -1l-96 266q-66 180 -102 299h-9q-30 -113 -75 -240z" />
<glyph horiz-adv-x="1079" d="M37 8l414 1102q27 10 92 10q59 0 84 -10l415 -1104q-37 -18 -92 -18q-37 0 -55 15t-37 63l-78 213q-14 0 -66 -1.5t-57 -1.5h-241q-4 0 -59.5 1.5t-71.5 1.5l-103 -281q-31 -6 -67 -6q-43 0 -74 10zM264 1347.5q0 32.5 15 69.5q29 18 79 19q49 0 82 -19q14 -37 15 -69 q0 -37 -15 -70q-29 -18 -82 -18t-79 18q-15 37 -15 69.5zM330 406q14 0 60 1t50 1h197q4 0 43 -1t53 -1l-96 266q-66 180 -102 299h-9q-30 -113 -75 -240zM627 1347.5q0 32.5 14 69.5q33 18 82 19q51 0 80 -19q14 -37 14 -69q0 -37 -14 -70q-27 -18 -80 -18t-82 18 q-14 37 -14 69.5z" />
<glyph horiz-adv-x="1079" d="M37 8l414 1102q27 10 92 10q59 0 84 -10l415 -1104q-37 -18 -92 -18q-37 0 -55 15t-37 63l-78 213q-14 0 -66 -1.5t-57 -1.5h-241q-4 0 -59.5 1.5t-71.5 1.5l-103 -281q-31 -6 -67 -6q-43 0 -74 10zM315 1421q0 88 64.5 151.5t161 63.5t161 -63.5t64.5 -151.5 q0 -90 -64.5 -153.5t-161 -63.5t-161 63.5t-64.5 153.5zM330 406q14 0 60 1t50 1h197q4 0 43 -1t53 -1l-96 266q-66 180 -102 299h-9q-30 -113 -75 -240zM436 1421q0 -51 30 -83.5t75 -32.5t74.5 32.5t29.5 83.5q0 49 -29.5 82t-74.5 33t-75 -33t-30 -82z" />
<glyph horiz-adv-x="1087" d="M92 553q0 289 139.5 436.5t352.5 147.5q203 0 314.5 -105.5t111.5 -234.5q0 -94 -84 -95q-29 0 -66 11q-2 125 -67.5 210t-212.5 85q-156 0 -240 -116t-84 -339q0 -209 87 -325.5t239 -116.5q162 0 333 129q63 -39 82 -103q-152 -135 -364 -157q-14 -29 -27 -62 q80 -6 131 -53t51 -125q0 -82 -64.5 -135.5t-160.5 -53.5q-94 0 -151 39q2 45 37 91q47 -29 106 -29q51 0 75.5 25.5t24.5 64.5t-24.5 63.5t-73.5 24.5q-27 0 -51 -10q-23 10 -31 33q20 76 43 124q-215 16 -320.5 180.5t-105.5 395.5z" />
<glyph horiz-adv-x="1028" d="M186 96v1004l11 10h704q4 -20 4 -59q0 -41 -10 -70h-446h-111q0 -12 1 -46t1 -56v-250q20 0 58 1t51 1h354q8 -23 8 -66t-8 -65h-354h-109v-297q0 -14 -1 -41t-1 -33q31 2 113 2h481q0 -39 -4 -59q-12 -72 -99 -72h-553q-41 0 -65.5 25.5t-24.5 70.5zM297 1470 q37 88 125 115l280 -315q-23 -53 -71 -66z" />
<glyph horiz-adv-x="1028" d="M186 96v1004l11 10h704q4 -20 4 -59q0 -41 -10 -70h-446h-111q0 -12 1 -46t1 -56v-250q20 0 58 1t51 1h354q8 -23 8 -66t-8 -65h-354h-109v-297q0 -14 -1 -41t-1 -33q31 2 113 2h481q0 -39 -4 -59q-12 -72 -99 -72h-553q-41 0 -65.5 25.5t-24.5 70.5zM420 1270l280 315 q88 -27 125 -115l-333 -266q-49 13 -72 66z" />
<glyph horiz-adv-x="1028" d="M186 96v1004l11 10h704q4 -20 4 -59q0 -41 -10 -70h-446h-111q0 -12 1 -46t1 -56v-250q20 0 58 1t51 1h354q8 -23 8 -66t-8 -65h-354h-109v-297q0 -14 -1 -41t-1 -33q31 2 113 2h481q0 -39 -4 -59q-12 -72 -99 -72h-553q-41 0 -65.5 25.5t-24.5 70.5zM272 1280l217 270 q51 14 134 2l206 -260q-26 -53 -81 -73l-195 192l-207 -203q-49 20 -74 72z" />
<glyph horiz-adv-x="1028" d="M186 96v1004l11 10h704q4 -20 4 -59q0 -41 -10 -70h-446h-111q0 -12 1 -46t1 -56v-250q20 0 58 1t51 1h354q8 -23 8 -66t-8 -65h-354h-109v-297q0 -14 -1 -41t-1 -33q31 2 113 2h481q0 -39 -4 -59q-12 -72 -99 -72h-553q-41 0 -65.5 25.5t-24.5 70.5zM276 1347.5 q0 32.5 15 69.5q29 18 80 19q49 0 82 -19q14 -37 14 -69q0 -37 -14 -70q-29 -18 -82.5 -18t-79.5 18q-15 37 -15 69.5zM639 1347.5q0 32.5 14 69.5q33 18 82 19q51 0 80 -19q14 -37 14 -69q0 -37 -14 -70q-27 -18 -80 -18t-82 18q-14 37 -14 69.5z" />
<glyph horiz-adv-x="1257" d="M57 864q0 31 6 62h132v184q27 8 75.5 8t79.5 -8v-184h557v184q27 8 76 8t80 -8v-184h129q8 -41 8 -62q0 -25 -8 -61h-129v-803q-35 -6 -80 -6t-76 6v391q0 25 1 63t1 60q-8 0 -56 -1t-54 -1h-342q-6 0 -53.5 1t-55.5 1q0 -23 1 -60.5t1 -62.5v-391q-35 -6 -80 -6t-75 6 v803h-132q-6 29 -6 61zM348 643q8 0 55.5 1t53.5 1h342q6 0 54 -1t56 -1q0 20 -1 58t-1 63v39h-557v-39q0 -25 -1 -62.5t-1 -58.5z" />
<glyph horiz-adv-x="542" d="M14 1470q37 88 125 115l281 -315q-23 -53 -72 -66zM195 0v1110q27 8 75.5 8t79.5 -8v-1110q-35 -6 -79.5 -6t-75.5 6z" />
<glyph horiz-adv-x="542" d="M137 1270l281 315q88 -27 125 -115l-334 -266q-49 13 -72 66zM195 0v1110q27 8 75.5 8t79.5 -8v-1110q-35 -6 -79.5 -6t-75.5 6z" />
<glyph horiz-adv-x="542" d="M-10 1280l217 270q51 14 133 2l207 -260q-27 -53 -82 -73l-195 192l-207 -203q-49 20 -73 72zM195 0v1110q27 8 75.5 8t79.5 -8v-1110q-35 -6 -79.5 -6t-75.5 6z" />
<glyph horiz-adv-x="542" d="M-78 1319l19 41q59 133 184 133q53 0 111 -29l124 -59q37 -18 70 -19q45 0 84 54l27 30q57 -4 77 -49l-18 -41q-61 -133 -184 -133q-54 0 -111 29l-125 61q-41 18 -69 19q-43 0 -84 -53l-27 -33q-61 4 -78 49zM195 0v1110q27 8 75.5 8t79.5 -8v-1110q-35 -6 -79.5 -6 t-75.5 6z" />
<glyph horiz-adv-x="542" d="M-6 1347.5q0 32.5 14 69.5q29 18 80 19q49 0 82 -19q14 -37 14 -69q0 -37 -14 -70q-29 -18 -82 -18t-80 18q-14 37 -14 69.5zM195 0v1110q27 8 75.5 8t79.5 -8v-1110q-35 -6 -79.5 -6t-75.5 6zM356 1347.5q0 32.5 15 69.5q33 18 82 19q51 0 79 -19q14 -37 15 -69 q0 -37 -15 -70q-27 -18 -80 -18t-81 18q-15 37 -15 69.5z" />
<glyph horiz-adv-x="1327" d="M195 0v1110q27 8 75.5 8t79.5 -8v-1110q-35 -6 -79.5 -6t-75.5 6zM551 51q6 66 55 115q102 -59 209 -60q109 0 154 65t45 204v735q31 8 78 8q51 0 77 -8v-735q0 -203 -84 -299t-260 -96q-147 0 -274 71z" />
<glyph horiz-adv-x="784" d="M8 51q6 66 55 115q102 -59 209 -60q109 0 154 65t45 204v735q31 8 78 8q51 0 78 -8v-735q0 -203 -84 -299t-260 -96q-147 0 -275 71zM266 1280l217 270q51 14 133 2l207 -260q-27 -53 -82 -73l-194 192l-207 -203q-49 20 -74 72z" />
<glyph horiz-adv-x="1073" d="M186 0v1110q27 8 76 8t80 -8v-475l119 6q39 2 67 41l248 367q18 27 27.5 38t30 20t49.5 9q43 0 86 -6l14 -14l-295 -428q-20 -29 -57 -64q76 -12 124 -58t89 -132l117 -246q44 -92 79 -123q-39 -55 -98 -55q-41 0 -62.5 21.5t-48.5 74.5l-131 272q-41 86 -87 118t-132 32 q-12 0 -35.5 -1t-54.5 -3t-49 -2v-502q-35 -6 -80 -6t-76 6zM391 -438q115 82 115 192q0 57 -27 107q76 47 170 20q16 -37 17 -94q0 -92 -59.5 -170t-162.5 -125q-43 16 -53 70z" />
<glyph horiz-adv-x="1087" d="M186 0v1106l13 12h61q49 0 65.5 -24.5t16.5 -79.5v-379l119 6q39 2 67 41l248 367q18 27 27.5 38t30 20t49.5 9q43 0 86 -6l14 -14l-295 -428q-20 -29 -57 -64q76 -12 124 -58t89 -132l117 -246q44 -92 79 -123q-39 -55 -98 -55q-41 0 -62.5 21.5t-48.5 74.5l-131 272 q-41 86 -87 118t-132 32q-12 0 -35.5 -1t-54.5 -3t-49 -2v-502q-31 -6 -82 -6q-43 0 -74 6z" />
<glyph horiz-adv-x="937" d="M186 98v1010l11 10h63q47 0 64.5 -22.5t17.5 -75.5v-893q74 8 160 8h381q0 -43 -4 -63q-16 -72 -99 -72h-504q-39 0 -64.5 25.5t-25.5 72.5zM606 620.5q0 59.5 12 84.5q45 20 91 20q49 0 90 -20q14 -29 14 -84.5t-14 -83.5q-29 -20 -90 -21q-53 0 -91 21q-12 24 -12 83.5 z" />
<glyph horiz-adv-x="950" d="M70 565l131 39v504l10 10h61q49 0 65.5 -22.5t16.5 -75.5v-375l340 100l11 -4q16 -53 2 -118l-353 -105v-391q74 8 162 8h379q0 -43 -4 -63q-12 -72 -98 -72h-504q-39 0 -63.5 25.5t-24.5 72.5v377l-119 -35l-10 6q-16 55 -2 119z" />
<glyph horiz-adv-x="1251" d="M186 0v1110q53 8 90 8q57 0 91 -8l430 -702q2 -4 125 -224l10 2q-18 217 -19 363v471q0 53 17.5 75.5t64.5 22.5h60l10 -10v-1108q-41 -6 -92 -6q-53 0 -90 6l-426 700q-76 127 -123 215h-8q10 -174 10 -356v-559q-43 -6 -76 -6q-35 0 -74 6zM496 1270l280 315 q88 -27 125 -115l-334 -266q-48 13 -71 66z" />
<glyph horiz-adv-x="1251" d="M186 0v1110q53 8 90 8q57 0 91 -8l430 -702q2 -4 125 -224l10 2q-18 217 -19 363v471q0 53 17.5 75.5t64.5 22.5h60l10 -10v-1108q-41 -6 -92 -6q-53 0 -90 6l-426 700q-76 127 -123 215h-8q10 -174 10 -356v-559q-43 -6 -76 -6q-35 0 -74 6zM281 1319l18 41 q59 133 184 133q53 0 111 -29l125 -59q37 -18 69 -19q43 0 84 54l27 30q57 -4 78 -49l-19 -41q-61 -133 -184 -133q-53 0 -110 29l-125 61q-41 18 -70 19q-43 0 -84 -53l-27 -33q-61 4 -77 49z" />
<glyph horiz-adv-x="1611" d="M92 557q0 324 197 481q129 98 309 99q61 0 217 -27h670q4 -20 4 -59q0 -41 -10 -70h-447h-112q0 -12 1 -52t1 -55v-245q23 0 60.5 1t49.5 1h357q6 -23 6 -66t-6 -65h-357h-110v-271q0 -12 -1 -49t-1 -51q31 2 114 2h482q0 -39 -5 -59q-12 -72 -98 -72h-606 q-162 -25 -209 -25q-182 0 -309 97q-197 158 -197 485zM258 555q0 -84 15.5 -157.5t50 -144.5t105.5 -112t169 -41q80 0 172 25v860q-111 25 -172 25q-98 0 -169 -41t-106.5 -112t-50 -144.5t-14.5 -157.5z" />
<glyph horiz-adv-x="1187" d="M92 555q0 143 50.5 275.5t148.5 209.5q127 96 303 97q184 0 303 -97q100 -78 149.5 -209t49.5 -276t-49.5 -275t-149.5 -208q-123 -96 -303 -97q-176 0 -303 97q-100 80 -149.5 209t-49.5 274zM256 555q0 -84 15.5 -157.5t50 -144.5t105.5 -112t167 -41q98 0 167.5 41 t104.5 112t50.5 144.5t15.5 157.5t-15.5 157.5t-50.5 144.5t-104.5 112t-167.5 41q-96 0 -167 -41t-105.5 -112t-50 -144.5t-15.5 -157.5zM338 1470q37 88 125 115l280 -315q-23 -53 -71 -66z" />
<glyph horiz-adv-x="1187" d="M92 555q0 143 50.5 275.5t148.5 209.5q127 96 303 97q184 0 303 -97q100 -78 149.5 -209t49.5 -276t-49.5 -275t-149.5 -208q-123 -96 -303 -97q-176 0 -303 97q-100 80 -149.5 209t-49.5 274zM256 555q0 -84 15.5 -157.5t50 -144.5t105.5 -112t167 -41q98 0 167.5 41 t104.5 112t50.5 144.5t15.5 157.5t-15.5 157.5t-50.5 144.5t-104.5 112t-167.5 41q-96 0 -167 -41t-105.5 -112t-50 -144.5t-15.5 -157.5zM461 1270l280 315q88 -27 125 -115l-334 -266q-48 13 -71 66z" />
<glyph horiz-adv-x="1187" d="M92 555q0 143 50.5 275.5t148.5 209.5q127 96 303 97q184 0 303 -97q100 -78 149.5 -209t49.5 -276t-49.5 -275t-149.5 -208q-123 -96 -303 -97q-176 0 -303 97q-100 80 -149.5 209t-49.5 274zM256 555q0 -84 15.5 -157.5t50 -144.5t105.5 -112t167 -41q98 0 167.5 41 t104.5 112t50.5 144.5t15.5 157.5t-15.5 157.5t-50.5 144.5t-104.5 112t-167.5 41q-96 0 -167 -41t-105.5 -112t-50 -144.5t-15.5 -157.5zM313 1280l217 270q51 14 134 2l206 -260q-27 -53 -82 -73l-194 192l-207 -203q-49 20 -74 72z" />
<glyph horiz-adv-x="1187" d="M92 555q0 143 50.5 275.5t148.5 209.5q127 96 303 97q184 0 303 -97q100 -78 149.5 -209t49.5 -276t-49.5 -275t-149.5 -208q-123 -96 -303 -97q-176 0 -303 97q-100 80 -149.5 209t-49.5 274zM246 1319l18 41q59 133 185 133q53 0 110 -29l125 -59q37 -18 70 -19 q45 0 84 54l26 30q57 -4 78 -49l-18 -41q-61 -133 -185 -133q-53 0 -110 29l-125 61q-41 18 -70 19q-43 0 -84 -53l-26 -33q-61 4 -78 49zM256 555q0 -84 15.5 -157.5t50 -144.5t105.5 -112t167 -41q98 0 167.5 41t104.5 112t50.5 144.5t15.5 157.5t-15.5 157.5t-50.5 144.5 t-104.5 112t-167.5 41q-96 0 -167 -41t-105.5 -112t-50 -144.5t-15.5 -157.5z" />
<glyph horiz-adv-x="1187" d="M92 555q0 143 50.5 275.5t148.5 209.5q127 96 303 97q184 0 303 -97q100 -78 149.5 -209t49.5 -276t-49.5 -275t-149.5 -208q-123 -96 -303 -97q-176 0 -303 97q-100 80 -149.5 209t-49.5 274zM256 555q0 -84 15.5 -157.5t50 -144.5t105.5 -112t167 -41q98 0 167.5 41 t104.5 112t50.5 144.5t15.5 157.5t-15.5 157.5t-50.5 144.5t-104.5 112t-167.5 41q-96 0 -167 -41t-105.5 -112t-50 -144.5t-15.5 -157.5zM317 1347.5q0 32.5 15 69.5q29 18 80 19q49 0 82 -19q14 -37 14 -69q0 -37 -14 -70q-29 -18 -82.5 -18t-79.5 18q-15 37 -15 69.5z M680 1347.5q0 32.5 14 69.5q33 18 82 19q51 0 80 -19q14 -37 14 -69q0 -37 -14 -70q-27 -18 -80 -18t-82 18q-14 37 -14 69.5z" />
<glyph horiz-adv-x="1187" d="M92 555q0 143 50.5 275.5t148.5 209.5q127 96 303 97q164 0 278 -78l84 119q70 -20 101 -72l-94 -131q133 -162 133 -420q0 -145 -49.5 -275t-149.5 -208q-123 -96 -303 -97q-160 0 -279 78l-86 -121q-27 6 -57.5 28t-42.5 44l94 133q-131 160 -131 418zM252 555 q0 -180 59 -293l484 688q-78 66 -201 66q-98 0 -169 -42t-106.5 -112.5t-51 -146.5t-15.5 -160zM393 162q78 -66 201 -66q98 0 169 42t106.5 113t51 145.5t15.5 158.5q0 174 -62 295z" />
<glyph horiz-adv-x="1093" d="M186 0v1100l11 12q201 6 374 6q193 0 299.5 -85.5t106.5 -239.5q0 -106 -67.5 -186.5t-174.5 -104.5q80 -33 127 -135l90 -201q45 -98 76 -129q-31 -47 -102 -47q-41 0 -63.5 21.5t-43.5 70.5l-106 240q-31 72 -73 104.5t-126 32.5h-172v-459q-35 -6 -80 -6t-76 6z M342 586q82 2 223 2q133 0 190.5 60.5t57.5 144.5t-56.5 142t-189.5 58q-159 0 -225 2v-409zM414 1270l280 315q88 -27 125 -115l-334 -266q-48 13 -71 66z" />
<glyph horiz-adv-x="1093" d="M186 0v1100l11 12q201 6 374 6q193 0 299.5 -85.5t106.5 -239.5q0 -106 -67.5 -186.5t-174.5 -104.5q80 -33 127 -135l90 -201q45 -98 76 -129q-31 -47 -102 -47q-41 0 -63.5 21.5t-43.5 70.5l-106 240q-31 72 -73 104.5t-126 32.5h-172v-459q-35 -6 -80 -6t-76 6z M274 1495q33 60 82 72l195 -191l207 201q49 -16 73 -70l-219 -270q-51 -18 -131 -2zM342 586q82 2 223 2q133 0 190.5 60.5t57.5 144.5t-56.5 142t-189.5 58q-159 0 -225 2v-409z" />
<glyph horiz-adv-x="1093" d="M186 0v1100l11 12q201 6 374 6q193 0 299.5 -85.5t106.5 -239.5q0 -106 -67.5 -186.5t-174.5 -104.5q80 -33 127 -135l90 -201q45 -98 76 -129q-31 -47 -102 -47q-41 0 -63.5 21.5t-43.5 70.5l-106 240q-31 72 -73 104.5t-126 32.5h-172v-459q-35 -6 -80 -6t-76 6z M342 586q82 2 223 2q133 0 190.5 60.5t57.5 144.5t-56.5 142t-189.5 58q-159 0 -225 2v-409zM391 -438q115 82 115 192q0 57 -27 107q76 47 170 20q16 -37 17 -94q0 -92 -59.5 -170t-162.5 -125q-43 16 -53 70z" />
<glyph horiz-adv-x="1994" d="M68 96q4 72 65 119q207 -115 379 -113q102 2 176 52.5t74 128.5q0 129 -184 188l-228 76q-252 82 -252 274q0 133 102.5 223.5t282.5 92.5q201 2 389 -84q0 -74 -57 -121q-170 76 -336 72q-100 -2 -159.5 -48.5t-59.5 -119.5q0 -57 39 -89t131 -63l217 -76 q123 -41 201 -117.5t78 -183.5q0 -147 -112 -238.5t-306 -93.5q-241 -2 -440 121zM1065 96q4 72 65 119q207 -115 379 -113q102 2 176 52.5t74 128.5q0 129 -184 188l-227 76q-252 82 -252 274q0 133 102 223.5t283 92.5q201 2 389 -84q0 -74 -58 -121q-170 76 -335 72 q-100 -2 -160 -48.5t-60 -119.5q0 -57 39 -89t131 -63l218 -76q123 -41 200.5 -117.5t77.5 -183.5q0 -147 -111.5 -238.5t-306.5 -93.5q-241 -2 -440 121z" />
<glyph horiz-adv-x="1126" d="M27 614q0 33 6 62l157 -2v121q0 170 110 256t290 86q172 0 279.5 -93.5t107.5 -240.5q0 -70 -19 -123q-74 -16 -118.5 -51t-44.5 -80t73 -98l68 -48q129 -94 129 -204q0 -98 -82 -158.5t-217 -60.5q-129 0 -234 47q4 72 52 112q86 -41 172 -41q63 0 104 28t41 71 q0 55 -74 108l-73 51q-123 86 -123 185q0 72 53 129t137 88q4 25 4 37q0 96 -62.5 159.5t-174.5 63.5q-242 0 -242 -246v-772q-37 -6 -80 -6q-41 0 -76 6v549l-157 -2q-6 31 -6 67z" />
<glyph horiz-adv-x="1230" d="M168 385v723l10 10h60q49 0 67.5 -23.5t18.5 -76.5v-633q0 -137 75.5 -211t214.5 -74q143 0 218 73t75 212v725q27 8 74 8q51 0 82 -8v-725q0 -199 -121 -304.5t-328 -105.5q-205 0 -325.5 105.5t-120.5 304.5zM354 1470q37 88 125 115l281 -315q-23 -53 -72 -66z" />
<glyph horiz-adv-x="1230" d="M168 385v723l10 10h60q49 0 67.5 -23.5t18.5 -76.5v-633q0 -137 75.5 -211t214.5 -74q143 0 218 73t75 212v725q27 8 74 8q51 0 82 -8v-725q0 -199 -121 -304.5t-328 -105.5q-205 0 -325.5 105.5t-120.5 304.5zM477 1270l281 315q88 -27 125 -115l-334 -266 q-49 13 -72 66z" />
<glyph horiz-adv-x="1230" d="M168 385v723l10 10h60q49 0 67.5 -23.5t18.5 -76.5v-633q0 -137 75.5 -211t214.5 -74q143 0 218 73t75 212v725q27 8 74 8q51 0 82 -8v-725q0 -199 -121 -304.5t-328 -105.5q-205 0 -325.5 105.5t-120.5 304.5zM330 1280l217 270q51 14 133 2l207 -260q-27 -53 -82 -73 l-195 192l-207 -203q-49 20 -73 72z" />
<glyph horiz-adv-x="1230" d="M168 385v723l10 10h60q49 0 67.5 -23.5t18.5 -76.5v-633q0 -137 75.5 -211t214.5 -74q143 0 218 73t75 212v725q27 8 74 8q51 0 82 -8v-725q0 -199 -121 -304.5t-328 -105.5q-205 0 -325.5 105.5t-120.5 304.5zM334 1347.5q0 32.5 14 69.5q29 18 80 19q49 0 82 -19 q14 -37 14 -69q0 -37 -14 -70q-29 -18 -82 -18t-80 18q-14 37 -14 69.5zM696 1347.5q0 32.5 15 69.5q33 18 82 19q51 0 79 -19q14 -37 15 -69q0 -37 -15 -70q-27 -18 -80 -18t-81 18q-15 37 -15 69.5z" />
<glyph horiz-adv-x="874" d="M23 1100q59 27 100 26q57 0 84 -67l160 -363q55 -129 77 -207h9q46 137 79 213l177 408q31 10 69 10q41 0 72 -12l6 -10l-338 -754v-344q-34 -6 -80 -6q-45 0 -76 6v348zM311 1270l281 315q88 -27 125 -115l-334 -266q-49 13 -72 66z" />
<glyph horiz-adv-x="874" d="M23 1100q59 27 100 26q57 0 84 -67l160 -363q55 -129 77 -207h9q46 137 79 213l177 408q31 10 69 10q41 0 72 -12l6 -10l-338 -754v-344q-34 -6 -80 -6q-45 0 -76 6v348zM168 1347.5q0 32.5 14 69.5q29 18 80 19q49 0 82 -19q14 -37 14 -69q0 -37 -14 -70 q-29 -18 -82 -18t-80 18q-14 37 -14 69.5zM530 1347.5q0 32.5 15 69.5q33 18 82 19q51 0 80 -19q14 -37 14 -69q0 -37 -14 -70q-27 -18 -80.5 -18t-81.5 18q-15 37 -15 69.5z" />
<glyph horiz-adv-x="1179" d="M61.5 555.5q-0.5 34.5 6.5 69.5h129v475l10 12q233 6 364 6q82 0 174.5 -21.5t147.5 -62.5q111 -84 149.5 -200.5t38.5 -280.5t-37.5 -278.5t-150.5 -198.5q-111 -82 -322 -82q-133 0 -364 6l-10 10v482h-129q-6 29 -6.5 63.5zM352 117q35 0 104.5 1t112.5 1 q351 0 351 434q0 88 -13.5 156.5t-48.5 136t-108.5 105.5t-180.5 38q-43 0 -112.5 1t-104.5 1v-366h289q6 -35 6 -70t-6 -63h-289v-375z" />
<glyph horiz-adv-x="1028" d="M186 0v1110q27 8 76 8t80 -8v-182q33 0 102.5 1t104.5 1q186 0 297.5 -91t111.5 -261t-110.5 -261.5t-298.5 -91.5h-207v-225q-34 -6 -80 -6q-45 0 -76 6zM342 350h207q135 0 191.5 67.5t56.5 160.5q0 94 -56.5 160.5t-191.5 66.5h-207v-455z" />
<glyph horiz-adv-x="1079" d="M37 8l414 1102q27 10 92 10q59 0 84 -10l415 -1104q-184 -119 -184 -237q0 -47 30 -75t77 -28q68 0 129 37q39 -29 39 -82q-80 -66 -203 -65q-92 0 -149.5 49t-57.5 135q0 150 162 272q-18 27 -27 54l-78 213q-14 0 -66 -1.5t-57 -1.5h-241q-4 0 -59.5 1.5t-71.5 1.5 l-103 -281q-31 -6 -67 -6q-43 0 -74 10zM330 406q14 0 60 1t50 1h197q4 0 43 -1t53 -1l-96 266q-66 180 -102 299h-9q-30 -113 -75 -240z" />
<glyph horiz-adv-x="1087" d="M92 553q0 289 139.5 436.5t352.5 147.5q203 0 314.5 -105.5t111.5 -234.5q0 -94 -84 -95q-29 1 -66 11q-2 125 -67.5 210t-212.5 85q-156 0 -240 -116t-84 -339q0 -209 87 -325.5t239 -116.5q162 0 333 129q63 -39 82 -103q-180 -162 -438 -162q-236 0 -351.5 167 t-115.5 411zM451 1270l280 315q88 -27 125 -115l-334 -266q-48 13 -71 66z" />
<glyph horiz-adv-x="1087" d="M92 553q0 289 139.5 436.5t352.5 147.5q203 0 314.5 -105.5t111.5 -234.5q0 -94 -84 -95q-29 1 -66 11q-2 125 -67.5 210t-212.5 85q-156 0 -240 -116t-84 -339q0 -209 87 -325.5t239 -116.5q162 0 333 129q63 -39 82 -103q-180 -162 -438 -162q-236 0 -351.5 167 t-115.5 411zM311 1495q33 60 82 72l195 -191l207 201q49 -16 73 -70l-219 -270q-51 -18 -131 -2z" />
<glyph horiz-adv-x="1169" d="M186 10v1090l11 12q233 6 364 6q82 0 174 -21.5t146 -62.5q113 -84 151.5 -200.5t38.5 -280.5t-39 -278.5t-151 -198.5q-106 -82 -320 -82q-135 0 -364 6zM281 1495q32 60 81 72l195 -191l207 201q49 -16 74 -70l-220 -270q-51 -18 -131 -2zM342 117q35 0 104.5 1 t112.5 1q106 0 180 38t108 105.5t47 136t13 154.5q0 88 -13 156.5t-47 136t-107.5 105.5t-180.5 38q-43 0 -112.5 1t-104.5 1v-874z" />
<glyph horiz-adv-x="1028" d="M186 96v1004l11 10h704q4 -20 4 -59q0 -41 -10 -70h-446h-111q0 -12 1 -46t1 -56v-250q20 0 58 1t51 1h354q8 -23 8 -66t-8 -65h-354h-109v-297q0 -14 -1 -41t-1 -33q31 2 113 2h481q0 -39 -4 -59q-12 -72 -99 -72h-553q-41 0 -65.5 25.5t-24.5 70.5zM281 1495 q32 60 81 72l195 -191l207 201q49 -16 74 -70l-220 -270q-51 -18 -131 -2z" />
<glyph horiz-adv-x="1028" d="M186 96v1004l11 10h704q4 -20 4 -59q0 -41 -10 -70h-446h-111q0 -12 1 -46t1 -56v-250q20 0 58 1t51 1h354q8 -23 8 -66t-8 -65h-354h-109v-297q0 -14 -1 -41t-1 -33q61 4 113 4h481q0 -41 -4 -61q-8 -49 -54 -66q-2 0 -2 -1t-2 -1q-90 -39 -147 -104.5t-57 -128.5 q0 -49 29.5 -77t76.5 -28q61 0 131 37q37 -29 37 -82q-80 -66 -203 -65q-90 0 -148.5 49t-58.5 137q0 72 43 140.5t117 117.5h-414q-41 0 -65.5 25.5t-24.5 70.5z" />
<glyph horiz-adv-x="1251" d="M186 0v1110q53 8 90 8q57 0 91 -8l430 -702q2 -4 125 -224l10 2q-18 217 -19 363v471q0 53 17.5 75.5t64.5 22.5h60l10 -10v-1108q-41 -6 -92 -6q-53 0 -90 6l-426 700q-76 127 -123 215h-8q10 -174 10 -356v-559q-43 -6 -76 -6q-35 0 -74 6zM356 1495q33 60 82 72 l195 -191l207 201q49 -16 73 -70l-219 -270q-51 -18 -131 -2z" />
<glyph horiz-adv-x="997" d="M68 96q4 72 65 119q207 -115 379 -113q102 2 176 52.5t74 128.5q0 129 -184 188l-228 76q-252 82 -252 274q0 133 102.5 223.5t282.5 92.5q201 2 389 -84q0 -74 -57 -121q-170 76 -336 72q-100 -2 -159.5 -48.5t-59.5 -119.5q0 -57 39 -89t131 -63l217 -76 q123 -41 201 -117.5t78 -183.5q0 -147 -112 -238.5t-306 -93.5q-241 -2 -440 121zM356 1270l281 315q88 -27 125 -115l-334 -266q-49 13 -72 66z" />
<glyph horiz-adv-x="997" d="M68 96q4 72 65 119q207 -115 379 -113q102 2 176 52.5t74 128.5q0 129 -184 188l-228 76q-252 82 -252 274q0 133 102.5 223.5t282.5 92.5q201 2 389 -84q0 -74 -57 -121q-170 76 -336 72q-100 -2 -159.5 -48.5t-59.5 -119.5q0 -57 39 -89t131 -63l217 -76 q123 -41 201 -117.5t78 -183.5q0 -147 -112 -238.5t-306 -93.5q-241 -2 -440 121zM217 1495q33 60 82 72l195 -191l206 201q49 -16 74 -70l-219 -270q-51 -18 -131 -2z" />
<glyph horiz-adv-x="870" d="M25 1047q0 33 6 63h811q10 -27 10 -59q0 -37 -19.5 -53.5t-68.5 -16.5h-146q-12 0 -51 1t-51 1q0 -23 1 -61.5t1 -59.5v-862q-35 -6 -78 -6q-47 0 -78 6v862q0 20 1.5 59.5t1.5 61.5q-12 0 -52.5 -1t-52.5 -1h-229q-6 35 -6 66zM168 1495q33 60 82 72l194 -191l207 201 q49 -16 74 -70l-219 -270q-51 -18 -131 -2z" />
<glyph horiz-adv-x="1230" d="M168 385v723l10 10h60q49 0 67.5 -23.5t18.5 -76.5v-633q0 -137 75.5 -211t214.5 -74q143 0 218 73t75 212v725q27 8 74 8q51 0 82 -8v-725q0 -199 -121 -304.5t-328 -105.5q-205 0 -325.5 105.5t-120.5 304.5zM385 1421q0 88 64.5 151.5t161 63.5t161 -63.5t64.5 -151.5 q0 -90 -64.5 -153.5t-161 -63.5t-161 63.5t-64.5 153.5zM506 1421q0 -51 29.5 -83.5t74.5 -32.5t75 32.5t30 83.5q0 49 -30 82t-75 33t-74.5 -33t-29.5 -82z" />
<glyph horiz-adv-x="1003" d="M92 98q0 39 25 72l475 639q23 29 145 176l-6 4q-61 -10 -289 -10h-303q-6 29 -6 53q0 37 12 78h734q23 -74 22 -100q0 -35 -22 -64l-473 -637q-23 -29 -75 -92t-71 -88l4 -6q100 10 199 10l219 2q152 0 219 27q16 -43 17 -76q0 -86 -115 -86h-688q-23 74 -23 98z M385 1270l281 315q88 -27 125 -115l-334 -266q-49 13 -72 66z" />
<glyph horiz-adv-x="1003" d="M92 98q0 39 25 72l475 639q23 29 145 176l-6 4q-61 -10 -289 -10h-303q-6 29 -6 53q0 37 12 78h734q23 -74 22 -100q0 -35 -22 -64l-473 -637q-23 -29 -75 -92t-71 -88l4 -6q100 10 199 10l219 2q152 0 219 27q16 -43 17 -76q0 -86 -115 -86h-688q-23 74 -23 98z M412 1386.5q0 47.5 14 75.5q35 20 92 21q61 0 92 -21q14 -29 14.5 -76t-14.5 -75q-31 -23 -92 -23q-55 0 -92 23q-14 28 -14 75.5z" />
<glyph horiz-adv-x="1003" d="M92 98q0 39 25 72l475 639q23 29 145 176l-6 4q-61 -10 -289 -10h-303q-6 29 -6 53q0 37 12 78h734q23 -74 22 -100q0 -35 -22 -64l-473 -637q-23 -29 -75 -92t-71 -88l4 -6q100 10 199 10l219 2q152 0 219 27q16 -43 17 -76q0 -86 -115 -86h-688q-23 74 -23 98z M246 1495q33 60 82 72l194 -191l207 201q49 -16 74 -70l-219 -270q-51 -18 -131 -2z" />
</font>
</defs>
</svg>
