<?xml version="1.0" standalone="no"?>
<!DOCTYPE svg PUBLIC "-//W3C//DTD SVG 1.1//EN" "http://www.w3.org/Graphics/SVG/1.1/DTD/svg11.dtd" >
<svg xmlns="http://www.w3.org/2000/svg">
<metadata>
This is a custom SVG webfont generated by Font Squirrel.
Copyright   : Copyright c 2011 by Anna Giedrys httpancymoniccom with Reserved Font Names Signika
Designer    : Anna Giedrys
Foundry     : Anna Giedrys
Foundry URL : wwwancymoniccom
</metadata>
<defs>
<font id="SignikaRegular" horiz-adv-x="1085" >
<font-face units-per-em="2048" ascent="1638" descent="-410" />
<missing-glyph horiz-adv-x="450" />
<glyph horiz-adv-x="0" />
<glyph horiz-adv-x="0" />
<glyph unicode="&#xd;" horiz-adv-x="380" />
<glyph unicode=" "  horiz-adv-x="450" />
<glyph unicode="&#x09;" horiz-adv-x="450" />
<glyph unicode="&#xa0;" horiz-adv-x="450" />
<glyph unicode="!" horiz-adv-x="589" d="M158 102q0 70 18 97q43 26 115 26q74 0 117 -26q18 -33 18 -97q0 -61 -18 -94q-43 -27 -117 -26q-72 0 -115 26q-18 29 -18 94zM184 1352q82 61 226 61l14 -14l-51 -1002q-33 -10 -80 -10q-53 0 -84 10z" />
<glyph unicode="&#x22;" horiz-adv-x="798" d="M94 1440q0 41 15 98q43 27 104 27q63 0 106 -27q14 -57 15 -98q0 -14 -11.5 -70.5t-26.5 -150t-26 -179.5q-20 -10 -55 -10t-57 10q-10 86 -25.5 180.5t-27 151t-11.5 68.5zM465 1440q0 41 14 98q43 27 105 27q63 0 106 -27q14 -57 15 -98q0 -14 -11.5 -70.5t-27 -150 t-25.5 -179.5q-20 -10 -56 -10t-57 10q-10 86 -25.5 180.5t-26.5 151t-11 68.5z" />
<glyph unicode="#" horiz-adv-x="1320" d="M47 404.5q0 52.5 14 87.5h248l80 352h-231q-12 35 -12.5 87t12.5 89h270l66 289q35 14 96 14t94 -14l-66 -289h259l65 289q35 14 95.5 14t95.5 -14l-66 -289h201q12 -37 12 -89t-12 -87h-240l-78 -352h219q14 -35 14.5 -87.5t-14.5 -87.5h-258l-65 -290 q-35 -14 -96.5 -14.5t-96.5 14.5l66 290h-256l-66 -290q-33 -14 -96 -14.5t-96 14.5l65 290h-209q-14 35 -14 87.5zM502 492h256l80 352h-258z" />
<glyph unicode="$" horiz-adv-x="1021" d="M68 201q2 43 26.5 93t57.5 71q207 -115 370 -115q86 0 142.5 36t56.5 101q0 109 -150 162l-204 74q-252 94 -252 299q0 123 82 210t221 109v168q27 8 84 8q55 0 86 -8v-164q164 -16 319 -88q0 -104 -78 -168q-174 80 -317 80q-82 0 -131 -36t-49 -97q0 -47 33.5 -76 t107.5 -53l199 -74q123 -45 196.5 -127t73.5 -198q0 -139 -97 -228.5t-265 -103.5v-156q-35 -6 -86 -6q-53 0 -84 6v160q-207 29 -342 121z" />
<glyph unicode="%" horiz-adv-x="1857" d="M98 1006q0 231 101 333q82 84 221 84q141 0 223 -84q100 -102 100 -333q0 -236 -100 -336q-84 -86 -223 -86q-137 0 -221 86q-100 100 -101 336zM281 1006q0 -281 141 -281q139 0 139 281q0 279 -139 278q-141 1 -141 -278zM438 0l772 1399q41 12 110 11t97 -11 l-770 -1399q-41 -12 -109.5 -11t-99.5 11zM1114 395q0 233 100 334q84 86 222 86q139 0 223 -86q100 -100 100 -333.5t-100 -336.5q-82 -84 -223 -84q-137 0 -222 84q-100 106 -100 336zM1296 395q0 -281 141.5 -280.5t141.5 280.5q0 279 -141.5 279t-141.5 -279z" />
<glyph unicode="&#x26;" horiz-adv-x="1275" d="M102 369q0 137 79 241.5t192 139.5q-94 31 -152.5 116.5t-58.5 194.5q0 158 115.5 261t312.5 103q207 0 377 -59q0 -104 -58 -168q-172 53 -299 53q-104 0 -163.5 -56t-59.5 -148q0 -100 62.5 -156.5t191.5 -56.5h377q125 0 194 30q29 -35 29 -102q0 -113 -154 -113h-65 q0 -25 1 -68.5t1 -58.5v-213q0 -37 14 -309q-39 -12 -100 -12q-57 0 -98 10l-17 84q-150 -109 -327 -109q-186 0 -290 111t-104 285zM328 379q0 -109 58 -171.5t159 -62.5q154 0 270 97v278q0 82 2 129h-196q-145 0 -219 -78.5t-74 -191.5z" />
<glyph unicode="'" horiz-adv-x="432" d="M88 1440q0 41 14 98q43 27 105 27q63 0 106 -27q14 -57 15 -98q0 -14 -11.5 -70.5t-27 -150t-25.5 -179.5q-20 -10 -56 -10t-56 10q-10 86 -25.5 180.5t-27 151t-11.5 68.5z" />
<glyph unicode="(" horiz-adv-x="679" d="M127 665.5q0 280.5 104.5 565.5t288.5 467q90 -29 127 -115q-291 -378 -291 -917q0 -541 291 -920q-37 -86 -127 -115q-184 182 -288.5 468t-104.5 566.5z" />
<glyph unicode=")" horiz-adv-x="679" d="M33 -254q291 383 291 920q0 535 -291 917q37 86 127 115q184 -180 287.5 -466t103.5 -566q0 -283 -103.5 -568.5t-287.5 -466.5q-90 29 -127 115z" />
<glyph unicode="*" horiz-adv-x="1032" d="M92 1120q-4 35 14.5 91.5t43.5 84.5l106 -36q70 -25 207 -109q-37 143 -37 231l-2 115q33 14 91 14t93 -14l-2 -115q0 -78 -39 -229q139 82 209 107l109 34q23 -25 41 -80t16 -94l-111 -35q-78 -25 -231 -32q117 -96 168 -166l66 -90q-16 -31 -62.5 -66t-85.5 -43l-65 92 q-53 76 -105 209q-51 -135 -104 -207l-66 -94q-37 10 -83 44t-66 65l67 90q47 63 166 166q-152 8 -229 34z" />
<glyph unicode="+" d="M106 602q0 51 9 90h233q14 0 49 -1t52 -1q0 16 -1.5 51.5t-1.5 49.5v251q41 8 97 9q57 0 96 -9v-251q0 -14 -1 -49t-1 -52q14 0 49 1t51 1h234q8 -41 8 -90q0 -57 -8 -92h-234q-16 0 -51 1t-49 1q0 -16 1 -50t1 -48v-254q-39 -8 -94 -8q-57 0 -99 8v254q0 14 1.5 48 t1.5 50q-16 0 -51.5 -1t-49.5 -1h-233q-8 35 -9 92z" />
<glyph unicode="," horiz-adv-x="550" d="M68 -223q72 31 118.5 86t51.5 119q-59 14 -82 28q-18 37 -19 99q0 76 19 104q45 27 125 27q83 0 122 -27q23 -57 23 -135q0 -135 -78 -246t-225 -162q-27 14 -42 44t-13 63z" />
<glyph unicode="-" horiz-adv-x="716" d="M94 545q0 57 10 92h508q10 -35 11 -92q-1 -53 -11 -90h-508q-10 37 -10 90z" />
<glyph unicode="." horiz-adv-x="538" d="M125 113q0 68 18 100q49 29 127 29t125 -29q18 -33 19 -100q0 -66 -19 -103q-39 -27 -125 -26q-80 0 -127 26q-18 37 -18 103z" />
<glyph unicode="/" horiz-adv-x="864" d="M14 -158l648 1717q102 -6 184 -68l-647 -1718q-103 6 -185 69z" />
<glyph unicode="0" d="M94 663.5q0 210.5 31 344t119 227.5q119 119 301 119q178 0 297 -119q88 -94 118.5 -227.5t30.5 -344t-30.5 -344t-118.5 -227.5q-119 -119 -299.5 -119t-298.5 119q-88 94 -119 227.5t-31 344zM317 663.5q0 -348.5 78 -450.5q47 -72 147.5 -72t147.5 72q78 102 78 450.5 t-78 450.5q-47 72 -147.5 72t-147.5 -72q-78 -102 -78 -450.5z" />
<glyph unicode="1" d="M121 934q287 178 383 393q43 10 100 10q55 0 101 -10v-1014q0 -25 -1.5 -69.5t-1.5 -67.5q16 0 62.5 1t58.5 1h142q8 -39 8 -90q0 -49 -8 -88h-772q-8 41 -9 88q0 51 9 90h188q12 0 57 -1t60 -1q0 23 -1 68t-1 69v467q0 33 10 248q-115 -141 -295 -221q-74 41 -90 127z " />
<glyph unicode="2" d="M111 133q0 168 256 389l200 176q154 137 154 277q0 92 -55.5 147.5t-143.5 55.5q-82 0 -145.5 -54.5t-97.5 -140.5q-43 2 -88.5 21.5t-65.5 50.5q45 127 155.5 213t260.5 86q182 0 290.5 -106.5t108.5 -276.5q0 -135 -65.5 -229.5t-190.5 -198.5l-158 -135 q-180 -156 -200 -238q160 16 270 16h377q0 -29 -4 -82q-18 -104 -138 -104h-636q-84 74 -84 133z" />
<glyph unicode="3" d="M98 109q20 86 95 141q137 -102 286 -103q121 0 197 72t76 205q0 111 -62.5 174.5t-169.5 63.5q-76 0 -139 -35q-59 29 -86 114l256 279q104 104 139 133l-6 10q-82 -20 -238 -20h-288q-12 37 -13 80q0 57 19 104h715q45 -86 45 -135q0 -45 -43 -94l-215 -230 q-29 -29 -74 -63q166 -4 273.5 -104.5t107.5 -284.5q0 -209 -138.5 -326t-326.5 -117q-250 0 -410 136z" />
<glyph unicode="4" d="M78 410q0 27 41 129l346 800q45 10 107.5 -1t91.5 -38l-236 -544q-90 -209 -143 -297l6 -8q129 10 233 10h76q-2 23 -2 65v160q0 76 37 120t102 44h58l10 -10v-271q0 -18 -1 -55t-1 -53q16 0 46 1t48 1h109q6 -43 6 -82q0 -53 -15 -98h-100q-18 0 -48 1t-46 1 q0 -18 1 -55t1 -56v-174q-47 -8 -105 -8q-59 0 -102 8v174q0 18 1 55t1 56q-16 0 -54 -2t-57 -2h-362q-49 80 -49 129z" />
<glyph unicode="5" d="M115 104q6 35 32.5 77t57.5 65q141 -98 280 -99q111 0 187 76t76 221q0 141 -74 205t-178 64q-125 0 -232 -88q-29 4 -58.5 25.5t-43.5 45.5l28 617l15 14h694q14 -43 14 -88q0 -94 -94 -94h-354h-78v-103l-8 -143l-6 -53q90 37 180 37q188 0 302 -115t114 -311 q0 -233 -138.5 -358.5t-330.5 -125.5q-233 0 -385 131z" />
<glyph unicode="6" d="M102 670q0 319 136.5 501.5t392.5 182.5q180 0 295 -66q-8 -102 -76 -149q-102 45 -207 45q-156 0 -233.5 -113t-83.5 -301q127 117 295 117q174 0 273 -111.5t99 -333.5q0 -209 -121.5 -339t-314.5 -130q-199 0 -311 131q-71 91 -102 199q-41 147 -42 367zM326 561 q0 -242 82 -348q61 -76 151 -76q104 0 160.5 79t56.5 212q0 281 -209 281q-133 0 -241 -115v-33z" />
<glyph unicode="7" d="M123 1219q0 59 18 108h811q39 -78 39 -133q0 -43 -33 -88l-69 -100q-156 -229 -240 -443.5t-112 -488.5l-7 -74q-47 -10 -110 -10q-55 0 -111 10l8 84q49 483 334 893l23 33q41 63 114 143l-8 8q-84 -18 -311 -18h-336q-10 37 -10 76z" />
<glyph unicode="8" d="M90 334q0 115 67.5 208t172.5 148q-205 111 -205 314q0 152 120 251t296 99q184 0 299.5 -95.5t115.5 -246.5q0 -96 -55 -174t-143 -125q238 -127 235 -363q0 -172 -133 -274.5t-328 -102.5q-201 0 -321.5 95.5t-120.5 265.5zM307 350q0 -104 65.5 -163.5t168.5 -59.5 q100 0 166.5 62.5t66.5 162.5q0 182 -254 260l-35 13h-4q-174 -98 -174 -275zM338 1006q0 -158 237 -222l25 -10q145 84 145 230q0 88 -58 140t-146 52q-86 0 -144.5 -53t-58.5 -137z" />
<glyph unicode="9" d="M92 885q0 209 121.5 339t314.5 130q199 0 312 -131q71 -91 102 -199q41 -147 41 -367q0 -319 -136 -501.5t-392 -182.5q-180 0 -295 66q8 102 76 149q102 -45 206 -45q156 0 234 112t84 300q-129 -115 -295 -115q-174 0 -273.5 112t-99.5 333zM309 899q0 -281 209 -281 q129 0 242 113v35q0 242 -82 348q-61 76 -152 76q-104 0 -160.5 -79t-56.5 -212z" />
<glyph unicode=":" horiz-adv-x="550" d="M131 113q0 68 19 100q51 29 126 29q78 0 125 -29q18 -33 19 -100q0 -66 -19 -103q-41 -27 -125 -26q-80 0 -126 26q-19 37 -19 103zM131 786.5q0 65.5 19 100.5q51 29 126 28q78 0 125 -28q18 -35 18.5 -100.5t-18.5 -102.5q-41 -27 -125 -27q-80 0 -126 27 q-19 37 -19 102.5z" />
<glyph unicode=";" horiz-adv-x="559" d="M66 -223q72 31 118.5 86t51.5 119q-59 14 -82 28q-18 37 -19 99q0 76 19 104q45 27 125 27q81 0 122 -27q23 -57 23 -135q0 -135 -78 -246t-225 -162q-27 14 -42.5 44t-12.5 63zM135 786.5q0 65.5 19 100.5q51 29 127 28q78 0 125 -28q18 -35 18 -100.5t-18 -102.5 q-41 -27 -125 -27q-80 0 -127 27q-19 37 -19 102.5z" />
<glyph unicode="&#x3c;" d="M111 514q-27 96 0 170l755 414q88 -53 99 -166l-486 -256l-151 -70v-12l151 -70l486 -256q-4 -51 -33 -97t-66 -71z" />
<glyph unicode="=" d="M106 406q0 53 9 92h856q8 -39 8 -92q0 -52 -8 -91h-856q-8 39 -9 91zM106.5 799q-0.5 53 8.5 94h856q8 -41 8 -94t-8 -88h-856q-8 35 -8.5 88z" />
<glyph unicode="&#x3e;" d="M121 270l485 254q37 20 152 70v14q-115 49 -152 70l-485 256q4 51 32.5 97t65.5 71l756 -416q27 -94 0 -170l-756 -414q-88 53 -98 168z" />
<glyph unicode="?" horiz-adv-x="811" d="M23 1321q188 104 391 104q174 0 276.5 -95t102.5 -255q0 -248 -267 -397l-129 -70l-16 -209q-37 -12 -78 -12q-47 0 -84 12l-12 306l18 22l99 51q244 123 243 277q0 84 -53 133t-147 49q-119 0 -267 -74q-29 25 -52 70t-25 88zM168 100q0 63 18 97q43 26 115 26 q74 0 117 -26q18 -29 18 -96.5t-18 -94.5q-43 -27 -117 -26q-72 0 -115 26q-18 33 -18 94z" />
<glyph unicode="@" horiz-adv-x="1943" d="M102 461q0 401 254 663t650 262q379 0 615.5 -216t236.5 -576q0 -270 -124 -423t-294 -153t-248 127q-127 -135 -285 -135q-152 0 -238.5 123t-86.5 330q0 227 110.5 374.5t306.5 147.5q209 0 359 -141l-2 -522q0 -141 90 -142q86 0 144.5 101.5t58.5 318.5 q0 285 -175.5 457t-467.5 172q-309 0 -500 -217t-191 -551q0 -328 166 -505t447 -177q231 0 415 76q55 -59 56 -150q-233 -90 -486 -90q-365 0 -588 220t-223 626zM786 469q0 -293 166 -293q51 0 107.5 35t95.5 86v473q-61 61 -156 61q-104 0 -158.5 -102t-54.5 -260z" />
<glyph unicode="A" horiz-adv-x="1251" d="M41 14l463 1385q43 8 125 8t123 -8l458 -1385q-42 -28 -121 -28h-6q-51 0 -79.5 24.5t-49.5 89.5l-75 240q-20 0 -68.5 -1t-54.5 -1h-281q-6 0 -52 1t-67 1l-108 -342q-35 -8 -94 -8q-55 0 -107 14zM412 516q18 0 58 1t46 1h205q4 0 44 -1t58 -1l-94 297 q-72 229 -108 371h-11q-25 -113 -80 -297z" />
<glyph unicode="B" horiz-adv-x="1239" d="M186 12v1374l13 15q23 0 184.5 3t241.5 3q221 0 333.5 -97.5t112.5 -273.5q0 -96 -53 -174t-139 -112q109 -33 184.5 -132.5t75.5 -226.5q0 -180 -122 -289.5t-366 -109.5q-74 0 -148.5 1t-162.5 3t-141 2zM401 156q45 0 128 1t120 1q78 0 134.5 22.5t83 61.5t37.5 77.5 t11 83.5q0 96 -65.5 172t-212.5 76h-236v-495zM401 819h215q131 0 183.5 61.5t52.5 149.5q0 211 -231 211q-154 0 -220 2v-424z" />
<glyph unicode="C" horiz-adv-x="1236" d="M100 692q0 362 159 547.5t403 185.5q221 0 357 -118.5t136 -280.5q0 -123 -123 -123q-37 0 -90 12v15q0 126 -64 220q-68 100 -221 99q-162 0 -244.5 -142t-82.5 -415q0 -252 90 -390t250 -138q178 0 366 155q84 -55 109 -141q-90 -90 -225.5 -147.5t-286.5 -57.5 q-115 0 -206 40t-151.5 108.5t-100.5 162t-57.5 195t-17.5 213.5z" />
<glyph unicode="D" horiz-adv-x="1327" d="M186 12v1374l13 15q178 6 450 6q92 0 193.5 -26.5t163.5 -77.5q127 -104 172 -252t45 -353q0 -207 -44 -353t-173 -251q-61 -51 -163 -77.5t-194 -26.5q-94 0 -450 8zM403 166h246q348 0 348 532q0 106 -12 189.5t-47 167.5t-107.5 130t-181.5 46q-43 0 -120.5 1 t-125.5 1v-1067z" />
<glyph unicode="E" horiz-adv-x="1159" d="M184 133v1253l15 13h823q6 -33 6 -86q0 -55 -16 -99h-486h-129q0 -27 1 -66.5t1 -66.5v-286q27 0 70 1t57 1h385q11 -37 11 -95q0 -52 -11 -86h-385q-80 0 -127 2v-335q0 -18 -1 -51t-1 -54q61 6 135 6h531q0 -55 -6 -84q-18 -102 -139 -102h-609q-57 0 -91 36t-34 99z " />
<glyph unicode="F" horiz-adv-x="1069" d="M186 0v1386l13 13h811q12 -37 12 -86q0 -100 -123 -101h-301q-139 0 -197 2q0 -41 1 -121.5t1 -119.5v-180q31 2 86 2h412q10 -37 10 -90q0 -57 -10 -93h-412h-86v-612q-47 -8 -108 -8q-66 0 -109 8z" />
<glyph unicode="G" horiz-adv-x="1316" d="M100 690q0 188 51.5 333.5t139.5 230.5t193.5 128t222.5 43q279 0 477 -149q-16 -102 -105 -164q-168 127 -372 127q-170 0 -274.5 -133t-104.5 -418q0 -534 390 -534h1q145 0 260 34v230q0 90 4 131h-180q-102 0 -103 96q1 47 17 90l315 2q156 0 156 -143v-533 q-229 -88 -506 -88q-154 0 -269.5 57.5t-182 159t-98.5 226.5t-32 274z" />
<glyph unicode="H" horiz-adv-x="1382" d="M186 0v1399q41 8 107 8q68 0 110 -8v-434q0 -29 -1 -77t-1 -75q10 0 59.5 1t57.5 1h346q8 0 56.5 -1t58.5 -1q0 27 -1 75t-1 77v434q43 8 108 8q68 0 111 -8v-1399q-47 -8 -109 -8q-63 0 -110 8v479q0 29 1 77t1 75q-10 0 -58.5 -1t-56.5 -1h-346q-8 0 -57 1t-60 1 q0 -27 1 -75t1 -77v-479q-43 -8 -110 -8q-66 0 -107 8z" />
<glyph unicode="I" horiz-adv-x="602" d="M193 0v1399q41 8 108 8q66 0 109 -8v-1399q-43 -8 -109 -8q-67 0 -108 8z" />
<glyph unicode="J" horiz-adv-x="917" d="M20 66q16 93 82 163q111 -67 217 -67h3q123 0 171 73.5t48 243.5v920q43 8 110 8q63 0 107 -8v-889q0 -125 -16.5 -212t-59.5 -164t-128 -115.5t-214 -38.5q-180 0 -320 86z" />
<glyph unicode="K" horiz-adv-x="1220" d="M186 0v1399q41 8 107 8q68 0 110 -8v-588l115 4q29 0 44.5 12.5t33.5 44.5l262 445q29 49 54.5 68.5t76.5 19.5q59 0 125 -6l14 -19l-309 -524q-39 -66 -82 -102q96 -18 150.5 -78t97.5 -174l111 -297q41 -107 92 -148q-44 -69 -145 -69h-3q-59 0 -88.5 29.5t-54.5 101.5 l-111 301q-43 115 -98 162t-145 47q-76 0 -140 -4v-625q-43 -8 -110 -8q-66 0 -107 8z" />
<glyph unicode="L" horiz-adv-x="1048" d="M184 133v1262l15 12h82q68 0 95 -33t27 -106v-1088q85 8 183 8h407q0 -45 -6 -86q-18 -104 -141 -104h-535q-57 0 -92 36t-35 99z" />
<glyph unicode="M" horiz-adv-x="1654" d="M152 2l108 1397q49 8 148 8q90 0 137 -8l194 -641q53 -166 82 -326h13q14 100 79 326l195 641q53 8 139 8q94 0 148 -8l108 -1397q-45 -12 -110 -12q-55 0 -99 8l-47 750q-12 164 -16 415h-12l-281 -950q-66 -8 -113 -8t-108 8l-281 950h-12q-10 -309 -16 -415l-50 -750 q-41 -8 -98 -8q-65 0 -108 12z" />
<glyph unicode="N" horiz-adv-x="1392" d="M186 0v1397q57 10 129 10q74 0 131 -8l433 -858q29 -61 75.5 -167t59.5 -130l8 2q-16 262 -16 516v510q0 74 25.5 104.5t90.5 30.5h72l12 -10v-1395q-57 -10 -131 -10t-131 8l-436 858q-66 137 -129 285l-8 -2q18 -317 18 -502v-639q-49 -8 -100 -8q-55 0 -103 8z" />
<glyph unicode="O" horiz-adv-x="1347" d="M100 700q0 414 219 603q138 123 353 123h2q216 0 354 -123q217 -186 217 -603q0 -418 -217 -604q-139 -123 -354 -123t-355 123q-219 188 -219 604zM330 700q0 -82 8 -153.5t30.5 -147t59.5 -129t100.5 -88.5t145.5 -35q102 0 173 49.5t105.5 136.5t49 175t14.5 192.5 t-14.5 192.5t-49 174t-105.5 135t-173.5 49t-174 -49t-106.5 -135t-49 -174.5t-14 -192.5z" />
<glyph unicode="P" horiz-adv-x="1163" d="M186 0v1386l13 15q35 0 187.5 3t234.5 3q213 0 341 -117t128 -340q0 -219 -129.5 -337.5t-339.5 -118.5h-218v-494q-43 -8 -110 -8q-66 0 -107 8zM403 666q43 0 119 1t90 1q137 0 193.5 84t56.5 198q0 53 -11 98.5t-37 89.5t-77 69.5t-125 25.5q-141 0 -209 2v-569z" />
<glyph unicode="Q" horiz-adv-x="1335" d="M100 700q0 420 213 607q134 118 351 118h4q217 0 352 -118q213 -186 213 -607q0 -395 -186 -573q-55 -59 -119 -84l45 -33q92 -68 147.5 -90t112.5 -22q-4 -76 -47 -118t-101 -42q-85 0 -157 55l-234 180h-20q-217 0 -361 119q-213 188 -213 608zM328 700 q0 -548 339 -548h1q338 0 338 548q0 551 -338 551q-340 0 -340 -551z" />
<glyph unicode="R" horiz-adv-x="1228" d="M186 0v1386l13 15q53 0 143 2t163 3t134 1q217 0 341 -109.5t124 -310.5q0 -137 -73 -236.5t-189 -136.5q96 -35 145 -174l90 -239q39 -106 92 -148q-44 -67 -144 -67h-3q-57 0 -87 30.5t-56 102.5l-103 276q-31 82 -75 125t-132 43h-168v-563q-43 -8 -108.5 -8t-106.5 8 zM401 737q160 4 228 4q137 0 193.5 70t56.5 176q0 248 -250 248q-158 0 -228 2v-500z" />
<glyph unicode="S" horiz-adv-x="1138" d="M61 127q10 100 93 168q213 -139 411 -139q121 0 190.5 53t71.5 139q0 141 -186 221l-242 105q-280 121 -280 352q0 172 130 285.5t333 113.5q221 0 434 -106q-4 -100 -80 -170q-193 96 -350 96q-111 0 -178.5 -54t-67.5 -138q0 -63 43 -106.5t127 -78.5l238 -102 q307 -129 307 -381q0 -184 -129 -298t-373 -114q-273 0 -492 154z" />
<glyph unicode="T" horiz-adv-x="1007" d="M27 1306.5q0 49.5 8 92.5h942q12 -49 12 -86q0 -53 -29.5 -76t-93.5 -23h-133q-12 0 -58 1.5t-61 1.5v-1217q-47 -8 -108 -8q-64 0 -111 8v1065q0 27 1 75t1 77h-2q-12 0 -57 -1.5t-59 -1.5h-244q-8 43 -8 92.5z" />
<glyph unicode="U" horiz-adv-x="1370" d="M168 492v903l12 12h84q66 0 93.5 -33t27.5 -106v-776q0 -168 77 -255t222 -87q299 0 299 342v907q43 8 107 8q69 0 112 -8v-907q0 -250 -139 -384.5t-379 -134.5t-378 134.5t-138 384.5z" />
<glyph unicode="V" horiz-adv-x="1177" d="M41 1380q74 33 135 33q88 0 119 -106l211 -740q49 -174 90 -352q6 -20 18 -20l326 1204q39 8 94 8q59 0 99 -12l10 -17l-406 -1380q-106 -8 -167.5 -8t-97.5 21.5t-54 84.5z" />
<glyph unicode="W" horiz-adv-x="1740" d="M61 1386q59 27 121 27q53 0 80 -25.5t37 -91.5l129 -696q45 -258 66 -395q2 -25 18 -25l223 1190q68 10 142 10q82 0 139 -10l205 -1165q4 -25 18 -25q20 143 74 422l157 797q41 8 98.5 8t104.5 -12l10 -15l-292 -1378q-80 -12 -195 -12q-57 0 -90 21.5t-45 84.5l-98 549 q-51 301 -82 506h-15q-41 -258 -90 -506l-125 -645q-88 -10 -188 -10q-59 0 -95.5 21t-48.5 87z" />
<glyph unicode="X" horiz-adv-x="1202" d="M37 25l438 706l-389 635q70 47 143 47q84 0 138 -86l251 -409l293 481q35 10 90 10q70 0 115 -20l6 -15l-393 -635l436 -706q-70 -47 -143 -47q-84 0 -139 88l-297 479l-334 -553q-35 -10 -94 -10q-70 0 -115 20z" />
<glyph unicode="Y" horiz-adv-x="1030" d="M18 1374q70 39 138 39q43 0 69.5 -21.5t46.5 -72.5l162 -393q41 -102 86 -256h10q23 82 91 260l186 469q39 10 92 10q57 0 107 -16l10 -15l-389 -929v-449q-47 -8 -111 -8q-68 0 -108 8v453z" />
<glyph unicode="Z" horiz-adv-x="1150" d="M98 137q0 51 29 94l516 777q20 31 162 217l-6 6q-90 -16 -320 -17h-329q-8 33 -9 74q0 51 17 111h843q31 -104 31 -142q0 -43 -28 -86l-515 -770q-47 -72 -159 -219l6 -6q129 12 246 12h213q164 0 241 39q18 -55 19 -106q0 -121 -152 -121h-778q-27 102 -27 137z" />
<glyph unicode="[" horiz-adv-x="704" d="M203 -293v1950l14 12l416 -14q8 -25 8 -64q0 -35 -16 -90l-209 -6v-1626l209 -6q16 -55 16 -90q0 -39 -8 -64l-416 -14z" />
<glyph unicode="\" horiz-adv-x="864" d="M20 1491q80 61 183 68l647 -1717q-78 -59 -182 -69z" />
<glyph unicode="]" horiz-adv-x="704" d="M63 -227q0 35 17 90l209 6v1626l-209 6q-16 55 -17 90q0 39 9 64l413 14l15 -12v-1950l-15 -12l-413 14q-8 25 -9 64z" />
<glyph unicode="^" d="M90 627l338 700q41 10 114.5 10t114.5 -10l338 -700q-37 -10 -101.5 -10.5t-107.5 10.5l-168 360q-23 53 -69 172h-12q-47 -119 -70 -172l-168 -360q-43 -10 -107.5 -10.5t-101.5 10.5z" />
<glyph unicode="_" d="M-10 -235q0 51 10 83h1085q8 -35 8 -83.5t-8 -81.5h-1085q-10 31 -10 82z" />
<glyph unicode="`" horiz-adv-x="815" d="M131 1374q16 45 58.5 84t89.5 55l294 -325q-29 -68 -92 -86z" />
<glyph unicode="a" horiz-adv-x="1038" d="M88 274q0 168 108.5 254t284.5 86q102 0 197 -14v80q0 182 -168 182q-119 0 -322 -78q-57 53 -61 154q211 94 424 94q158 0 247 -86t89 -256v-420q0 -127 57 -176q-25 -76 -80 -108q-121 23 -164 127q-143 -139 -309 -140q-143 0 -223 90.5t-80 210.5zM299 291 q0 -66 37 -108t100 -42q131 0 242 123v195q-82 8 -184 8q-92 0 -143.5 -46t-51.5 -130z" />
<glyph unicode="b" horiz-adv-x="1081" d="M160 51v1442l12 12h80q63 0 89 -31.5t26 -103.5v-446q123 104 270 104q172 0 263 -139.5t91 -370.5v-8q0 -252 -128 -388q-130 -138 -331 -138q-193 0 -372 67zM367 166q76 -25 168 -25q111 0 176 96.5t65 278.5q0 170 -51 253t-135 83q-123 0 -223 -117v-569z" />
<glyph unicode="c" horiz-adv-x="964" d="M90 500q0 266 125 402t303 136q174 0 272.5 -95t98.5 -214q0 -117 -107 -117q-49 1 -88 9v20q0 233 -179 233h-1q-98 0 -151.5 -95t-53.5 -279q0 -352 232 -353q115 0 247 103q29 -16 55.5 -53t35.5 -72q-152 -152 -371 -152q-209 0 -313.5 148.5t-104.5 378.5z" />
<glyph unicode="d" d="M90 494q0 258 116 396t277 138q111 0 232 -67v532l14 12h80q63 0 88 -30.5t25 -104.5v-1081q0 -143 57 -195q-8 -29 -30.5 -61.5t-47.5 -46.5q-115 20 -162 127q-121 -139 -297 -140q-170 0 -261 141.5t-91 379.5zM305 492q0 -172 53.5 -257t133.5 -85q133 0 223 129v507 q-115 74 -203 74q-90 0 -148.5 -94t-58.5 -274z" />
<glyph unicode="e" horiz-adv-x="1024" d="M90 504q0 238 110.5 386t317.5 148q190 0 298 -123.5t108 -314.5q-1 -82 -15 -162h-602q6 -139 60.5 -216t177.5 -77q135 0 284 78q51 -47 68 -135q-162 -115 -385 -115q-117 0 -202 43t-131 120t-67.5 167t-21.5 201zM307 592h414v26q0 117 -50.5 190t-154.5 73 q-193 0 -209 -289z" />
<glyph unicode="f" horiz-adv-x="681" d="M23 936q0 43 8 78l166 -2q-12 127 -13 182q0 141 84 230t232 89q141 0 262 -47q0 -90 -49 -143q-100 31 -176 31q-72 0 -112 -45t-40 -127q0 -68 14 -172l289 4q8 -35 8 -78q0 -45 -8 -80l-274 4v-860q-43 -8 -104.5 -8t-102.5 8v860l-176 -4q-8 35 -8 80z" />
<glyph unicode="g" horiz-adv-x="1081" d="M90 504q0 256 117 395t274 139q164 0 281 -106q45 74 141 94q25 -16 48.5 -49t29.5 -59q-57 -55 -57 -195v-606q0 -311 -97 -432q-109 -135 -340 -136q-182 0 -354 68q4 98 55 160q133 -63 278 -63q1 -1 2 -1q144 0 198 75q53 75 53 210v94q-120 -110 -270 -110h-3 q-174 0 -265 141t-91 381zM305 502q0 -174 51.5 -259t132.5 -85q129 0 230 121v477v20q-102 92 -205 92q-94 0 -151.5 -93t-57.5 -273z" />
<glyph unicode="h" horiz-adv-x="1114" d="M160 0v1493l12 12h82q63 0 88 -30.5t25 -104.5v-477q150 135 323 135q137 0 205 -92t68 -244v-475q0 -121 32 -186q-57 -45 -131 -45q-61 0 -86.5 33.5t-25.5 101.5v520q0 106 -28 151.5t-101 45.5q-61 0 -132 -35t-124 -92v-711q-39 -8 -105 -8q-61 0 -102 8z" />
<glyph unicode="i" horiz-adv-x="555" d="M66 932q0 31 10 78q68 8 129 8h28q78 0 122 -49t44 -133v-836q-39 -8 -104 -8q-68 0 -107 8v750q0 57 -20.5 81.5t-69.5 24.5h-22q-10 45 -10 76zM124 1292q0 55 19 92q43 25 113 25q74 0 112 -25q18 -37 19 -92q0 -53 -19 -90q-33 -27 -112 -26q-76 0 -113 26 q-19 37 -19 90z" />
<glyph unicode="j" horiz-adv-x="569" d="M55 -319q86 43 117 95t31 158v816q0 57 -19.5 81.5t-68.5 24.5h-41q-11 47 -11 79q0 30 11 75q74 8 149 8h27q76 0 119 -49t43 -133v-799q0 -94 -4.5 -148.5t-19.5 -116t-47 -98t-87 -69.5t-137 -54q-51 49 -62 130zM137 1292q0 55 19 92q43 25 112 25q74 0 113 -25 q18 -37 18 -92q0 -53 -18 -90q-32 -26 -107 -26h-6q-76 0 -112 26q-19 37 -19 90z" />
<glyph unicode="k" horiz-adv-x="1028" d="M160 0v1493l12 12h82q63 0 88 -30.5t25 -104.5v-758l69 4q33 0 49 29l181 283q51 90 137 90q74 0 112 -2l13 -17l-223 -354q-31 -49 -68 -80q127 -32 188 -184l70 -170q47 -125 98 -160q-56 -65 -138 -65h-3q-53 0 -82 27.5t-53 90.5l-82 201q-33 80 -69 107.5t-105 27.5 q-29 0 -94 -4v-436q-39 -8 -105 -8q-61 0 -102 8z" />
<glyph unicode="l" horiz-adv-x="602" d="M156 203v1290l14 12h80q63 0 89 -31.5t26 -103.5v-1120q-1 -92 79 -92h76q18 -51 19 -107q0 -23 -7 -45q-82 -14 -174 -14q-203 0 -202 211z" />
<glyph unicode="m" horiz-adv-x="1632" d="M160 0v1006l12 14h80q111 0 117 -129q143 139 290 139q168 0 234 -151q165 151 324 151h2q129 0 196.5 -90t67.5 -231v-492q0 -125 33 -186q-57 -45 -134 -45q-113 0 -112 135v522q0 104 -30 149.5t-93 45.5q-111 0 -221 -125v-2v-711q-39 -8 -105 -8q-68 0 -106 8v641 q0 104 -30 150.5t-93 46.5q-111 0 -221 -125v-713q-39 -8 -104.5 -8t-106.5 8z" />
<glyph unicode="n" horiz-adv-x="1118" d="M160 0v1008l12 12h80q111 0 117 -127q152 137 325 137q137 0 205 -92t68 -244v-477q0 -123 34 -186q-55 -45 -133 -45q-61 0 -86.5 33.5t-25.5 101.5v520q0 106 -28 151.5t-99 45.5q-63 0 -134 -34t-124 -93v-711q-39 -8 -104.5 -8t-106.5 8z" />
<glyph unicode="o" horiz-adv-x="1064" d="M90 507q0 273 146 419q113 113 295 113q1 -1 2 -1q184 0 296 -112q146 -146 146 -420.5t-146 -419.5q-113 -113 -297 -113t-296 113q-146 145 -146 421zM309 506q0 -371 223 -371q226 0 226 373q0 369 -226 369q-223 0 -223 -371z" />
<glyph unicode="p" d="M160 -428v1436l12 12h66q102 0 124 -105q119 123 281 123q170 0 261 -141t91 -379q0 -258 -115.5 -397t-277.5 -139q-113 0 -233 67v-354q0 -72 -26 -103.5t-89 -31.5h-82zM369 225q110 -73 202 -73h2q90 0 148.5 93t58.5 273q0 172 -53 257t-133 85q-133 0 -225 -133 v-502z" />
<glyph unicode="q" horiz-adv-x="1083" d="M90 504q0 256 117 395t274 139q162 0 281 -104q49 72 139 92q25 -14 48.5 -47t31.5 -61q-57 -51 -57 -195v-1151l-13 -12h-80q-66 0 -90 30.5t-24 104.5v393q-121 -106 -271 -106q-174 0 -265 141t-91 381zM305 502q0 -172 52 -258t132 -86q125 0 228 118v480v22 q-104 90 -203 90q-92 0 -150.5 -93t-58.5 -273z" />
<glyph unicode="r" horiz-adv-x="753" d="M102 913q20 76 78 113q141 -31 187 -182q82 182 268 182q49 0 108 -12q0 -119 -51 -201q-18 6 -84 10q-139 0 -219 -155v-668q-39 -8 -104 -8q-68 0 -107 8v702q0 139 -76 211z" />
<glyph unicode="s" horiz-adv-x="897" d="M63 76q2 35 22.5 79t47.5 68q164 -90 287 -90q84 0 133 35t51 92q0 92 -129 139l-115 43q-260 96 -260 293q0 139 101.5 221t259.5 82q172 0 336 -73q0 -41 -17.5 -86t-46.5 -70q-143 68 -272 68q-68 0 -108 -33t-40 -86q0 -43 30 -72t97 -53l123 -47q260 -98 260 -307 q0 -141 -108.5 -223.5t-282.5 -82.5q-199 1 -369 103z" />
<glyph unicode="t" horiz-adv-x="716" d="M39 936q0 39 8 78l152 -4v180q0 74 24.5 104.5t87.5 30.5h80l15 -14v-303l251 6q10 -35 11 -78q0 -47 -11 -80l-251 4v-612q0 -90 83 -90h142q16 -45 16 -107q0 -31 -4 -45q-119 -14 -229 -14q-215 0 -215 211v655l-152 -2q-8 35 -8 80z" />
<glyph unicode="u" horiz-adv-x="1120" d="M117 979q51 45 133 45q113 0 112 -133v-522q0 -106 27 -151.5t100 -45.5q61 0 131 34t125 91v715q57 8 107 8q45 0 106 -8v-725q0 -143 58 -195q-23 -74 -80 -106q-129 23 -172 147q-159 -151 -340 -151h-2q-135 0 -202.5 91.5t-67.5 243.5v478q0 123 -35 184z" />
<glyph unicode="v" horiz-adv-x="931" d="M12 995q68 31 121 31q92 0 115 -90l137 -451q39 -123 80 -297q4 -16 18 -16l242 840q39 8 80 8q63 0 106 -16l7 -9q-154 -516 -316 -995q-59 -10 -153 -10q-66 0 -98 22.5t-56 93.5z" />
<glyph unicode="w" horiz-adv-x="1480" d="M45 997q63 29 125 29q82 0 98 -86l92 -426q27 -119 68 -340q4 -16 16 -16l172 848q41 10 127 10q88 0 125 -10l168 -832q2 -16 17 -16q29 156 73 356l111 498q33 8 90 8q72 0 107 -16l6 -11l-248 -995q-57 -8 -160 -8q-68 0 -101.5 22.5t-45.5 91.5l-60 285l-77 426h-11 q-33 -184 -84 -424l-82 -391q-78 -10 -170 -10q-59 0 -93 23t-50 93z" />
<glyph unicode="x" horiz-adv-x="942" d="M31 23l321 499l-295 457q66 49 144 49q63 0 108 -63l174 -271l195 318q37 8 86 8q57 0 104 -14l6 -17l-288 -452l329 -504q-76 -49 -145 -49q-66 0 -111 63l-204 313l-222 -362q-25 -8 -88 -8t-108 16z" />
<glyph unicode="y" horiz-adv-x="958" d="M10 -414v10q0 33 12 72q13 45 35 70q72 -27 152 -27q96 0 151.5 63.5t94.5 190.5l6 25q-66 2 -102.5 25.5t-55.5 84.5l-270 895q74 31 129 31q80 0 106 -94l140 -471q20 -66 75 -301q4 -14 19 -15l225 867q35 8 90 8q61 0 111 -14l6 -13l-270 -960 q-74 -256 -169.5 -367.5t-287.5 -111.5q-111 0 -197 32z" />
<glyph unicode="z" horiz-adv-x="913" d="M72 117q-1 39 32 82l334 454q27 37 87.5 110t74.5 89l-6 8q-86 -12 -270 -12h-215q-8 27 -9 67q0 47 13 97h686q30 -89 30 -123q0 -33 -26 -74l-334 -453q-41 -57 -158 -198l6 -8q88 8 189 8h98q156 0 219 29q20 -47 21 -93q0 -100 -133 -100h-611q-29 86 -28 117z" />
<glyph unicode="{" horiz-adv-x="708" d="M78 666.5q0 43.5 8 70.5q74 23 121 87.5t47 152.5v348q0 141 80 227t211 107l106 18q23 -25 34 -69.5t3 -75.5l-100 -33q-119 -37 -119 -176v-342q0 -98 -46 -184t-124 -123v-17q78 -35 124 -120.5t46 -184.5v-344q0 -137 119 -176l100 -31q8 -33 -3 -78t-34 -69l-106 18 q-133 23 -212 108t-79 226v350q0 88 -47 152.5t-121 87.5q-8 27 -8 70.5z" />
<glyph unicode="|" horiz-adv-x="522" d="M162 -289v1874q39 10 100 10q59 0 98 -10v-1874q-41 -8 -98 -8q-59 0 -100 8z" />
<glyph unicode="}" horiz-adv-x="708" d="M20 -199l103 31q117 39 117 176v344q0 98 47 184.5t123 120.5v17q-76 37 -123 123t-47 184v342q0 141 -117 176l-103 33q-8 31 4.5 76t34.5 69l105 -18q131 -20 211 -106.5t80 -227.5v-348q0 -88 47 -152.5t121 -87.5q10 -27 10 -70.5t-10 -70.5q-74 -23 -121 -88.5 t-47 -151.5v-350q0 -141 -79 -226t-212 -108l-105 -18q-23 25 -35 71t-4 76z" />
<glyph unicode="~" horiz-adv-x="1200" d="M82 543l27 47q100 180 282 180q76 0 174 -41l160 -74q63 -25 106 -24q70 0 123 65l39 45q37 -2 75 -25.5t50 -56.5l-26 -47q-100 -180 -283 -180q-78 0 -174 41l-162 74q-51 25 -104 24q-70 0 -123 -65l-39 -45q-37 4 -75 26.5t-50 55.5z" />
<glyph unicode="&#xa1;" horiz-adv-x="589" d="M164 907q0 59 18 97q45 25 117 24q70 0 115 -24q18 -31 18 -97q0 -68 -18 -96q-41 -25 -115 -25q-78 0 -117 25q-18 33 -18 96zM166 -387l51 999q33 10 80 11q51 -1 84 -11l25 -954q-82 -61 -226 -61z" />
<glyph unicode="&#xa2;" horiz-adv-x="958" d="M86 662q0 231 95 363t245 165v205q31 6 84 6q51 0 86 -6v-201q135 -23 210 -111t75 -184q0 -125 -113 -125q-37 0 -82 10q6 104 -36 178t-144 74q-199 0 -199 -374q0 -352 230 -353q121 0 243 105q70 -43 94 -119q-111 -125 -284 -156v-202q-33 -6 -86 -6t-84 6v202 q-174 31 -254 178.5t-80 344.5z" />
<glyph unicode="&#xa3;" horiz-adv-x="1083" d="M113 137q0 51 28 90l33 52q100 145 100 268h-155q-25 78 0 162q18 0 58 -1t61 -1q-6 14 -27 64t-29 73.5t-17 65.5t-9 79q0 141 106.5 253t300.5 112q242 0 408 -152q-4 -43 -37 -84t-74 -55q-135 113 -280 113q-92 0 -151.5 -53.5t-59.5 -145.5q0 -43 9 -84t32.5 -105.5 t29.5 -80.5q51 0 177 1t200 1q25 -80 0 -162q-231 0 -346 2v-4q0 -182 -133 -369l6 -6q188 10 287 10h377q0 -49 -4 -78q-18 -104 -142 -104h-723q-27 104 -26 139z" />
<glyph unicode="&#xa4;" horiz-adv-x="1177" d="M66 279l145 157q-72 107 -72 248q0 139 70 248l-143 158q37 68 114 116l160 -147q109 68 248 67q137 0 246 -67l161 149q72 -39 117 -114l-147 -160q72 -111 71 -250q0 -137 -71 -248l145 -157q-37 -68 -115 -117l-164 149q-102 -66 -243 -65q-139 0 -246 65l-162 -147 q-74 43 -114 115zM354 684q0 -117 62.5 -197.5t171 -80.5t172 80.5t63.5 197.5q0 119 -63.5 200t-172 81t-171 -81t-62.5 -200z" />
<glyph unicode="&#xa5;" horiz-adv-x="1056" d="M49 1307q74 41 139 41q70 0 105 -82l151 -367q33 -74 84 -237h13q49 156 88 239l180 430q47 12 88 12q49 0 104 -14l9 -12l-232 -514h162q8 -39 8 -74q0 -37 -8 -72h-227l-72 -161h299q8 -39 8 -74q0 -37 -8 -72h-309v-350q-47 -8 -105 -8q-63 0 -104 8v350h-309 q-10 45 -10.5 72t10.5 74h299l-72 161h-227q-10 45 -10.5 72t10.5 74h161z" />
<glyph unicode="&#xa6;" horiz-adv-x="509" d="M158 -289v793q35 10 98 10q57 0 98 -10v-793q-43 -8 -98 -8q-59 0 -98 8zM158 793v792q35 10 98 10q57 0 98 -10v-792q-43 -8 -98 -9q-59 1 -98 9z" />
<glyph unicode="&#xa7;" horiz-adv-x="993" d="M66 582q0 92 59 170.5t158 132.5q-141 92 -142 241q0 131 104.5 215t260.5 84q166 0 321 -71q2 -41 -16 -86t-45 -68q-147 63 -256 64q-68 0 -112 -33t-44 -88q0 -80 129 -131l119 -47q156 -63 243 -140t87 -202q0 -184 -217 -304q141 -98 141 -241q0 -131 -106.5 -215 t-274.5 -84q-201 0 -340 86q-2 39 19.5 84t48.5 65q152 -74 276 -73q76 0 120 32.5t44 87.5q0 82 -129 134l-119 47q-156 61 -242.5 138t-86.5 202zM274 614q0 -66 55.5 -108.5t157.5 -81.5l78 -31q156 80 156 197q0 66 -54.5 108.5t-156.5 83.5l-80 31q-156 -80 -156 -199z " />
<glyph unicode="&#xa8;" horiz-adv-x="815" d="M102 1253q0 49 17 82q39 25 98 25t98 -25q16 -39 16.5 -82t-16.5 -79q-39 -25 -98 -25q-63 0 -98 25q-17 32 -17 79zM483 1253q0 43 17 82q39 25 98 25t98 -25q16 -33 16.5 -82t-16.5 -79q-35 -25 -98 -25q-59 0 -98 25q-17 38 -17 79z" />
<glyph unicode="&#xa9;" horiz-adv-x="1642" d="M82 698.5q0 313.5 213 526.5t526 213q311 0 525.5 -213t214.5 -526.5t-213 -525.5t-526.5 -212t-526.5 212t-213 525.5zM260 698.5q0 -245.5 160 -416.5t401.5 -171t402 171t160.5 416.5t-160.5 417.5t-402 172t-401.5 -172t-160 -417.5zM467 698q0 201 106.5 305.5 t253.5 104.5q139 0 221 -77t82 -167q0 -96 -94 -96q-38 0 -69 10q6 78 -30 135.5t-116 57.5q-82 0 -127 -70t-45 -203q0 -127 52.5 -195.5t144.5 -68.5q94 0 201 84q55 -29 75 -102q-53 -53 -137 -88t-166 -35q-172 0 -262 113.5t-90 291.5z" />
<glyph unicode="&#xaa;" horiz-adv-x="868" d="M82 836q0 133 85 198.5t226 65.5q45 0 152 -8v57q0 131 -121 131q-111 0 -258 -57q-51 55 -51 129q174 74 340 73q125 0 197.5 -67.5t72.5 -202.5v-315q0 -103 51 -140q-4 -25 -26.5 -52t-49.5 -42q-94 14 -133 96q-113 -104 -241 -104q-115 0 -179.5 70.5t-64.5 167.5z M260 848q0 -47 30 -79t77 -32q90 0 178 88v142q-94 8 -144 8q-66 0 -103.5 -34t-37.5 -93z" />
<glyph unicode="&#xab;" horiz-adv-x="1142" d="M68 522.5q0 38.5 12 67.5l395 377q37 -10 72 -43t47 -68l-285 -330l295 -340q-12 -35 -48 -67.5t-73 -42.5l-403 379q-12 29 -12 67.5zM532.5 522.5q-0.5 38.5 12.5 67.5l395 377q37 -10 72 -43t47 -68l-285 -330l295 -340q-12 -35 -48 -67.5t-73 -42.5l-403 379 q-12 29 -12.5 67.5z" />
<glyph unicode="&#xac;" d="M96 612q0 52 8 93h852l13 -15v-454q-39 -8 -97 -9q-51 0 -98 9v192q0 14 1 47t1 49q-16 0 -50 -1t-48 -1h-574q-8 35 -8 90z" />
<glyph unicode="&#xad;" horiz-adv-x="716" d="M94 545q0 57 10 92h508q10 -35 11 -92q-1 -53 -11 -90h-508q-10 37 -10 90z" />
<glyph unicode="&#xae;" horiz-adv-x="1214" d="M70 985q0 225 155.5 381t380.5 156t381 -156t156 -381t-156 -380.5t-381 -155.5t-380.5 155.5t-155.5 380.5zM211 985q0 -170 113.5 -288.5t281.5 -118.5q170 0 284 118.5t114 288.5t-114 290t-284 120q-168 0 -281.5 -120t-113.5 -290zM408 735v506l6 6q131 4 204 4 q98 0 147.5 -41.5t49.5 -111.5q0 -102 -102 -135q33 -12 67 -80l27 -54q23 -43 45 -57q-29 -47 -86 -47q-47 0 -76 63l-51 95q-20 41 -61 41h-46v-189q-61 -18 -124 0zM532 1020q27 2 72 2q82 0 82 68q0 66 -76 65h-78v-135z" />
<glyph unicode="&#xaf;" horiz-adv-x="815" d="M111 1262q0 49 10 86h575q8 -39 9 -84q-1 -47 -9 -86h-575q-10 35 -10 84z" />
<glyph unicode="&#xb0;" horiz-adv-x="669" d="M37 1075q0 129 85 215t214 86q127 0 212 -86t85 -215q0 -131 -85 -216t-212 -85q-129 0 -214 85t-85 216zM199 1075.5q0 -69.5 36.5 -113.5t100.5 -44q61 0 98 44t37 113q0 68 -37 112t-98 44q-63 0 -100 -43t-37 -112.5z" />
<glyph unicode="&#xb1;" d="M129 88q0 45 8 88h811q8 -43 8 -88q0 -47 -8 -88h-811q-8 41 -8 88zM129 707q0 45 8 86h215q14 0 47 -1t50 -1q0 16 -1.5 51t-1.5 51v209q41 8 97 8q57 0 96 -8v-209q0 -16 -1 -51t-1 -51q14 0 47 1t49 1h215q8 -41 8 -86q0 -47 -8 -86h-215q-16 0 -49 1t-47 1 q0 -16 1 -51t1 -50v-211q-39 -8 -96 -8q-55 0 -97 8v211q0 14 1.5 49t1.5 52q-16 0 -49 -1t-48 -1h-215q-8 39 -8 86z" />
<glyph unicode="&#xb2;" horiz-adv-x="860" d="M113 803q0 111 155 237l150 123q90 70 90 150q0 47 -31 77.5t-78 30.5q-92 0 -137 -114q-37 4 -79 22.5t-58 40.5q29 92 105.5 152.5t183.5 60.5q129 0 207.5 -75.5t78.5 -186.5q0 -90 -42 -154.5t-126 -130.5l-114 -90q-88 -66 -113 -106q102 16 174 16h244 q0 -57 -2 -78q-16 -86 -103 -86h-446q-59 78 -59 111z" />
<glyph unicode="&#xb3;" horiz-adv-x="860" d="M104 774q12 74 72 125q100 -68 191 -68q74 0 118.5 38t44.5 106q0 61 -36.5 101t-102.5 40q-47 0 -84 -18q-23 10 -44 37.5t-27 58.5l161 162q37 37 80 65l-4 6q-47 -10 -162 -10h-164q-10 29 -10 72q0 47 13 80h499q33 -66 33 -101q0 -42 -35 -75l-119 -117 q-20 -20 -59 -45q104 0 176 -72t72 -188q0 -135 -96.5 -211t-227.5 -76q-174 0 -289 90z" />
<glyph unicode="&#xb4;" horiz-adv-x="815" d="M252 1188l295 325q47 -16 90 -55t59 -84l-350 -272q-29 8 -55.5 32.5t-38.5 53.5z" />
<glyph unicode="&#xb6;" horiz-adv-x="1374" d="M86 965q0 221 129 332.5t342 111.5q53 0 234 -8l12 -12v-1229q0 -135 -18.5 -220t-73.5 -147q-100 -113 -301 -112q-141 0 -267 49q0 96 52 161q117 -43 196 -43q104 0 154 64q43 55 43 211v391h-39q-207 0 -335 117t-128 334zM936 -272v1658l12 13h369q10 -33 10 -94.5 t-10 -92.5h-80q-57 0 -84 2v-1486q-47 -8 -109 -9q-65 1 -108 9z" />
<glyph unicode="&#xb7;" horiz-adv-x="624" d="M176 581.5q0 65.5 19 100.5q47 29 118 29q74 0 117 -29q18 -35 18.5 -100.5t-18.5 -102.5q-37 -27 -117 -26q-76 0 -118 26q-19 37 -19 102.5z" />
<glyph unicode="&#xb8;" horiz-adv-x="815" d="M231 -416q2 55 43 107q47 -29 103 -29q45 0 68.5 22.5t23.5 57.5t-23.5 57.5t-64.5 22.5q-23 0 -47 -10q-25 9 -37 36q27 90 53 152h133q-29 -57 -34 -76q86 -4 138 -53t52 -125q0 -90 -69.5 -146.5t-176.5 -56.5q-98 0 -162 41z" />
<glyph unicode="&#xb9;" horiz-adv-x="860" d="M121 1286q104 59 166.5 125t103.5 156q39 10 88 10q39 0 82 -10v-715h170q8 -31 8 -78q0 -43 -8 -78h-555q-8 39 -8 78q0 47 8 78h209v326q0 18 3 68t3 65q-59 -82 -190 -140q-66 33 -80 115z" />
<glyph unicode="&#xba;" horiz-adv-x="845" d="M74 1014q0 205 114 327q90 84 234 84q145 0 235 -84q115 -122 115 -327q0 -211 -115 -332q-90 -84 -235 -84q-143 0 -234 84q-115 121 -114 332zM256 1014q0 -272 168 -273q164 0 164 273q0 270 -164 270q-88 0 -128 -75.5t-40 -194.5z" />
<glyph unicode="&#xbb;" horiz-adv-x="1142" d="M74 856q12 33 49 66.5t72 44.5l405 -379q27 -68 0 -133l-397 -379q-35 10 -70 43.5t-47 68.5l283 330zM539 856q12 33 49 66.5t71 44.5l406 -379q27 -68 0 -133l-397 -379q-35 10 -70 43.5t-47 68.5l283 330z" />
<glyph unicode="&#xbc;" horiz-adv-x="1937" d="M72 1118q104 59 166.5 125t103.5 156q39 10 88 10q39 0 82 -10v-715h170q8 -31 8 -78q0 -43 -8 -78h-555q-8 39 -8 78q0 47 8 78h209v326q0 18 3 68t3 65q-59 -82 -190 -139q-66 32 -80 114zM553 0l770 1399q41 12 109.5 11t99.5 -11l-772 -1399q-41 -12 -109.5 -11 t-97.5 11zM1184 272q0 33 30 95l240 518q43 4 94 -7.5t78 -33.5l-156 -336q-66 -139 -104 -191l4 -4q51 4 146 4h36q-2 16 -2 50v67q0 59 33 94t86 35h51l6 -6v-135q0 -14 -1 -53t-1 -52h125q6 -27 6 -61q0 -55 -14 -90h-117v-160q-33 -8 -84 -8t-90 8v86q0 12 1 37t1 37 q-14 0 -41.5 -1t-42.5 -1h-243q-41 66 -41 108z" />
<glyph unicode="&#xbd;" horiz-adv-x="1937" d="M72 1118q104 59 166.5 125t103.5 156q39 10 88 10q39 0 82 -10v-715h170q8 -31 8 -78q0 -43 -8 -78h-555q-8 39 -8 78q0 47 8 78h209v326q0 18 3 68t3 65q-59 -82 -190 -139q-66 32 -80 114zM522 0l770 1399q41 12 109.5 11t99.5 -11l-772 -1399q-41 -12 -109.5 -11 t-97.5 11zM1227 111q0 111 155 237l150 123q90 70 90 150q0 47 -30.5 77.5t-78.5 30.5q-92 0 -137 -115q-37 4 -79 22.5t-58 41.5q29 92 105.5 152.5t183.5 60.5q129 0 208 -76t79 -186q0 -90 -42 -154.5t-126 -130.5l-115 -90q-88 -66 -113 -107q102 16 174 17h244 q0 -57 -2 -78q-16 -86 -102 -86h-447q-59 78 -59 111z" />
<glyph unicode="&#xbe;" horiz-adv-x="1937" d="M102 608q12 74 72 125q100 -68 191 -67q74 0 118.5 37.5t44.5 105.5q0 61 -36.5 101t-102.5 40q-47 0 -84 -18q-23 10 -44 37.5t-28 58.5l162 162q37 37 80 65l-4 7q-45 -10 -162 -11h-164q-10 29 -10 72q0 47 12 80h500q33 -66 33 -100q0 -43 -35 -76l-119 -117 q-20 -20 -59 -45q104 0 176 -71.5t72 -188.5q0 -135 -96.5 -211t-227.5 -76q-174 0 -289 90zM522 0l770 1399q41 12 109.5 11t99.5 -11l-772 -1399q-41 -12 -109.5 -11t-97.5 11zM1174 272q0 33 30 95l240 518q43 4 94 -7.5t78 -33.5l-156 -336q-66 -139 -104 -191l4 -4 q51 4 145 4h37q-2 16 -2 50v67q0 59 33 94t86 35h51l6 -6v-135q0 -14 -1 -53t-1 -52h125q6 -27 6 -61q0 -55 -14 -90h-117v-160q-33 -8 -84 -8t-90 8v86q0 12 1 37t1 37q-14 0 -41.5 -1t-42.5 -1h-244q-41 66 -40 108z" />
<glyph unicode="&#xbf;" horiz-adv-x="811" d="M23 -68q0 246 268 398l127 71l16 207q29 12 80 13q55 0 84 -13l12 -305l-18 -22l-100 -50q-242 -127 -242 -278q0 -82 53 -132t148 -50q123 0 266 75q29 -25 52.5 -71.5t25.5 -87.5q-195 -104 -392 -105q-174 0 -277 95.5t-103 254.5zM381 907q0 66 18 97q45 25 115 24 q68 0 117 -24q16 -33 16 -97q0 -68 -16 -96q-43 -25 -117 -25q-76 0 -115 25q-18 29 -18 96z" />
<glyph unicode="&#xc0;" horiz-adv-x="1251" d="M41 14l463 1385q43 8 125 8t123 -8l458 -1385q-43 -29 -127 -28q-51 0 -79.5 24.5t-49.5 89.5l-75 240q-20 0 -68.5 -1t-54.5 -1h-281q-6 0 -52 1t-67 1l-108 -342q-35 -8 -94 -8q-55 0 -107 14zM352 1675q6 49 34.5 99t59.5 73l416 -245q-16 -80 -63 -111zM412 516 q18 0 58 1t46 1h205q4 0 44 -1t58 -1l-94 297q-72 229 -108 371h-11q-25 -113 -80 -297z" />
<glyph unicode="&#xc1;" horiz-adv-x="1251" d="M41 14l463 1385q43 8 125 8t123 -8l458 -1385q-43 -29 -127 -28q-51 0 -79.5 24.5t-49.5 89.5l-75 240q-20 0 -68.5 -1t-54.5 -1h-281q-6 0 -52 1t-67 1l-108 -342q-35 -8 -94 -8q-55 0 -107 14zM412 516q18 0 58 1t46 1h205q4 0 44 -1t58 -1l-94 297q-72 229 -108 371 h-11q-25 -113 -80 -297zM422 1602l416 245q31 -23 59.5 -73t34.5 -99l-447 -184q-23 14 -41 47t-22 64z" />
<glyph unicode="&#xc2;" horiz-adv-x="1251" d="M41 14l463 1385q43 8 125 8t123 -8l458 -1385q-43 -29 -127 -28q-51 0 -79.5 24.5t-49.5 89.5l-75 240q-20 0 -68.5 -1t-54.5 -1h-281q-6 0 -52 1t-67 1l-108 -342q-35 -8 -94 -8q-55 0 -107 14zM299 1587l233 232q96 18 189 0l229 -217q-10 -33 -37.5 -59t-54.5 -34 l-231 154l-236 -170q-27 10 -55.5 38t-36.5 56zM412 516q18 0 58 1t46 1h205q4 0 44 -1t58 -1l-94 297q-72 229 -108 371h-11q-25 -113 -80 -297z" />
<glyph unicode="&#xc3;" horiz-adv-x="1251" d="M41 14l463 1385q43 8 125 8t123 -8l458 -1385q-43 -29 -127 -28q-51 0 -79.5 24.5t-49.5 89.5l-75 240q-20 0 -68.5 -1t-54.5 -1h-281q-6 0 -52 1t-67 1l-108 -342q-35 -8 -94 -8q-55 0 -107 14zM258 1606l18 41q29 68 85.5 108.5t123.5 40.5q55 0 121 -33l115 -53 q33 -18 67 -18q41 0 80 51l25 29q76 -4 106 -66l-18 -39q-68 -150 -209 -149q-51 -1 -121 30l-114 56q-41 18 -68 18q-43 0 -80 -51l-24 -29q-31 0 -63 18.5t-44 45.5zM412 516q18 0 58 1t46 1h205q4 0 44 -1t58 -1l-94 297q-72 229 -108 371h-11q-25 -113 -80 -297z" />
<glyph unicode="&#xc4;" horiz-adv-x="1251" d="M41 14l463 1385q43 8 125 8t123 -8l458 -1385q-43 -29 -127 -28q-51 0 -79.5 24.5t-49.5 89.5l-75 240q-20 0 -68.5 -1t-54.5 -1h-281q-6 0 -52 1t-67 1l-108 -342q-35 -8 -94 -8q-55 0 -107 14zM295 1618q0 45 18 82q40 24 99 24q61 0 100 -24q20 -31 20 -82 q0 -55 -20 -86q-33 -25 -100 -25q-63 0 -99 25q-18 37 -18 86zM412 516q18 0 58 1t46 1h205q4 0 44 -1t58 -1l-94 297q-72 229 -108 371h-11q-25 -113 -80 -297zM725 1618q0 51 20 82q40 24 101 24q55 0 98 -24q18 -37 19 -82q0 -49 -19 -86q-37 -25 -98 -25q-68 0 -101 25 q-20 31 -20 86z" />
<glyph unicode="&#xc5;" horiz-adv-x="1251" d="M41 14l461 1381q-121 66 -121 204q0 96 69.5 164t178.5 68q106 0 177 -67.5t71 -164.5q0 -141 -125 -204l458 -1381q-43 -29 -127 -28q-51 0 -79.5 24.5t-49.5 89.5l-75 240q-20 0 -68.5 -1t-54.5 -1h-281q-6 0 -52 1t-67 1l-108 -342q-35 -8 -94 -8q-55 0 -107 14z M412 516q18 0 58 1t46 1h205q4 0 44 -1t58 -1l-94 297q-72 229 -108 371h-11q-25 -113 -80 -297zM524 1599q0 -49 30 -80.5t75 -31.5t73.5 31.5t28.5 80.5q0 47 -28.5 79t-73.5 32t-75 -32t-30 -79z" />
<glyph unicode="&#xc6;" horiz-adv-x="1794" d="M31 16l671 1362q43 20 132 21h823q8 -43 8 -86q0 -49 -18 -99h-488h-129q0 -27 1 -66.5t1 -66.5v-286q25 0 70 1t57 1h387q10 -35 10 -90.5t-10 -90.5h-387q-80 0 -127 2v-333q0 -18 -1 -52t-1 -55q59 6 135 6h533q0 -55 -6 -84q-14 -102 -140 -102h-608q-57 0 -90 36 t-33 99v207q-20 0 -63 -1t-49 -1h-183q-6 0 -48 1t-60 1l-166 -342q-41 -8 -107 -8q-55 0 -106 14zM502 516q18 0 49 1t35 1h125q4 0 47 -1t63 -1v668h-10q-70 -172 -129 -297z" />
<glyph unicode="&#xc7;" horiz-adv-x="1236" d="M100 692q0 362 159 547.5t403 185.5q221 0 357 -118.5t136 -280.5q0 -123 -123 -123q-37 0 -90 12q4 135 -64.5 234.5t-220.5 99.5q-162 0 -244.5 -142t-82.5 -415q0 -252 90 -390t250 -138q178 0 366 155q84 -55 109 -141q-170 -170 -434 -201q-18 -37 -23 -53 q86 -4 138.5 -53t52.5 -125q0 -90 -70 -146.5t-176 -56.5q-98 0 -162 41q2 55 43 107q43 -29 102 -29q45 0 69 22.5t24 57.5t-23.5 57.5t-64.5 22.5q-27 0 -48 -10q-24 9 -36 36q20 70 43 129q-127 10 -222.5 75t-149.5 166t-81 220t-27 254z" />
<glyph unicode="&#xc8;" horiz-adv-x="1159" d="M184 133v1253l15 13h823q6 -33 6 -86q0 -55 -16 -99h-486h-129q0 -27 1 -66.5t1 -66.5v-286q27 0 70 1t57 1h385q10 -35 10.5 -90.5t-10.5 -90.5h-385q-80 0 -127 2v-335q0 -18 -1 -51t-1 -54q61 6 135 6h531q0 -55 -6 -84q-18 -102 -139 -102h-609q-57 0 -91 36t-34 99z M336 1675q6 49 34.5 99t59.5 73l416 -245q-16 -80 -64 -111z" />
<glyph unicode="&#xc9;" horiz-adv-x="1159" d="M184 133v1253l15 13h823q6 -33 6 -86q0 -55 -16 -99h-486h-129q0 -27 1 -66.5t1 -66.5v-286q27 0 70 1t57 1h385q10 -35 10.5 -90.5t-10.5 -90.5h-385q-80 0 -127 2v-335q0 -18 -1 -51t-1 -54q61 6 135 6h531q0 -55 -6 -84q-18 -102 -139 -102h-609q-57 0 -91 36t-34 99z M406 1602l415 245q31 -23 59.5 -73t34.5 -99l-446 -184q-23 14 -41 47t-22 64z" />
<glyph unicode="&#xca;" horiz-adv-x="1159" d="M184 133v1253l15 13h823q6 -33 6 -86q0 -55 -16 -99h-486h-129q0 -27 1 -66.5t1 -66.5v-286q27 0 70 1t57 1h385q10 -35 10.5 -90.5t-10.5 -90.5h-385q-80 0 -127 2v-335q0 -18 -1 -51t-1 -54q61 6 135 6h531q0 -55 -6 -84q-18 -102 -139 -102h-609q-57 0 -91 36t-34 99z M283 1587l233 232q96 18 189 0l229 -217q-10 -33 -37.5 -59t-54.5 -34l-232 154l-235 -170q-27 10 -55.5 38t-36.5 56z" />
<glyph unicode="&#xcb;" horiz-adv-x="1159" d="M184 133v1253l15 13h823q6 -33 6 -86q0 -55 -16 -99h-486h-129q0 -27 1 -66.5t1 -66.5v-286q27 0 70 1t57 1h385q10 -35 10.5 -90.5t-10.5 -90.5h-385q-80 0 -127 2v-335q0 -18 -1 -51t-1 -54q61 6 135 6h531q0 -55 -6 -84q-18 -102 -139 -102h-609q-57 0 -91 36t-34 99z M279 1618q0 45 18 82q39 24 98 24q61 0 101 -24q20 -31 20 -82q0 -55 -20 -86q-33 -25 -101 -25q-63 0 -98 25q-18 37 -18 86zM709 1618q0 51 20 82q39 24 100 24q55 0 99 -24q18 -37 18 -82q0 -49 -18 -86q-37 -25 -99 -25q-68 0 -100 25q-20 31 -20 86z" />
<glyph unicode="&#xcc;" horiz-adv-x="602" d="M25 1675q6 49 34.5 99t59.5 73l416 -245q-16 -80 -64 -111zM193 0v1399q41 8 108 8q66 0 109 -8v-1399q-43 -8 -109 -8q-67 0 -108 8z" />
<glyph unicode="&#xcd;" horiz-adv-x="602" d="M94 1602l416 245q31 -23 59.5 -73t34.5 -99l-446 -184q-23 14 -41.5 47t-22.5 64zM193 0v1399q41 8 108 8q66 0 109 -8v-1399q-43 -8 -109 -8q-67 0 -108 8z" />
<glyph unicode="&#xce;" horiz-adv-x="602" d="M-29 1587l234 232q96 18 188 0l230 -217q-10 -33 -38 -59t-55 -34l-231 154l-236 -170q-27 10 -55 38t-37 56zM193 0v1399q41 8 108 8q66 0 109 -8v-1399q-43 -8 -109 -8q-67 0 -108 8z" />
<glyph unicode="&#xcf;" horiz-adv-x="602" d="M-33 1618q0 45 19 82q39 24 98 24q61 0 100 -24q20 -31 21 -82q0 -55 -21 -86q-33 -25 -100 -25q-63 0 -98 25q-18 37 -19 86zM193 0v1399q41 8 108 8q66 0 109 -8v-1399q-43 -8 -109 -8q-67 0 -108 8zM397 1618q0 51 21 82q39 24 100 24q55 0 98 -24q18 -37 19 -82 q0 -49 -19 -86q-37 -25 -98 -25q-68 0 -100 25q-20 31 -21 86z" />
<glyph unicode="&#xd0;" horiz-adv-x="1359" d="M51 706.5q0 53.5 8 92.5h158v587l14 15q178 6 451 6q92 0 192.5 -26.5t163.5 -77.5q127 -104 172 -252t45 -351q0 -207 -45 -354t-172 -252q-63 -51 -163.5 -77.5t-192.5 -26.5q-94 0 -451 8l-14 14v606h-158q-8 35 -8 88.5zM432 166h250q109 0 181.5 47t106.5 131 t46 167t12 189q0 82 -6 150t-28.5 141.5t-58.5 123.5t-100.5 83t-152.5 33q-43 0 -123 1t-127 1v-434h316q10 -47 10 -90q0 -46 -10 -91h-316v-452z" />
<glyph unicode="&#xd1;" horiz-adv-x="1392" d="M186 0v1397q57 10 129 10q74 0 131 -8l433 -858q29 -61 75.5 -167t59.5 -130l8 2q-16 262 -16 516v510q0 74 25.5 104.5t90.5 30.5h72l12 -10v-1395q-57 -10 -131 -10t-131 8l-436 858q-66 137 -129 285l-8 -2q18 -317 18 -502v-639q-49 -8 -100 -8q-55 0 -103 8z M332 1606l18 41q29 68 85.5 108.5t123.5 40.5q55 0 121 -33l115 -53q33 -18 67 -18q41 0 80 51l25 29q76 -4 106 -66l-18 -39q-68 -150 -209 -149q-51 -1 -121 30l-115 56q-41 18 -67 18q-43 0 -80 -51l-25 -29q-31 0 -62.5 18.5t-43.5 45.5z" />
<glyph unicode="&#xd2;" horiz-adv-x="1347" d="M100 700q0 414 219 603q139 123 354.5 122.5t354.5 -122.5q217 -186 217 -603q0 -418 -217 -604q-139 -123 -354 -123t-355 123q-219 188 -219 604zM330 700q0 -82 8 -153.5t30.5 -147t59.5 -129t100.5 -88.5t145.5 -35q102 0 173 49.5t105.5 136.5t49 175t14.5 192.5 t-14.5 192.5t-49 174t-105.5 135t-173.5 49t-174 -49t-106.5 -135t-49 -174.5t-14 -192.5zM397 1675q6 49 35 99t60 73l415 -245q-16 -80 -63 -111z" />
<glyph unicode="&#xd3;" horiz-adv-x="1347" d="M100 700q0 414 219 603q139 123 354.5 122.5t354.5 -122.5q217 -186 217 -603q0 -418 -217 -604q-139 -123 -354 -123t-355 123q-219 188 -219 604zM330 700q0 -82 8 -153.5t30.5 -147t59.5 -129t100.5 -88.5t145.5 -35q102 0 173 49.5t105.5 136.5t49 175t14.5 192.5 t-14.5 192.5t-49 174t-105.5 135t-173.5 49t-174 -49t-106.5 -135t-49 -174.5t-14 -192.5zM467 1602l416 245q31 -23 59.5 -73t34.5 -99l-447 -184q-23 14 -41 47t-22 64z" />
<glyph unicode="&#xd4;" horiz-adv-x="1347" d="M100 700q0 414 219 603q139 123 354.5 122.5t354.5 -122.5q217 -186 217 -603q0 -418 -217 -604q-139 -123 -354 -123t-355 123q-219 188 -219 604zM330 700q0 -82 8 -153.5t30.5 -147t59.5 -129t100.5 -88.5t145.5 -35q102 0 173 49.5t105.5 136.5t49 175t14.5 192.5 t-14.5 192.5t-49 174t-105.5 135t-173.5 49t-174 -49t-106.5 -135t-49 -174.5t-14 -192.5zM344 1587l234 232q96 18 188 0l229 -217q-10 -33 -37.5 -59t-54.5 -34l-231 154l-236 -170q-27 10 -55.5 38t-36.5 56z" />
<glyph unicode="&#xd5;" horiz-adv-x="1347" d="M100 700q0 414 219 603q139 123 354.5 122.5t354.5 -122.5q217 -186 217 -603q0 -418 -217 -604q-139 -123 -354 -123t-355 123q-219 188 -219 604zM303 1618l19 41q70 147 206 147q57 0 119 -30l115 -56q33 -18 65 -18q39 0 80 51l23 29q33 0 63.5 -18.5t42.5 -45.5 l-18 -41q-33 -70 -88.5 -108.5t-118.5 -38.5q-53 0 -119 31l-112 53q-33 18 -68 18q-41 0 -80 -49l-22 -29q-31 0 -63 18.5t-44 45.5zM330 700q0 -82 8 -153.5t30.5 -147t59.5 -129t100.5 -88.5t145.5 -35q102 0 173 49.5t105.5 136.5t49 175t14.5 192.5t-14.5 192.5 t-49 174t-105.5 135t-173.5 49t-174 -49t-106.5 -135t-49 -174.5t-14 -192.5z" />
<glyph unicode="&#xd6;" horiz-adv-x="1347" d="M100 700q0 414 219 603q139 123 354.5 122.5t354.5 -122.5q217 -186 217 -603q0 -418 -217 -604q-139 -123 -354 -123t-355 123q-219 188 -219 604zM330 700q0 -82 8 -153.5t30.5 -147t59.5 -129t100.5 -88.5t145.5 -35q102 0 173 49.5t105.5 136.5t49 175t14.5 192.5 t-14.5 192.5t-49 174t-105.5 135t-173.5 49t-174 -49t-106.5 -135t-49 -174.5t-14 -192.5zM340 1618q0 45 18 82q40 24 99 24q61 0 100 -24q20 -31 21 -82q0 -55 -21 -86q-33 -25 -100 -25q-63 0 -99 25q-18 37 -18 86zM770 1618q0 51 21 82q39 24 100 24q55 0 98 -24 q18 -37 19 -82q0 -49 -19 -86q-37 -25 -98 -25q-68 0 -100 25q-20 31 -21 86z" />
<glyph unicode="&#xd7;" d="M147 338l203 201l62 61l-62 64l-203 200q20 47 54 80q35 35 78 53l202 -202q55 -61 60 -66l63 64l201 204q43 -18 78 -53q34 -34 55 -80l-203 -200q-10 -12 -34.5 -35t-30.5 -29q61 -55 65 -59l203 -203q-20 -47 -53 -78q-39 -39 -80 -53l-201 203l-63 61l-60 -61 l-202 -205q-35 16 -78 55q-37 37 -54 78z" />
<glyph unicode="&#xd8;" horiz-adv-x="1349" d="M100 700q0 182 53.5 343t165.5 260q143 123 357 122q154 0 258 -57l82 141q37 -4 79 -26.5t64 -50.5l-94 -164q184 -199 184 -568q0 -182 -53 -343.5t-166 -260.5q-139 -123 -354 -123q-147 0 -262 58l-78 -140q-37 4 -79 27t-64 51l90 162q-183 198 -183 569zM324 700 q0 -231 65 -370l457 876q-72 49 -170 49q-102 0 -176 -50t-110 -136t-51 -175.5t-15 -193.5zM502 193q76 -49 174 -50q102 0 174 50.5t107.5 136.5t51 176t15.5 194q0 223 -66 369z" />
<glyph unicode="&#xd9;" horiz-adv-x="1370" d="M168 492v903l12 12h84q66 0 93.5 -33t27.5 -106v-776q0 -168 77 -255t222 -87q299 0 299 342v907q43 8 107 8q69 0 112 -8v-907q0 -250 -139 -384.5t-379 -134.5t-378 134.5t-138 384.5zM406 1675q6 49 34.5 99t59.5 73l415 -245q-16 -80 -63 -111z" />
<glyph unicode="&#xda;" horiz-adv-x="1370" d="M168 492v903l12 12h84q66 0 93.5 -33t27.5 -106v-776q0 -168 77 -255t222 -87q299 0 299 342v907q43 8 107 8q69 0 112 -8v-907q0 -250 -139 -384.5t-379 -134.5t-378 134.5t-138 384.5zM475 1602l416 245q31 -23 59.5 -73t34.5 -99l-446 -184q-23 14 -41.5 47t-22.5 64z " />
<glyph unicode="&#xdb;" horiz-adv-x="1370" d="M168 492v903l12 12h84q66 0 93.5 -33t27.5 -106v-776q0 -168 77 -255t222 -87q299 0 299 342v907q43 8 107 8q69 0 112 -8v-907q0 -250 -139 -384.5t-379 -134.5t-378 134.5t-138 384.5zM352 1587l234 232q96 18 188 0l230 -217q-10 -33 -38 -59t-55 -34l-231 154 l-236 -170q-27 10 -55.5 38t-36.5 56z" />
<glyph unicode="&#xdc;" horiz-adv-x="1370" d="M168 492v903l12 12h84q66 0 93.5 -33t27.5 -106v-776q0 -168 77 -255t222 -87q299 0 299 342v907q43 8 107 8q69 0 112 -8v-907q0 -250 -139 -384.5t-379 -134.5t-378 134.5t-138 384.5zM348 1618q0 45 19 82q39 24 98 24q61 0 100 -24q20 -31 21 -82q0 -55 -21 -86 q-33 -25 -100 -25q-63 0 -98 25q-18 37 -19 86zM778 1618q0 51 21 82q39 24 100 24q55 0 98 -24q18 -37 19 -82q0 -49 -19 -86q-37 -25 -98 -25q-68 0 -100 25q-20 31 -21 86z" />
<glyph unicode="&#xdd;" horiz-adv-x="1021" d="M12 1374q70 39 138 39q43 0 69.5 -21.5t46.5 -72.5l162 -393q41 -102 86 -256h10q22 82 90 260l187 469q39 10 92 10q57 0 106 -16l11 -15l-389 -929v-449q-47 -8 -111 -8q-68 0 -109 8v453zM311 1602l416 245q31 -23 59.5 -73t34.5 -99l-446 -184q-23 14 -41.5 47 t-22.5 64z" />
<glyph unicode="&#xde;" horiz-adv-x="1169" d="M186 0v1399q41 8 107 8q68 0 110 -8v-209q139 4 213 4q213 0 342 -113.5t129 -335.5q0 -217 -129 -332.5t-342 -115.5h-213v-297q-43 -8 -110 -8q-66 0 -107 8zM403 469q43 0 117 1t88 1q139 0 195.5 81t56.5 193q0 115 -56.5 195t-195.5 80q-127 0 -205 2v-553z" />
<glyph unicode="&#xdf;" horiz-adv-x="1284" d="M31 885q0 49 8 84l176 -4v71q0 188 122 292t326.5 104t326.5 -111t122 -297q0 -78 -31 -160h-4l4 -2q-84 -20 -126 -63t-42 -86q0 -51 76 -117l76 -68q152 -135 152 -266q0 -129 -103.5 -209t-271.5 -80q-141 0 -260 60q2 37 21.5 82t47.5 69q88 -47 174 -47q72 0 119 35 t47 88q0 68 -82 139l-84 72q-135 119 -135 227q0 74 54.5 140.5t146.5 103.5q8 45 8 72q0 109 -61.5 181.5t-175.5 72.5q-231 0 -232 -254v-1014q-43 -8 -108.5 -8t-106.5 8v801l-176 -2q-8 33 -8 86z" />
<glyph unicode="&#xe0;" horiz-adv-x="1038" d="M88 274q0 168 108.5 254t284.5 86q102 0 197 -14v80q0 182 -168 182q-119 0 -322 -78q-57 53 -61 154q211 94 424 94q158 0 247 -86t89 -256v-420q0 -127 57 -176q-25 -76 -80 -108q-121 23 -164 127q-143 -139 -309 -140q-143 0 -223 90.5t-80 210.5zM299 291 q0 -66 37 -108t100 -42q131 0 242 123v195q-82 8 -184 8q-92 0 -143.5 -46t-51.5 -130zM229 1374q16 45 58.5 84t89.5 55l294 -325q-29 -68 -92 -86z" />
<glyph unicode="&#xe1;" horiz-adv-x="1038" d="M88 274q0 168 108.5 254t284.5 86q102 0 197 -14v80q0 182 -168 182q-119 0 -322 -78q-57 53 -61 154q211 94 424 94q158 0 247 -86t89 -256v-420q0 -127 57 -176q-25 -76 -80 -108q-121 23 -164 127q-143 -139 -309 -140q-143 0 -223 90.5t-80 210.5zM299 291 q0 -66 37 -108t100 -42q131 0 242 123v195q-82 8 -184 8q-92 0 -143.5 -46t-51.5 -130zM346 1188l295 325q47 -16 90 -55t60 -84l-351 -272q-29 8 -55.5 32.5t-38.5 53.5z" />
<glyph unicode="&#xe2;" horiz-adv-x="1038" d="M88 274q0 168 108.5 254t284.5 86q102 0 197 -14v80q0 182 -168 182q-119 0 -322 -78q-57 53 -61 154q211 94 424 94q158 0 247 -86t89 -256v-420q0 -127 57 -176q-25 -76 -80 -108q-121 23 -164 127q-143 -139 -309 -140q-143 0 -223 90.5t-80 210.5zM299 291 q0 -66 37 -108t100 -42q131 0 242 123v195q-82 8 -184 8q-92 0 -143.5 -46t-51.5 -130zM203 1196l217 272q78 27 178 2l201 -258q-31 -67 -103 -94l-190 187l-205 -197q-63 25 -98 88z" />
<glyph unicode="&#xe3;" horiz-adv-x="1038" d="M88 274q0 168 108.5 254t284.5 86q102 0 197 -14v80q0 182 -168 182q-119 0 -322 -78q-57 53 -61 154q211 94 424 94q158 0 247 -86t89 -256v-420q0 -127 57 -176q-25 -76 -80 -108q-121 23 -164 127q-143 -139 -309 -140q-143 0 -223 90.5t-80 210.5zM299 291 q0 -66 37 -108t100 -42q131 0 242 123v195q-82 8 -184 8q-92 0 -143.5 -46t-51.5 -130zM139 1229l18 41q68 150 205 149q55 0 117 -30l113 -58q33 -18 65 -18q39 0 80 53l23 29q31 0 61.5 -19.5t42.5 -46.5l-18 -41q-68 -150 -205 -149q-51 -1 -117 30l-113 56 q-33 18 -65 18q-43 0 -80 -51l-22 -29q-31 0 -62 18.5t-43 47.5z" />
<glyph unicode="&#xe4;" horiz-adv-x="1038" d="M88 274q0 168 108.5 254t284.5 86q102 0 197 -14v80q0 182 -168 182q-119 0 -322 -78q-57 53 -61 154q211 94 424 94q158 0 247 -86t89 -256v-420q0 -127 57 -176q-25 -76 -80 -108q-121 23 -164 127q-143 -139 -309 -140q-143 0 -223 90.5t-80 210.5zM197 1253 q0 49 16 82q39 25 98.5 25t98.5 -25q16 -39 16 -82t-16 -79q-39 -25 -99 -25q-63 0 -98 25q-16 32 -16 79zM299 291q0 -66 37 -108t100 -42q131 0 242 123v195q-82 8 -184 8q-92 0 -143.5 -46t-51.5 -130zM578 1253q0 43 16 82q39 25 98.5 25t98.5 -25q16 -33 16 -82 t-16 -79q-35 -25 -99 -25q-59 0 -98 25q-16 38 -16 79z" />
<glyph unicode="&#xe5;" horiz-adv-x="1038" d="M88 274q0 168 108.5 254t284.5 86q102 0 197 -14v80q0 182 -168 182q-119 0 -322 -78q-57 53 -61 154q211 94 424 94q158 0 247 -86t89 -256v-420q0 -127 57 -176q-25 -76 -80 -108q-121 23 -164 127q-143 -139 -309 -140q-143 0 -223 90.5t-80 210.5zM254 1335 q0 98 69.5 166t178 68t178.5 -67.5t70 -166.5q0 -96 -71 -163.5t-177.5 -67.5t-177 67.5t-70.5 163.5zM299 291q0 -66 37 -108t100 -42q131 0 242 123v195q-82 8 -184 8q-92 0 -143.5 -46t-51.5 -130zM399 1335q0 -47 29 -78.5t74 -31.5t73.5 31.5t28.5 78.5t-28.5 80 t-73.5 33t-74 -33t-29 -80z" />
<glyph unicode="&#xe6;" horiz-adv-x="1599" d="M88 276q0 168 108.5 253t284.5 85q104 0 197 -14v82q0 180 -166 180q-131 0 -324 -78q-57 53 -61 154q211 94 416 94q184 0 268 -125q111 131 287 131q193 0 299 -123.5t106 -314.5q0 -86 -16 -162h-596q6 -139 59.5 -216t173.5 -77q133 0 285 80q53 -49 66 -137 q-158 -115 -381 -115q-233 0 -336 170q-162 -170 -367 -170q-145 0 -224 90.5t-79 212.5zM299 291q0 -66 37 -108t100 -42q154 0 264 142q-18 78 -24 174q-74 10 -182 10q-92 0 -143.5 -46t-51.5 -130zM891 592h407v24q0 117 -49 191t-151 74q-190 0 -207 -289z" />
<glyph unicode="&#xe7;" horiz-adv-x="964" d="M90 500q0 266 125 402t303 136q174 0 272.5 -95t98.5 -214q0 -117 -107 -117q-49 0 -88 9q8 254 -180 253q-98 0 -151.5 -95t-53.5 -279q0 -352 232 -353q115 0 247 103q29 -16 55.5 -53t35.5 -72q-127 -127 -306 -148q-18 -37 -22 -53q84 -4 137 -53t53 -125 q0 -90 -69.5 -146.5t-175.5 -56.5q-98 0 -162 41q4 59 43 107q43 -29 102 -29q45 0 67.5 22.5t22.5 57.5t-22.5 57.5t-63.5 22.5q-25 0 -49 -10q-29 11 -35 36q12 57 43 129q-119 16 -199.5 92t-116.5 186t-36 245z" />
<glyph unicode="&#xe8;" horiz-adv-x="1024" d="M90 504q0 238 110.5 386t317.5 148q190 0 298 -123.5t108 -314.5q-1 -82 -15 -162h-602q6 -139 60.5 -216t177.5 -77q135 0 284 78q51 -47 68 -135q-162 -115 -385 -115q-117 0 -202 43t-131 120t-67.5 167t-21.5 201zM307 592h414v26q0 117 -50.5 190t-154.5 73 q-193 0 -209 -289zM252 1374q16 45 58.5 84t89.5 55l294 -325q-29 -68 -92 -86z" />
<glyph unicode="&#xe9;" horiz-adv-x="1024" d="M90 504q0 238 110.5 386t317.5 148q190 0 298 -123.5t108 -314.5q-1 -82 -15 -162h-602q6 -139 60.5 -216t177.5 -77q135 0 284 78q51 -47 68 -135q-162 -115 -385 -115q-117 0 -202 43t-131 120t-67.5 167t-21.5 201zM307 592h414v26q0 117 -50.5 190t-154.5 73 q-193 0 -209 -289zM369 1188l295 325q47 -16 90 -55t59 -84l-350 -272q-29 8 -55.5 32.5t-38.5 53.5z" />
<glyph unicode="&#xea;" horiz-adv-x="1024" d="M90 504q0 238 110.5 386t317.5 148q190 0 298 -123.5t108 -314.5q-1 -82 -15 -162h-602q6 -139 60.5 -216t177.5 -77q135 0 284 78q51 -47 68 -135q-162 -115 -385 -115q-117 0 -202 43t-131 120t-67.5 167t-21.5 201zM307 592h414v26q0 117 -50.5 190t-154.5 73 q-193 0 -209 -289zM224 1196l217 272q78 27 178 2l201 -258q-31 -67 -103 -94l-190 187l-205 -197q-63 25 -98 88z" />
<glyph unicode="&#xeb;" horiz-adv-x="1024" d="M90 504q0 238 110.5 386t317.5 148q190 0 298 -123.5t108 -314.5q-1 -82 -15 -162h-602q6 -139 60.5 -216t177.5 -77q135 0 284 78q51 -47 68 -135q-162 -115 -385 -115q-117 0 -202 43t-131 120t-67.5 167t-21.5 201zM217 1253q0 49 16 82q39 25 98.5 25t98.5 -25 q16 -39 16 -82t-16 -79q-39 -25 -98 -25q-63 0 -99 25q-16 32 -16 79zM307 592h414v26q0 117 -50.5 190t-154.5 73q-193 0 -209 -289zM598 1253q0 43 16 82q39 25 98.5 25t98.5 -25q16 -33 16 -82t-16 -79q-35 -25 -98 -25q-59 0 -99 25q-16 38 -16 79z" />
<glyph unicode="&#xec;" horiz-adv-x="548" d="M-23 1374q16 45 58.5 84t89.5 55l295 -325q-29 -68 -92 -86zM59.5 932q-0.5 31 10.5 78q68 8 129 8h28q78 0 122 -49t44 -133v-836q-39 -8 -104 -8q-68 0 -107 8v750q0 57 -20.5 81.5t-69.5 24.5h-22q-10 45 -10.5 76z" />
<glyph unicode="&#xed;" horiz-adv-x="548" d="M59.5 932q-0.5 31 10.5 78q68 8 129 8h28q78 0 122 -49t44 -133v-836q-39 -8 -104 -8q-68 0 -107 8v750q0 57 -20.5 81.5t-69.5 24.5h-22q-10 45 -10.5 76zM94 1188l295 325q47 -16 90 -55t60 -84l-351 -272q-29 8 -55.5 32.5t-38.5 53.5z" />
<glyph unicode="&#xee;" horiz-adv-x="548" d="M-51 1196l217 272q78 27 178 2l201 -258q-31 -67 -103 -94l-190 187l-205 -197q-63 25 -98 88zM59.5 932q-0.5 31 10.5 78q68 8 129 8h28q78 0 122 -49t44 -133v-836q-39 -8 -104 -8q-68 0 -107 8v750q0 57 -20.5 81.5t-69.5 24.5h-22q-10 45 -10.5 76z" />
<glyph unicode="&#xef;" horiz-adv-x="548" d="M-57 1253q0 49 16 82q39 25 98.5 25t98.5 -25q16 -39 16 -82t-16 -79q-39 -25 -99 -25q-63 0 -98 25q-16 32 -16 79zM59.5 932q-0.5 31 10.5 78q68 8 129 8h28q78 0 122 -49t44 -133v-836q-39 -8 -104 -8q-68 0 -107 8v750q0 57 -20.5 81.5t-69.5 24.5h-22 q-10 45 -10.5 76zM324 1253q0 43 16 82q39 25 98.5 25t98.5 -25q16 -33 16 -82t-16 -79q-35 -25 -99 -25q-59 0 -98 25q-16 38 -16 79z" />
<glyph unicode="&#xf0;" horiz-adv-x="1058" d="M86 494q0 250 145 395q115 109 287 108q72 0 148 -34q-45 121 -158 237l-203 -141q-64 44 -78 112l176 121q-70 55 -163 105q6 39 30.5 79t53.5 56q129 -55 233 -135l178 123q66 -49 76 -111l-149 -102q309 -309 309 -805q0 -270 -146 -416q-113 -113 -297 -113t-297 113 q-145 145 -145 408zM305 492q0 -358 223 -359q226 0 226 369q0 162 -33 276q-88 61 -191 62q-225 0 -225 -348z" />
<glyph unicode="&#xf1;" horiz-adv-x="1118" d="M160 0v1008l12 12h80q111 0 117 -127q152 137 325 137q137 0 205 -92t68 -244v-477q0 -123 34 -186q-55 -45 -133 -45q-61 0 -86.5 33.5t-25.5 101.5v520q0 106 -28 151.5t-99 45.5q-63 0 -134 -34t-124 -93v-711q-39 -8 -104.5 -8t-106.5 8zM207 1229l18 41 q68 150 205 149q55 0 117 -30l112 -58q33 -18 66 -18q41 0 80 53l22 29q31 0 62 -19.5t43 -46.5l-19 -41q-68 -150 -204 -149q-51 -1 -117 30l-113 56q-33 18 -65 18q-43 0 -80 -51l-23 -29q-31 0 -61.5 18.5t-42.5 47.5z" />
<glyph unicode="&#xf2;" horiz-adv-x="1064" d="M90 507q0 273 146 419q113 113 295 113q1 -1 2 -1q184 0 296 -112q146 -146 146 -420.5t-146 -419.5q-113 -113 -297 -113t-296 113q-146 145 -146 421zM309 506q0 -371 223 -371q226 0 226 373q0 369 -226 369q-223 0 -223 -371zM260 1374q16 45 58.5 84t89.5 55 l294 -325q-29 -68 -92 -86z" />
<glyph unicode="&#xf3;" horiz-adv-x="1064" d="M90.5 505.5q-0.5 274.5 145.5 420.5q113 113 297 112.5t296 -112.5q146 -146 146 -420.5t-146 -419.5q-113 -113 -297 -113t-296 113q-145 145 -145.5 419.5zM309 506q0 -371 223 -371q225 0 225.5 371t-225.5 371q-223 0 -223 -371zM377 1188l295 325q47 -16 90 -55 t59 -84l-350 -272q-29 8 -55.5 32.5t-38.5 53.5z" />
<glyph unicode="&#xf4;" horiz-adv-x="1064" d="M90 507q0 273 146 419q113 113 295 113q1 -1 2 -1q184 0 296 -112q146 -146 146 -420.5t-146 -419.5q-113 -113 -297 -113t-296 113q-146 145 -146 421zM309 506q0 -371 223 -371q226 0 226 373q0 369 -226 369q-223 0 -223 -371zM234 1196l217 272q78 27 178 2l201 -258 q-31 -67 -103 -94l-190 187l-205 -197q-63 25 -98 88z" />
<glyph unicode="&#xf5;" horiz-adv-x="1064" d="M90.5 505.5q-0.5 274.5 145.5 420.5q113 113 297 112.5t296 -112.5q146 -146 146 -420.5t-146 -419.5q-113 -113 -297 -113t-296 113q-145 145 -145.5 419.5zM170 1229l18 41q68 150 205 149q55 0 117 -30l113 -58q33 -18 65 -18q41 0 80 53l23 29q31 0 61.5 -19.5 t42.5 -46.5l-18 -41q-68 -150 -205 -149q-51 -1 -117 30l-113 56q-33 18 -65 18q-43 0 -80 -51l-23 -29q-31 0 -61.5 18.5t-42.5 47.5zM309 506q0 -371 223 -371q225 0 225.5 371t-225.5 371q-223 0 -223 -371z" />
<glyph unicode="&#xf6;" horiz-adv-x="1064" d="M90 507q0 273 146 419q113 113 295 113q1 -1 2 -1q184 0 296 -112q146 -146 146 -420.5t-146 -419.5q-113 -113 -297 -113t-296 113q-146 145 -146 421zM309 506q0 -371 223 -371q226 0 226 373q0 369 -226 369q-223 0 -223 -371zM227 1253q0 49 17 82q39 25 98 25 t98 -25q16 -39 16.5 -82t-16.5 -79q-39 -25 -98 -25q-63 0 -98 25q-17 32 -17 79zM608 1253q0 43 17 82q39 25 98 25t98 -25q16 -33 16.5 -82t-16.5 -79q-35 -25 -98 -25q-59 0 -98 25q-17 38 -17 79z" />
<glyph unicode="&#xf7;" d="M106 602q0 51 9 92h856q8 -41 8 -92q0 -55 -8 -90h-856q-8 35 -9 90zM418 236q0 49 18 86q43 25 107 24q68 0 106 -24q18 -37 19 -86q0 -47 -19 -89q-35 -25 -106 -24q-68 0 -107 24q-18 42 -18 89zM418 965q0 47 18 88q43 25 107 24q68 0 106 -24q18 -41 19 -88 q0 -49 -19 -86q-35 -25 -106.5 -25t-106.5 25q-18 37 -18 86z" />
<glyph unicode="&#xf8;" horiz-adv-x="1069" d="M92 505.5q0 276.5 144 420.5q115 113 296 112q102 0 187 -37l72 125q78 -12 120 -67l-77 -135q143 -146 143 -418q0 -276 -146 -420q-113 -113 -299 -113q-102 0 -186 37l-74 -125q-78 10 -120 68l77 137q-137 139 -137 415.5zM293 506q0 -141 37 -232l307 584 q-49 25 -102 25q-129 0 -185.5 -106.5t-56.5 -270.5zM426 156q45 -27 109 -27q129 0 184 107.5t55 269.5q0 145 -39 237z" />
<glyph unicode="&#xf9;" horiz-adv-x="1120" d="M117 979q51 45 133 45q113 0 112 -133v-522q0 -106 27 -151.5t100 -45.5q61 0 131 34t125 91v715q57 8 107 8q45 0 106 -8v-725q0 -143 58 -195q-23 -74 -80 -106q-129 23 -172 147q-159 -151 -340 -151h-2q-135 0 -202.5 91.5t-67.5 243.5v478q0 123 -35 184zM276 1374 q16 45 58.5 84t89.5 55l294 -325q-29 -68 -92 -86z" />
<glyph unicode="&#xfa;" horiz-adv-x="1120" d="M117 979q51 45 133 45q113 0 112 -133v-522q0 -106 27 -151.5t100 -45.5q61 0 131 34t125 91v715q57 8 107 8q45 0 106 -8v-725q0 -143 58 -195q-23 -74 -80 -106q-129 23 -172 147q-160 -152 -342 -151q-135 0 -202.5 91.5t-67.5 243.5v478q0 123 -35 184zM393 1188 l295 325q47 -16 90 -55t60 -84l-351 -272q-29 8 -55.5 32.5t-38.5 53.5z" />
<glyph unicode="&#xfb;" horiz-adv-x="1120" d="M117 979q51 45 133 45q113 0 112 -133v-522q0 -106 27 -151.5t100 -45.5q61 0 131 34t125 91v715q57 8 107 8q45 0 106 -8v-725q0 -143 58 -195q-23 -74 -80 -106q-129 23 -172 147q-159 -151 -340 -151h-2q-135 0 -202.5 91.5t-67.5 243.5v478q0 123 -35 184zM250 1196 l217 272q78 27 178 2l201 -258q-31 -67 -103 -94l-190 187l-205 -197q-63 25 -98 88z" />
<glyph unicode="&#xfc;" horiz-adv-x="1120" d="M117 979q51 45 133 45q113 0 112 -133v-522q0 -106 27 -151.5t100 -45.5q61 0 131 34t125 91v715q57 8 107 8q45 0 106 -8v-725q0 -143 58 -195q-23 -74 -80 -106q-129 23 -172 147q-160 -152 -342 -151q-135 0 -202.5 91.5t-67.5 243.5v478q0 123 -35 184zM244 1253 q0 49 16 82q39 25 98.5 25t98.5 -25q16 -39 16 -82t-16 -79q-39 -25 -99 -25q-63 0 -98 25q-16 32 -16 79zM625 1253q0 43 16 82q39 25 98.5 25t98.5 -25q16 -33 16 -82t-16 -79q-35 -25 -99 -25q-59 0 -98 25q-16 38 -16 79z" />
<glyph unicode="&#xfd;" horiz-adv-x="958" d="M10 -414v10q0 33 12 72q13 45 35 70q72 -27 152 -27q96 0 151.5 63.5t94.5 190.5l6 25q-66 2 -102.5 25.5t-55.5 84.5l-270 895q74 31 129 31q80 0 106 -94l140 -471q20 -66 75 -301q4 -14 19 -15l225 867q35 8 90 8q61 0 111 -14l6 -13l-270 -960 q-74 -256 -169.5 -367.5t-287.5 -111.5q-111 0 -197 32zM324 1188l295 325q47 -16 90 -55t59 -84l-350 -272q-29 8 -55.5 32.5t-38.5 53.5z" />
<glyph unicode="&#xfe;" horiz-adv-x="1081" d="M160 -428v1921l12 12h78q66 0 90.5 -30.5t24.5 -104.5v-457q119 115 274 115q166 0 259 -139.5t93 -364.5q0 -266 -116.5 -404t-272.5 -138q-119 0 -237 67v-354q0 -74 -25 -104.5t-90 -30.5h-78zM365 225q115 -74 204 -73q92 0 149.5 93t57.5 271q0 170 -53 253t-133 83 q-133 0 -225 -133v-494z" />
<glyph unicode="&#xff;" horiz-adv-x="958" d="M10 -414q-2 37 11.5 82t35.5 70q72 -27 152 -27q96 0 151.5 63.5t94.5 190.5l6 25q-66 2 -102.5 25.5t-55.5 84.5l-270 895q74 31 129 31q80 0 106 -94l140 -471q20 -66 75 -301q4 -14 19 -15l225 867q35 8 90 8q61 0 111 -14l6 -13l-270 -960q-74 -256 -169.5 -367.5 t-287.5 -111.5q-111 0 -197 32zM172 1253q0 49 16 82q39 25 98.5 25t98.5 -25q16 -39 16 -82t-16 -79q-39 -25 -98 -25q-63 0 -99 25q-16 32 -16 79zM553 1253q0 43 16 82q39 25 98.5 25t98.5 -25q16 -33 16 -82t-16 -79q-35 -25 -98 -25q-59 0 -99 25q-16 38 -16 79z" />
<glyph unicode="&#x104;" horiz-adv-x="1251" d="M41 14l463 1385q43 8 125 8t123 -8l458 -1385q-180 -113 -180 -225q0 -45 27.5 -68.5t72.5 -23.5q57 0 119 33q47 -35 49 -103q-82 -72 -217 -71q-98 0 -159.5 51t-61.5 139q0 135 148 260q-33 25 -54 94l-75 240q-20 0 -68.5 -1t-54.5 -1h-281q-6 0 -52 1t-67 1 l-108 -342q-35 -8 -94 -8q-55 0 -107 14zM412 516q18 0 58 1t46 1h205q4 0 44 -1t58 -1l-94 297q-72 229 -108 371h-11q-25 -113 -80 -297z" />
<glyph unicode="&#x105;" horiz-adv-x="1099" d="M88 274q0 168 108.5 254t284.5 86q102 0 197 -14v80q0 182 -168 182q-119 0 -322 -78q-57 53 -61 154q211 94 424 94q158 0 247 -86t89 -256v-420q0 -119 65 -172q-18 -57 -92 -121q-125 -102 -125 -188q0 -45 28 -68.5t73 -23.5q57 0 118 33q47 -35 50 -103 q-82 -72 -218 -71q-98 0 -158.5 51t-60.5 139q0 162 189 295q-35 33 -54 74q-145 -141 -311 -142q-143 0 -223 90.5t-80 210.5zM299 291q0 -66 37 -108t100 -42q131 0 242 123v195q-82 8 -184 8q-92 0 -143.5 -46t-51.5 -130z" />
<glyph unicode="&#x106;" horiz-adv-x="1236" d="M100 692q0 362 159 547.5t403 185.5q221 0 357 -118.5t136 -280.5q0 -123 -123 -123q-37 0 -90 12q4 135 -64.5 234.5t-220.5 99.5q-162 0 -244.5 -142t-82.5 -415q0 -252 90 -390t250 -138q178 0 366 155q84 -55 109 -141q-90 -90 -225.5 -147.5t-286.5 -57.5 q-115 0 -206 40t-151.5 108.5t-100.5 162t-57.5 195t-17.5 213.5zM451 1604l415 245q31 -23 59.5 -73t35.5 -99l-447 -184q-23 14 -41 47t-22 64z" />
<glyph unicode="&#x107;" horiz-adv-x="964" d="M90 500q0 266 125 402t303 136q174 0 272.5 -95t98.5 -214q0 -117 -107 -117q-49 1 -88 9v20q0 233 -179 233h-1q-98 0 -151.5 -95t-53.5 -279q0 -352 232 -353q115 0 247 103q29 -16 55.5 -53t35.5 -72q-152 -152 -371 -152q-209 0 -313.5 148.5t-104.5 378.5zM361 1188 l295 325q47 -16 90 -55t59 -84l-350 -272q-29 8 -55.5 32.5t-38.5 53.5z" />
<glyph unicode="&#x10c;" horiz-adv-x="1236" d="M100 692q0 362 159 547.5t403 185.5q221 0 357 -118.5t136 -280.5q0 -123 -123 -123q-37 0 -90 12q4 135 -64.5 234.5t-220.5 99.5q-162 0 -244.5 -142t-82.5 -415q0 -252 90 -390t250 -138q178 0 366 155q84 -55 109 -141q-90 -90 -225.5 -147.5t-286.5 -57.5 q-115 0 -206 40t-151.5 108.5t-100.5 162t-57.5 195t-17.5 213.5zM330 1737q24 69 94 92l229 -152l236 168q29 -10 57.5 -36.5t36.5 -55.5l-235 -231q-100 -20 -189 -2z" />
<glyph unicode="&#x10d;" horiz-adv-x="964" d="M90 500q0 266 125 402t303 136q174 0 272.5 -95t98.5 -214q0 -117 -107 -117q-49 1 -88 9q8 254 -180 253q-98 0 -151.5 -95t-53.5 -279q0 -352 232 -353q115 0 247 103q29 -16 55.5 -53t35.5 -72q-152 -152 -371 -152q-209 0 -313.5 148.5t-104.5 378.5zM219 1395 q35 69 103 94l190 -186l207 198q61 -20 98 -88l-219 -274q-72 -29 -178 -2z" />
<glyph unicode="&#x10e;" horiz-adv-x="1327" d="M186 12v1374l13 15q178 6 450 6q92 0 193.5 -26.5t163.5 -77.5q127 -104 172 -252t45 -353q0 -207 -44 -353t-173 -251q-61 -51 -163 -77.5t-194 -26.5q-94 0 -450 8zM305 1735q24 69 94 92l230 -152l235 168q29 -10 57.5 -36.5t36.5 -55.5l-235 -231q-100 -20 -188 -2z M403 166h246q348 0 348 532q0 106 -12 189.5t-47 167.5t-107.5 130t-181.5 46q-43 0 -120.5 1t-125.5 1v-1067z" />
<glyph unicode="&#x10f;" horiz-adv-x="1222" d="M90 494q0 258 116 396t277 138q111 0 232 -67v532l14 12h80q63 0 88 -30.5t25 -104.5v-1081q0 -143 57 -195q-8 -29 -30.5 -61.5t-47.5 -46.5q-115 20 -162 127q-121 -139 -297 -140q-170 0 -261 141.5t-91 379.5zM305 492q0 -172 53.5 -257t133.5 -85q133 0 223 129v507 q-115 74 -203 74q-90 0 -148.5 -94t-58.5 -274zM1049 1157l24 438q41 10 100.5 2t94.5 -32l-97 -418q-29 -10 -65.5 -7t-56.5 17z" />
<glyph unicode="&#x118;" horiz-adv-x="1167" d="M184 133v1253l15 13h823q6 -33 6 -86q0 -55 -16 -99h-486h-129q0 -27 1 -66.5t1 -66.5v-286q27 0 70 1t57 1h385q10 -35 10.5 -90.5t-10.5 -90.5h-385q-80 0 -127 2v-335q0 -18 -1 -51t-1 -54q61 6 135 6h531q0 -55 -6 -84q-12 -68 -72 -92q-2 0 -2 -1t-2 -1 q-86 -35 -137 -95.5t-51 -121.5q0 -45 26.5 -68.5t71.5 -23.5q55 0 121 33q47 -39 47 -103q-82 -72 -217 -71q-98 0 -158.5 51t-60.5 141q0 143 145 250h-459q-57 0 -91 36t-34 99z" />
<glyph unicode="&#x119;" horiz-adv-x="1024" d="M90 504q0 238 110.5 386t317.5 148q190 0 298 -123.5t108 -314.5q-1 -82 -15 -162h-602q6 -139 60.5 -216t177.5 -77q135 0 284 78q51 -47 68 -135q-61 -43 -141 -72q-143 -109 -144 -227q0 -45 27 -68.5t72 -23.5q59 0 120 33q47 -39 48 -103q-82 -72 -217 -71 q-98 0 -159 51t-61 143q0 117 119 225q-8 0 -24.5 -1t-24.5 -1q-117 0 -202 43t-131 120t-67.5 167t-21.5 201zM307 592h414v26q0 117 -50.5 190t-154.5 73q-193 0 -209 -289z" />
<glyph unicode="&#x11a;" horiz-adv-x="1159" d="M184 133v1253l15 13h823q6 -33 6 -86q0 -55 -16 -99h-486h-129q0 -27 1 -66.5t1 -66.5v-286q27 0 70 1t57 1h385q10 -35 10.5 -90.5t-10.5 -90.5h-385q-80 0 -127 2v-335q0 -18 -1 -51t-1 -54q61 6 135 6h531q0 -55 -6 -84q-18 -102 -139 -102h-609q-57 0 -91 36t-34 99z M285 1735q24 69 94 92l229 -152l236 168q29 -10 57.5 -36.5t36.5 -55.5l-236 -231q-100 -20 -188 -2z" />
<glyph unicode="&#x11b;" horiz-adv-x="1024" d="M90 504q0 238 110.5 386t317.5 148q190 0 298 -123.5t108 -314.5q-1 -82 -15 -162h-602q6 -139 60.5 -216t177.5 -77q135 0 284 78q51 -47 68 -135q-162 -115 -385 -115q-117 0 -202 43t-131 120t-67.5 167t-21.5 201zM307 592h414v26q0 117 -50.5 190t-154.5 73 q-193 0 -209 -289zM228 1395q34 69 102 94l191 -186l206 198q61 -20 99 -88l-219 -274q-72 -29 -179 -2z" />
<glyph unicode="&#x126;" horiz-adv-x="1400" d="M39 1096q0 39 10 86h146v217q43 8 108 8q63 0 111 -8v-217h573v217q43 8 109 8q63 0 110 -8v-217h146q8 -39 8 -84q0 -51 -8 -86h-146v-1012q-47 -8 -110 -8q-66 0 -109 8v477q0 29 1 77t1 75q-10 0 -58 -1t-59 -1h-344q-10 0 -58 1t-58 1q0 -27 1 -75t1 -77v-477 q-47 -8 -111 -8q-66 0 -108 8v1012h-146q-10 45 -10 84zM412 811q10 0 58 1t58 1h344q10 0 58.5 -1t58.5 -1q0 27 -1 75t-1 77v49h-573v-49q0 -29 -1 -77t-1 -75z" />
<glyph unicode="&#x127;" horiz-adv-x="1120" d="M12 1237q0 27 11 72l143 -2v186l12 12h82q63 0 88 -30.5t25 -104.5v-65l327 4q8 -35 9 -72q0 -39 -9 -74l-327 4v-274q150 135 323 135q137 0 205 -92t68 -244v-475q0 -121 32 -186q-55 -45 -131 -45q-61 0 -86.5 33.5t-25.5 101.5v520q0 106 -28 151.5t-101 45.5 q-61 0 -132 -35t-124 -92v-711q-39 -8 -105 -8q-61 0 -102 8v1165l-143 -2q-10 45 -11 74z" />
<glyph unicode="&#x128;" horiz-adv-x="602" d="M-70 1606l19 41q29 68 85 108.5t124 40.5q55 0 121 -33l114 -53q33 -18 68 -18q41 0 80 51l24 29q76 -4 107 -66l-19 -39q-68 -150 -209 -149q-50 -1 -120 30l-115 56q-41 18 -68 18q-43 0 -80 -51l-24 -29q-31 0 -62.5 18.5t-44.5 45.5zM193 0v1399q41 8 108 8 q66 0 109 -8v-1399q-43 -8 -109 -8q-67 0 -108 8z" />
<glyph unicode="&#x129;" horiz-adv-x="548" d="M-115 1229l19 41q68 150 205 149q55 0 116 -30l113 -58q33 -18 65 -18q39 0 80 53l23 29q31 0 61.5 -19.5t42.5 -46.5l-18 -41q-68 -150 -205 -149q-51 -1 -117 30l-112 56q-33 18 -66 18q-43 0 -80 -51l-22 -29q-31 0 -61.5 18.5t-43.5 47.5zM59.5 932q-0.5 31 10.5 78 q68 8 129 8h28q78 0 122 -49t44 -133v-836q-39 -8 -104 -8q-68 0 -107 8v750q0 57 -20.5 81.5t-69.5 24.5h-22q-10 45 -10.5 76z" />
<glyph unicode="&#x131;" horiz-adv-x="555" d="M66 932q0 31 10 78q68 8 129 8h28q78 0 122 -49t44 -133v-836q-39 -8 -104 -8q-68 0 -107 8v750q0 57 -20.5 81.5t-69.5 24.5h-22q-10 45 -10 76z" />
<glyph unicode="&#x132;" horiz-adv-x="1515" d="M193 0v1399q41 8 108 8q66 0 109 -8v-1399q-43 -8 -109 -8q-67 0 -108 8zM618 66q16 93 82 163q113 -68 220 -67q123 0 171 73.5t48 243.5v920q43 8 110 8q63 0 107 -8v-889q0 -125 -16.5 -212t-59.5 -164t-128 -115.5t-214 -38.5q-180 0 -320 86z" />
<glyph unicode="&#x133;" horiz-adv-x="1118" d="M66 932q0 31 10 78q68 8 129 8h28q78 0 122 -49t44 -133v-836q-39 -8 -104 -8q-68 0 -107 8v750q0 57 -20.5 81.5t-69.5 24.5h-22q-10 45 -10 76zM125 1292q0 55 18 92q43 25 113 25q74 0 113 -25q18 -37 18 -92q0 -53 -18 -90q-33 -27 -113 -26q-76 0 -113 26 q-18 37 -18 90zM604 -319q86 43 117 95t31 158v816q0 57 -19.5 81.5t-68.5 24.5h-41q-10 45 -10.5 76t10.5 78q74 8 149 8h27q76 0 119 -49t43 -133v-799q0 -94 -4.5 -148.5t-19.5 -116t-47 -98t-87 -69.5t-137 -54q-51 49 -62 130zM684 1292q0 55 18 92q43 25 113 25 q74 0 113 -25q18 -37 18 -92q0 -53 -18 -90q-33 -27 -113 -26q-76 0 -113 26q-18 37 -18 90z" />
<glyph unicode="&#x134;" horiz-adv-x="917" d="M20 66q16 93 82 163q113 -68 220 -67q123 0 171 73.5t48 243.5v920q43 8 110 8q63 0 107 -8v-889q0 -125 -16.5 -212t-59.5 -164t-128 -115.5t-214 -38.5q-180 0 -320 86zM322 1587l233 232q96 18 188 0l230 -217q-10 -33 -37.5 -59t-54.5 -34l-232 154l-235 -170 q-27 10 -55.5 38t-36.5 56z" />
<glyph unicode="&#x135;" horiz-adv-x="561" d="M-41 1196l217 272q78 27 178 2l201 -258q-30 -67 -102 -94l-191 187l-205 -197q-63 25 -98 88zM47 -319q86 43 117 95t31 158v816q0 57 -19.5 81.5t-69.5 24.5h-40q-10 45 -10.5 76t10.5 78q74 8 149 8h27q76 0 118.5 -49t42.5 -133v-799q0 -94 -4 -148.5t-19 -116 t-47 -98t-87.5 -69.5t-136.5 -54q-51 49 -62 130z" />
<glyph unicode="&#x136;" horiz-adv-x="1220" d="M186 0v1399q41 8 107 8q68 0 110 -8v-588l115 4q29 0 44.5 12.5t33.5 44.5l262 445q29 49 54.5 68.5t76.5 19.5q59 0 125 -6l14 -19l-309 -524q-39 -66 -82 -102q96 -18 150.5 -78t97.5 -174l111 -297q41 -107 92 -148q-45 -70 -148 -69q-59 0 -88.5 29.5t-54.5 101.5 l-111 301q-43 115 -98 162t-145 47q-76 0 -140 -4v-625q-43 -8 -110 -8q-66 0 -107 8zM451 -449q123 80 122 197q0 57 -26 107q41 27 100.5 34.5t106.5 -8.5q20 -49 20 -106q0 -102 -67.5 -185.5t-186.5 -128.5q-55 16 -69 90z" />
<glyph unicode="&#x137;" horiz-adv-x="1028" d="M160 0v1493l12 12h82q63 0 88 -30.5t25 -104.5v-758l69 4q33 0 49 29l181 283q51 90 137 90q74 0 112 -2l13 -17l-223 -354q-31 -49 -68 -80q127 -32 188 -184l70 -170q47 -125 98 -160q-57 -66 -141 -65q-53 0 -82 27.5t-53 90.5l-82 201q-33 80 -69 107.5t-105 27.5 q-29 0 -94 -4v-436q-39 -8 -105 -8q-61 0 -102 8zM358 -449q123 80 123 197q0 57 -26 107q41 27 100.5 34.5t106.5 -8.5q20 -49 20 -106q0 -102 -67.5 -185.5t-186.5 -128.5q-55 16 -70 90z" />
<glyph unicode="&#x138;" horiz-adv-x="1028" d="M160 0v1008l12 12h82q63 0 88 -31t25 -104v-273l69 4q33 0 49 29l181 283q51 90 137 90q74 0 112 -2l13 -17l-223 -354q-31 -49 -68 -80q127 -32 188 -184l70 -170q47 -125 98 -160q-57 -66 -141 -65q-53 0 -82 27.5t-53 90.5l-82 201q-33 80 -69 107.5t-105 27.5 q-29 0 -94 -4v-436q-39 -8 -105 -8q-61 0 -102 8z" />
<glyph unicode="&#x13f;" horiz-adv-x="1048" d="M184 133v1262l15 12h82q68 0 95 -33t27 -106v-1088q85 8 183 8h407q0 -45 -6 -86q-18 -104 -141 -104h-535q-57 0 -92 36t-35 99zM690 725q0 66 15 94q41 27 108.5 27t106.5 -27q14 -29 14 -94.5t-14 -95.5q-37 -27 -107 -27q-68 0 -108 27q-15 30 -15 96z" />
<glyph unicode="&#x140;" horiz-adv-x="716" d="M156 203v1290l14 12h80q63 0 89 -31.5t26 -103.5v-1120q-1 -92 79 -92h76q18 -51 19 -107q0 -23 -7 -45q-82 -14 -174 -14q-203 0 -202 211zM494 725q0 66 14 94q41 27 108.5 27t106.5 -27q14 -29 14 -94.5t-14 -95.5q-37 -27 -107 -27q-68 0 -108 27q-14 30 -14 96z" />
<glyph unicode="&#x141;" horiz-adv-x="1060" d="M39 709l160 55v631l12 12h84q66 0 93.5 -32.5t27.5 -106.5v-443l360 123l17 -8q23 -68 4 -166l-381 -125v-469q84 8 182 8h408q0 -59 -7 -86q-16 -104 -141 -104h-532q-57 0 -92 35t-35 100v451l-142 -49l-14 8q-25 78 -4 166z" />
<glyph unicode="&#x142;" horiz-adv-x="677" d="M55 719l162 84v690l12 12h78q66 0 90.5 -30.5t24.5 -104.5v-461l162 86l16 -8q20 -78 2 -160l-180 -94v-483q0 -92 82 -92h76q16 -45 16 -107q0 -31 -4 -45q-82 -14 -174 -14q-201 0 -201 211v422l-143 -74l-17 8q-20 78 -2 160z" />
<glyph unicode="&#x143;" horiz-adv-x="1392" d="M186 0v1397q57 10 129 10q74 0 131 -8l433 -858q29 -61 75.5 -167t59.5 -130l8 2q-16 262 -16 516v510q0 74 25.5 104.5t90.5 30.5h72l12 -10v-1395q-57 -10 -131 -10t-131 8l-436 858q-66 137 -129 285l-8 -2q18 -317 18 -502v-639q-49 -8 -100 -8q-55 0 -103 8z M496 1602l415 245q31 -23 59.5 -73t35.5 -99l-447 -184q-23 14 -41 47t-22 64z" />
<glyph unicode="&#x144;" horiz-adv-x="1118" d="M160 0v1008l12 12h80q111 0 117 -127q152 137 325 137q137 0 205 -92t68 -244v-477q0 -123 34 -186q-55 -45 -133 -45q-61 0 -86.5 33.5t-25.5 101.5v520q0 106 -28 151.5t-99 45.5q-63 0 -134 -34t-124 -93v-711q-39 -8 -104.5 -8t-106.5 8zM416 1188l295 325 q47 -16 90 -55t59 -84l-350 -272q-29 8 -55.5 32.5t-38.5 53.5z" />
<glyph unicode="&#x147;" horiz-adv-x="1392" d="M186 0v1397q57 10 129 10q74 0 131 -8l433 -858q29 -61 75.5 -167t59.5 -130l8 2q-16 262 -16 516v510q0 74 25.5 104.5t90.5 30.5h72l12 -10v-1395q-57 -10 -131 -10t-131 8l-436 858q-66 137 -129 285l-8 -2q18 -317 18 -502v-639q-49 -8 -100 -8q-55 0 -103 8z M375 1735q24 69 94 92l229 -152l236 168q29 -10 57.5 -36.5t36.5 -55.5l-235 -231q-100 -20 -189 -2z" />
<glyph unicode="&#x148;" horiz-adv-x="1118" d="M160 0v1008l12 12h80q111 0 117 -127q152 137 325 137q137 0 205 -92t68 -244v-477q0 -123 34 -186q-55 -45 -133 -45q-61 0 -86.5 33.5t-25.5 101.5v520q0 106 -28 151.5t-99 45.5q-63 0 -134 -34t-124 -93v-711q-39 -8 -104.5 -8t-106.5 8zM274 1395q35 69 103 94 l190 -186l207 198q61 -20 98 -88l-219 -274q-72 -29 -178 -2z" />
<glyph unicode="&#x152;" horiz-adv-x="1835" d="M100 700.5q0 182.5 53.5 343t165.5 259.5q143 123 357 122q61 0 258 -26h772q6 -33 6 -86q0 -55 -16 -99h-486h-131q0 -27 1 -66.5t1 -66.5v-286q25 0 70 1t59 1h385q10 -35 10.5 -90.5t-10.5 -90.5h-385q-82 0 -129 2v-335q0 -18 -1 -50t-1 -53q82 4 138 4h530 q0 -55 -6 -82q-18 -104 -139 -104h-664q-186 -25 -262 -25q-213 0 -357 123q-113 98 -166 260t-53 344.5zM328 700.5q0 -104.5 15 -193.5t51 -174t108 -135.5t174 -50.5q94 0 194 27v1051q-119 27 -194 26q-102 0 -174 -49t-108 -135t-51 -174t-15 -192.5z" />
<glyph unicode="&#x153;" horiz-adv-x="1697" d="M90 506q0 274 146 420q113 113 296 112q227 0 336 -176q106 176 326 176q193 0 299 -123.5t106 -314.5q0 -82 -14 -162h-598q6 -139 59.5 -216t176.5 -77q133 0 282 78q51 -47 68 -133q-160 -117 -383 -117q-227 0 -326 166q-104 -166 -332 -166q-184 0 -296 113 q-145 143 -146 420zM309 506q0 -371 223 -371q225 0 225.5 371t-225.5 371q-223 0 -223 -371zM987 592h408v24q0 119 -48.5 192t-152.5 73q-190 0 -207 -289z" />
<glyph unicode="&#x154;" horiz-adv-x="1228" d="M186 0v1386l13 15q53 0 143 2t163 3t134 1q217 0 341 -109.5t124 -310.5q0 -137 -73 -236.5t-189 -136.5q96 -35 145 -174l90 -239q39 -106 92 -148q-45 -68 -147 -67q-57 0 -87 30.5t-56 102.5l-103 276q-31 82 -75 125t-132 43h-168v-563q-43 -8 -108.5 -8t-106.5 8z M401 737q160 4 228 4q137 0 193.5 70t56.5 176q0 248 -250 248q-158 0 -228 2v-500zM406 1602l415 245q31 -23 59.5 -73t34.5 -99l-446 -184q-23 14 -41 47t-22 64z" />
<glyph unicode="&#x155;" horiz-adv-x="753" d="M102 913q20 76 78 113q141 -31 187 -182q82 182 268 182q49 0 108 -12q0 -119 -51 -201q-18 6 -84 10q-139 0 -219 -155v-668q-39 -8 -104 -8q-68 0 -107 8v702q0 139 -76 211zM258 1188l295 325q47 -16 90 -55t59 -84l-350 -272q-29 8 -55.5 32.5t-38.5 53.5z" />
<glyph unicode="&#x156;" horiz-adv-x="1228" d="M186 0v1386l13 15q53 0 143 2t163 3t134 1q217 0 341 -109.5t124 -310.5q0 -137 -73 -236.5t-189 -136.5q96 -35 145 -174l90 -239q39 -106 92 -148q-45 -68 -147 -67q-57 0 -87 30.5t-56 102.5l-103 276q-31 82 -75 125t-132 43h-168v-563q-43 -8 -108.5 -8t-106.5 8z M401 737q160 4 228 4q137 0 193.5 70t56.5 176q0 248 -250 248q-158 0 -228 2v-500zM449 -449q123 80 122 197q0 57 -26 107q41 27 100.5 34.5t106.5 -8.5q20 -49 20 -106q0 -102 -67.5 -185.5t-186.5 -128.5q-55 16 -69 90z" />
<glyph unicode="&#x157;" horiz-adv-x="753" d="M94 -449q123 80 123 197q0 57 -27 107q41 27 100.5 34.5t106.5 -8.5q20 -49 21 -106q0 -102 -67.5 -185.5t-186.5 -128.5q-55 16 -70 90zM102 913q20 76 78 113q141 -31 187 -182q82 182 268 182q49 0 108 -12q0 -119 -51 -201q-18 6 -84 10q-139 0 -219 -155v-668 q-39 -8 -104 -8q-68 0 -107 8v702q0 139 -76 211z" />
<glyph unicode="&#x158;" horiz-adv-x="1228" d="M186 0v1386l13 15q53 0 143 2t163 3t134 1q217 0 341 -109.5t124 -310.5q0 -137 -73 -236.5t-189 -136.5q96 -35 145 -174l90 -239q39 -106 92 -148q-45 -68 -147 -67q-57 0 -87 30.5t-56 102.5l-103 276q-31 82 -75 125t-132 43h-168v-563q-43 -8 -108.5 -8t-106.5 8z M285 1735q24 69 94 92l229 -152l236 168q29 -10 57.5 -36.5t36.5 -55.5l-236 -231q-100 -20 -188 -2zM401 737q160 4 228 4q137 0 193.5 70t56.5 176q0 248 -250 248q-158 0 -228 2v-500z" />
<glyph unicode="&#x159;" horiz-adv-x="753" d="M102 913q20 76 78 113q141 -31 187 -182q82 182 268 182q49 0 108 -12q0 -119 -51 -201q-18 6 -84 10q-139 0 -219 -155v-668q-39 -8 -104 -8q-68 0 -107 8v702q0 139 -76 211zM119 1395q34 69 102 94l191 -186l206 198q61 -20 99 -88l-219 -274q-72 -29 -179 -2z" />
<glyph unicode="&#x15a;" horiz-adv-x="1138" d="M61 127q10 100 93 168q213 -139 411 -139q121 0 190.5 53t71.5 139q0 141 -186 221l-242 105q-281 121 -280 354q0 170 130 283.5t333 113.5q221 0 434 -106q-4 -100 -80 -170q-193 96 -350 96q-111 0 -178.5 -54t-67.5 -138q0 -63 43 -106.5t127 -78.5l238 -102 q307 -129 307 -381q0 -184 -129 -298t-373 -114q-273 0 -492 154zM381 1602l416 245q31 -23 59.5 -73t34.5 -99l-447 -184q-23 14 -41 47t-22 64z" />
<glyph unicode="&#x15b;" horiz-adv-x="897" d="M63 76q2 35 22.5 79t47.5 68q164 -90 287 -90q84 0 133 35t51 92q0 92 -129 139l-115 43q-260 96 -260 293q0 139 101.5 221t259.5 82q172 0 336 -73q0 -41 -17.5 -86t-46.5 -70q-143 68 -272 68q-68 0 -108 -33t-40 -86q0 -43 30 -72t97 -53l123 -47q260 -98 260 -307 q0 -141 -108.5 -223.5t-282.5 -82.5q-199 1 -369 103zM297 1188l295 325q47 -16 90 -55t59 -84l-350 -272q-29 8 -55.5 32.5t-38.5 53.5z" />
<glyph unicode="&#x160;" horiz-adv-x="1138" d="M61 127q10 100 93 168q213 -139 411 -139q121 0 190.5 53t71.5 139q0 141 -186 221l-242 105q-281 121 -280 354q0 170 130 283.5t333 113.5q221 0 434 -106q-4 -100 -80 -170q-193 96 -350 96q-111 0 -178.5 -54t-67.5 -138q0 -63 43 -106.5t127 -78.5l238 -102 q307 -129 307 -381q0 -184 -129 -298t-373 -114q-273 0 -492 154zM260 1735q24 69 94 92l230 -152l235 168q29 -10 57.5 -36.5t36.5 -55.5l-235 -231q-100 -20 -189 -2z" />
<glyph unicode="&#x161;" horiz-adv-x="897" d="M63 76q2 35 22.5 79t47.5 68q164 -90 287 -90q84 0 133 35t51 92q0 92 -129 139l-115 43q-260 96 -260 293q0 139 101.5 221t259.5 82q172 0 336 -73q0 -41 -17.5 -86t-46.5 -70q-143 68 -272 68q-68 0 -108 -33t-40 -86q0 -43 30 -72t97 -53l123 -47q260 -98 260 -307 q0 -141 -108.5 -223.5t-282.5 -82.5q-199 1 -369 103zM156 1395q34 69 102 94l191 -186l206 198q61 -20 99 -88l-219 -274q-72 -29 -179 -2z" />
<glyph unicode="&#x164;" horiz-adv-x="1007" d="M27 1306.5q0 49.5 8 92.5h942q12 -49 12 -86q0 -53 -29.5 -76t-93.5 -23h-133q-12 0 -58 1.5t-61 1.5v-1217q-47 -8 -108 -8q-64 0 -111 8v1065q0 27 1 75t1 77h-2q-12 0 -57 -1.5t-59 -1.5h-244q-8 43 -8 92.5zM176 1735q24 69 94 92l230 -152l235 168 q29 -10 57.5 -36.5t36.5 -55.5l-235 -231q-98 -20 -188 -2z" />
<glyph unicode="&#x165;" horiz-adv-x="747" d="M39 936q0 39 8 78l152 -4v180q0 74 24.5 104.5t87.5 30.5h80l15 -14v-303l251 6q10 -35 11 -78q0 -47 -11 -80l-251 4v-612q0 -90 83 -90h142q16 -45 16 -107q0 -31 -4 -45q-119 -14 -229 -14q-215 0 -215 211v655l-152 -2q-8 35 -8 80zM532 1157l25 438q41 10 100.5 2 t94.5 -32l-97 -418q-29 -10 -66 -7t-57 17z" />
<glyph unicode="&#x16e;" horiz-adv-x="1370" d="M168 492v903l12 12h84q66 0 93.5 -33t27.5 -106v-776q0 -168 77 -255t222 -87q299 0 299 342v907q43 8 107 8q69 0 112 -8v-907q0 -250 -139 -384.5t-379 -134.5t-378 134.5t-138 384.5zM434 1599q0 96 70.5 164t177 68t177.5 -67.5t71 -164.5q0 -98 -69.5 -165.5 t-178.5 -67.5t-178.5 67.5t-69.5 165.5zM580 1599q0 -49 28.5 -80.5t73.5 -31.5t73.5 31.5t28.5 80.5q0 47 -28.5 79t-73.5 32t-73.5 -32t-28.5 -79z" />
<glyph unicode="&#x16f;" horiz-adv-x="1120" d="M117 979q51 45 133 45q113 0 112 -133v-522q0 -106 27 -151.5t100 -45.5q61 0 131 34t125 91v715q57 8 107 8q45 0 106 -8v-725q0 -143 58 -195q-23 -74 -80 -106q-129 23 -172 147q-159 -151 -340 -151h-2q-135 0 -202.5 91.5t-67.5 243.5v478q0 123 -35 184zM301 1335 q0 98 69.5 166t178 68t178 -67.5t69.5 -166.5q0 -96 -70.5 -163.5t-177 -67.5t-177 67.5t-70.5 163.5zM446 1335q0 -47 28.5 -78.5t74 -31.5t74 31.5t28.5 78.5t-28.5 80t-74 33t-74 -33t-28.5 -80z" />
<glyph unicode="&#x178;" horiz-adv-x="1021" d="M12 1374q70 39 138 39q43 0 69.5 -21.5t46.5 -72.5l162 -393q41 -102 86 -256h10q22 82 90 260l187 469q39 10 92 10q57 0 106 -16l11 -15l-389 -929v-449q-47 -8 -111 -8q-68 0 -109 8v453zM184 1618q0 45 19 82q39 24 98 24q61 0 100 -24q20 -31 21 -82q0 -55 -21 -86 q-33 -25 -100 -25q-63 0 -98 25q-18 37 -19 86zM614 1618q0 51 21 82q39 24 100 24q55 0 99 -24q18 -37 18 -82q0 -49 -18 -86q-37 -25 -99 -25q-68 0 -100 25q-20 31 -21 86z" />
<glyph unicode="&#x179;" horiz-adv-x="1150" d="M98 137q0 51 29 94l516 777q20 31 162 217l-6 6q-90 -16 -320 -17h-329q-8 33 -9 74q0 51 17 111h843q31 -104 31 -142q0 -43 -28 -86l-515 -770q-47 -72 -159 -219l6 -6q129 12 246 12h213q164 0 241 39q18 -55 19 -106q0 -121 -152 -121h-778q-27 102 -27 137z M375 1602l416 245q31 -23 59.5 -73t34.5 -99l-447 -184q-23 14 -41 47t-22 64z" />
<glyph unicode="&#x17a;" horiz-adv-x="913" d="M72 117q-1 39 32 82l334 454q27 37 87.5 110t74.5 89l-6 8q-86 -12 -270 -12h-215q-8 27 -9 67q0 47 13 97h686q30 -89 30 -123q0 -33 -26 -74l-334 -453q-41 -57 -158 -198l6 -8q88 8 189 8h98q156 0 219 29q20 -47 21 -93q0 -100 -133 -100h-611q-29 86 -28 117z M305 1188l295 325q47 -16 90 -55t59 -84l-350 -272q-29 8 -55.5 32.5t-38.5 53.5z" />
<glyph unicode="&#x17b;" horiz-adv-x="1150" d="M98 137q0 51 29 94l516 777q20 31 162 217l-6 6q-90 -16 -320 -17h-329q-8 33 -9 74q0 51 17 111h843q31 -104 31 -142q0 -43 -28 -86l-515 -770q-47 -72 -159 -219l6 -6q129 12 246 12h213q164 0 241 39q18 -55 19 -106q0 -121 -152 -121h-778q-27 102 -27 137z M451 1638.5q0 55.5 18 92.5q43 25 113 24q74 0 112 -24q18 -37 18.5 -92.5t-18.5 -92.5q-35 -25 -112 -24q-74 0 -113 24q-18 37 -18 92.5z" />
<glyph unicode="&#x17c;" horiz-adv-x="913" d="M72 117q-1 39 32 82l334 454q27 37 87.5 110t74.5 89l-6 8q-86 -12 -270 -12h-215q-8 27 -9 67q0 47 13 97h686q31 -92 30 -125q0 -31 -26 -72l-334 -453q-41 -57 -158 -198l6 -8q88 8 189 8h98q156 0 219 29q20 -47 21 -93q0 -100 -133 -100h-611q-29 86 -28 117z M328 1292q0 55 18 92q43 25 113 25q74 0 112 -25q18 -37 19 -92q0 -53 -19 -90q-33 -27 -112 -26q-76 0 -113 26q-18 37 -18 90z" />
<glyph unicode="&#x17d;" horiz-adv-x="1150" d="M98 137q0 51 29 94l516 777q20 31 162 217l-6 6q-90 -16 -320 -17h-329q-8 33 -9 74q0 51 17 111h843q31 -104 31 -142q0 -43 -28 -86l-515 -770q-47 -72 -159 -219l6 -6q129 12 246 12h213q164 0 241 39q18 -55 19 -106q0 -121 -152 -121h-778q-27 102 -27 137z M254 1735q24 69 94 92l230 -152l235 168q29 -10 57.5 -36.5t36.5 -55.5l-235 -231q-98 -20 -189 -2z" />
<glyph unicode="&#x17e;" horiz-adv-x="913" d="M72 117q-1 39 32 82l334 454q27 37 87.5 110t74.5 89l-6 8q-86 -12 -270 -12h-215q-8 27 -9 67q0 47 13 97h686q30 -89 30 -123q0 -33 -26 -74l-334 -453q-41 -57 -158 -198l6 -8q88 8 189 8h98q156 0 219 29q20 -47 21 -93q0 -100 -133 -100h-611q-29 86 -28 117z M164 1395q34 69 102 94l191 -186l206 198q61 -20 99 -88l-219 -274q-72 -29 -179 -2z" />
<glyph unicode="&#x237;" horiz-adv-x="569" d="M55 -319q86 43 117 95t31 158v816q0 57 -19.5 81.5t-68.5 24.5h-41q-10 45 -10.5 76t10.5 78q74 8 149 8h27q76 0 119 -49t43 -133v-799q0 -94 -4.5 -148.5t-19.5 -116t-47 -98t-87 -69.5t-137 -54q-51 49 -62 130z" />
<glyph unicode="&#x2c6;" horiz-adv-x="815" d="M109 1196l217 272q78 27 178 2l201 -258q-31 -67 -103 -94l-190 187l-205 -197q-63 25 -98 88z" />
<glyph unicode="&#x2c7;" horiz-adv-x="815" d="M113 1395q34 69 102 94l191 -186l206 198q61 -20 99 -88l-219 -274q-72 -29 -179 -2z" />
<glyph unicode="&#x2d9;" horiz-adv-x="815" d="M276 1292q0 55 19 92q43 25 113 25q74 0 112 -25q18 -37 19 -92q0 -53 -19 -90q-33 -27 -112 -26q-76 0 -113 26q-19 37 -19 90z" />
<glyph unicode="&#x2da;" horiz-adv-x="815" d="M160 1335q0 98 69.5 166t178 68t178 -67.5t69.5 -166.5q0 -96 -70.5 -163.5t-177 -67.5t-177 67.5t-70.5 163.5zM305 1335q0 -47 28.5 -78.5t74 -31.5t74 31.5t28.5 78.5t-28.5 80t-74 33t-74 -33t-28.5 -80z" />
<glyph unicode="&#x2dc;" horiz-adv-x="815" d="M45 1229l18 41q68 150 205 149q55 0 117 -30l113 -58q33 -18 65 -18q39 0 80 53l23 29q31 0 61.5 -19.5t42.5 -46.5l-18 -41q-68 -150 -205 -149q-51 -1 -117 30l-113 56q-33 18 -65 18q-43 0 -80 -51l-22 -29q-31 0 -62 18.5t-43 47.5z" />
<glyph unicode="&#x3bc;" horiz-adv-x="1134" d="M125 -406q35 61 35 187v1231q57 8 102 8t107 -8v-643q0 -96 49 -150.5t131 -54.5q121 0 211 123v725q57 8 104 8q46 0 107 -8v-725q0 -143 57 -195q-23 -74 -80 -106q-119 20 -164 133q-100 -139 -260 -139q-98 0 -168 57v-342q0 -72 -20.5 -106.5t-79.5 -34.5 q-78 0 -131 40z" />
<glyph unicode="&#x1e9e;" horiz-adv-x="1284" d="M31 885q0 49 8 84l176 -4v71q0 188 122 292t326.5 104t326.5 -111t122 -297q0 -78 -31 -160h-4l4 -2q-84 -20 -126 -63t-42 -86q0 -51 76 -117l76 -68q152 -135 152 -266q0 -129 -103.5 -209t-271.5 -80q-141 0 -260 60q2 37 21.5 82t47.5 69q88 -47 174 -47q72 0 119 35 t47 88q0 68 -82 139l-84 72q-135 119 -135 227q0 74 54.5 140.5t146.5 103.5q8 45 8 72q0 109 -61.5 181.5t-175.5 72.5q-231 0 -232 -254v-1014q-43 -8 -108.5 -8t-106.5 8v801l-176 -2q-8 33 -8 86z" />
<glyph unicode="&#x2000;" horiz-adv-x="924" />
<glyph unicode="&#x2001;" horiz-adv-x="1849" />
<glyph unicode="&#x2002;" horiz-adv-x="924" />
<glyph unicode="&#x2003;" horiz-adv-x="1849" />
<glyph unicode="&#x2004;" horiz-adv-x="616" />
<glyph unicode="&#x2005;" horiz-adv-x="462" />
<glyph unicode="&#x2006;" horiz-adv-x="308" />
<glyph unicode="&#x2007;" horiz-adv-x="308" />
<glyph unicode="&#x2008;" horiz-adv-x="231" />
<glyph unicode="&#x2009;" horiz-adv-x="369" />
<glyph unicode="&#x200a;" horiz-adv-x="102" />
<glyph unicode="&#x2010;" horiz-adv-x="716" d="M94 545q0 57 10 92h508q10 -35 11 -92q-1 -53 -11 -90h-508q-10 37 -10 90z" />
<glyph unicode="&#x2011;" horiz-adv-x="716" d="M94 545q0 57 10 92h508q10 -35 11 -92q-1 -53 -11 -90h-508q-10 37 -10 90z" />
<glyph unicode="&#x2012;" horiz-adv-x="716" d="M94 545q0 57 10 92h508q10 -35 11 -92q-1 -53 -11 -90h-508q-10 37 -10 90z" />
<glyph unicode="&#x2013;" horiz-adv-x="1087" d="M125 541q0 49 8 88h821q8 -39 8 -88t-8 -84h-821q-8 35 -8 84z" />
<glyph unicode="&#x2014;" horiz-adv-x="1636" d="M154 541q0 49 8 88h1311q10 -35 10 -88q0 -51 -10 -84h-1311q-8 35 -8 84z" />
<glyph unicode="&#x2018;" horiz-adv-x="466" d="M86 1196q0 125 69.5 222.5t202.5 146.5q63 -31 56 -105q-137 -63 -144 -174q61 -4 86 -22q20 -31 21 -99q0 -74 -21 -104q-45 -27 -125 -27q-83 0 -120 27q-25 55 -25 135z" />
<glyph unicode="&#x2019;" horiz-adv-x="466" d="M53 1135q137 68 144 174q-70 10 -88 24q-18 33 -19 99q0 68 19 104q53 27 127 27q79 0 120 -27q23 -51 23 -137q0 -125 -68.5 -223.5t-201.5 -145.5q-29 14 -44.5 44t-11.5 61z" />
<glyph unicode="&#x201a;" horiz-adv-x="468" d="M61 -193q57 27 99.5 73t44.5 102q-70 10 -86 24q-20 31 -21 98q0 72 21 103q45 29 125 29q82 0 121 -29q23 -47 22 -135q0 -125 -68.5 -223.5t-201.5 -145.5q-29 14 -44.5 44t-11.5 60z" />
<glyph unicode="&#x201c;" horiz-adv-x="864" d="M84 1196q0 125 69.5 222.5t202.5 146.5q63 -31 56 -105q-137 -63 -144 -174q61 -4 86 -22q20 -31 21 -99q0 -74 -21 -104q-45 -27 -125 -27q-83 0 -120 27q-25 55 -25 135zM481 1196q0 125 70 222.5t203 146.5q63 -31 55 -105q-137 -63 -143 -174q61 -4 86 -22 q20 -31 20 -99q0 -74 -20 -104q-45 -27 -125 -27q-84 0 -121 27q-25 55 -25 135z" />
<glyph unicode="&#x201d;" horiz-adv-x="864" d="M57 1135q137 68 144 174q-70 10 -88 24q-18 33 -19 99q0 68 19 104q53 27 127 27q79 0 120 -27q23 -51 23 -137q0 -125 -68.5 -223.5t-201.5 -145.5q-29 14 -44.5 44t-11.5 61zM455 1135q137 68 143 174q-70 10 -88 24q-18 33 -18 99q0 68 18 104q53 27 127 27 q80 0 121 -27q23 -51 22 -137q0 -125 -68.5 -223.5t-201.5 -145.5q-29 14 -44 44t-11 61z" />
<glyph unicode="&#x201e;" horiz-adv-x="866" d="M61 -193q57 27 99.5 73t44.5 102q-70 10 -86 24q-20 31 -21 98q0 72 21 103q45 29 125 29q82 0 121 -29q23 -47 22 -135q0 -125 -68.5 -223.5t-201.5 -145.5q-29 14 -44.5 44t-11.5 60zM459 -193q57 27 99 73t44 102q-70 10 -86 24q-20 31 -20 98q0 72 20 103 q45 29 125 29q82 0 121 -29q23 -47 22 -135q0 -125 -68.5 -223.5t-201.5 -145.5q-29 14 -44 44t-11 60z" />
<glyph unicode="&#x2022;" horiz-adv-x="915" d="M225 557q0 115 31 174q80 49 207 49q129 0 203 -49q31 -59 30.5 -174t-30.5 -176q-63 -47 -203 -47q-129 0 -207 47q-31 61 -31 176z" />
<glyph unicode="&#x202f;" horiz-adv-x="369" />
<glyph unicode="&#x2039;" horiz-adv-x="679" d="M68 522.5q0 38.5 12 67.5l395 377q37 -10 72 -43t47 -68l-285 -330l295 -340q-12 -35 -48 -67.5t-73 -42.5l-403 379q-12 29 -12 67.5z" />
<glyph unicode="&#x203a;" horiz-adv-x="679" d="M74 856q12 33 49 66.5t72 44.5l405 -379q27 -68 0 -133l-397 -379q-35 10 -70 43.5t-47 68.5l283 330z" />
<glyph unicode="&#x2044;" horiz-adv-x="460" d="M-258 0l770 1399q41 12 109.5 11t99.5 -11l-772 -1399q-41 -12 -109.5 -11t-97.5 11z" />
<glyph unicode="&#x205f;" horiz-adv-x="462" />
<glyph unicode="&#x2074;" horiz-adv-x="860" d="M90 963q0 33 31 94l239 518q43 4 94.5 -7.5t77.5 -33.5l-155 -336q-66 -139 -105 -190l4 -4q51 4 146 4h37q-2 16 -2 49v67q0 59 32.5 94t85.5 35h52l6 -6v-135q0 -14 -1 -53t-1 -51h125q6 -29 6 -62q0 -55 -14 -90h-117v-160q-33 -8 -84 -8t-90 8v86q0 12 1 37t1 37 q-14 0 -42 -1t-42 -1h-244q-41 66 -41 109z" />
<glyph unicode="&#x20ac;" horiz-adv-x="1159" d="M43 506q0 35 8 74h148q-2 27 -2 84q0 51 2 77h-148q-8 35 -8 72q0 35 8 74h162q74 467 465 467q236 0 436 -166q-10 -37 -36.5 -75t-61.5 -58q-156 119 -309 119q-225 0 -279 -287h422q8 -39 8 -74q0 -37 -8 -72h-438v-79q0 -55 2 -82h436q8 -39 8 -74q0 -37 -8 -72h-420 q53 -281 277 -280q154 0 309 118q76 -47 98 -133q-199 -166 -436 -166q-389 0 -465 461h-162q-8 35 -8 72z" />
<glyph unicode="&#xe000;" horiz-adv-x="1030" d="M0 1030h1030v-1030h-1030v1030z" />
<glyph horiz-adv-x="450" />
<glyph horiz-adv-x="815" d="M217 -449q123 80 123 197q0 57 -27 107q41 27 100.5 34.5t106.5 -8.5q20 -49 21 -106q0 -102 -67.5 -185.5t-186.5 -128.5q-55 16 -70 90z" />
<glyph horiz-adv-x="815" d="M131 1675q6 49 34.5 99t59.5 73l416 -245q-16 -80 -63 -111z" />
<glyph horiz-adv-x="815" d="M201 1602l415 245q31 -23 60 -73t35 -99l-447 -184q-23 14 -41 47t-22 64z" />
<glyph horiz-adv-x="815" d="M78 1587l233 232q96 18 189 0l229 -217q-10 -33 -37.5 -59t-54.5 -34l-231 154l-236 -170q-27 10 -55.5 38t-36.5 56z" />
<glyph horiz-adv-x="815" d="M74 1618q0 45 18 82q39 24 98 24q61 0 101 -24q20 -31 20 -82q0 -55 -20 -86q-33 -25 -101 -25q-63 0 -98 25q-18 37 -18 86zM504 1618q0 51 20 82q40 24 101 24q55 0 98 -24q18 -37 18 -82q0 -49 -18 -86q-37 -25 -98 -25q-68 0 -101 25q-20 31 -20 86z" />
<glyph horiz-adv-x="815" d="M80 1735q24 69 94 92l229 -152l236 168q29 -10 57.5 -36.5t36.5 -55.5l-235 -231q-100 -20 -189 -2z" />
<glyph horiz-adv-x="815" d="M160 1599q0 96 70.5 164t177 68t177 -67.5t70.5 -164.5q0 -98 -69.5 -165.5t-178 -67.5t-178 67.5t-69.5 165.5zM305 1599q0 -49 28.5 -80.5t74 -31.5t74 31.5t28.5 80.5q0 47 -28.5 79t-74 32t-74 -32t-28.5 -79z" />
<glyph horiz-adv-x="815" d="M37 1606l18 41q29 68 85.5 108.5t123.5 40.5q55 0 121 -33l115 -53q33 -18 67 -18q41 0 80 51l25 29q76 -4 106 -66l-18 -39q-68 -150 -209 -149q-51 -1 -121 30l-115 56q-41 18 -67 18q-43 0 -80 -51l-25 -29q-31 0 -62.5 18.5t-43.5 45.5z" />
<glyph horiz-adv-x="815" d="M276 1638.5q0 55.5 19 92.5q43 25 113 24q74 0 112 -24q18 -37 18.5 -92.5t-18.5 -92.5q-35 -25 -112 -24q-74 0 -113 24q-19 37 -19 92.5z" />
<glyph horiz-adv-x="868" d="M412 1159l24 438q41 10 100.5 2t94.5 -32l-96 -418q-29 -10 -66 -7t-57 17z" />
<glyph horiz-adv-x="815" d="M217 -449q123 80 123 197q0 57 -27 107q41 27 100.5 34.5t106.5 -8.5q20 -49 21 -106q0 -102 -67.5 -185.5t-186.5 -128.5q-55 16 -70 90z" />
<glyph horiz-adv-x="1114" d="M27 16l407 1102q49 8 129 8q70 0 119 -8l405 -1108q-49 -25 -122 -24q-47 0 -77 19.5t-50 78.5l-60 166q-14 0 -54 -1t-46 -1h-254q-8 0 -50 1t-59 1l-88 -252q-35 -8 -92 -8q-61 0 -100 14zM375 422q14 0 50 1t42 1h172q6 0 36 -1t44 -1l-68 194q-41 117 -98 324h-10 q-51 -185 -84 -283z" />
<glyph horiz-adv-x="1122" d="M172 10v1098l10 10q362 6 381 6q410 0 410 -293q0 -76 -45 -139t-121 -90q94 -27 159.5 -106.5t65.5 -178.5q0 -156 -111.5 -239.5t-332.5 -83.5q-186 0 -406 6zM383 150q74 2 209 2q125 0 173 52t48 123.5t-56.5 126t-183.5 54.5h-190v-358zM383 668h172 q203 0 203 149.5t-199 149.5q-121 0 -176 2v-301z" />
<glyph horiz-adv-x="1097" d="M82 555q0 293 145.5 441.5t364.5 148.5q211 0 325.5 -108.5t114.5 -245.5q0 -121 -123 -121q-35 0 -82 10q0 291 -241 291q-281 0 -281 -416q0 -199 80 -299t213 -100q152 0 317 123q33 -20 64 -61.5t41 -78.5q-188 -166 -455 -166q-104 0 -187 33t-137.5 88.5t-91 131 t-52 157.5t-15.5 172z" />
<glyph horiz-adv-x="1196" d="M172 10v1098l10 10q240 6 400 6q213 0 329.5 -84t156.5 -200.5t40 -282.5t-40 -282.5t-157 -200.5q-115 -80 -329 -80q-164 0 -400 6zM387 160q33 0 94.5 1t98.5 1q307 0 307 395q0 397 -307 397q-127 0 -193 2v-796z" />
<glyph horiz-adv-x="1046" d="M172 127v979l10 12h744q6 -31 6 -86q0 -49 -17 -92h-413h-119q0 -14 1 -48t1 -56v-185q23 0 63.5 1t53.5 1h321q10 -33 11 -86q0 -51 -11 -88h-321h-117v-215q0 -18 -1 -49t-1 -43q74 4 123 4h452q0 -51 -4 -76q-18 -102 -133 -102h-524q-57 0 -91 35t-34 94z" />
<glyph horiz-adv-x="958" d="M172 0v1108l10 10h727q12 -37 13 -82q0 -49 -26 -73.5t-87 -24.5h-256h-168q0 -29 1 -82t1 -80v-139q12 0 37 1t35 1h350q10 -33 10 -84q0 -55 -10 -88h-350h-72v-467q-47 -8 -108 -8q-63 0 -107 8z" />
<glyph horiz-adv-x="1155" d="M86 553q0 299 153.5 445.5t381.5 146.5q236 0 413 -113q-8 -45 -35.5 -91t-60.5 -69q-143 92 -315 93q-143 0 -229.5 -101.5t-86.5 -312.5q0 -410 328 -410q109 0 203 25v160q0 47 6 100h-152q-98 0 -98 92q0 51 12 84q92 4 275 4q90 0 125.5 -30.5t35.5 -94.5v-438 q-209 -70 -446 -70q-137 0 -238.5 46.5t-159 129t-85 183t-27.5 221.5z" />
<glyph horiz-adv-x="1259" d="M172 0v1118q43 8 109 8q63 0 106 -8v-330q0 -23 -1 -61.5t-1 -58.5q10 0 52 1t50 1h285q8 0 50 -1t52 -1q0 20 -1 59t-1 61v330q43 8 105 8q68 0 110 -8v-1118q-47 -8 -108 -8q-64 0 -107 8v371q0 25 1 62.5t1 60.5q-10 0 -52 -1t-50 -1h-285q-8 0 -50 1t-52 1 q0 -23 1 -61t1 -62v-371q-43 -8 -106 -8q-66 0 -109 8z" />
<glyph horiz-adv-x="573" d="M178 0v1118q43 8 109 8q61 0 108 -8v-1118q-47 -8 -108 -8q-66 0 -109 8z" />
<glyph horiz-adv-x="817" d="M6 55q15 95 74 154q96 -59 196 -59q96 0 138.5 59t42.5 184v725q43 8 108 8q63 0 107 -8v-721q0 -215 -89 -318.5t-286 -103.5q-170 0 -291 80z" />
<glyph horiz-adv-x="1120" d="M172 0v1118q43 8 109 8q63 0 106 -8v-454l82 2q31 0 43 8t33 39l213 331q29 43 54.5 61.5t76.5 18.5q68 0 123 -6l16 -16l-264 -402q-43 -66 -78 -92q76 -16 121 -61t82 -127l100 -221q47 -107 90 -142q-51 -70 -139 -69q-53 0 -82 25.5t-57 88.5l-115 250 q-35 76 -74 105.5t-110.5 29.5t-114.5 -4v-483q-43 -8 -106 -8q-66 0 -109 8z" />
<glyph horiz-adv-x="954" d="M170 127v987l12 10h84q66 0 93.5 -31.5t27.5 -103.5v-817q119 8 170 8h348q0 -4 -2 -33.5t-4 -46.5q-18 -102 -137 -102h-467q-57 0 -91 34t-34 95z" />
<glyph horiz-adv-x="1501" d="M137 2l109 1116q61 12 141 12q82 0 137 -12l158 -518q55 -176 66 -242h10q10 76 61 242l158 518q55 12 137 12q86 0 141 -12l109 -1116q-61 -12 -113 -12q-37 0 -98 8l-45 549q-10 123 -10 350h-11l-229 -729q-41 -8 -108.5 -8t-108.5 8l-227 729h-11q0 -203 -12 -350 l-43 -549q-61 -8 -100 -8q-54 0 -111 12z" />
<glyph horiz-adv-x="1271" d="M172 0v1114q53 12 123 12q78 0 125 -8l362 -637q14 -25 123 -241l10 2q-20 276 -20 399v360q0 70 26.5 97.5t92.5 27.5h76l10 -12v-1112q-57 -10 -123 -10q-84 0 -127 8l-361 635q-23 35 -71 130l-49 99l-7 -2q12 -246 13 -391v-471q-49 -8 -101 -8q-55 0 -102 8z" />
<glyph horiz-adv-x="1208" d="M82 557q0 145 49 276.5t152 213.5q129 98 319 98q195 0 324 -98q102 -82 151 -213.5t49 -276.5t-49 -275t-151 -210q-129 -98 -324 -99q-190 0 -319 99q-102 80 -151.5 210t-49.5 275zM305 557q0 -78 13.5 -144.5t44 -132t92 -103.5t149.5 -38t150.5 38t92.5 103.5 t42 132t12 144.5q0 61 -7 115.5t-26.5 113t-51.5 99.5t-86 67.5t-126 26.5q-88 0 -149.5 -38t-92 -104.5t-44 -134t-13.5 -145.5z" />
<glyph horiz-adv-x="1044" d="M172 0v1108l10 10q369 6 379 6q195 0 311.5 -92t116.5 -276q0 -178 -116.5 -272.5t-311.5 -94.5h-174v-389q-43 -8 -106 -8q-66 0 -109 8zM387 553q61 2 164 2q119 0 167 59.5t48 143.5t-48 142t-167 58q-105 1 -164 3v-408z" />
<glyph horiz-adv-x="1210" d="M82 557q0 145 49 276.5t152 213.5q129 98 319 98q195 0 324 -98q102 -82 151 -213.5t49 -276.5q0 -258 -137 -416q-46 -55 -117 -92l15 -8q129 -94 252 -98q-2 -74 -47 -115t-109 -41q-80 0 -149 59l-172 134q-25 -6 -52 -7q-199 0 -327 99q-102 80 -151.5 210t-49.5 275 zM305 557q0 -78 13.5 -144.5t44 -132t92 -103.5t149.5 -38t150.5 38t92.5 103.5t42 132t12 144.5q0 61 -7 115.5t-26.5 113t-51.5 99.5t-86 67.5t-126 26.5q-88 0 -149.5 -38t-92 -104.5t-44 -134t-13.5 -145.5z" />
<glyph horiz-adv-x="1120" d="M172 0v1108l10 10q219 6 404 6q197 0 309.5 -83.5t112.5 -249.5q0 -106 -69 -187.5t-169 -105.5q88 -31 137 -142l76 -172q43 -92 84 -131q-49 -68 -143 -67q-51 0 -81 25.5t-55 84.5l-100 228q-27 61 -65.5 87.5t-110.5 26.5h-125v-438q-47 -8 -108 -8q-63 0 -107 8z M387 604q139 4 184 4q117 0 166 52.5t49 126t-49 124t-162 50.5q-27 0 -92 1t-96 1v-359z" />
<glyph horiz-adv-x="1013" d="M57 92q0 43 24.5 91t59.5 71q193 -111 371 -109q88 2 148.5 42t60.5 106q0 104 -154 156l-209 71q-270 92 -270 293q0 141 109.5 235.5t300.5 96.5q213 0 405 -86q0 -106 -74 -164q-174 78 -335 74q-82 0 -131.5 -38t-49.5 -97q0 -45 33 -72t111 -53l205 -72 q131 -45 209.5 -127t78.5 -197q0 -154 -118.5 -246t-317.5 -94q-267 -2 -457 119z" />
<glyph horiz-adv-x="897" d="M16 1028q0 49 9 90h852q12 -37 12 -82q0 -49 -25.5 -72.5t-89.5 -23.5h-108q-12 0 -52.5 1t-52.5 1q0 -23 1 -61.5t1 -61.5v-819q-39 -8 -108 -8q-68 0 -109 8v819q0 23 1 62t1 61q-12 0 -53 -1t-55 -1h-215q-8 41 -9 88z" />
<glyph horiz-adv-x="1239" d="M154 399v715l10 12h82q66 0 94.5 -32.5t28.5 -106.5v-588q0 -254 252 -254q250 0 249 254v719q43 8 105 8q69 0 110 -10v-717q0 -205 -122.5 -315.5t-342 -110.5t-343 111t-123.5 315z" />
<glyph horiz-adv-x="1050" d="M29 1104q63 27 127 26q47 0 73.5 -22.5t44.5 -79.5l170 -524q45 -141 86 -311q5 -17 17 -17l284 942q41 8 84 8q63 0 105 -14l10 -12l-362 -1102q-59 -8 -164 -8q-59 0 -95 19.5t-53 78.5z" />
<glyph horiz-adv-x="1576" d="M57 1106q59 25 123 24q51 0 75 -25.5t36 -90.5l106 -522q18 -84 56 -299q4 -20 16 -21l193 930q66 10 135 10q74 0 135 -10l176 -909q4 -20 16 -21q35 209 60 322l133 622q33 8 98 8q59 0 103 -14l12 -10l-260 -1098q-66 -14 -185 -14q-53 0 -85.5 21.5t-45.5 78.5 l-84 412q-29 158 -69 403h-13q-43 -240 -77 -403l-109 -500q-61 -10 -182 -10q-57 0 -91 20.5t-48 79.5z" />
<glyph horiz-adv-x="1062" d="M23 20l383 570l-334 495q70 45 145.5 45t134.5 -86l195 -286l241 360q33 8 93 8q68 0 110 -14l4 -14l-338 -502l385 -561q-66 -49 -147 -49q-78 0 -137 86l-242 354l-280 -426q-41 -10 -95 -10q-65 0 -110 18z" />
<glyph horiz-adv-x="909" d="M16 1100q70 33 129 33q82 0 117 -86l129 -304q47 -121 70 -211h10q51 169 76 228l151 356q39 10 95 10q43 0 96 -12l8 -14l-334 -762v-338q-47 -8 -106 -8q-66 0 -107 8v342z" />
<glyph horiz-adv-x="1028" d="M84 129q0 49 29 86l442 567q51 66 152 166l-7 6q-78 -12 -290 -12h-279q-8 33 -8 72q0 49 14 104h766q31 -117 31 -135q0 -43 -29 -78l-440 -565q-63 -76 -146 -166l5 -8q76 6 229 12l162 2q150 0 219 31q14 -53 14 -94q0 -117 -149 -117h-690q-25 100 -25 129z" />
<glyph horiz-adv-x="1142" d="M92 293q0 111 69.5 193.5t170.5 109.5q-82 27 -133.5 94.5t-51.5 155.5q0 131 104.5 215t289.5 84q172 0 338 -51q8 -98 -56 -162q-164 45 -264 45q-90 0 -138 -41t-48 -107q0 -151 215 -151h334q102 0 170 29q27 -41 26 -97q0 -106 -145 -106h-43q0 -18 1 -56t1 -59 v-172q0 -49 14 -221q-35 -14 -106 -14q-43 0 -92 8l-13 73q-127 -90 -295 -90q-166 0 -257 90.5t-91 229.5zM315 307q0 -82 49.5 -125t133.5 -43q133 0 227 72v182q0 74 2 111h-160q-127 0 -189.5 -55.5t-62.5 -141.5z" />
<glyph horiz-adv-x="987" d="M90 559q0 172 26.5 292t104.5 193q106 100 275 101q164 0 270 -103q78 -74 104.5 -193.5t26.5 -289.5t-26.5 -288.5t-104.5 -192.5q-104 -104 -272 -104.5t-273 104.5q-78 74 -104.5 192.5t-26.5 288.5zM305 559q0 -295 66 -371q43 -53 123 -53q78 0 124 53 q63 74 63.5 371t-63.5 371q-43 53 -124.5 53t-122.5 -53q-66 -76 -66 -371z" />
<glyph horiz-adv-x="987" d="M111 795q252 143 338 323q33 6 100 6q63 0 98 -6v-950q10 0 55.5 2t57.5 2h114q8 -35 8.5 -86t-8.5 -86h-702q-10 47 -10 86q0 41 10 86h160q10 0 52 -2t56 -2q0 20 -1 59t-1 60v411q0 14 11 142q-94 -106 -252 -170q-72 37 -86 125z" />
<glyph horiz-adv-x="987" d="M100 125q0 72 64.5 160t163.5 168l180 149q125 102 125 207q0 68 -45 113t-115 45q-133 0 -207 -158q-102 4 -151 74q41 113 139 187.5t231 74.5q164 0 264.5 -96.5t100.5 -241.5q0 -104 -59.5 -188t-161.5 -166l-146 -117q-139 -111 -161 -172q123 16 243 16h318 q0 -45 -6 -80q-16 -102 -134 -102h-561q-29 23 -55.5 60.5t-26.5 66.5z" />
<glyph horiz-adv-x="987" d="M92 88q20 94 90 141q123 -86 252 -86q100 0 165 56.5t65 156.5q0 82 -52.5 133.5t-142.5 51.5q-61 0 -119 -27q-29 14 -54.5 48t-33.5 67l227 221q66 59 117 98l-6 8q-63 -14 -215 -14h-248q-12 39 -12 76q0 55 18 100h648q43 -86 43 -133q0 -49 -41 -84l-164 -162 q-25 -25 -74 -61q137 -4 232.5 -92t95.5 -236q0 -176 -127 -276.5t-297 -100.5q-219 0 -367 115z" />
<glyph horiz-adv-x="987" d="M76 350q0 31 35 109l317 669q47 8 104.5 -4t90.5 -39l-209 -432q-80 -166 -135 -260l4 -6q119 10 215 10h49q-2 20 -2 62v108q0 70 38 113t97 43h53l8 -8v-193q0 -18 -1 -63t-1 -62q12 0 41 1t39 1h94q6 -27 7 -73q0 -53 -17 -101h-88q-12 0 -38.5 1t-37.5 1q0 -18 1 -53 t1 -51v-123q-47 -8 -96 -8q-57 0 -100 8v123q0 16 1 51t1 53q-18 0 -55 -2t-54 -2h-315q-47 76 -47 127z" />
<glyph horiz-adv-x="987" d="M104 86q6 33 32 74t57 63q115 -80 249 -80q96 0 160 58.5t64 165.5q0 104 -61.5 158.5t-143.5 54.5q-96 0 -209 -76q-59 12 -102 71l28 531l12 12h633q14 -41 15 -86q0 -90 -97 -90h-313h-59v-39l-9 -127l-6 -67q76 29 162 28q158 0 261.5 -99t103.5 -261 q0 -193 -124 -298.5t-300 -105.5q-214 0 -353 113z" />
<glyph horiz-adv-x="987" d="M96 575q0 266 124 418t355 152q160 0 269 -58q-12 -86 -72 -139q-102 33 -186 33q-262 0 -273 -338q115 84 256 84q160 0 246 -95t86 -267q0 -176 -109.5 -284t-283.5 -108t-272 103q-139 141 -140 499zM313 457q0 -188 68 -269q47 -57 127 -57q86 0 134 57.5t48 157.5 q0 215 -174 215q-100 0 -203 -78v-26z" />
<glyph horiz-adv-x="987" d="M106 1014q1 49 21 104h737q43 -82 43 -131q0 -37 -33 -78l-86 -121q-135 -184 -206.5 -356t-83.5 -395l-2 -37q-33 -10 -105 -10t-110 10l2 35q35 430 329 803l27 32q55 61 70 76l-7 6q-74 -14 -282 -14h-303q-10 35 -11 76z" />
<glyph horiz-adv-x="987" d="M84 268q0 98 63.5 178t157.5 123q-188 104 -188 267q0 133 106.5 221t270.5 88q166 0 270 -81t104 -210q0 -170 -170 -254q205 -115 205 -297q0 -158 -118.5 -244t-301.5 -86q-180 0 -289.5 80t-109.5 215zM293 285q0 -76 54 -120t142 -44q90 0 144.5 45t54.5 123 q0 137 -213 211l-8 2q-174 -76 -174 -217zM322 852q0 -59 49 -98t151 -76l21 -8q121 66 121 178q0 66 -46.5 106.5t-123.5 40.5q-76 0 -124 -41t-48 -102z" />
<glyph horiz-adv-x="987" d="M100 752q0 176 110 284.5t284 108.5q170 0 272 -103q137 -141 137 -499q0 -268 -123 -419t-354 -151q-166 0 -270 56q12 90 73 141q90 -33 187 -33q262 0 272 340q-113 -86 -258 -86q-160 0 -245 94.5t-85 266.5zM309 772q0 -217 176 -217q98 0 203 80v24q0 184 -67 271 q-53 57 -129 57q-86 0 -134.5 -57.5t-48.5 -157.5z" />
<glyph horiz-adv-x="954" d="M37 217l119 131q-56 88 -56 199q0 106 54 196l-117 131q35 68 113 113l133 -121q84 47 194 47q109 0 193 -47l135 125q70 -39 115 -112l-121 -138q53 -90 53 -194q0 -111 -55 -201l118 -129q-35 -66 -112 -115l-135 125q-86 -45 -191 -45q-106 0 -192 45l-135 -121 q-66 35 -113 111zM303 547q0 -92 45 -152.5t129 -60.5q82 0 128 60.5t46 152.5t-46 154.5t-128 62.5q-84 0 -129 -62.5t-45 -154.5z" />
<glyph horiz-adv-x="905" d="M59 162q2 41 26 88t54 67q168 -90 324 -90q158 0 158 99q0 80 -119 120l-178 64q-225 86 -226 262q0 109 72 182.5t197 96.5v137q31 6 80 6t77 -6v-131q145 -14 283 -76q-4 -106 -76 -160q-150 72 -276 72q-68 0 -107 -27.5t-39 -74.5q0 -39 28 -60.5t89 -44.5l158 -55 q254 -92 254 -291q0 -119 -86 -192.5t-232 -90.5v-123q-31 -6 -80 -6t-80 6v125q-174 23 -301 103z" />
<glyph horiz-adv-x="862" d="M78 557q0 199 84 314.5t215 144.5v166q27 8 82 8q51 0 78 -8v-162q121 -18 188.5 -92t67.5 -168q0 -121 -111 -121q-41 0 -78 10q4 215 -149 215q-170 0 -170 -311q0 -143 52 -217t146 -74q102 0 217 78q63 -41 88 -117q-100 -100 -256 -123v-159q-27 -8 -79 -9 q-55 1 -82 9v161q-154 31 -223.5 158t-69.5 297z" />
<glyph horiz-adv-x="962" d="M106 129q0 45 27 86l29 43q78 125 82 209h-133q-25 74 0 149q16 0 46.5 -1t45.5 -1q-61 141 -62 217q0 125 96.5 219.5t264.5 94.5q221 0 366 -129q-10 -41 -39.5 -80t-68.5 -53q-119 88 -244 88q-74 0 -121 -42t-47 -114q0 -49 55 -201q45 0 155 1t173 1q25 -74 0 -149 q-197 0 -293 2q0 -143 -116 -299l6 -4q119 8 262 8h303q0 -59 -2 -72q-18 -104 -141 -104h-617q-27 100 -27 131z" />
<glyph horiz-adv-x="1026" d="M39 430q0 39 8 66h129q-2 20 -2 61q0 43 2 66h-129q-8 27 -8 65q0 43 8 70h143q70 387 418 387q209 0 379 -129q-6 -37 -32.5 -73t-61.5 -54q-133 84 -258 84q-188 0 -236 -215h346q10 -33 11 -70q0 -33 -11 -65h-364v-66v-61h364q10 -33 11 -66q0 -35 -11 -68h-348 q49 -217 238 -217q131 0 258 82q37 -18 62.5 -53t31.5 -72q-168 -129 -379 -129q-348 0 -418 389h-143q-8 27 -8 68z" />
<glyph horiz-adv-x="948" d="M41 1096q82 39 137 39q66 0 98 -74l132 -301q31 -72 67 -191h8q31 104 70 189l158 360q47 12 94 12q49 0 96 -12l8 -12l-200 -426h143q8 -39 8 -69.5t-8 -65.5h-207l-61 -129h268q8 -35 8 -70q0 -30 -8 -65h-279v-281q-43 -8 -100 -8q-61 0 -102 8v281h-281q-8 35 -8 65 q0 35 8 70h268l-59 129h-209q-8 35 -8 65q0 35 8 70h146z" />
<glyph horiz-adv-x="1601" d="M20 18l594 1080q41 20 131 20h736q6 -31 6 -86q0 -49 -17 -90h-417h-117q0 -14 1 -49t1 -57v-187q25 0 63.5 1t51.5 1h325q10 -33 11 -84q0 -53 -11 -86h-325h-115v-217q0 -18 -1 -49t-1 -45q70 4 123 4h454q0 -49 -4 -74q-18 -102 -133 -102h-520q-57 0 -90 35t-33 94 v129q-31 -2 -92 -2h-172q-8 0 -52 1t-57 1l-137 -258q-43 -8 -98 -8q-57 0 -98 14zM449 420q14 0 43.5 1t35.5 1h111q4 0 41 -1t53 -1v534h-10q-64 -133 -160 -323z" />
<glyph horiz-adv-x="1114" d="M27 16l407 1102q49 8 129 8q70 0 119 -8l405 -1108q-49 -25 -122 -24q-47 0 -77 19.5t-50 78.5l-60 166q-14 0 -54 -1t-46 -1h-254q-8 0 -50 1t-59 1l-88 -252q-35 -8 -92 -8q-61 0 -100 14zM291 1481q16 45 58 84t89 55l295 -326q-29 -68 -92 -86zM375 422q14 0 50 1 t42 1h172q6 0 36 -1t44 -1l-68 194q-41 117 -98 324h-10q-51 -185 -84 -283z" />
<glyph horiz-adv-x="1114" d="M27 16l407 1102q49 8 129 8q70 0 119 -8l405 -1108q-49 -25 -122 -24q-47 0 -77 19.5t-50 78.5l-60 166q-14 0 -54 -1t-46 -1h-254q-8 0 -50 1t-59 1l-88 -252q-35 -8 -92 -8q-61 0 -100 14zM375 422q14 0 50 1t42 1h172q6 0 36 -1t44 -1l-68 194q-41 117 -98 324h-10 q-51 -185 -84 -283zM408 1294l294 326q47 -16 90.5 -55t59.5 -84l-350 -273q-29 8 -55.5 32.5t-38.5 53.5z" />
<glyph horiz-adv-x="1114" d="M27 16l407 1102q49 8 129 8q70 0 119 -8l405 -1108q-49 -25 -122 -24q-47 0 -77 19.5t-50 78.5l-60 166q-14 0 -54 -1t-46 -1h-254q-8 0 -50 1t-59 1l-88 -252q-35 -8 -92 -8q-61 0 -100 14zM262 1303l217 272q78 27 178 2l201 -258q-30 -67 -102 -94l-191 186l-205 -197 q-63 25 -98 89zM375 422q14 0 50 1t42 1h172q6 0 36 -1t44 -1l-68 194q-41 117 -98 324h-10q-51 -185 -84 -283z" />
<glyph horiz-adv-x="1114" d="M27 16l407 1102q49 8 129 8q70 0 119 -8l405 -1108q-49 -25 -122 -24q-47 0 -77 19.5t-50 78.5l-60 166q-14 0 -54 -1t-46 -1h-254q-8 0 -50 1t-59 1l-88 -252q-35 -8 -92 -8q-61 0 -100 14zM199 1335l18 41q68 150 205 150q55 0 117 -31l112 -57q33 -18 66 -19 q41 0 80 54l22 28q31 0 61.5 -19.5t43.5 -45.5l-19 -41q-68 -150 -205 -150q-50 0 -116 31l-113 55q-33 18 -65 19q-43 0 -80 -52l-23 -28q-31 0 -61.5 18.5t-42.5 46.5zM375 422q14 0 50 1t42 1h172q6 0 36 -1t44 -1l-68 194q-41 117 -98 324h-10q-51 -185 -84 -283z" />
<glyph horiz-adv-x="1114" d="M27 16l407 1102q49 8 129 8q70 0 119 -8l405 -1108q-49 -25 -122 -24q-47 0 -77 19.5t-50 78.5l-60 166q-14 0 -54 -1t-46 -1h-254q-8 0 -50 1t-59 1l-88 -252q-35 -8 -92 -8q-61 0 -100 14zM256 1360q0 49 16 82q39 25 98.5 24.5t98.5 -24.5q16 -39 16 -82t-16 -80 q-39 -25 -98 -25q-63 0 -99 25q-16 33 -16 80zM375 422q14 0 50 1t42 1h172q6 0 36 -1t44 -1l-68 194q-41 117 -98 324h-10q-51 -185 -84 -283zM637 1360q0 43 16 82q39 25 98.5 24.5t98.5 -24.5q16 -33 16 -82t-16 -80q-35 -25 -98 -25q-59 0 -99 25q-16 39 -16 80z" />
<glyph horiz-adv-x="1114" d="M27 16l407 1102q49 8 129 8q70 0 119 -8l405 -1108q-49 -25 -122 -24q-47 0 -77 19.5t-50 78.5l-60 166q-14 0 -54 -1t-46 -1h-254q-8 0 -50 1t-59 1l-88 -252q-35 -8 -92 -8q-61 0 -100 14zM313 1442q0 98 70 165.5t178.5 67.5t178 -67.5t69.5 -165.5q0 -96 -70.5 -164 t-177 -68t-177.5 68t-71 164zM375 422q14 0 50 1t42 1h172q6 0 36 -1t44 -1l-68 194q-41 117 -98 324h-10q-51 -185 -84 -283zM459 1442q0 -47 28.5 -79t73.5 -32t74 32t29 79t-29 79.5t-74 32.5t-73.5 -32.5t-28.5 -79.5z" />
<glyph horiz-adv-x="1097" d="M82 555q0 293 145.5 441.5t364.5 148.5q211 0 325.5 -108.5t114.5 -245.5q0 -121 -123 -121q-35 0 -82 10q0 291 -241 291q-281 0 -281 -416q0 -199 80 -299t213 -100q152 0 317 123q33 -20 64 -61.5t41 -78.5q-154 -135 -373 -162q-18 -37 -22 -53q84 -4 137 -53 t53 -125q0 -90 -69.5 -146.5t-176.5 -56.5q-98 0 -161 41q2 55 43 107q43 -29 102 -29q45 0 68.5 22.5t23.5 57.5t-23.5 57.5t-64.5 22.5q-27 0 -47 -10q-25 9 -37 36q25 82 43 127q-117 8 -203 60.5t-135 135.5t-72.5 179t-23.5 205z" />
<glyph horiz-adv-x="1046" d="M172 127v979l10 12h744q6 -31 6 -86q0 -49 -17 -92h-413h-119q0 -14 1 -48t1 -56v-185q23 0 63.5 1t53.5 1h321q10 -33 11 -86q0 -51 -11 -88h-321h-117v-215q0 -18 -1 -49t-1 -43q74 4 123 4h452q0 -51 -4 -76q-18 -102 -133 -102h-524q-57 0 -91 35t-34 94zM287 1481 q16 45 58 84t89 55l295 -326q-29 -68 -92 -86z" />
<glyph horiz-adv-x="1046" d="M172 127v979l10 12h744q6 -31 6 -86q0 -49 -17 -92h-413h-119q0 -14 1 -48t1 -56v-185q23 0 63.5 1t53.5 1h321q10 -33 11 -86q0 -51 -11 -88h-321h-117v-215q0 -18 -1 -49t-1 -43q74 4 123 4h452q0 -51 -4 -76q-18 -102 -133 -102h-524q-57 0 -91 35t-34 94zM406 1294 l294 326q47 -16 90.5 -55t59.5 -84l-350 -273q-29 8 -55.5 32.5t-38.5 53.5z" />
<glyph horiz-adv-x="1046" d="M172 127v979l10 12h744q6 -31 6 -86q0 -49 -17 -92h-413h-119q0 -14 1 -48t1 -56v-185q23 0 63.5 1t53.5 1h321q10 -33 11 -86q0 -51 -11 -88h-321h-117v-215q0 -18 -1 -49t-1 -43q74 4 123 4h452q0 -51 -4 -76q-18 -102 -133 -102h-524q-57 0 -91 35t-34 94zM260 1303 l217 272q78 27 178 2l201 -258q-30 -67 -102 -94l-191 186l-205 -197q-63 25 -98 89z" />
<glyph horiz-adv-x="1046" d="M172 127v979l10 12h744q6 -31 6 -86q0 -49 -17 -92h-413h-119q0 -14 1 -48t1 -56v-185q23 0 63.5 1t53.5 1h321q10 -33 11 -86q0 -51 -11 -88h-321h-117v-215q0 -18 -1 -49t-1 -43q74 4 123 4h452q0 -51 -4 -76q-18 -102 -133 -102h-524q-57 0 -91 35t-34 94zM254 1360 q0 49 16 82q39 25 98.5 24.5t98.5 -24.5q16 -39 16 -82t-16 -80q-39 -25 -98 -25q-63 0 -99 25q-16 33 -16 80zM635 1360q0 43 16 82q39 25 98.5 24.5t98.5 -24.5q16 -33 16 -82t-16 -80q-35 -25 -98 -25q-59 0 -99 25q-16 39 -16 80z" />
<glyph horiz-adv-x="1275" d="M45 883q0 41 8 73h127v162q43 8 109 8q63 0 106 -8v-162h486v162q43 8 104 8q68 0 111 -8v-162h127q8 -33 8 -71q0 -43 -8 -76h-127v-809q-47 -8 -109 -8q-63 0 -106 8v369q0 25 1 62.5t1 57.5q-10 0 -52.5 -1t-50.5 -1h-284q-8 0 -50.5 1t-52.5 1q0 -20 1 -58t1 -62 v-369q-43 -8 -106 -8q-66 0 -109 8v809h-127q-8 33 -8 74zM393 664q10 0 52 1t51 1h284q8 0 50 -1t53 -1q0 20 -1 60t-1 62v23h-486v-23q0 -23 -1 -62.5t-1 -59.5z" />
<glyph horiz-adv-x="573" d="M16 1481q16 45 58.5 84t89.5 55l295 -326q-29 -68 -92 -86zM178 0v1118q43 8 109 8q61 0 108 -8v-1118q-47 -8 -108 -8q-66 0 -109 8z" />
<glyph horiz-adv-x="573" d="M133 1294l295 326q47 -16 90 -55t60 -84l-351 -273q-29 8 -55.5 32.5t-38.5 53.5zM178 0v1118q43 8 109 8q61 0 108 -8v-1118q-47 -8 -108 -8q-66 0 -109 8z" />
<glyph horiz-adv-x="573" d="M-12 1303l217 272q78 27 178 2l201 -258q-31 -67 -103 -94l-190 186l-205 -197q-63 25 -98 89zM178 0v1118q43 8 109 8q61 0 108 -8v-1118q-47 -8 -108 -8q-66 0 -109 8z" />
<glyph horiz-adv-x="573" d="M-76 1335l19 41q68 150 204 150q55 0 117 -31l113 -57q33 -18 65 -19q41 0 80 54l23 28q31 0 61.5 -19.5t42.5 -45.5l-18 -41q-68 -150 -205 -150q-51 0 -117 31l-112 55q-33 18 -66 19q-43 0 -80 -52l-22 -28q-31 0 -61.5 18.5t-43.5 46.5zM178 0v1118q43 8 109 8 q61 0 108 -8v-1118q-47 -8 -108 -8q-66 0 -109 8z" />
<glyph horiz-adv-x="573" d="M-18 1360q0 49 16 82q39 25 98.5 24.5t98.5 -24.5q16 -39 16 -82t-16 -80q-39 -25 -99 -25q-63 0 -98 25q-16 33 -16 80zM178 0v1118q43 8 109 8q61 0 108 -8v-1118q-47 -8 -108 -8q-66 0 -109 8zM362 1360q0 43 17 82q39 25 98.5 24.5t97.5 -24.5q16 -33 16.5 -82 t-16.5 -80q-35 -25 -98 -25q-59 0 -98 25q-17 39 -17 80z" />
<glyph horiz-adv-x="1390" d="M178 0v1118q43 8 109 8q61 0 108 -8v-1118q-47 -8 -108 -8q-66 0 -109 8zM580 55q14 95 73 154q96 -59 197 -59q96 0 138 59t42 184v725q43 8 109 8q63 0 106 -8v-721q0 -215 -89 -318.5t-286 -103.5q-170 0 -290 80z" />
<glyph horiz-adv-x="817" d="M6 55q15 95 74 154q96 -59 196 -59q96 0 138.5 59t42.5 184v725q43 8 108 8q63 0 107 -8v-721q0 -215 -89 -318.5t-286 -103.5q-170 0 -291 80zM264 1303l217 272q78 27 178 2l201 -258q-30 -67 -102 -94l-191 186l-205 -197q-63 25 -98 89z" />
<glyph horiz-adv-x="1105" d="M172 0v1118q43 8 109 8q63 0 106 -8v-454l82 2q31 0 43 8t33 39l213 331q29 43 54.5 61.5t76.5 18.5q68 0 123 -6l16 -16l-264 -402q-43 -66 -78 -92q76 -16 121 -61t82 -127l100 -221q47 -107 90 -142q-51 -70 -139 -69q-53 0 -82 25.5t-57 88.5l-115 250 q-35 76 -74 105.5t-110.5 29.5t-114.5 -4v-483q-43 -8 -106 -8q-66 0 -109 8zM383 -449q123 80 123 197q0 57 -27 107q41 27 100.5 34.5t106.5 -8.5q20 -49 21 -106q0 -102 -68 -185.5t-186 -128.5q-55 16 -70 90z" />
<glyph horiz-adv-x="1120" d="M172 0v1114l12 12h90q63 0 88 -30.5t25 -104.5v-327l82 2q31 0 43 8t33 39l213 331q29 43 54.5 61.5t76.5 18.5q68 0 123 -6l16 -16l-264 -402q-43 -66 -78 -92q76 -16 121 -61t82 -127l100 -221q47 -107 90 -142q-51 -70 -139 -69q-53 0 -82 25.5t-57 88.5l-115 250 q-35 76 -74 105.5t-110.5 29.5t-114.5 -4v-483q-39 -8 -108 -8q-68 0 -107 8z" />
<glyph horiz-adv-x="962" d="M170 127v987l12 10h84q66 0 93.5 -31.5t27.5 -103.5v-817q119 8 170 8h348q0 -4 -2 -33.5t-4 -46.5q-18 -102 -137 -102h-467q-57 0 -91 34t-34 95zM618 636.5q0 65.5 15 94.5q39 27 108 27q66 0 107 -27q14 -29 14 -94.5t-14 -95.5q-37 -27 -106.5 -27t-108.5 27 q-15 30 -15 95.5z" />
<glyph horiz-adv-x="978" d="M57 584l138 39v491l10 10h84q66 0 93.5 -31.5t27.5 -103.5v-309l305 96l16 -6q25 -66 2 -158l-323 -100v-340q123 8 172 8h346q0 -53 -6 -80q-18 -102 -138 -102h-465q-57 0 -90.5 34t-33.5 95v326l-119 -37l-15 8q-23 63 -4 160z" />
<glyph horiz-adv-x="1271" d="M172 0v1114q53 12 123 12q78 0 125 -8l362 -637q14 -25 123 -241l10 2q-20 276 -20 399v360q0 70 26.5 97.5t92.5 27.5h76l10 -12v-1112q-57 -10 -123 -10q-84 0 -127 8l-361 635q-23 35 -71 130l-49 99l-7 -2q12 -246 13 -391v-471q-49 -8 -101 -8q-55 0 -102 8z M485 1294l295 326q47 -16 90 -55t60 -84l-350 -273q-29 8 -56 32.5t-39 53.5z" />
<glyph horiz-adv-x="1271" d="M172 0v1114q53 12 123 12q78 0 125 -8l362 -637q14 -25 123 -241l10 2q-20 276 -20 399v360q0 70 26.5 97.5t92.5 27.5h76l10 -12v-1112q-57 -10 -123 -10q-84 0 -127 8l-361 635q-23 35 -71 130l-49 99l-7 -2q12 -246 13 -391v-471q-49 -8 -101 -8q-55 0 -102 8z M276 1335l19 41q68 150 205 150q55 0 116 -31l113 -57q33 -18 66 -19q41 0 79 54l23 28q31 0 61.5 -19.5t42.5 -45.5l-18 -41q-68 -150 -205 -150q-50 0 -116 31l-113 55q-33 18 -66 19q-43 0 -80 -52l-22 -28q-31 0 -61.5 18.5t-43.5 46.5z" />
<glyph horiz-adv-x="1656" d="M82 561q0 330 199 483q131 100 327 101q78 0 242 -27h686q6 -31 6 -86q0 -49 -16 -92h-418q-74 0 -119 2q0 -16 1 -57t1 -56v-178q25 0 66 1t51 1h326q10 -33 10 -86q0 -55 -10 -88h-326h-117v-196q0 -16 -1 -55.5t-1 -55.5q74 4 125 4h455q0 -51 -4 -76 q-18 -102 -133 -102h-584q-147 -25 -240 -25q-197 0 -327 101q-199 152 -199 487zM309 559q0 -418 299 -418q84 0 174 27v782q-106 27 -174 27q-299 0 -299 -418z" />
<glyph horiz-adv-x="1208" d="M82 557q0 145 49 276.5t152 213.5q129 98 319 98q195 0 324 -98q102 -82 151 -213.5t49 -276.5t-49 -275t-151 -210q-129 -98 -324 -99q-190 0 -319 99q-102 80 -151.5 210t-49.5 275zM305 557q0 -78 13.5 -144.5t44 -132t92 -103.5t149.5 -38t150.5 38t92.5 103.5 t42 132t12 144.5q0 61 -7 115.5t-26.5 113t-51.5 99.5t-86 67.5t-126 26.5q-88 0 -149.5 -38t-92 -104.5t-44 -134t-13.5 -145.5zM332 1481q16 45 58 84t89 55l295 -326q-29 -68 -92 -86z" />
<glyph horiz-adv-x="1208" d="M82 557q0 145 49 276.5t152 213.5q129 98 319 98q195 0 324 -98q102 -82 151 -213.5t49 -276.5t-49 -275t-151 -210q-129 -98 -324 -99q-190 0 -319 99q-102 80 -151.5 210t-49.5 275zM305 557q0 -78 13.5 -144.5t44 -132t92 -103.5t149.5 -38t150.5 38t92.5 103.5 t42 132t12 144.5q0 61 -7 115.5t-26.5 113t-51.5 99.5t-86 67.5t-126 26.5q-88 0 -149.5 -38t-92 -104.5t-44 -134t-13.5 -145.5zM449 1294l294 326q47 -16 90.5 -55t59.5 -84l-350 -273q-29 8 -55.5 32.5t-38.5 53.5z" />
<glyph horiz-adv-x="1208" d="M82 557q0 145 49 276.5t152 213.5q129 98 319 98q195 0 324 -98q102 -82 151 -213.5t49 -276.5t-49 -275t-151 -210q-129 -98 -324 -99q-190 0 -319 99q-102 80 -151.5 210t-49.5 275zM303 1303l217 272q78 27 178 2l201 -258q-30 -67 -102 -94l-191 186l-205 -197 q-63 25 -98 89zM305 557q0 -78 13.5 -144.5t44 -132t92 -103.5t149.5 -38t150.5 38t92.5 103.5t42 132t12 144.5q0 61 -7 115.5t-26.5 113t-51.5 99.5t-86 67.5t-126 26.5q-88 0 -149.5 -38t-92 -104.5t-44 -134t-13.5 -145.5z" />
<glyph horiz-adv-x="1208" d="M82 557q0 145 49 276.5t152 213.5q129 98 319 98q195 0 324 -98q102 -82 151 -213.5t49 -276.5t-49 -275t-151 -210q-129 -98 -324 -99q-190 0 -319 99q-102 80 -151.5 210t-49.5 275zM240 1335l18 41q68 150 205 150q55 0 117 -31l112 -57q33 -18 66 -19q41 0 80 54 l22 28q31 0 61.5 -19.5t43.5 -45.5l-19 -41q-68 -150 -205 -150q-50 0 -116 31l-113 55q-33 18 -66 19q-43 0 -79 -52l-23 -28q-31 0 -61.5 18.5t-42.5 46.5zM305 557q0 -78 13.5 -144.5t44 -132t92 -103.5t149.5 -38t150.5 38t92.5 103.5t42 132t12 144.5q0 61 -7 115.5 t-26.5 113t-51.5 99.5t-86 67.5t-126 26.5q-88 0 -149.5 -38t-92 -104.5t-44 -134t-13.5 -145.5z" />
<glyph horiz-adv-x="1208" d="M82 557q0 145 49 276.5t152 213.5q129 98 319 98q195 0 324 -98q102 -82 151 -213.5t49 -276.5t-49 -275t-151 -210q-129 -98 -324 -99q-190 0 -319 99q-102 80 -151.5 210t-49.5 275zM297 1360q0 49 16 82q39 25 98.5 24.5t98.5 -24.5q16 -39 16 -82t-16 -80 q-39 -25 -98 -25q-63 0 -99 25q-16 33 -16 80zM305 557q0 -78 13.5 -144.5t44 -132t92 -103.5t149.5 -38t150.5 38t92.5 103.5t42 132t12 144.5q0 61 -7 115.5t-26.5 113t-51.5 99.5t-86 67.5t-126 26.5q-88 0 -149.5 -38t-92 -104.5t-44 -134t-13.5 -145.5zM678 1360 q0 43 16 82q39 25 98.5 24.5t98.5 -24.5q16 -33 16 -82t-16 -80q-35 -25 -98 -25q-59 0 -99 25q-16 39 -16 80z" />
<glyph horiz-adv-x="1208" d="M82 557q0 145 49 276.5t152 213.5q129 98 319 98q164 0 275 -66l86 121q82 -27 120 -88l-92 -131q135 -162 135 -424q0 -145 -49 -275t-151 -210q-129 -98 -324 -99q-160 0 -274 68l-88 -121q-33 10 -69 36t-52 52l94 131q-131 160 -131 418zM297 557q0 -141 39 -244 l438 623q-70 53 -170 53q-90 0 -153.5 -39t-95 -106.5t-45 -137t-13.5 -149.5zM430 182q70 -53 174 -53q90 0 153.5 39t95.5 105.5t45 135t13 148.5q0 150 -43 252z" />
<glyph horiz-adv-x="1120" d="M172 0v1108l10 10q219 6 404 6q197 0 309.5 -83.5t112.5 -249.5q0 -106 -69 -187.5t-169 -105.5q88 -31 137 -142l76 -172q43 -92 84 -131q-49 -68 -143 -67q-51 0 -81 25.5t-55 84.5l-100 228q-27 61 -65.5 87.5t-110.5 26.5h-125v-438q-47 -8 -108 -8q-63 0 -107 8z M387 604q139 4 184 4q117 0 166 52.5t49 126t-49 124t-162 50.5q-27 0 -92 1t-96 1v-359zM399 1294l295 326q47 -16 90 -55t60 -84l-350 -273q-29 8 -56 32.5t-39 53.5z" />
<glyph horiz-adv-x="1120" d="M172 0v1108l10 10q219 6 404 6q197 0 309.5 -83.5t112.5 -249.5q0 -106 -69 -187.5t-169 -105.5q88 -31 137 -142l76 -172q43 -92 84 -131q-49 -68 -143 -67q-51 0 -81 25.5t-55 84.5l-100 228q-27 61 -65.5 87.5t-110.5 26.5h-125v-438q-47 -8 -108 -8q-63 0 -107 8z M260 1501q34 69 102 94l191 -186l207 199q61 -20 98 -88l-219 -275q-72 -29 -178 -2zM387 604q139 4 184 4q117 0 166 52.5t49 126t-49 124t-162 50.5q-27 0 -92 1t-96 1v-359z" />
<glyph horiz-adv-x="1120" d="M172 0v1108l10 10q219 6 404 6q197 0 309.5 -83.5t112.5 -249.5q0 -106 -69 -187.5t-169 -105.5q88 -31 137 -142l76 -172q43 -92 84 -131q-49 -68 -143 -67q-51 0 -81 25.5t-55 84.5l-100 228q-27 61 -65.5 87.5t-110.5 26.5h-125v-438q-47 -8 -108 -8q-63 0 -107 8z M379 -449q123 80 123 197q0 57 -27 107q41 27 100.5 34.5t106.5 -8.5q20 -49 20 -106q0 -102 -67.5 -185.5t-185.5 -128.5q-55 16 -70 90zM387 604q139 4 184 4q117 0 166 52.5t49 126t-49 124t-162 50.5q-27 0 -92 1t-96 1v-359z" />
<glyph horiz-adv-x="2027" d="M57 92q0 43 24.5 91t59.5 71q193 -111 371 -109q88 2 148.5 42t60.5 106q0 104 -154 156l-209 71q-270 92 -270 293q0 141 109.5 235.5t300.5 96.5q213 0 405 -86q0 -106 -74 -164q-174 78 -335 74q-82 0 -131.5 -38t-49.5 -97q0 -45 33 -72t111 -53l205 -72 q131 -45 209.5 -127t78.5 -197q0 -154 -118.5 -246t-317.5 -94q-267 -2 -457 119zM1071 92q0 43 24.5 91t59.5 71q193 -111 371 -109q88 2 148.5 42t60.5 106q0 104 -154 156l-209 71q-270 92 -270 293q0 141 109.5 235.5t299.5 96.5q213 0 406 -86q0 -106 -74 -164 q-174 78 -336 74q-82 0 -131 -38t-49 -97q0 -45 33 -72t110 -53l205 -72q131 -45 210 -127t79 -197q0 -154 -119 -246t-317 -94q-267 -2 -457 119z" />
<glyph horiz-adv-x="1167" d="M20 625q0 41 11 82l157 -2v100q0 168 115 254t307 86q184 0 299 -95.5t115 -246.5q0 -66 -16 -121q-66 -16 -104 -48t-38 -71t60 -86l63 -49q123 -100 123 -213q0 -106 -90 -172t-231 -66q-135 0 -238 46q2 35 20.5 79.5t42.5 69.5q74 -35 150 -35q55 0 89 23.5t34 60.5 q0 49 -66 98l-69 56q-115 86 -115 176q0 68 47 124t123 85q0 4 1 15t1 18q0 84 -53 139t-150 55q-205 0 -205 -207v-780q-47 -8 -108 -8q-66 0 -107 8v541l-157 -2q-10 41 -11 86z" />
<glyph horiz-adv-x="1239" d="M154 399v715l10 12h82q66 0 94.5 -32.5t28.5 -106.5v-588q0 -254 252 -254q250 0 249 254v719q43 8 105 8q69 0 110 -10v-717q0 -205 -122.5 -315.5t-342 -110.5t-343 111t-123.5 315zM342 1481q16 45 58 84t89 55l295 -326q-29 -68 -92 -86z" />
<glyph horiz-adv-x="1239" d="M154 399v715l10 12h82q66 0 94.5 -32.5t28.5 -106.5v-588q0 -254 252 -254q250 0 249 254v719q43 8 105 8q69 0 110 -10v-717q0 -205 -122.5 -315.5t-342 -110.5t-343 111t-123.5 315zM461 1294l295 326q47 -16 90 -55t59 -84l-350 -273q-29 8 -55.5 32.5t-38.5 53.5z " />
<glyph horiz-adv-x="1239" d="M154 399v715l10 12h82q66 0 94.5 -32.5t28.5 -106.5v-588q0 -254 252 -254q250 0 249 254v719q43 8 105 8q69 0 110 -10v-717q0 -205 -122.5 -315.5t-342 -110.5t-343 111t-123.5 315zM315 1303l217 272q78 27 179 2l200 -258q-30 -67 -102 -94l-191 186l-204 -197 q-63 25 -99 89z" />
<glyph horiz-adv-x="1239" d="M154 399v715l10 12h82q66 0 94.5 -32.5t28.5 -106.5v-588q0 -254 252 -254q250 0 249 254v719q43 8 105 8q69 0 110 -10v-717q0 -205 -122.5 -315.5t-342 -110.5t-343 111t-123.5 315zM309 1360q0 49 17 82q39 25 98 24.5t98 -24.5q16 -39 16.5 -82t-16.5 -80 q-39 -25 -98 -25q-63 0 -98 25q-17 33 -17 80zM690 1360q0 43 17 82q39 25 98 24.5t98 -24.5q16 -33 16.5 -82t-16.5 -80q-35 -25 -98 -25q-59 0 -98 25q-17 39 -17 80z" />
<glyph horiz-adv-x="909" d="M16 1100q70 33 129 33q82 0 117 -86l129 -304q47 -121 70 -211h10q51 169 76 228l151 356q39 10 95 10q43 0 96 -12l8 -14l-334 -762v-338q-47 -8 -106 -8q-66 0 -107 8v342zM307 1294l295 326q47 -16 90 -55t60 -84l-351 -273q-29 8 -55.5 32.5t-38.5 53.5z" />
<glyph horiz-adv-x="909" d="M16 1100q70 33 129 33q82 0 117 -86l129 -304q47 -121 70 -211h10q51 169 76 228l151 356q39 10 95 10q43 0 96 -12l8 -14l-334 -762v-338q-47 -8 -106 -8q-66 0 -107 8v342zM156 1360q0 49 16 82q39 25 98.5 24.5t98.5 -24.5q16 -39 16 -82t-16 -80q-39 -25 -99 -25 q-63 0 -98 25q-16 33 -16 80zM537 1360q0 43 16 82q39 25 98.5 24.5t98.5 -24.5q16 -33 16 -82t-16 -80q-35 -25 -99 -25q-59 0 -98 25q-16 39 -16 80z" />
<glyph horiz-adv-x="1210" d="M45 557q0 49 8 88h133v463l11 10q238 6 399 6q213 0 330 -84q115 -84 155.5 -201.5t40.5 -281.5t-40 -281.5t-156 -201.5q-115 -80 -330 -80q-162 0 -399 6l-11 10v463h-133q-8 35 -8 84zM397 156q33 0 96.5 1t100.5 1q307 0 307 399q0 401 -307 401q-129 0 -197 3v-316 h258q8 -39 9 -86q0 -51 -9 -86h-258v-317z" />
<glyph horiz-adv-x="1052" d="M172 0v1118q41 8 107 8q61 0 108 -8v-174q29 0 86 1t88 1q195 0 311.5 -93t116.5 -273.5t-116.5 -274.5t-311.5 -94h-174v-211q-47 -8 -108 -8q-66 0 -107 8zM387 375q35 0 93.5 1t70.5 1q119 0 167 59.5t48 143.5t-48 142t-167 58q-102 0 -164 2v-407z" />
<glyph horiz-adv-x="1114" d="M27 16l407 1102q49 8 129 8q70 0 119 -8l405 -1108q-180 -106 -180 -221q0 -45 27 -68.5t72 -23.5q59 0 120 33q47 -39 48 -103q-82 -72 -218 -71q-98 0 -158.5 51t-60.5 139q0 139 150 258q-33 23 -49 80l-60 166q-14 0 -54 -1t-46 -1h-254q-8 0 -50 1t-59 1l-88 -252 q-35 -8 -92 -8q-61 0 -100 14zM375 422q14 0 50 1t42 1h172q6 0 36 -1t44 -1l-68 194q-41 117 -98 324h-10q-51 -185 -84 -283z" />
<glyph horiz-adv-x="1097" d="M82 555q0 293 145.5 441.5t364.5 148.5q211 0 325.5 -108.5t114.5 -245.5q0 -121 -123 -121q-35 0 -82 10q0 291 -241 291q-281 0 -281 -416q0 -199 80 -299t213 -100q152 0 317 123q33 -20 64 -61.5t41 -78.5q-188 -166 -455 -166q-104 0 -187 33t-137.5 88.5t-91 131 t-52 157.5t-15.5 172zM438 1294l295 326q47 -16 90 -55t60 -84l-351 -273q-29 8 -55.5 32.5t-38.5 53.5z" />
<glyph horiz-adv-x="1097" d="M82 555q0 293 145.5 441.5t364.5 148.5q211 0 325.5 -108.5t114.5 -245.5q0 -121 -123 -121q-35 0 -82 10q0 291 -241 291q-281 0 -281 -416q0 -199 80 -299t213 -100q152 0 317 123q33 -20 64 -61.5t41 -78.5q-188 -166 -455 -166q-104 0 -187 33t-137.5 88.5t-91 131 t-52 157.5t-15.5 172zM297 1501q34 69 102 94l191 -186l207 199q61 -20 98 -88l-219 -275q-72 -29 -178 -2z" />
<glyph horiz-adv-x="1196" d="M172 10v1098l10 10q240 6 400 6q213 0 329.5 -84t156.5 -200.5t40 -282.5t-40 -282.5t-157 -200.5q-115 -80 -329 -80q-164 0 -400 6zM274 1501q35 69 103 94l190 -186l207 199q61 -20 98 -88l-219 -275q-72 -29 -178 -2zM387 160q33 0 94.5 1t98.5 1q307 0 307 395 q0 397 -307 397q-127 0 -193 2v-796z" />
<glyph horiz-adv-x="1046" d="M172 127v979l10 12h744q6 -31 6 -86q0 -49 -17 -92h-413h-119q0 -14 1 -48t1 -56v-185q23 0 63.5 1t53.5 1h321q10 -33 11 -86q0 -51 -11 -88h-321h-117v-215q0 -18 -1 -49t-1 -43q74 4 123 4h452q0 -51 -4 -76q-18 -102 -133 -102h-524q-57 0 -91 35t-34 94zM264 1501 q35 69 103 94l190 -186l207 199q61 -20 98 -88l-219 -275q-72 -29 -178 -2z" />
<glyph horiz-adv-x="1046" d="M172 127v979l10 12h744q6 -31 6 -86q0 -49 -17 -92h-413h-119q0 -14 1 -49t1 -55v-185q23 0 63.5 1t53.5 1h321q10 -33 11 -86q0 -55 -11 -88h-321h-117v-215q0 -18 -1 -48t-1 -42v-2q55 6 123 6h452q0 -53 -4 -78q-12 -70 -71 -92q-2 0 -2 -1t-2 -1 q-88 -35 -138.5 -95.5t-50.5 -121.5q0 -45 27.5 -68.5t70.5 -23.5q55 0 121 33q47 -39 49 -103q-86 -72 -217 -71q-98 0 -159.5 51t-61.5 141q0 143 146 250h-369q-57 0 -91 35t-34 94z" />
<glyph horiz-adv-x="1271" d="M172 0v1114q53 12 123 12q78 0 125 -8l362 -637q14 -25 123 -241l10 2q-20 276 -20 399v360q0 70 26.5 97.5t92.5 27.5h76l10 -12v-1112q-57 -10 -123 -10q-84 0 -127 8l-361 635q-23 35 -71 130l-49 99l-7 -2q12 -246 13 -391v-471q-49 -8 -101 -8q-55 0 -102 8z M344 1501q34 69 102 94l191 -186l207 199q61 -20 98 -88l-219 -275q-72 -29 -178 -2z" />
<glyph horiz-adv-x="1013" d="M57 92q0 43 24.5 91t59.5 71q193 -111 371 -109q88 2 148.5 42t60.5 106q0 104 -154 156l-209 71q-270 92 -270 293q0 141 109.5 235.5t300.5 96.5q213 0 405 -86q0 -106 -74 -164q-174 78 -335 74q-82 0 -131.5 -38t-49.5 -97q0 -45 33 -72t111 -53l205 -72 q131 -45 209.5 -127t78.5 -197q0 -154 -118.5 -246t-317.5 -94q-267 -2 -457 119zM350 1294l295 326q47 -16 90 -55t60 -84l-351 -273q-29 8 -55.5 32.5t-38.5 53.5z" />
<glyph horiz-adv-x="1013" d="M57 92q0 43 24.5 91t59.5 71q193 -111 371 -109q88 2 148.5 42t60.5 106q0 104 -154 156l-209 71q-270 92 -270 293q0 141 109.5 235.5t300.5 96.5q213 0 405 -86q0 -106 -74 -164q-174 78 -335 74q-82 0 -131.5 -38t-49.5 -97q0 -45 33 -72t111 -53l205 -72 q131 -45 209.5 -127t78.5 -197q0 -154 -118.5 -246t-317.5 -94q-267 -2 -457 119zM209 1501q34 69 102 94l191 -186l207 199q61 -20 98 -88l-219 -275q-72 -29 -178 -2z" />
<glyph horiz-adv-x="897" d="M16 1028q0 49 9 90h852q12 -37 12 -82q0 -49 -25.5 -72.5t-89.5 -23.5h-108q-12 0 -52.5 1t-52.5 1q0 -23 1 -61.5t1 -61.5v-819q-39 -8 -108 -8q-68 0 -109 8v819q0 23 1 62t1 61q-12 0 -53 -1t-55 -1h-215q-8 41 -9 88zM160 1501q34 69 102 94l191 -186l206 199 q61 -20 99 -88l-219 -275q-72 -29 -179 -2z" />
<glyph horiz-adv-x="1239" d="M154 399v715l10 12h82q66 0 94.5 -32.5t28.5 -106.5v-588q0 -254 252 -254q250 0 249 254v719q43 8 105 8q69 0 110 -10v-717q0 -205 -122.5 -315.5t-342 -110.5t-343 111t-123.5 315zM367 1442q0 98 69.5 165.5t178 67.5t178 -67.5t69.5 -165.5q0 -96 -70.5 -164 t-177 -68t-177 68t-70.5 164zM512 1442q0 -47 28.5 -79t73.5 -32t74 32t29 79t-29 79.5t-74 32.5t-73.5 -32.5t-28.5 -79.5z" />
<glyph horiz-adv-x="1028" d="M84 129q0 49 29 86l442 567q51 66 152 166l-7 6q-78 -12 -290 -12h-279q-8 33 -8 72q0 49 14 104h766q31 -117 31 -135q0 -43 -29 -78l-440 -565q-63 -76 -146 -166l5 -8q76 6 229 12l162 2q150 0 219 31q14 -53 14 -94q0 -117 -149 -117h-690q-25 100 -25 129zM373 1294 l295 326q47 -16 90 -55t59 -84l-350 -273q-29 8 -55.5 32.5t-38.5 53.5z" />
<glyph horiz-adv-x="1028" d="M84 129q0 49 29 86l442 567q51 66 152 166l-7 6q-78 -12 -290 -12h-279q-8 33 -8 72q0 49 14 104h766q31 -117 31 -135q0 -43 -29 -78l-440 -565q-63 -76 -146 -166l5 -8q76 6 229 12l162 2q150 0 219 31q14 -53 14 -94q0 -117 -149 -117h-690q-25 100 -25 129zM395 1399 q0 55 19 92q43 25 112 25q74 0 113 -25q18 -37 18 -92q0 -53 -18 -90q-33 -27 -113 -27q-76 0 -112 27q-19 37 -19 90z" />
<glyph horiz-adv-x="1028" d="M84 129q0 49 29 86l442 567q51 66 152 166l-7 6q-78 -12 -290 -12h-279q-8 33 -8 72q0 49 14 104h766q31 -117 31 -135q0 -43 -29 -78l-440 -565q-63 -76 -146 -166l5 -8q76 6 229 12l162 2q150 0 219 31q14 -53 14 -94q0 -117 -149 -117h-690q-25 100 -25 129zM231 1501 q35 69 103 94l190 -186l207 199q61 -20 98 -88l-219 -275q-72 -29 -178 -2z" />
</font>
</defs>
</svg>
