<svg viewBox="-50 -50 875 875" fill="none" xmlns="http://www.w3.org/2000/svg">
<rect x="-50" y="-50" width="875" height="875" fill="#081235"/>
<path d="M184.535 735.033H148.48H112.424H40.3125V662.909V626.847V590.785H112.424H148.48H184.535V626.847V662.909V735.033Z" fill="#1B31FF"/>
<path fill-rule="evenodd" clip-rule="evenodd" d="M184.663 485.015C184.663 507.53 183.518 529.473 181.292 550.906C180.529 551.034 179.703 551.161 178.812 551.161C156.301 553.578 133.409 554.786 110.008 554.786C86.6064 554.786 65.558 553.641 44.128 551.415C44.0009 550.97 43.8737 550.461 43.8737 549.825C41.4572 527.946 40.249 505.559 40.249 482.789C40.249 460.02 41.4572 436.615 43.8737 414.418C66.5118 412.192 89.6587 410.92 113.314 410.602C136.27 410.792 158.718 411.937 180.784 414.227C180.911 414.99 181.038 415.817 181.038 416.707C183.454 438.904 184.663 461.674 184.663 485.079V485.015Z" fill="#EDF0FB"/>
<path fill-rule="evenodd" clip-rule="evenodd" d="M364.814 665.326C364.814 687.841 363.669 709.783 361.444 731.217C360.681 731.344 359.854 731.471 358.964 731.471C336.453 733.888 313.56 735.097 290.159 735.097C266.758 735.097 245.709 733.952 224.279 731.726C224.152 731.281 224.025 730.772 224.025 730.136C221.609 708.257 220.4 685.933 220.4 663.1C220.4 640.267 221.609 616.925 224.025 594.728C246.663 592.502 269.81 591.23 293.466 590.912C316.422 591.103 338.869 592.248 360.935 594.537C361.062 595.301 361.189 596.127 361.189 597.018C363.606 619.215 364.814 641.984 364.814 665.389V665.326Z" fill="#EDF0FB"/>
<path fill-rule="evenodd" clip-rule="evenodd" d="M184.536 304.26C184.408 326.012 182.119 346.809 177.795 366.78L175.569 367.225C154.902 371.996 133.155 374.412 110.389 374.412C88.5141 374.412 67.5929 372.25 47.6891 367.861C47.5619 367.098 47.3711 366.526 47.244 366.081C42.6019 345.855 40.249 324.612 40.249 302.479C40.249 280.346 42.6019 258.022 47.244 237.478C68.2288 232.963 90.231 230.61 113.314 230.292C135.507 230.292 156.683 232.454 176.968 236.842C177.095 237.606 177.286 238.369 177.413 239.069C182.183 259.739 184.599 281.491 184.599 304.26H184.536Z" fill="#EDF0FB"/>
<path fill-rule="evenodd" clip-rule="evenodd" d="M545.156 664.754C545.028 686.505 542.739 707.303 538.415 727.274C537.652 727.465 536.889 727.592 536.189 727.719C515.522 732.489 493.775 734.906 471.009 734.906C448.244 734.906 428.213 732.744 408.309 728.355C408.182 727.592 407.991 727.02 407.864 726.574C403.222 706.349 400.869 685.106 400.869 662.909C400.869 640.712 403.222 618.452 407.864 597.909C428.849 593.393 450.851 591.04 473.934 590.722C496.127 590.722 517.303 592.884 537.588 597.273C537.716 598.036 537.906 598.735 538.033 599.499C542.803 620.169 545.219 641.921 545.219 664.69L545.156 664.754Z" fill="#EDF0FB"/>
<path fill-rule="evenodd" clip-rule="evenodd" d="M364.941 484.507C364.814 506.258 362.524 527.056 358.2 547.027C357.437 547.218 356.674 547.345 355.975 547.472C335.308 552.242 313.56 554.659 290.794 554.659C268.029 554.659 247.998 552.497 228.094 548.108C227.967 547.345 227.776 546.773 227.649 546.327C223.007 526.102 220.654 504.859 220.654 482.662C220.654 460.465 223.007 438.205 227.649 417.662C248.634 413.146 270.636 410.793 293.72 410.475C315.913 410.475 337.088 412.637 357.374 417.026C357.501 417.789 357.691 418.552 357.819 419.252C362.588 439.922 365.004 461.674 365.004 484.443L364.941 484.507Z" fill="#1B31FF"/>
<path fill-rule="evenodd" clip-rule="evenodd" d="M184.663 123.505C184.535 144.62 181.229 164.464 174.742 182.845C173.979 182.972 173.343 183.227 172.708 183.545C153.503 190.731 132.9 194.293 110.898 194.102C89.595 194.102 69.8184 190.795 51.568 184.181C51.25 183.608 51.0593 183.036 50.8685 182.59C43.81 163.828 40.3125 143.666 40.3125 122.106C40.3125 100.227 43.81 79.7469 50.8685 60.7301C70.0728 53.9247 90.7396 50.2995 112.933 49.9814C134.49 49.9814 154.584 53.2887 173.216 59.8397C173.534 60.4121 173.725 61.1117 173.916 61.8749C181.101 81.0826 184.726 101.626 184.726 123.505H184.663Z" fill="#EDF0FB"/>
<path fill-rule="evenodd" clip-rule="evenodd" d="M364.941 303.815C364.814 324.931 361.507 344.711 355.021 363.155C354.258 363.282 353.622 363.537 352.986 363.855C333.782 371.042 313.178 374.603 291.176 374.413C269.873 374.413 250.097 371.105 231.846 364.491C231.528 363.918 231.338 363.346 231.147 362.901C224.088 344.138 220.591 323.977 220.591 302.416C220.591 280.537 224.088 260.057 231.147 241.04C250.351 234.171 271.018 230.546 293.211 230.228C314.768 230.228 334.863 233.535 353.495 240.15C353.813 240.722 354.003 241.422 354.194 242.185C361.38 261.393 365.004 281.936 365.004 303.815H364.941Z" fill="#EDF0FB"/>
<path fill-rule="evenodd" clip-rule="evenodd" d="M545.156 483.998C545.029 505.114 541.722 524.957 535.236 543.402C534.473 543.529 533.837 543.783 533.201 544.101C513.996 551.288 493.393 554.786 471.391 554.659C450.088 554.659 430.312 551.352 412.061 544.737C411.743 544.165 411.552 543.593 411.362 543.147C404.303 524.385 400.806 504.223 400.806 482.662C400.806 460.783 404.303 440.304 411.362 421.287C430.566 414.418 451.233 410.793 473.426 410.475C494.983 410.475 515.077 413.782 533.709 420.333C534.027 420.969 534.218 421.605 534.409 422.368C541.595 441.576 545.219 462.119 545.219 483.998H545.156Z" fill="#EDF0FB"/>
<path fill-rule="evenodd" clip-rule="evenodd" d="M725.435 664.436C725.308 685.551 722.001 705.331 715.515 723.776C714.752 723.903 714.116 724.157 713.48 724.475C694.276 731.662 673.672 735.224 651.67 735.033C630.367 735.033 610.591 731.726 592.34 725.111C592.023 724.539 591.832 723.966 591.641 723.521C584.582 704.759 581.085 684.597 581.085 663.036C581.085 641.157 584.582 620.678 591.641 601.661C610.845 594.792 631.512 591.167 653.705 590.849C675.262 590.849 695.357 594.156 713.989 600.707C714.307 601.279 714.497 601.979 714.688 602.742C721.874 621.95 725.499 642.493 725.499 664.372L725.435 664.436Z" fill="#EDF0FB"/>
<path fill-rule="evenodd" clip-rule="evenodd" d="M364.941 122.869C364.813 143.73 360.362 162.492 351.65 179.347C351.078 179.665 350.442 179.919 349.87 180.237C332.319 189.65 312.987 194.293 291.875 194.166C271.208 194.166 252.386 189.714 235.471 180.873C235.153 180.555 234.898 180.11 234.58 179.538C225.105 162.302 220.463 143.094 220.654 121.978C220.654 100.99 225.36 81.7186 234.835 64.1646C252.131 54.8788 271.526 50.1722 292.956 49.9814C313.623 49.9814 332.637 54.4335 349.806 63.2742C350.124 63.8466 350.378 64.4826 350.696 65.055C360.108 82.609 364.877 101.88 364.877 122.869H364.941Z" fill="#EDF0FB"/>
<path fill-rule="evenodd" clip-rule="evenodd" d="M545.156 303.052C545.029 323.913 540.578 342.676 531.866 359.466C531.294 359.784 530.658 360.039 530.085 360.357C512.534 369.834 493.203 374.476 472.091 374.286C451.424 374.286 432.601 369.833 415.686 360.993C415.368 360.675 415.114 360.23 414.796 359.657C405.385 342.421 400.743 323.214 400.87 302.098C400.87 281.109 405.575 261.838 415.05 244.284C432.411 234.998 451.869 230.228 473.299 230.101C493.966 230.101 512.979 234.553 530.149 243.394C530.467 243.966 530.721 244.602 531.039 245.175C540.451 262.729 545.22 282 545.22 302.988L545.156 303.052Z" fill="#1B31FF"/>
<path fill-rule="evenodd" clip-rule="evenodd" d="M725.435 483.362C725.307 504.223 720.856 522.986 712.144 539.84C711.572 540.158 710.936 540.412 710.364 540.73C692.813 550.207 673.481 554.85 652.369 554.659C631.702 554.659 612.88 550.207 595.965 541.366C595.647 541.048 595.392 540.603 595.074 540.031C585.663 522.795 581.021 503.587 581.148 482.471C581.148 461.483 585.854 442.212 595.329 424.658C612.689 415.372 632.147 410.602 653.577 410.475C674.244 410.475 693.258 414.927 710.427 423.767C710.745 424.403 711 424.976 711.317 425.548C720.729 443.102 725.498 462.373 725.498 483.362H725.435Z" fill="#EDF0FB"/>
<path fill-rule="evenodd" clip-rule="evenodd" d="M545.156 122.36C544.838 142.458 539.305 160.139 528.495 175.403C527.859 175.721 527.35 176.103 526.905 176.548C511.198 188.378 493.011 194.229 472.472 194.102C452.377 194.102 434.636 188.633 419.183 177.693C418.865 177.057 418.484 176.548 418.038 176.103C406.338 160.521 400.551 142.458 400.742 121.915C400.742 101.499 406.592 83.3721 418.293 67.4717C434.127 55.8963 452.377 50.0449 473.235 49.9177C493.139 49.7905 510.88 55.1966 526.269 66.1361C526.587 66.7085 526.969 67.2809 527.414 67.7261C539.242 83.7537 545.156 102.007 545.156 122.36Z" fill="#EDF0FB"/>
<path fill-rule="evenodd" clip-rule="evenodd" d="M725.435 302.607C725.117 322.705 719.585 340.386 708.774 355.714C708.138 356.032 707.63 356.413 707.184 356.859C691.478 368.689 673.291 374.54 652.751 374.413C632.657 374.413 614.915 368.943 599.462 358.003C599.144 357.367 598.763 356.859 598.318 356.413C586.617 340.831 580.83 322.768 581.021 302.225C581.021 281.809 586.871 263.683 598.572 247.846C614.279 236.27 632.593 230.483 653.451 230.292C673.354 230.165 691.096 235.507 706.485 246.447C706.803 247.019 707.184 247.591 707.63 248.037C719.457 264.064 725.371 282.254 725.371 302.67L725.435 302.607Z" fill="#EDF0FB"/>
<path d="M653.196 194.166C693.022 194.166 725.308 161.875 725.308 122.042C725.308 82.209 693.022 49.918 653.196 49.918C613.37 49.918 581.085 82.209 581.085 122.042C581.085 161.875 613.37 194.166 653.196 194.166Z" fill="#1B31FF"/>
<g filter="url(#filter0_f_6921_561)">
<path d="M652.951 203.261C697.799 203.261 734.156 166.898 734.156 122.042C734.156 77.1859 697.799 40.8228 652.951 40.8228C608.103 40.8228 571.746 77.1859 571.746 122.042C571.746 166.898 608.103 203.261 652.951 203.261Z" fill="#1B31FF"/>
</g>
<defs>
<filter id="filter0_f_6921_561" x="560.706" y="29.7822" width="184.491" height="184.52" filterUnits="userSpaceOnUse" color-interpolation-filters="sRGB">
<feFlood flood-opacity="0" result="BackgroundImageFix"/>
<feBlend mode="normal" in="SourceGraphic" in2="BackgroundImageFix" result="shape"/>
<feGaussianBlur stdDeviation="5.52029" result="effect1_foregroundBlur_6921_561"/>
</filter>
</defs>
</svg>
