<svg width="535" height="535" viewBox="340 340 1070 1070" fill="none" xmlns="http://www.w3.org/2000/svg">
<path d="M645.535 1050.03H609.48H573.424H501.312V977.909V941.847V905.785H573.424H609.48H645.535V941.847V977.909V1050.03Z" fill="#1B31FF"/>
<path fill-rule="evenodd" clip-rule="evenodd" d="M645.663 800.015C645.663 822.53 644.518 844.473 642.292 865.906C641.529 866.034 640.703 866.161 639.812 866.161C617.301 868.578 594.409 869.786 571.008 869.786C547.606 869.786 526.558 868.641 505.128 866.415C505.001 865.97 504.874 865.461 504.874 864.825C502.457 842.946 501.249 820.559 501.249 797.789C501.249 775.02 502.457 751.615 504.874 729.418C527.512 727.192 550.659 725.92 574.314 725.602C597.27 725.792 619.718 726.937 641.784 729.227C641.911 729.99 642.038 730.817 642.038 731.707C644.454 753.904 645.663 776.674 645.663 800.079V800.015Z" fill="#EDF0FB"/>
<path fill-rule="evenodd" clip-rule="evenodd" d="M825.814 980.326C825.814 1002.84 824.669 1024.78 822.444 1046.22C821.681 1046.34 820.854 1046.47 819.964 1046.47C797.453 1048.89 774.56 1050.1 751.159 1050.1C727.758 1050.1 706.709 1048.95 685.279 1046.73C685.152 1046.28 685.025 1045.77 685.025 1045.14C682.609 1023.26 681.4 1000.93 681.4 978.1C681.4 955.267 682.609 931.925 685.025 909.728C707.663 907.502 730.81 906.23 754.466 905.912C777.422 906.103 799.869 907.248 821.935 909.537C822.062 910.301 822.189 911.127 822.189 912.018C824.606 934.215 825.814 956.984 825.814 980.389V980.326Z" fill="#EDF0FB"/>
<path fill-rule="evenodd" clip-rule="evenodd" d="M645.536 619.26C645.408 641.012 643.119 661.81 638.795 681.781L636.569 682.226C615.902 686.996 594.155 689.413 571.389 689.413C549.514 689.413 528.593 687.25 508.689 682.862C508.562 682.099 508.371 681.526 508.244 681.081C503.602 660.856 501.249 639.613 501.249 617.48C501.249 595.346 503.602 573.022 508.244 552.479C529.229 547.963 551.231 545.61 574.314 545.292C596.507 545.292 617.683 547.454 637.968 551.843C638.095 552.606 638.286 553.369 638.413 554.069C643.183 574.739 645.599 596.491 645.599 619.26H645.536Z" fill="#EDF0FB"/>
<path fill-rule="evenodd" clip-rule="evenodd" d="M1006.16 979.754C1006.03 1001.51 1003.74 1022.3 999.415 1042.27C998.652 1042.46 997.889 1042.59 997.189 1042.72C976.522 1047.49 954.775 1049.91 932.009 1049.91C909.244 1049.91 889.213 1047.74 869.309 1043.36C869.182 1042.59 868.991 1042.02 868.864 1041.57C864.222 1021.35 861.869 1000.11 861.869 977.909C861.869 955.712 864.222 933.452 868.864 912.909C889.849 908.393 911.851 906.04 934.934 905.722C957.127 905.722 978.303 907.884 998.588 912.273C998.716 913.036 998.906 913.735 999.033 914.499C1003.8 935.169 1006.22 956.921 1006.22 979.69L1006.16 979.754Z" fill="#EDF0FB"/>
<path fill-rule="evenodd" clip-rule="evenodd" d="M825.941 799.507C825.814 821.258 823.524 842.056 819.2 862.027C818.437 862.218 817.674 862.345 816.975 862.472C796.308 867.242 774.56 869.659 751.794 869.659C729.029 869.659 708.998 867.497 689.094 863.108C688.967 862.345 688.776 861.773 688.649 861.327C684.007 841.102 681.654 819.859 681.654 797.662C681.654 775.465 684.007 753.205 688.649 732.662C709.634 728.146 731.636 725.793 754.72 725.475C776.913 725.475 798.088 727.637 818.374 732.026C818.501 732.789 818.691 733.552 818.819 734.252C823.588 754.922 826.004 776.674 826.004 799.443L825.941 799.507Z" fill="#1B31FF"/>
<path fill-rule="evenodd" clip-rule="evenodd" d="M645.663 438.505C645.535 459.62 642.229 479.464 635.742 497.845C634.979 497.972 634.343 498.227 633.708 498.545C614.503 505.731 593.9 509.293 571.898 509.102C550.595 509.102 530.818 505.795 512.568 499.181C512.25 498.608 512.059 498.036 511.868 497.59C504.81 478.828 501.312 458.666 501.312 437.106C501.312 415.227 504.81 394.747 511.868 375.73C531.073 368.925 551.74 365.299 573.933 364.981C595.49 364.981 615.584 368.289 634.216 374.84C634.534 375.412 634.725 376.112 634.916 376.875C642.101 396.083 645.726 416.626 645.726 438.505H645.663Z" fill="#EDF0FB"/>
<path fill-rule="evenodd" clip-rule="evenodd" d="M825.941 618.815C825.814 639.931 822.507 659.711 816.021 678.156C815.258 678.283 814.622 678.537 813.986 678.855C794.782 686.042 774.178 689.604 752.176 689.413C730.873 689.413 711.097 686.106 692.846 679.491C692.528 678.919 692.338 678.346 692.147 677.901C685.088 659.139 681.591 638.977 681.591 617.416C681.591 595.537 685.088 575.058 692.147 556.041C711.351 549.172 732.018 545.547 754.211 545.229C775.768 545.229 795.863 548.536 814.495 555.15C814.813 555.723 815.003 556.422 815.194 557.186C822.38 576.393 826.004 596.936 826.004 618.815H825.941Z" fill="#EDF0FB"/>
<path fill-rule="evenodd" clip-rule="evenodd" d="M1006.16 798.998C1006.03 820.114 1002.72 839.957 996.236 858.402C995.473 858.529 994.837 858.783 994.201 859.101C974.996 866.288 954.393 869.786 932.391 869.659C911.088 869.659 891.312 866.352 873.061 859.737C872.743 859.165 872.552 858.593 872.362 858.147C865.303 839.385 861.806 819.223 861.806 797.662C861.806 775.783 865.303 755.304 872.362 736.287C891.566 729.418 912.233 725.793 934.426 725.475C955.983 725.475 976.077 728.782 994.709 735.333C995.027 735.969 995.218 736.605 995.409 737.368C1002.59 756.576 1006.22 777.119 1006.22 798.998H1006.16Z" fill="#EDF0FB"/>
<path fill-rule="evenodd" clip-rule="evenodd" d="M1186.44 979.436C1186.31 1000.55 1183 1020.33 1176.51 1038.78C1175.75 1038.9 1175.12 1039.16 1174.48 1039.48C1155.28 1046.66 1134.67 1050.22 1112.67 1050.03C1091.37 1050.03 1071.59 1046.73 1053.34 1040.11C1053.02 1039.54 1052.83 1038.97 1052.64 1038.52C1045.58 1019.76 1042.08 999.597 1042.08 978.036C1042.08 956.157 1045.58 935.678 1052.64 916.661C1071.85 909.792 1092.51 906.167 1114.71 905.849C1136.26 905.849 1156.36 909.156 1174.99 915.707C1175.31 916.279 1175.5 916.979 1175.69 917.742C1182.87 936.95 1186.5 957.493 1186.5 979.372L1186.44 979.436Z" fill="#EDF0FB"/>
<path fill-rule="evenodd" clip-rule="evenodd" d="M825.941 437.869C825.813 458.73 821.362 477.492 812.65 494.347C812.078 494.665 811.442 494.919 810.87 495.237C793.319 504.65 773.987 509.293 752.875 509.166C732.208 509.166 713.386 504.714 696.471 495.873C696.153 495.555 695.898 495.11 695.58 494.538C686.105 477.302 681.463 458.094 681.654 436.978C681.654 415.99 686.36 396.719 695.835 379.165C713.131 369.879 732.526 365.172 753.956 364.981C774.623 364.981 793.637 369.434 810.806 378.274C811.124 378.847 811.378 379.483 811.696 380.055C821.108 397.609 825.877 416.88 825.877 437.869H825.941Z" fill="#EDF0FB"/>
<path fill-rule="evenodd" clip-rule="evenodd" d="M1006.16 618.052C1006.03 638.914 1001.58 657.676 992.866 674.467C992.294 674.785 991.658 675.039 991.085 675.357C973.534 684.834 954.203 689.477 933.091 689.286C912.424 689.286 893.601 684.834 876.686 675.993C876.368 675.675 876.114 675.23 875.796 674.658C866.385 657.422 861.743 638.214 861.87 617.098C861.87 596.11 866.575 576.839 876.05 559.285C893.411 549.999 912.869 545.229 934.299 545.102C954.966 545.102 973.979 549.554 991.149 558.394C991.467 558.967 991.721 559.603 992.039 560.175C1001.45 577.729 1006.22 597 1006.22 617.989L1006.16 618.052Z" fill="#1B31FF"/>
<path fill-rule="evenodd" clip-rule="evenodd" d="M1186.43 798.362C1186.31 819.223 1181.86 837.986 1173.14 854.84C1172.57 855.158 1171.94 855.412 1171.36 855.73C1153.81 865.207 1134.48 869.85 1113.37 869.659C1092.7 869.659 1073.88 865.207 1056.96 856.366C1056.65 856.048 1056.39 855.603 1056.07 855.031C1046.66 837.795 1042.02 818.587 1042.15 797.471C1042.15 776.483 1046.85 757.212 1056.33 739.658C1073.69 730.372 1093.15 725.602 1114.58 725.475C1135.24 725.475 1154.26 729.927 1171.43 738.767C1171.75 739.403 1172 739.976 1172.32 740.548C1181.73 758.102 1186.5 777.373 1186.5 798.362H1186.43Z" fill="#EDF0FB"/>
<path fill-rule="evenodd" clip-rule="evenodd" d="M1006.16 437.36C1005.84 457.458 1000.31 475.14 989.495 490.404C988.859 490.722 988.35 491.104 987.905 491.549C972.198 503.379 954.011 509.23 933.472 509.103C913.377 509.103 895.636 503.633 880.183 492.694C879.865 492.058 879.484 491.549 879.038 491.104C867.338 475.521 861.551 457.458 861.742 436.915C861.742 416.499 867.592 398.373 879.293 382.472C895.127 370.897 913.377 365.045 934.235 364.918C954.139 364.791 971.88 370.197 987.269 381.137C987.587 381.709 987.969 382.281 988.414 382.727C1000.24 398.754 1006.16 417.008 1006.16 437.36Z" fill="#EDF0FB"/>
<path fill-rule="evenodd" clip-rule="evenodd" d="M1186.43 617.607C1186.12 637.705 1180.58 655.386 1169.77 670.714C1169.14 671.032 1168.63 671.414 1168.18 671.859C1152.48 683.689 1134.29 689.54 1113.75 689.413C1093.66 689.413 1075.91 683.943 1060.46 673.004C1060.14 672.368 1059.76 671.859 1059.32 671.414C1047.62 655.832 1041.83 637.769 1042.02 617.225C1042.02 596.809 1047.87 578.683 1059.57 562.846C1075.28 551.271 1093.59 545.483 1114.45 545.292C1134.35 545.165 1152.1 550.508 1167.48 561.447C1167.8 562.019 1168.18 562.592 1168.63 563.037C1180.46 579.065 1186.37 597.255 1186.37 617.671L1186.43 617.607Z" fill="#EDF0FB"/>
<path d="M1114.2 509.166C1154.02 509.166 1186.31 476.875 1186.31 437.042C1186.31 397.209 1154.02 364.918 1114.2 364.918C1074.37 364.918 1042.08 397.209 1042.08 437.042C1042.08 476.875 1074.37 509.166 1114.2 509.166Z" fill="#1B31FF"/>
<g filter="url(#filter0_f_13542_6)">
<path d="M1113.95 518.262C1158.8 518.262 1195.16 481.899 1195.16 437.043C1195.16 392.186 1158.8 355.823 1113.95 355.823C1069.1 355.823 1032.75 392.186 1032.75 437.043C1032.75 481.899 1069.1 518.262 1113.95 518.262Z" fill="#1B31FF"/>
</g>
<path d="M405.161 1339.17C392.625 1339.17 382.657 1336.15 375.257 1330.11C367.856 1323.92 364.156 1315.61 364.156 1305.19C364.156 1295.07 367.554 1286.91 374.35 1280.72C381.147 1274.38 391.039 1270.83 404.028 1270.07L437.104 1268.26V1262.15C437.104 1255.05 435.292 1249.91 431.667 1246.74C428.193 1243.57 422.681 1241.98 415.129 1241.98C407.729 1241.98 402.14 1243.19 398.365 1245.61C394.74 1247.87 392.474 1251.8 391.568 1257.39H369.593C370.801 1246.21 375.257 1237.83 382.959 1232.24C390.813 1226.65 402.065 1223.86 416.715 1223.86C429.855 1223.86 439.974 1227.11 447.072 1233.6C454.322 1239.94 457.947 1249.08 457.947 1261.01V1314.25C457.947 1316.67 459.155 1317.88 461.572 1317.88H470.86V1336H453.189C449.413 1336 446.468 1335.02 444.354 1333.05C442.39 1331.09 441.409 1328.3 441.409 1324.67V1321.5C438.237 1327.09 433.48 1331.47 427.136 1334.64C420.944 1337.66 413.619 1339.17 405.161 1339.17ZM386.131 1304.51C386.131 1309.49 388.019 1313.5 391.795 1316.52C395.722 1319.54 401.008 1321.05 407.653 1321.05C416.715 1321.05 423.889 1318.56 429.175 1313.57C434.461 1308.44 437.104 1301.34 437.104 1292.28V1285.25L406.747 1287.52C399.95 1287.97 394.815 1289.78 391.342 1292.96C387.868 1295.98 386.131 1299.83 386.131 1304.51ZM538.881 1339.17C528.611 1339.17 519.474 1336.76 511.469 1331.92C503.615 1327.09 497.498 1320.37 493.118 1311.76C488.739 1303 486.549 1292.88 486.549 1281.4C486.549 1270.07 488.739 1260.11 493.118 1251.5C497.498 1242.74 503.615 1235.94 511.469 1231.11C519.474 1226.28 528.611 1223.86 538.881 1223.86C546.886 1223.86 553.984 1225.29 560.177 1228.16C566.369 1231.03 571.127 1235.11 574.449 1240.4V1177.42H596.198V1336H576.715V1320.82C573.09 1326.56 567.955 1331.09 561.31 1334.41C554.815 1337.59 547.339 1339.17 538.881 1339.17ZM509.203 1281.4C509.203 1292.73 512.224 1301.87 518.265 1308.81C524.458 1315.76 532.462 1319.24 542.279 1319.24C552.097 1319.24 559.95 1315.76 565.841 1308.81C571.882 1301.87 574.902 1292.73 574.902 1281.4C574.902 1270.23 571.882 1261.16 565.841 1254.22C559.95 1247.27 552.097 1243.79 542.279 1243.79C532.462 1243.79 524.458 1247.27 518.265 1254.22C512.224 1261.16 509.203 1270.23 509.203 1281.4ZM663.125 1339.17C650.59 1339.17 640.622 1336.15 633.221 1330.11C625.82 1323.92 622.12 1315.61 622.12 1305.19C622.12 1295.07 625.518 1286.91 632.315 1280.72C639.111 1274.38 649.004 1270.83 661.993 1270.07L695.069 1268.26V1262.15C695.069 1255.05 693.256 1249.91 689.632 1246.74C686.158 1243.57 680.645 1241.98 673.094 1241.98C665.693 1241.98 660.105 1243.19 656.329 1245.61C652.704 1247.87 650.439 1251.8 649.532 1257.39H627.557C628.766 1246.21 633.221 1237.83 640.924 1232.24C648.777 1226.65 660.029 1223.86 674.679 1223.86C687.819 1223.86 697.938 1227.11 705.037 1233.6C712.286 1239.94 715.911 1249.08 715.911 1261.01V1314.25C715.911 1316.67 717.119 1317.88 719.536 1317.88H728.824V1336H711.154C707.378 1336 704.433 1335.02 702.318 1333.05C700.355 1331.09 699.373 1328.3 699.373 1324.67V1321.5C696.201 1327.09 691.444 1331.47 685.101 1334.64C678.908 1337.66 671.583 1339.17 663.125 1339.17ZM644.095 1304.51C644.095 1309.49 645.983 1313.5 649.759 1316.52C653.686 1319.54 658.972 1321.05 665.617 1321.05C674.679 1321.05 681.853 1318.56 687.14 1313.57C692.426 1308.44 695.069 1301.34 695.069 1292.28V1285.25L664.711 1287.52C657.915 1287.97 652.78 1289.78 649.306 1292.96C645.832 1295.98 644.095 1299.83 644.095 1304.51ZM751.989 1227.03H771.472V1242.44C774.946 1236.55 780.006 1232.01 786.651 1228.84C793.296 1225.52 800.848 1223.86 809.306 1223.86C819.576 1223.86 828.638 1226.28 836.492 1231.11C844.496 1235.94 850.689 1242.74 855.069 1251.5C859.449 1260.11 861.639 1270.07 861.639 1281.4C861.639 1292.88 859.449 1303 855.069 1311.76C850.689 1320.37 844.496 1327.09 836.492 1331.92C828.638 1336.76 819.576 1339.17 809.306 1339.17C801.452 1339.17 794.429 1337.74 788.237 1334.87C782.196 1332 777.438 1327.92 773.964 1322.63V1376.78H751.989V1227.03ZM773.511 1281.4C773.511 1292.73 776.456 1301.87 782.347 1308.81C788.388 1315.76 796.317 1319.24 806.134 1319.24C815.951 1319.24 823.88 1315.76 829.922 1308.81C835.963 1301.87 838.984 1292.73 838.984 1281.4C838.984 1270.23 835.963 1261.16 829.922 1254.22C823.88 1247.27 815.951 1243.79 806.134 1243.79C796.317 1243.79 788.388 1247.27 782.347 1254.22C776.456 1261.16 773.511 1270.23 773.511 1281.4ZM927.033 1336C917.518 1336 910.646 1333.96 906.417 1329.88C902.188 1325.81 900.074 1319.08 900.074 1309.72V1246.29H871.529V1227.03H900.074V1194.41H922.049V1227.03H956.258V1246.29H922.049V1305.42C922.049 1309.34 922.955 1312.21 924.768 1314.02C926.58 1315.84 929.525 1316.74 933.603 1316.74H956.258V1336H927.033ZM1005.05 1198.71H955.21V1177.42H1077.55V1198.71H1027.71V1336H1005.05V1198.71ZM1126.8 1339.17C1115.93 1339.17 1106.19 1336.76 1097.58 1331.92C1089.12 1327.09 1082.47 1320.29 1077.64 1311.53C1072.96 1302.77 1070.62 1292.73 1070.62 1281.4C1070.62 1270.07 1072.96 1260.11 1077.64 1251.5C1082.47 1242.74 1089.12 1235.94 1097.58 1231.11C1106.19 1226.28 1115.93 1223.86 1126.8 1223.86C1137.83 1223.86 1147.57 1226.28 1156.03 1231.11C1164.49 1235.94 1171.06 1242.74 1175.74 1251.5C1180.57 1260.11 1182.99 1270.07 1182.99 1281.4C1182.99 1292.88 1180.57 1303 1175.74 1311.76C1171.06 1320.37 1164.49 1327.09 1156.03 1331.92C1147.57 1336.76 1137.83 1339.17 1126.8 1339.17ZM1093.27 1281.4C1093.27 1292.73 1096.37 1301.87 1102.56 1308.81C1108.75 1315.76 1116.83 1319.24 1126.8 1319.24C1136.92 1319.24 1145 1315.76 1151.04 1308.81C1157.24 1301.87 1160.33 1292.73 1160.33 1281.4C1160.33 1270.23 1157.24 1261.16 1151.04 1254.22C1145 1247.27 1136.92 1243.79 1126.8 1243.79C1116.83 1243.79 1108.75 1247.27 1102.56 1254.22C1096.37 1261.16 1093.27 1270.23 1093.27 1281.4ZM1279.39 1369.76C1265.95 1369.76 1253.94 1365.68 1243.37 1357.52C1232.8 1349.52 1224.49 1337.51 1218.45 1321.5C1212.41 1305.34 1209.39 1285.86 1209.39 1263.05C1209.39 1240.09 1212.41 1220.61 1218.45 1204.6C1224.49 1188.44 1232.8 1176.36 1243.37 1168.35C1253.94 1160.2 1265.95 1156.12 1279.39 1156.12H1281.65V1174.92H1279.39C1270.48 1174.92 1262.25 1178.4 1254.69 1185.35C1247.29 1192.14 1241.33 1202.19 1236.8 1215.48C1232.42 1228.77 1230.23 1244.63 1230.23 1263.05C1230.23 1281.48 1232.42 1297.34 1236.8 1310.63C1241.33 1323.92 1247.29 1333.96 1254.69 1340.76C1262.25 1347.55 1270.48 1350.95 1279.39 1350.95H1281.65V1369.76H1279.39ZM1314.61 1156.12C1328.05 1156.12 1340.06 1160.2 1350.63 1168.35C1361.2 1176.36 1369.51 1188.44 1375.55 1204.6C1381.59 1220.61 1384.61 1240.02 1384.61 1262.82C1384.61 1285.78 1381.59 1305.34 1375.55 1321.5C1369.51 1337.51 1361.2 1349.52 1350.63 1357.52C1340.06 1365.68 1328.05 1369.76 1314.61 1369.76H1312.34V1350.95H1314.61C1323.52 1350.95 1331.67 1347.48 1339.07 1340.53C1346.63 1333.73 1352.59 1323.69 1356.97 1310.4C1361.5 1297.11 1363.77 1281.25 1363.77 1262.82C1363.77 1244.4 1361.5 1228.54 1356.97 1215.25C1352.59 1201.96 1346.63 1191.92 1339.07 1185.12C1331.67 1178.32 1323.52 1174.92 1314.61 1174.92H1312.34V1156.12H1314.61Z" fill="#EDF0FB"/>
<defs>
<filter id="filter0_f_13542_6" x="1021.71" y="344.783" width="184.491" height="184.52" filterUnits="userSpaceOnUse" color-interpolation-filters="sRGB">
<feFlood flood-opacity="0" result="BackgroundImageFix"/>
<feBlend mode="normal" in="SourceGraphic" in2="BackgroundImageFix" result="shape"/>
<feGaussianBlur stdDeviation="5.52029" result="effect1_foregroundBlur_13542_6"/>
</filter>
</defs>
</svg>
