<?xml version="1.0" encoding="utf-8"?>
<svg version="1.1" id="Layer_1"
	 xmlns="http://www.w3.org/2000/svg" xmlns:xlink="http://www.w3.org/1999/xlink" x="0px" y="0px" viewBox="0 0 256 256"
	 style="enable-background:new 0 0 256 256;" xml:space="preserve">
<style type="text/css">
	#background{fill:#343433;}
	.white{fill:#FFFFFF;}
	#blue-dots{fill:#2BACE2;}
</style>
	<g>
		<rect id="background" width="256" height="256"/>
		<g id="logo">
			<path id="logo-type" class="white" d="M23.5,218.7c-0.4,0.2-0.6,0.9-0.6,1.2v4c0,0.3,0.1,0.5,0.3,0.5h5c0.2,0,0.3-0.2,0.3-0.5v-6.2
				L23.5,218.7z M28.4,208.9c0-0.5-0.2-0.7-0.5-0.7H17.6c-1.1,0-2-0.7-2-1.6v-4.2c0-0.7,0.9-1.6,2-1.6h12.9c3.4,0,6.9,2,6.9,6.5V226
				c0,3.5-2.2,5.8-6.1,5.8H20.2c-3,0-6.2-1.7-6.2-5.7v-5.6c0-2.2,0-5.6,4.6-6.9l9.5-2.1c0.1-0.1,0.3-0.3,0.3-0.8V208.9z M52.4,223.7
				c0,0.3,0.2,0.7,0.4,0.7h5.6c0.2,0,0.3-0.4,0.3-0.7v-15.6h-5.9c-0.2,0-0.4,0.4-0.4,0.7V223.7z M67.9,227.7c0,2.4-1.6,4.1-4.4,4.1
				H51.1c-4.2,0-7.7-3.3-7.7-7.4V208c0-3.7,2.8-7.4,7.6-7.4h7.9v-9.2c0-0.9,0.8-1.8,2-1.8h5c1,0,2,0.7,2,1.8V227.7z M83.7,218.7
				c-0.4,0.2-0.6,0.9-0.6,1.2v4c0,0.3,0.1,0.5,0.3,0.5h5c0.2,0,0.3-0.2,0.3-0.5v-6.2L83.7,218.7z M88.5,208.9c0-0.5-0.2-0.7-0.5-0.7
				H77.8c-1.1,0-2-0.7-2-1.6v-4.2c0-0.7,0.9-1.6,2-1.6h12.9c3.4,0,6.9,2,6.9,6.5V226c0,3.5-2.2,5.8-6.1,5.8H80.4
				c-3,0-6.2-1.7-6.2-5.7v-5.6c0-2.2,0-5.6,4.6-6.9l9.5-2.1c0.1-0.1,0.3-0.3,0.3-0.8V208.9z M113.5,224.4h6c0.2,0,0.3-0.3,0.3-0.6
				v-14.9c0-0.4-0.2-0.7-0.4-0.7h-5.7c-0.2,0-0.3,0.3-0.3,0.6V224.4z M104.4,204.5c0-2.3,1.5-3.9,4.1-3.9h12.7
				c4.2,0,7.7,3.3,7.7,7.4v16.4c0,3.7-2.8,7.4-7.6,7.4h-7.9v9.3c0,0.9-0.7,1.8-2,1.8h-5c-1,0-2.1-0.7-2.1-1.8V204.5z M148.2,223
				c1.2,0,2,0.8,2,1.8v4.3c0,1.1-1,1.8-2,1.8h-8.8c-2.6,0-5.4-2-5.4-5.2v-33.5c0-0.7,0.7-1.6,1.7-2l4.7-1.4h-0.1
				c2.8-1.2,2.8,0.8,2.8,1.9v9.5h4.5c1.2,0,2,0.9,2,1.8v4c0,1-1,1.8-2,1.8h-4.5v14.7c0,0.5,0.2,0.7,0.4,0.7H148.2z M173.7,197.4V230
				c0,1.1-1.1,1.8-2.2,1.8h-5.1c-1.3,0-2.2-0.9-2.2-1.8v-32.6h-9.4c-1.2,0-2-0.9-2-1.8v-4c0-1.1,1.1-1.9,2-1.9H183
				c1,0,2.1,0.7,2.1,1.9v4c0,0.9-0.8,1.8-2.1,1.8H173.7z M202.8,208.8c0-0.3-0.2-0.7-0.7-0.7h-4.9c-0.4,0-0.6,0.4-0.6,0.7v14.9
				c0,0.3,0.2,0.7,0.6,0.7h4.9c0.5,0,0.7-0.4,0.7-0.7V208.8z M211.9,224.4c0,3.7-2.5,7.4-7.5,7.4h-9.3c-5.2,0-7.6-3.7-7.6-7.4v-16.4
				c0-4.1,3.5-7.4,7.7-7.4h8.9c3.7,0,7.8,3.6,7.8,7.4V224.4z M233.7,242.9h-3.2c-1.5,0-2-0.2-2.9-1.3c-4.7-5.7-8-15.8-8-24.9v-0.6
				c0-9,3.5-19.4,8.2-25.1c1-1.1,1.5-1.2,3-1.2h3.1c1.4,0,2,0.8,2,1.7c0,0.2-0.1,0.7-0.3,1.1c-2.8,4.1-6.8,15.5-6.8,23.6v0.6
				c0,8.2,4,19.1,6.7,23.3c0.1,0.3,0.4,0.9,0.4,1.1C235.7,242.1,235,242.9,233.7,242.9 M238.3,240.1c2.8-4.2,6.7-15.2,6.7-23.3v-0.6
				c0-8.2-4.1-19.5-6.8-23.6c-0.2-0.3-0.3-0.9-0.3-1.1c0-0.9,0.6-1.7,2-1.7h3.1c1.5,0,2,0.1,3,1.2c4.6,5.8,8.2,16.1,8.2,25.1v0.6
				c0,9.1-3.3,19.1-8,24.9c-0.8,1.1-1.4,1.3-2.9,1.3h-3.2c-1.4,0-2-0.8-2-1.7C237.9,241,238.1,240.4,238.3,240.1"/>
			<path id="white-dots" class="white" d="M81.7,108.7c0,5.3-0.3,10.4-0.8,15.4c-0.2,0-0.4,0.1-0.6,0.1c-5.3,0.6-10.6,0.8-16.1,0.8
				c-5.3,0-10.4-0.3-15.4-0.8c0-0.1-0.1-0.2-0.1-0.4c-0.6-5.1-0.8-10.3-0.8-15.7c0-5.5,0.3-10.8,0.8-16c5.3-0.5,10.7-0.8,16.2-0.9
				c5.4,0,10.6,0.3,15.8,0.8c0,0.2,0.1,0.4,0.1,0.6C81.4,97.9,81.7,103.2,81.7,108.7 M123.8,150.9c0-5.5-0.3-10.8-0.8-16
				c0-0.2,0-0.4-0.1-0.6c-5.2-0.5-10.4-0.8-15.8-0.8c-5.5,0.1-11,0.4-16.2,0.9c-0.6,5.2-0.8,10.5-0.8,16c0,5.3,0.3,10.5,0.8,15.7
				c0,0.1,0,0.3,0.1,0.4c5,0.5,10.1,0.8,15.4,0.8c5.5,0,10.8-0.3,16.1-0.8c0.2,0,0.4,0,0.6-0.1C123.5,161.2,123.8,156.1,123.8,150.9
				 M81.6,66.5c0-5.3-0.6-10.4-1.7-15.2c0-0.2-0.1-0.4-0.1-0.5c-4.7-1-9.7-1.5-14.9-1.5c-5.4,0.1-10.5,0.6-15.5,1.7
				c-1.1,4.8-1.6,9.9-1.6,15.2c0,5.2,0.5,10.1,1.6,14.9c0,0.1,0.1,0.2,0.1,0.4c4.7,1,9.5,1.5,14.7,1.5c5.3,0,10.4-0.6,15.2-1.7
				c0.2,0,0.3-0.1,0.5-0.1C81.1,76.4,81.6,71.5,81.6,66.5 M166,150.7c0-5.3-0.6-10.4-1.7-15.2c0-0.2-0.1-0.4-0.1-0.5
				c-4.7-1-9.7-1.5-14.9-1.5c-5.4,0.1-10.5,0.6-15.5,1.7c-1.1,4.8-1.6,9.9-1.6,15.2c0,5.2,0.5,10.1,1.6,14.9c0,0.1,0.1,0.2,0.1,0.4
				c4.7,1,9.5,1.5,14.7,1.5c5.3,0,10.4-0.6,15.2-1.7c0.2,0,0.4-0.1,0.5-0.1C165.4,160.7,165.9,155.8,166,150.7 M81.7,24.2
				c0-5.1-0.8-9.9-2.5-14.4c0-0.2-0.1-0.3-0.2-0.5C74.6,7.8,69.9,7,64.9,7c-5.2,0.1-10,0.9-14.5,2.5c-1.6,4.5-2.5,9.2-2.5,14.3
				c0,5,0.8,9.8,2.5,14.1c0,0.1,0.1,0.2,0.2,0.4c4.3,1.5,8.9,2.3,13.9,2.3c5.2,0,10-0.8,14.5-2.5c0.1-0.1,0.3-0.1,0.5-0.2
				C80.9,33.8,81.6,29.1,81.7,24.2 M123.8,66.4c0-5.1-0.8-9.9-2.5-14.4c0-0.2-0.1-0.3-0.2-0.5c-4.3-1.5-9-2.3-14.1-2.3
				c-5.2,0.1-10,0.9-14.5,2.5c-1.6,4.5-2.5,9.2-2.5,14.4c0,5,0.8,9.8,2.5,14.1c0,0.1,0.1,0.2,0.2,0.4c4.3,1.5,8.9,2.3,13.9,2.3
				c5.2,0,10-0.8,14.5-2.5c0.1-0.1,0.3-0.1,0.5-0.2C123,75.9,123.8,71.3,123.8,66.4 M166,108.5c0-5.1-0.8-9.9-2.5-14.4
				c0-0.2-0.1-0.3-0.2-0.5c-4.3-1.5-9-2.3-14.1-2.3c-5.2,0.1-10,0.9-14.5,2.5c-1.6,4.5-2.5,9.2-2.5,14.4c0,5,0.8,9.8,2.5,14.1
				c0,0.1,0.1,0.2,0.2,0.4c4.3,1.5,8.9,2.3,13.9,2.3c5.1,0,10-0.8,14.5-2.5c0.1-0.1,0.3-0.1,0.5-0.2
				C165.2,118,165.9,113.4,166,108.5 M208.1,150.6c0-5.1-0.8-9.9-2.5-14.4c0-0.2-0.1-0.3-0.2-0.5c-4.3-1.5-9-2.3-14.1-2.3
				c-5.2,0.1-10,0.9-14.5,2.5c-1.6,4.5-2.5,9.2-2.5,14.4c0,5,0.8,9.8,2.5,14.1c0,0.1,0.1,0.2,0.2,0.4c4.3,1.5,8.9,2.3,13.9,2.3
				c5.2,0,10-0.8,14.5-2.5c0.1-0.1,0.3-0.1,0.5-0.2C207.3,160.2,208.1,155.6,208.1,150.6 M123.8,24.1c0-4.9-1.1-9.4-3.3-13.5
				c-0.1-0.1-0.1-0.3-0.2-0.4c-4-2.1-8.5-3.1-13.3-3.1c-5,0-9.5,1.1-13.6,3.3c-2.2,4.1-3.3,8.6-3.3,13.5c0,4.9,1.1,9.4,3.3,13.5
				c0.1,0.1,0.1,0.2,0.2,0.3c4,2.1,8.4,3.1,13.2,3.1c4.9,0,9.5-1.1,13.6-3.3c0.1-0.1,0.3-0.1,0.4-0.2
				C122.7,33.3,123.8,28.9,123.8,24.1 M208.1,108.3c0-4.9-1.1-9.4-3.3-13.5c-0.1-0.1-0.1-0.3-0.2-0.4c-4-2.1-8.5-3.1-13.3-3.1
				c-5,0-9.5,1.1-13.6,3.3c-2.2,4.1-3.3,8.6-3.3,13.5c0,4.9,1,9.4,3.3,13.5c0.1,0.1,0.1,0.2,0.2,0.3c4,2.1,8.4,3.1,13.2,3.1
				c4.9,0,9.5-1.1,13.6-3.3c0.1-0.1,0.3-0.1,0.4-0.2C207,117.6,208.1,113.2,208.1,108.3 M166,23.9c0-4.8-1.4-9-4.2-12.8
				c-0.1-0.1-0.2-0.2-0.3-0.4c-3.6-2.6-7.7-3.8-12.4-3.8c-4.9,0-9.1,1.4-12.8,4.1c-2.7,3.7-4.1,8-4.1,12.7c0,4.8,1.3,9,4,12.7
				c0.1,0.1,0.2,0.2,0.3,0.4c3.6,2.6,7.8,3.8,12.5,3.8c4.8,0,9-1.3,12.7-4.1c0.1-0.1,0.2-0.2,0.4-0.3
				C164.6,32.8,165.9,28.6,166,23.9 M208.1,66.1c0-4.8-1.4-9-4.2-12.8c-0.1-0.1-0.2-0.2-0.3-0.4c-3.6-2.6-7.7-3.8-12.4-3.8
				c-4.9,0-9.1,1.4-12.8,4.1c-2.7,3.7-4.1,8-4.1,12.7c0,4.8,1.3,9,4,12.7c0.1,0.1,0.2,0.2,0.3,0.4c3.6,2.6,7.8,3.8,12.5,3.8
				c4.8,0,9-1.3,12.7-4.1c0.1-0.1,0.2-0.2,0.4-0.3C206.7,74.9,208,70.8,208.1,66.1"/>
			<path id="blue-dots" class="st2" d="M208.1,23.9c0,9.3-7.5,16.9-16.9,16.9c-9.3,0-16.9-7.5-16.9-16.9c0-9.3,7.5-16.9,16.9-16.9
				C200.5,7,208.1,14.5,208.1,23.9 M166,66.2c0-4.9-1.1-9.4-3.3-13.5c-0.1-0.1-0.1-0.3-0.2-0.4c-4-2.1-8.5-3.1-13.3-3.1
				c-5,0-9.6,1.1-13.6,3.3c-2.2,4.1-3.3,8.6-3.3,13.5c0,4.9,1.1,9.4,3.3,13.5c0.1,0.1,0.1,0.2,0.2,0.3c4,2.1,8.4,3.1,13.2,3.1
				c4.9,0,9.5-1.1,13.6-3.3c0.1-0.1,0.3-0.1,0.4-0.2C164.9,75.4,165.9,71,166,66.2 M123.8,108.6c0-5.3-0.6-10.4-1.7-15.2
				c0-0.2-0.1-0.4-0.1-0.5c-4.7-1-9.7-1.5-14.9-1.5c-5.4,0.1-10.5,0.6-15.5,1.7c-1.1,4.8-1.6,9.9-1.6,15.2c0,5.2,0.5,10.1,1.6,14.9
				c0,0.1,0.1,0.2,0.1,0.4c4.7,1,9.6,1.5,14.7,1.5c5.3,0,10.4-0.6,15.2-1.7c0.2,0,0.4-0.1,0.5-0.1
				C123.2,118.5,123.8,113.7,123.8,108.6 M81.6,150.3v-8.4v-8.4h-8.4h-8.4H47.9v8.4v8.4v16.9h16.9h8.4h8.4V150.3z"/>
		</g>
	</g>

</svg>
