<?xml version="1.0" encoding="utf-8"?>
<svg xmlns="http://www.w3.org/2000/svg" xmlns:xlink="http://www.w3.org/1999/xlink" style="margin: auto; display: block; shape-rendering: auto;" width="200px" height="200px" viewBox="0 0 100 100" preserveAspectRatio="xMidYMid">
<g transform="rotate(0 50 50)">
  <rect x="47" y="24" rx="3" ry="6" width="6" height="12" fill="#1b31ff">
    <animate attributeName="opacity" values="1;0" keyTimes="0;1" dur="1.8518518518518516s" begin="-1.6975308641975309s" repeatCount="indefinite"></animate>
  </rect>
</g><g transform="rotate(30 50 50)">
  <rect x="47" y="24" rx="3" ry="6" width="6" height="12" fill="#1b31ff">
    <animate attributeName="opacity" values="1;0" keyTimes="0;1" dur="1.8518518518518516s" begin="-1.5432098765432098s" repeatCount="indefinite"></animate>
  </rect>
</g><g transform="rotate(60 50 50)">
  <rect x="47" y="24" rx="3" ry="6" width="6" height="12" fill="#1b31ff">
    <animate attributeName="opacity" values="1;0" keyTimes="0;1" dur="1.8518518518518516s" begin="-1.3888888888888888s" repeatCount="indefinite"></animate>
  </rect>
</g><g transform="rotate(90 50 50)">
  <rect x="47" y="24" rx="3" ry="6" width="6" height="12" fill="#1b31ff">
    <animate attributeName="opacity" values="1;0" keyTimes="0;1" dur="1.8518518518518516s" begin="-1.2345679012345678s" repeatCount="indefinite"></animate>
  </rect>
</g><g transform="rotate(120 50 50)">
  <rect x="47" y="24" rx="3" ry="6" width="6" height="12" fill="#1b31ff">
    <animate attributeName="opacity" values="1;0" keyTimes="0;1" dur="1.8518518518518516s" begin="-1.0802469135802468s" repeatCount="indefinite"></animate>
  </rect>
</g><g transform="rotate(150 50 50)">
  <rect x="47" y="24" rx="3" ry="6" width="6" height="12" fill="#1b31ff">
    <animate attributeName="opacity" values="1;0" keyTimes="0;1" dur="1.8518518518518516s" begin="-0.9259259259259258s" repeatCount="indefinite"></animate>
  </rect>
</g><g transform="rotate(180 50 50)">
  <rect x="47" y="24" rx="3" ry="6" width="6" height="12" fill="#1b31ff">
    <animate attributeName="opacity" values="1;0" keyTimes="0;1" dur="1.8518518518518516s" begin="-0.7716049382716049s" repeatCount="indefinite"></animate>
  </rect>
</g><g transform="rotate(210 50 50)">
  <rect x="47" y="24" rx="3" ry="6" width="6" height="12" fill="#1b31ff">
    <animate attributeName="opacity" values="1;0" keyTimes="0;1" dur="1.8518518518518516s" begin="-0.6172839506172839s" repeatCount="indefinite"></animate>
  </rect>
</g><g transform="rotate(240 50 50)">
  <rect x="47" y="24" rx="3" ry="6" width="6" height="12" fill="#1b31ff">
    <animate attributeName="opacity" values="1;0" keyTimes="0;1" dur="1.8518518518518516s" begin="-0.4629629629629629s" repeatCount="indefinite"></animate>
  </rect>
</g><g transform="rotate(270 50 50)">
  <rect x="47" y="24" rx="3" ry="6" width="6" height="12" fill="#1b31ff">
    <animate attributeName="opacity" values="1;0" keyTimes="0;1" dur="1.8518518518518516s" begin="-0.30864197530864196s" repeatCount="indefinite"></animate>
  </rect>
</g><g transform="rotate(300 50 50)">
  <rect x="47" y="24" rx="3" ry="6" width="6" height="12" fill="#1b31ff">
    <animate attributeName="opacity" values="1;0" keyTimes="0;1" dur="1.8518518518518516s" begin="-0.15432098765432098s" repeatCount="indefinite"></animate>
  </rect>
</g><g transform="rotate(330 50 50)">
  <rect x="47" y="24" rx="3" ry="6" width="6" height="12" fill="#1b31ff">
    <animate attributeName="opacity" values="1;0" keyTimes="0;1" dur="1.8518518518518516s" begin="0s" repeatCount="indefinite"></animate>
  </rect>
</g>
</svg>